%TF.GenerationSoftware,KiCad,Pcbnew,5.1.4-e60b266~84~ubuntu18.04.1*%
%TF.CreationDate,2019-11-04T19:33:46+01:00*%
%TF.ProjectId,FHSHat,46485348-6174-42e6-9b69-6361645f7063,rev?*%
%TF.SameCoordinates,Original*%
%TF.FileFunction,Soldermask,Bot*%
%TF.FilePolarity,Negative*%
%FSLAX46Y46*%
G04 Gerber Fmt 4.6, Leading zero omitted, Abs format (unit mm)*
G04 Created by KiCad (PCBNEW 5.1.4-e60b266~84~ubuntu18.04.1) date 2019-11-04 19:33:46*
%MOMM*%
%LPD*%
G04 APERTURE LIST*
%ADD10C,0.100000*%
%ADD11C,0.150000*%
G04 APERTURE END LIST*
D10*
X78546356Y-63817611D02*
X78546356Y-113817611D01*
X78546356Y-63817611D02*
G75*
G02X81546356Y-60817611I3000000J0D01*
G01*
X140546356Y-60817611D02*
X81546356Y-60817611D01*
X140546356Y-60817611D02*
G75*
G02X143546356Y-63817611I0J-3000000D01*
G01*
X143546356Y-113817611D02*
X143546356Y-63817611D01*
X81546356Y-116817611D02*
G75*
G02X78546356Y-113817611I0J3000000D01*
G01*
X81546356Y-116817611D02*
X140546356Y-116817611D01*
X143546351Y-113822847D02*
G75*
G02X140546356Y-116817611I-2999995J5236D01*
G01*
D11*
G36*
X82506703Y-111781486D02*
G01*
X82797883Y-111902097D01*
X83059940Y-112077198D01*
X83282802Y-112300060D01*
X83457903Y-112562117D01*
X83578514Y-112853297D01*
X83640000Y-113162412D01*
X83640000Y-113477588D01*
X83578514Y-113786703D01*
X83457903Y-114077883D01*
X83282802Y-114339940D01*
X83059940Y-114562802D01*
X82797883Y-114737903D01*
X82506703Y-114858514D01*
X82197588Y-114920000D01*
X81882412Y-114920000D01*
X81573297Y-114858514D01*
X81282117Y-114737903D01*
X81020060Y-114562802D01*
X80797198Y-114339940D01*
X80622097Y-114077883D01*
X80501486Y-113786703D01*
X80440000Y-113477588D01*
X80440000Y-113162412D01*
X80501486Y-112853297D01*
X80622097Y-112562117D01*
X80797198Y-112300060D01*
X81020060Y-112077198D01*
X81282117Y-111902097D01*
X81573297Y-111781486D01*
X81882412Y-111720000D01*
X82197588Y-111720000D01*
X82506703Y-111781486D01*
X82506703Y-111781486D01*
G37*
G36*
X140496703Y-111771486D02*
G01*
X140787883Y-111892097D01*
X141049940Y-112067198D01*
X141272802Y-112290060D01*
X141447903Y-112552117D01*
X141568514Y-112843297D01*
X141630000Y-113152412D01*
X141630000Y-113467588D01*
X141568514Y-113776703D01*
X141447903Y-114067883D01*
X141272802Y-114329940D01*
X141049940Y-114552802D01*
X140787883Y-114727903D01*
X140496703Y-114848514D01*
X140187588Y-114910000D01*
X139872412Y-114910000D01*
X139563297Y-114848514D01*
X139272117Y-114727903D01*
X139010060Y-114552802D01*
X138787198Y-114329940D01*
X138612097Y-114067883D01*
X138491486Y-113776703D01*
X138430000Y-113467588D01*
X138430000Y-113152412D01*
X138491486Y-112843297D01*
X138612097Y-112552117D01*
X138787198Y-112290060D01*
X139010060Y-112067198D01*
X139272117Y-111892097D01*
X139563297Y-111771486D01*
X139872412Y-111710000D01*
X140187588Y-111710000D01*
X140496703Y-111771486D01*
X140496703Y-111771486D01*
G37*
G36*
X114553617Y-111674979D02*
G01*
X114679196Y-111699958D01*
X114846486Y-111769252D01*
X114876022Y-111781486D01*
X114915781Y-111797955D01*
X115128702Y-111940224D01*
X115309776Y-112121298D01*
X115452045Y-112334219D01*
X115550042Y-112570804D01*
X115600000Y-112821961D01*
X115600000Y-113078039D01*
X115550042Y-113329196D01*
X115452045Y-113565781D01*
X115309776Y-113778702D01*
X115128702Y-113959776D01*
X114915781Y-114102045D01*
X114679196Y-114200042D01*
X114553617Y-114225021D01*
X114428040Y-114250000D01*
X114171960Y-114250000D01*
X114046383Y-114225021D01*
X113920804Y-114200042D01*
X113684219Y-114102045D01*
X113471298Y-113959776D01*
X113290224Y-113778702D01*
X113147955Y-113565781D01*
X113049958Y-113329196D01*
X113000000Y-113078039D01*
X113000000Y-112821961D01*
X113049958Y-112570804D01*
X113147955Y-112334219D01*
X113290224Y-112121298D01*
X113471298Y-111940224D01*
X113684219Y-111797955D01*
X113723979Y-111781486D01*
X113753514Y-111769252D01*
X113920804Y-111699958D01*
X114046383Y-111674979D01*
X114171960Y-111650000D01*
X114428040Y-111650000D01*
X114553617Y-111674979D01*
X114553617Y-111674979D01*
G37*
G36*
X105663617Y-111674979D02*
G01*
X105789196Y-111699958D01*
X105956486Y-111769252D01*
X105986022Y-111781486D01*
X106025781Y-111797955D01*
X106238702Y-111940224D01*
X106419776Y-112121298D01*
X106562045Y-112334219D01*
X106660042Y-112570804D01*
X106710000Y-112821961D01*
X106710000Y-113078039D01*
X106660042Y-113329196D01*
X106562045Y-113565781D01*
X106419776Y-113778702D01*
X106238702Y-113959776D01*
X106025781Y-114102045D01*
X105789196Y-114200042D01*
X105663617Y-114225021D01*
X105538040Y-114250000D01*
X105281960Y-114250000D01*
X105156383Y-114225021D01*
X105030804Y-114200042D01*
X104794219Y-114102045D01*
X104581298Y-113959776D01*
X104400224Y-113778702D01*
X104257955Y-113565781D01*
X104159958Y-113329196D01*
X104110000Y-113078039D01*
X104110000Y-112821961D01*
X104159958Y-112570804D01*
X104257955Y-112334219D01*
X104400224Y-112121298D01*
X104581298Y-111940224D01*
X104794219Y-111797955D01*
X104833979Y-111781486D01*
X104863514Y-111769252D01*
X105030804Y-111699958D01*
X105156383Y-111674979D01*
X105281960Y-111650000D01*
X105538040Y-111650000D01*
X105663617Y-111674979D01*
X105663617Y-111674979D01*
G37*
G36*
X133816703Y-110221486D02*
G01*
X134107883Y-110342097D01*
X134369940Y-110517198D01*
X134592802Y-110740060D01*
X134767903Y-111002117D01*
X134888514Y-111293297D01*
X134950000Y-111602412D01*
X134950000Y-111917588D01*
X134888514Y-112226703D01*
X134767903Y-112517883D01*
X134592802Y-112779940D01*
X134369940Y-113002802D01*
X134107883Y-113177903D01*
X133816703Y-113298514D01*
X133507588Y-113360000D01*
X133192412Y-113360000D01*
X132883297Y-113298514D01*
X132592117Y-113177903D01*
X132330060Y-113002802D01*
X132107198Y-112779940D01*
X131932097Y-112517883D01*
X131811486Y-112226703D01*
X131750000Y-111917588D01*
X131750000Y-111602412D01*
X131811486Y-111293297D01*
X131932097Y-111002117D01*
X132107198Y-110740060D01*
X132330060Y-110517198D01*
X132592117Y-110342097D01*
X132883297Y-110221486D01*
X133192412Y-110160000D01*
X133507588Y-110160000D01*
X133816703Y-110221486D01*
X133816703Y-110221486D01*
G37*
G36*
X129870000Y-113360000D02*
G01*
X126670000Y-113360000D01*
X126670000Y-110160000D01*
X129870000Y-110160000D01*
X129870000Y-113360000D01*
X129870000Y-113360000D01*
G37*
G36*
X95716703Y-110221486D02*
G01*
X96007883Y-110342097D01*
X96269940Y-110517198D01*
X96492802Y-110740060D01*
X96667903Y-111002117D01*
X96788514Y-111293297D01*
X96850000Y-111602412D01*
X96850000Y-111917588D01*
X96788514Y-112226703D01*
X96667903Y-112517883D01*
X96492802Y-112779940D01*
X96269940Y-113002802D01*
X96007883Y-113177903D01*
X95716703Y-113298514D01*
X95407588Y-113360000D01*
X95092412Y-113360000D01*
X94783297Y-113298514D01*
X94492117Y-113177903D01*
X94230060Y-113002802D01*
X94007198Y-112779940D01*
X93832097Y-112517883D01*
X93711486Y-112226703D01*
X93650000Y-111917588D01*
X93650000Y-111602412D01*
X93711486Y-111293297D01*
X93832097Y-111002117D01*
X94007198Y-110740060D01*
X94230060Y-110517198D01*
X94492117Y-110342097D01*
X94783297Y-110221486D01*
X95092412Y-110160000D01*
X95407588Y-110160000D01*
X95716703Y-110221486D01*
X95716703Y-110221486D01*
G37*
G36*
X91770000Y-113360000D02*
G01*
X88570000Y-113360000D01*
X88570000Y-110160000D01*
X91770000Y-110160000D01*
X91770000Y-113360000D01*
X91770000Y-113360000D01*
G37*
G36*
X114679196Y-106699958D02*
G01*
X114915781Y-106797955D01*
X115128702Y-106940224D01*
X115309776Y-107121298D01*
X115452045Y-107334219D01*
X115550042Y-107570804D01*
X115600000Y-107821961D01*
X115600000Y-108078039D01*
X115550042Y-108329196D01*
X115452045Y-108565781D01*
X115309776Y-108778702D01*
X115128702Y-108959776D01*
X114915781Y-109102045D01*
X114679196Y-109200042D01*
X114428040Y-109250000D01*
X114171960Y-109250000D01*
X113920804Y-109200042D01*
X113684219Y-109102045D01*
X113471298Y-108959776D01*
X113290224Y-108778702D01*
X113147955Y-108565781D01*
X113049958Y-108329196D01*
X113000000Y-108078039D01*
X113000000Y-107821961D01*
X113049958Y-107570804D01*
X113147955Y-107334219D01*
X113290224Y-107121298D01*
X113471298Y-106940224D01*
X113684219Y-106797955D01*
X113920804Y-106699958D01*
X114171960Y-106650000D01*
X114428040Y-106650000D01*
X114679196Y-106699958D01*
X114679196Y-106699958D01*
G37*
G36*
X105789196Y-106699958D02*
G01*
X106025781Y-106797955D01*
X106238702Y-106940224D01*
X106419776Y-107121298D01*
X106562045Y-107334219D01*
X106660042Y-107570804D01*
X106710000Y-107821961D01*
X106710000Y-108078039D01*
X106660042Y-108329196D01*
X106562045Y-108565781D01*
X106419776Y-108778702D01*
X106238702Y-108959776D01*
X106025781Y-109102045D01*
X105789196Y-109200042D01*
X105538040Y-109250000D01*
X105281960Y-109250000D01*
X105030804Y-109200042D01*
X104794219Y-109102045D01*
X104581298Y-108959776D01*
X104400224Y-108778702D01*
X104257955Y-108565781D01*
X104159958Y-108329196D01*
X104110000Y-108078039D01*
X104110000Y-107821961D01*
X104159958Y-107570804D01*
X104257955Y-107334219D01*
X104400224Y-107121298D01*
X104581298Y-106940224D01*
X104794219Y-106797955D01*
X105030804Y-106699958D01*
X105281960Y-106650000D01*
X105538040Y-106650000D01*
X105789196Y-106699958D01*
X105789196Y-106699958D01*
G37*
G36*
X83700000Y-104020000D02*
G01*
X82725839Y-104020000D01*
X82701453Y-104022402D01*
X82678004Y-104029515D01*
X82656393Y-104041066D01*
X82637451Y-104056611D01*
X82621906Y-104075553D01*
X82610355Y-104097164D01*
X82603242Y-104120613D01*
X82600840Y-104144999D01*
X82603242Y-104169385D01*
X82610355Y-104192834D01*
X82621906Y-104214445D01*
X82637451Y-104233387D01*
X82656393Y-104248932D01*
X82678004Y-104260483D01*
X82701454Y-104267596D01*
X82885443Y-104304194D01*
X83094729Y-104390884D01*
X83283082Y-104516737D01*
X83443263Y-104676918D01*
X83569116Y-104865271D01*
X83655806Y-105074557D01*
X83700000Y-105296735D01*
X83700000Y-105523265D01*
X83655806Y-105745443D01*
X83569116Y-105954729D01*
X83443263Y-106143082D01*
X83283082Y-106303263D01*
X83094729Y-106429116D01*
X82885443Y-106515806D01*
X82737324Y-106545269D01*
X82663266Y-106560000D01*
X82436734Y-106560000D01*
X82362676Y-106545269D01*
X82214557Y-106515806D01*
X82005271Y-106429116D01*
X81816918Y-106303263D01*
X81656737Y-106143082D01*
X81530884Y-105954729D01*
X81444194Y-105745443D01*
X81400000Y-105523265D01*
X81400000Y-105296735D01*
X81444194Y-105074557D01*
X81530884Y-104865271D01*
X81656737Y-104676918D01*
X81816918Y-104516737D01*
X82005271Y-104390884D01*
X82214557Y-104304194D01*
X82398546Y-104267596D01*
X82421996Y-104260483D01*
X82443607Y-104248932D01*
X82462549Y-104233386D01*
X82478094Y-104214444D01*
X82489645Y-104192834D01*
X82496758Y-104169385D01*
X82499160Y-104144999D01*
X82496758Y-104120613D01*
X82489645Y-104097164D01*
X82478094Y-104075553D01*
X82462548Y-104056611D01*
X82443606Y-104041066D01*
X82421996Y-104029515D01*
X82398547Y-104022402D01*
X82374161Y-104020000D01*
X81400000Y-104020000D01*
X81400000Y-101720000D01*
X83700000Y-101720000D01*
X83700000Y-104020000D01*
X83700000Y-104020000D01*
G37*
G36*
X127034646Y-103729533D02*
G01*
X127289122Y-103806728D01*
X127523649Y-103932085D01*
X127729213Y-104100787D01*
X127897915Y-104306351D01*
X128023272Y-104540878D01*
X128100467Y-104795354D01*
X128126532Y-105060000D01*
X128100467Y-105324646D01*
X128023272Y-105579122D01*
X127897915Y-105813649D01*
X127729213Y-106019213D01*
X127523649Y-106187915D01*
X127289122Y-106313272D01*
X127034646Y-106390467D01*
X126836321Y-106410000D01*
X126703679Y-106410000D01*
X126505354Y-106390467D01*
X126250878Y-106313272D01*
X126016351Y-106187915D01*
X125810787Y-106019213D01*
X125642085Y-105813649D01*
X125516728Y-105579122D01*
X125439533Y-105324646D01*
X125413468Y-105060000D01*
X125439533Y-104795354D01*
X125516728Y-104540878D01*
X125642085Y-104306351D01*
X125810787Y-104100787D01*
X126016351Y-103932085D01*
X126250878Y-103806728D01*
X126505354Y-103729533D01*
X126703679Y-103710000D01*
X126836321Y-103710000D01*
X127034646Y-103729533D01*
X127034646Y-103729533D01*
G37*
G36*
X139234646Y-103729533D02*
G01*
X139489122Y-103806728D01*
X139723649Y-103932085D01*
X139929213Y-104100787D01*
X140097915Y-104306351D01*
X140223272Y-104540878D01*
X140300467Y-104795354D01*
X140326532Y-105060000D01*
X140300467Y-105324646D01*
X140223272Y-105579122D01*
X140097915Y-105813649D01*
X139929213Y-106019213D01*
X139723649Y-106187915D01*
X139489122Y-106313272D01*
X139234646Y-106390467D01*
X139036321Y-106410000D01*
X138903679Y-106410000D01*
X138705354Y-106390467D01*
X138450878Y-106313272D01*
X138216351Y-106187915D01*
X138010787Y-106019213D01*
X137842085Y-105813649D01*
X137716728Y-105579122D01*
X137639533Y-105324646D01*
X137613468Y-105060000D01*
X137639533Y-104795354D01*
X137716728Y-104540878D01*
X137842085Y-104306351D01*
X138010787Y-104100787D01*
X138216351Y-103932085D01*
X138450878Y-103806728D01*
X138705354Y-103729533D01*
X138903679Y-103710000D01*
X139036321Y-103710000D01*
X139234646Y-103729533D01*
X139234646Y-103729533D01*
G37*
G36*
X142320000Y-100410000D02*
G01*
X139620000Y-100410000D01*
X139620000Y-97710000D01*
X142320000Y-97710000D01*
X142320000Y-100410000D01*
X142320000Y-100410000D01*
G37*
G36*
X96686759Y-96098199D02*
G01*
X96853258Y-96114598D01*
X97173709Y-96211806D01*
X97173712Y-96211807D01*
X97469035Y-96369660D01*
X97727897Y-96582103D01*
X97940340Y-96840965D01*
X98098193Y-97136288D01*
X98098194Y-97136291D01*
X98195402Y-97456742D01*
X98228225Y-97790000D01*
X98195402Y-98123258D01*
X98098194Y-98443709D01*
X98098193Y-98443712D01*
X97940340Y-98739035D01*
X97727897Y-98997897D01*
X97469035Y-99210340D01*
X97173712Y-99368193D01*
X97173709Y-99368194D01*
X96853258Y-99465402D01*
X96686759Y-99481801D01*
X96603511Y-99490000D01*
X96436489Y-99490000D01*
X96353241Y-99481801D01*
X96186742Y-99465402D01*
X95866291Y-99368194D01*
X95866288Y-99368193D01*
X95570965Y-99210340D01*
X95312103Y-98997897D01*
X95099660Y-98739035D01*
X94941807Y-98443712D01*
X94941806Y-98443709D01*
X94844598Y-98123258D01*
X94811775Y-97790000D01*
X94844598Y-97456742D01*
X94941806Y-97136291D01*
X94941807Y-97136288D01*
X95099660Y-96840965D01*
X95312103Y-96582103D01*
X95570965Y-96369660D01*
X95866288Y-96211807D01*
X95866291Y-96211806D01*
X96186742Y-96114598D01*
X96353241Y-96098199D01*
X96436489Y-96090000D01*
X96603511Y-96090000D01*
X96686759Y-96098199D01*
X96686759Y-96098199D01*
G37*
G36*
X82980000Y-99490000D02*
G01*
X79580000Y-99490000D01*
X79580000Y-96090000D01*
X82980000Y-96090000D01*
X82980000Y-99490000D01*
X82980000Y-99490000D01*
G37*
G36*
X127034646Y-91729533D02*
G01*
X127289122Y-91806728D01*
X127523649Y-91932085D01*
X127729213Y-92100787D01*
X127897915Y-92306351D01*
X128023272Y-92540878D01*
X128100467Y-92795354D01*
X128126532Y-93060000D01*
X128100467Y-93324646D01*
X128023272Y-93579122D01*
X127897915Y-93813649D01*
X127729213Y-94019213D01*
X127523649Y-94187915D01*
X127289122Y-94313272D01*
X127034646Y-94390467D01*
X126836321Y-94410000D01*
X126703679Y-94410000D01*
X126505354Y-94390467D01*
X126250878Y-94313272D01*
X126016351Y-94187915D01*
X125810787Y-94019213D01*
X125642085Y-93813649D01*
X125516728Y-93579122D01*
X125439533Y-93324646D01*
X125413468Y-93060000D01*
X125439533Y-92795354D01*
X125516728Y-92540878D01*
X125642085Y-92306351D01*
X125810787Y-92100787D01*
X126016351Y-91932085D01*
X126250878Y-91806728D01*
X126505354Y-91729533D01*
X126703679Y-91710000D01*
X126836321Y-91710000D01*
X127034646Y-91729533D01*
X127034646Y-91729533D01*
G37*
G36*
X139234646Y-91729533D02*
G01*
X139489122Y-91806728D01*
X139723649Y-91932085D01*
X139929213Y-92100787D01*
X140097915Y-92306351D01*
X140223272Y-92540878D01*
X140300467Y-92795354D01*
X140326532Y-93060000D01*
X140300467Y-93324646D01*
X140223272Y-93579122D01*
X140097915Y-93813649D01*
X139929213Y-94019213D01*
X139723649Y-94187915D01*
X139489122Y-94313272D01*
X139234646Y-94390467D01*
X139036321Y-94410000D01*
X138903679Y-94410000D01*
X138705354Y-94390467D01*
X138450878Y-94313272D01*
X138216351Y-94187915D01*
X138010787Y-94019213D01*
X137842085Y-93813649D01*
X137716728Y-93579122D01*
X137639533Y-93324646D01*
X137613468Y-93060000D01*
X137639533Y-92795354D01*
X137716728Y-92540878D01*
X137842085Y-92306351D01*
X138010787Y-92100787D01*
X138216351Y-91932085D01*
X138450878Y-91806728D01*
X138705354Y-91729533D01*
X138903679Y-91710000D01*
X139036321Y-91710000D01*
X139234646Y-91729533D01*
X139234646Y-91729533D01*
G37*
G36*
X96686759Y-89748199D02*
G01*
X96853258Y-89764598D01*
X97173709Y-89861806D01*
X97173712Y-89861807D01*
X97469035Y-90019660D01*
X97727897Y-90232103D01*
X97940340Y-90490965D01*
X98098193Y-90786288D01*
X98098194Y-90786291D01*
X98195402Y-91106742D01*
X98228225Y-91440000D01*
X98195402Y-91773258D01*
X98185248Y-91806730D01*
X98098193Y-92093712D01*
X97940340Y-92389035D01*
X97940338Y-92389038D01*
X97940337Y-92389039D01*
X97727897Y-92647897D01*
X97469035Y-92860340D01*
X97173712Y-93018193D01*
X97173709Y-93018194D01*
X96853258Y-93115402D01*
X96686759Y-93131801D01*
X96603511Y-93140000D01*
X96436489Y-93140000D01*
X96353241Y-93131801D01*
X96186742Y-93115402D01*
X95866291Y-93018194D01*
X95866288Y-93018193D01*
X95570965Y-92860340D01*
X95312103Y-92647897D01*
X95099663Y-92389039D01*
X95099662Y-92389038D01*
X95099660Y-92389035D01*
X94941807Y-92093712D01*
X94854752Y-91806730D01*
X94844598Y-91773258D01*
X94811775Y-91440000D01*
X94844598Y-91106742D01*
X94941806Y-90786291D01*
X94941807Y-90786288D01*
X95099660Y-90490965D01*
X95312103Y-90232103D01*
X95570965Y-90019660D01*
X95866288Y-89861807D01*
X95866291Y-89861806D01*
X96186742Y-89764598D01*
X96353241Y-89748199D01*
X96436489Y-89740000D01*
X96603511Y-89740000D01*
X96686759Y-89748199D01*
X96686759Y-89748199D01*
G37*
G36*
X82980000Y-93140000D02*
G01*
X79580000Y-93140000D01*
X79580000Y-89740000D01*
X82980000Y-89740000D01*
X82980000Y-93140000D01*
X82980000Y-93140000D01*
G37*
G36*
X140850000Y-80525000D02*
G01*
X139875839Y-80525000D01*
X139851453Y-80527402D01*
X139828004Y-80534515D01*
X139806393Y-80546066D01*
X139787451Y-80561611D01*
X139771906Y-80580553D01*
X139760355Y-80602164D01*
X139753242Y-80625613D01*
X139750840Y-80649999D01*
X139753242Y-80674385D01*
X139760355Y-80697834D01*
X139771906Y-80719445D01*
X139787451Y-80738387D01*
X139806393Y-80753932D01*
X139828004Y-80765483D01*
X139851454Y-80772596D01*
X140035443Y-80809194D01*
X140244729Y-80895884D01*
X140433082Y-81021737D01*
X140593263Y-81181918D01*
X140719116Y-81370271D01*
X140805806Y-81579557D01*
X140850000Y-81801735D01*
X140850000Y-82028265D01*
X140805806Y-82250443D01*
X140719116Y-82459729D01*
X140593263Y-82648082D01*
X140433082Y-82808263D01*
X140244729Y-82934116D01*
X140035443Y-83020806D01*
X139887324Y-83050269D01*
X139813266Y-83065000D01*
X139586734Y-83065000D01*
X139512676Y-83050269D01*
X139364557Y-83020806D01*
X139155271Y-82934116D01*
X138966918Y-82808263D01*
X138806737Y-82648082D01*
X138680884Y-82459729D01*
X138594194Y-82250443D01*
X138550000Y-82028265D01*
X138550000Y-81801735D01*
X138594194Y-81579557D01*
X138680884Y-81370271D01*
X138806737Y-81181918D01*
X138966918Y-81021737D01*
X139155271Y-80895884D01*
X139364557Y-80809194D01*
X139548546Y-80772596D01*
X139571996Y-80765483D01*
X139593607Y-80753932D01*
X139612549Y-80738386D01*
X139628094Y-80719444D01*
X139639645Y-80697834D01*
X139646758Y-80674385D01*
X139649160Y-80649999D01*
X139646758Y-80625613D01*
X139639645Y-80602164D01*
X139628094Y-80580553D01*
X139612548Y-80561611D01*
X139593606Y-80546066D01*
X139571996Y-80534515D01*
X139548547Y-80527402D01*
X139524161Y-80525000D01*
X138550000Y-80525000D01*
X138550000Y-78225000D01*
X140850000Y-78225000D01*
X140850000Y-80525000D01*
X140850000Y-80525000D01*
G37*
G36*
X101346999Y-77451881D02*
G01*
X101457095Y-77485279D01*
X101558560Y-77539514D01*
X101647498Y-77612502D01*
X101720486Y-77701440D01*
X101774721Y-77802905D01*
X101808119Y-77913001D01*
X101820000Y-78033640D01*
X101820000Y-79446360D01*
X101808119Y-79566999D01*
X101774721Y-79677095D01*
X101720486Y-79778560D01*
X101647498Y-79867498D01*
X101558560Y-79940486D01*
X101457095Y-79994721D01*
X101346999Y-80028119D01*
X101226360Y-80040000D01*
X99813640Y-80040000D01*
X99693001Y-80028119D01*
X99582905Y-79994721D01*
X99481440Y-79940486D01*
X99392502Y-79867498D01*
X99319514Y-79778560D01*
X99265279Y-79677095D01*
X99231881Y-79566999D01*
X99220000Y-79446360D01*
X99220000Y-78033640D01*
X99231881Y-77913001D01*
X99265279Y-77802905D01*
X99319514Y-77701440D01*
X99392502Y-77612502D01*
X99481440Y-77539514D01*
X99582905Y-77485279D01*
X99693001Y-77451881D01*
X99813640Y-77440000D01*
X101226360Y-77440000D01*
X101346999Y-77451881D01*
X101346999Y-77451881D01*
G37*
G36*
X111760831Y-77452490D02*
G01*
X111949196Y-77489958D01*
X112185781Y-77587955D01*
X112398702Y-77730224D01*
X112579776Y-77911298D01*
X112722045Y-78124219D01*
X112820042Y-78360804D01*
X112870000Y-78611961D01*
X112870000Y-78868039D01*
X112820042Y-79119196D01*
X112722045Y-79355781D01*
X112579776Y-79568702D01*
X112398702Y-79749776D01*
X112185781Y-79892045D01*
X111949196Y-79990042D01*
X111698040Y-80040000D01*
X111441960Y-80040000D01*
X111190804Y-79990042D01*
X110954219Y-79892045D01*
X110741298Y-79749776D01*
X110560224Y-79568702D01*
X110417955Y-79355781D01*
X110319958Y-79119196D01*
X110270000Y-78868039D01*
X110270000Y-78611961D01*
X110319958Y-78360804D01*
X110417955Y-78124219D01*
X110560224Y-77911298D01*
X110741298Y-77730224D01*
X110954219Y-77587955D01*
X111190804Y-77489958D01*
X111379169Y-77452490D01*
X111441960Y-77440000D01*
X111698040Y-77440000D01*
X111760831Y-77452490D01*
X111760831Y-77452490D01*
G37*
G36*
X92710831Y-77452490D02*
G01*
X92899196Y-77489958D01*
X93135781Y-77587955D01*
X93348702Y-77730224D01*
X93529776Y-77911298D01*
X93672045Y-78124219D01*
X93770042Y-78360804D01*
X93820000Y-78611961D01*
X93820000Y-78868039D01*
X93770042Y-79119196D01*
X93672045Y-79355781D01*
X93529776Y-79568702D01*
X93348702Y-79749776D01*
X93135781Y-79892045D01*
X92899196Y-79990042D01*
X92648040Y-80040000D01*
X92391960Y-80040000D01*
X92140804Y-79990042D01*
X91904219Y-79892045D01*
X91691298Y-79749776D01*
X91510224Y-79568702D01*
X91367955Y-79355781D01*
X91269958Y-79119196D01*
X91220000Y-78868039D01*
X91220000Y-78611961D01*
X91269958Y-78360804D01*
X91367955Y-78124219D01*
X91510224Y-77911298D01*
X91691298Y-77730224D01*
X91904219Y-77587955D01*
X92140804Y-77489958D01*
X92329169Y-77452490D01*
X92391960Y-77440000D01*
X92648040Y-77440000D01*
X92710831Y-77452490D01*
X92710831Y-77452490D01*
G37*
G36*
X120396999Y-77451881D02*
G01*
X120507095Y-77485279D01*
X120608560Y-77539514D01*
X120697498Y-77612502D01*
X120770486Y-77701440D01*
X120824721Y-77802905D01*
X120858119Y-77913001D01*
X120870000Y-78033640D01*
X120870000Y-79446360D01*
X120858119Y-79566999D01*
X120824721Y-79677095D01*
X120770486Y-79778560D01*
X120697498Y-79867498D01*
X120608560Y-79940486D01*
X120507095Y-79994721D01*
X120396999Y-80028119D01*
X120276360Y-80040000D01*
X118863640Y-80040000D01*
X118743001Y-80028119D01*
X118632905Y-79994721D01*
X118531440Y-79940486D01*
X118442502Y-79867498D01*
X118369514Y-79778560D01*
X118315279Y-79677095D01*
X118281881Y-79566999D01*
X118270000Y-79446360D01*
X118270000Y-78033640D01*
X118281881Y-77913001D01*
X118315279Y-77802905D01*
X118369514Y-77701440D01*
X118442502Y-77612502D01*
X118531440Y-77539514D01*
X118632905Y-77485279D01*
X118743001Y-77451881D01*
X118863640Y-77440000D01*
X120276360Y-77440000D01*
X120396999Y-77451881D01*
X120396999Y-77451881D01*
G37*
G36*
X81586948Y-77669873D02*
G01*
X81656732Y-77676746D01*
X81738137Y-77701440D01*
X81835809Y-77731068D01*
X81924023Y-77778220D01*
X82000845Y-77819282D01*
X82000847Y-77819283D01*
X82000846Y-77819283D01*
X82145502Y-77937998D01*
X82264217Y-78082654D01*
X82352432Y-78247691D01*
X82406754Y-78426769D01*
X82425096Y-78613000D01*
X82406754Y-78799231D01*
X82352432Y-78978309D01*
X82264217Y-79143346D01*
X82145502Y-79288002D01*
X82021216Y-79390000D01*
X82000845Y-79406718D01*
X81926680Y-79446360D01*
X81835809Y-79494932D01*
X81763689Y-79516809D01*
X81656732Y-79549254D01*
X81586948Y-79556127D01*
X81517166Y-79563000D01*
X81423834Y-79563000D01*
X81354052Y-79556127D01*
X81284268Y-79549254D01*
X81177311Y-79516809D01*
X81105191Y-79494932D01*
X81014320Y-79446360D01*
X80940155Y-79406718D01*
X80919784Y-79390000D01*
X80795498Y-79288002D01*
X80676783Y-79143346D01*
X80588568Y-78978309D01*
X80534246Y-78799231D01*
X80515904Y-78613000D01*
X80534246Y-78426769D01*
X80588568Y-78247691D01*
X80676783Y-78082654D01*
X80795498Y-77937998D01*
X80940154Y-77819283D01*
X80940153Y-77819283D01*
X80940155Y-77819282D01*
X81016977Y-77778220D01*
X81105191Y-77731068D01*
X81202863Y-77701440D01*
X81284268Y-77676746D01*
X81354052Y-77669873D01*
X81423834Y-77663000D01*
X81517166Y-77663000D01*
X81586948Y-77669873D01*
X81586948Y-77669873D01*
G37*
G36*
X81586948Y-75129873D02*
G01*
X81656732Y-75136746D01*
X81746270Y-75163907D01*
X81835809Y-75191068D01*
X81924023Y-75238220D01*
X82000845Y-75279282D01*
X82000847Y-75279283D01*
X82000846Y-75279283D01*
X82145502Y-75397998D01*
X82264217Y-75542654D01*
X82352432Y-75707691D01*
X82406754Y-75886769D01*
X82425096Y-76073000D01*
X82406754Y-76259231D01*
X82352432Y-76438309D01*
X82264217Y-76603346D01*
X82145502Y-76748002D01*
X82013815Y-76856073D01*
X82000845Y-76866718D01*
X81924023Y-76907780D01*
X81835809Y-76954932D01*
X81746270Y-76982093D01*
X81656732Y-77009254D01*
X81517166Y-77023000D01*
X81423834Y-77023000D01*
X81284268Y-77009254D01*
X81194730Y-76982093D01*
X81105191Y-76954932D01*
X81016977Y-76907780D01*
X80940155Y-76866718D01*
X80927184Y-76856073D01*
X80795498Y-76748002D01*
X80676783Y-76603346D01*
X80588568Y-76438309D01*
X80534246Y-76259231D01*
X80515904Y-76073000D01*
X80534246Y-75886769D01*
X80588568Y-75707691D01*
X80676783Y-75542654D01*
X80795498Y-75397998D01*
X80940154Y-75279283D01*
X80940153Y-75279283D01*
X80940155Y-75279282D01*
X81016977Y-75238220D01*
X81105191Y-75191068D01*
X81194730Y-75163907D01*
X81284268Y-75136746D01*
X81354052Y-75129873D01*
X81423834Y-75123000D01*
X81517166Y-75123000D01*
X81586948Y-75129873D01*
X81586948Y-75129873D01*
G37*
G36*
X81586948Y-72589873D02*
G01*
X81656732Y-72596746D01*
X81746270Y-72623907D01*
X81835809Y-72651068D01*
X81924023Y-72698220D01*
X82000845Y-72739282D01*
X82000847Y-72739283D01*
X82000846Y-72739283D01*
X82145502Y-72857998D01*
X82264217Y-73002654D01*
X82352432Y-73167691D01*
X82406754Y-73346769D01*
X82425096Y-73533000D01*
X82406754Y-73719231D01*
X82352432Y-73898309D01*
X82264217Y-74063346D01*
X82145502Y-74208002D01*
X82013815Y-74316073D01*
X82000845Y-74326718D01*
X81924023Y-74367780D01*
X81835809Y-74414932D01*
X81746270Y-74442093D01*
X81656732Y-74469254D01*
X81517166Y-74483000D01*
X81423834Y-74483000D01*
X81284268Y-74469254D01*
X81194730Y-74442093D01*
X81105191Y-74414932D01*
X81016977Y-74367780D01*
X80940155Y-74326718D01*
X80927185Y-74316073D01*
X80795498Y-74208002D01*
X80676783Y-74063346D01*
X80588568Y-73898309D01*
X80534246Y-73719231D01*
X80515904Y-73533000D01*
X80534246Y-73346769D01*
X80588568Y-73167691D01*
X80676783Y-73002654D01*
X80795498Y-72857998D01*
X80940154Y-72739283D01*
X80940153Y-72739283D01*
X80940155Y-72739282D01*
X81016977Y-72698220D01*
X81105191Y-72651068D01*
X81194730Y-72623907D01*
X81284268Y-72596746D01*
X81354052Y-72589873D01*
X81423834Y-72583000D01*
X81517166Y-72583000D01*
X81586948Y-72589873D01*
X81586948Y-72589873D01*
G37*
G36*
X82420500Y-71943000D02*
G01*
X80520500Y-71943000D01*
X80520500Y-70043000D01*
X82420500Y-70043000D01*
X82420500Y-71943000D01*
X82420500Y-71943000D01*
G37*
G36*
X141356448Y-68106873D02*
G01*
X141426232Y-68113746D01*
X141515770Y-68140907D01*
X141605309Y-68168068D01*
X141693523Y-68215220D01*
X141770345Y-68256282D01*
X141770347Y-68256283D01*
X141770346Y-68256283D01*
X141915002Y-68374998D01*
X142033717Y-68519654D01*
X142121932Y-68684691D01*
X142176254Y-68863769D01*
X142194596Y-69050000D01*
X142176254Y-69236231D01*
X142121932Y-69415309D01*
X142033717Y-69580346D01*
X141915002Y-69725002D01*
X141783316Y-69833073D01*
X141770345Y-69843718D01*
X141693523Y-69884780D01*
X141605309Y-69931932D01*
X141515770Y-69959093D01*
X141426232Y-69986254D01*
X141356448Y-69993127D01*
X141286666Y-70000000D01*
X141193334Y-70000000D01*
X141123552Y-69993127D01*
X141053768Y-69986254D01*
X140964230Y-69959093D01*
X140874691Y-69931932D01*
X140786477Y-69884780D01*
X140709655Y-69843718D01*
X140696684Y-69833073D01*
X140564998Y-69725002D01*
X140446283Y-69580346D01*
X140358068Y-69415309D01*
X140303746Y-69236231D01*
X140285404Y-69050000D01*
X140303746Y-68863769D01*
X140358068Y-68684691D01*
X140446283Y-68519654D01*
X140564998Y-68374998D01*
X140709654Y-68256283D01*
X140709653Y-68256283D01*
X140709655Y-68256282D01*
X140786477Y-68215220D01*
X140874691Y-68168068D01*
X140964230Y-68140907D01*
X141053768Y-68113746D01*
X141123552Y-68106873D01*
X141193334Y-68100000D01*
X141286666Y-68100000D01*
X141356448Y-68106873D01*
X141356448Y-68106873D01*
G37*
G36*
X139650000Y-70000000D02*
G01*
X137750000Y-70000000D01*
X137750000Y-68100000D01*
X139650000Y-68100000D01*
X139650000Y-70000000D01*
X139650000Y-70000000D01*
G37*
G36*
X115046232Y-64653746D02*
G01*
X115135770Y-64680907D01*
X115225309Y-64708068D01*
X115313523Y-64755220D01*
X115390345Y-64796282D01*
X115390347Y-64796283D01*
X115390346Y-64796283D01*
X115535002Y-64914998D01*
X115643073Y-65046685D01*
X115653718Y-65059655D01*
X115694780Y-65136477D01*
X115741932Y-65224691D01*
X115741932Y-65224692D01*
X115796254Y-65403768D01*
X115814596Y-65590000D01*
X115796254Y-65776232D01*
X115769093Y-65865770D01*
X115741932Y-65955309D01*
X115653717Y-66120346D01*
X115535002Y-66265002D01*
X115403315Y-66373073D01*
X115390345Y-66383718D01*
X115313523Y-66424780D01*
X115225309Y-66471932D01*
X115135770Y-66499093D01*
X115046232Y-66526254D01*
X114906666Y-66540000D01*
X114813334Y-66540000D01*
X114673768Y-66526254D01*
X114584230Y-66499093D01*
X114494691Y-66471932D01*
X114406477Y-66424780D01*
X114329655Y-66383718D01*
X114316684Y-66373073D01*
X114184998Y-66265002D01*
X114066283Y-66120346D01*
X113978068Y-65955309D01*
X113950907Y-65865770D01*
X113923746Y-65776232D01*
X113905404Y-65590000D01*
X113923746Y-65403768D01*
X113978068Y-65224692D01*
X113978068Y-65224691D01*
X114025220Y-65136477D01*
X114066282Y-65059655D01*
X114076927Y-65046685D01*
X114184998Y-64914998D01*
X114329654Y-64796283D01*
X114329653Y-64796283D01*
X114329655Y-64796282D01*
X114406477Y-64755220D01*
X114494691Y-64708068D01*
X114584230Y-64680907D01*
X114673768Y-64653746D01*
X114813334Y-64640000D01*
X114906666Y-64640000D01*
X115046232Y-64653746D01*
X115046232Y-64653746D01*
G37*
G36*
X117586232Y-64653746D02*
G01*
X117675770Y-64680907D01*
X117765309Y-64708068D01*
X117853523Y-64755220D01*
X117930345Y-64796282D01*
X117930347Y-64796283D01*
X117930346Y-64796283D01*
X118075002Y-64914998D01*
X118183073Y-65046685D01*
X118193718Y-65059655D01*
X118234780Y-65136477D01*
X118281932Y-65224691D01*
X118281932Y-65224692D01*
X118336254Y-65403768D01*
X118354596Y-65590000D01*
X118336254Y-65776232D01*
X118309093Y-65865770D01*
X118281932Y-65955309D01*
X118193717Y-66120346D01*
X118075002Y-66265002D01*
X117943315Y-66373073D01*
X117930345Y-66383718D01*
X117853523Y-66424780D01*
X117765309Y-66471932D01*
X117675770Y-66499093D01*
X117586232Y-66526254D01*
X117446666Y-66540000D01*
X117353334Y-66540000D01*
X117213768Y-66526254D01*
X117124230Y-66499093D01*
X117034691Y-66471932D01*
X116946477Y-66424780D01*
X116869655Y-66383718D01*
X116856684Y-66373073D01*
X116724998Y-66265002D01*
X116606283Y-66120346D01*
X116518068Y-65955309D01*
X116490907Y-65865770D01*
X116463746Y-65776232D01*
X116445404Y-65590000D01*
X116463746Y-65403768D01*
X116518068Y-65224692D01*
X116518068Y-65224691D01*
X116565220Y-65136477D01*
X116606282Y-65059655D01*
X116616927Y-65046685D01*
X116724998Y-64914998D01*
X116869654Y-64796283D01*
X116869653Y-64796283D01*
X116869655Y-64796282D01*
X116946477Y-64755220D01*
X117034691Y-64708068D01*
X117124230Y-64680907D01*
X117213768Y-64653746D01*
X117353334Y-64640000D01*
X117446666Y-64640000D01*
X117586232Y-64653746D01*
X117586232Y-64653746D01*
G37*
G36*
X120126232Y-64653746D02*
G01*
X120215770Y-64680907D01*
X120305309Y-64708068D01*
X120393523Y-64755220D01*
X120470345Y-64796282D01*
X120470347Y-64796283D01*
X120470346Y-64796283D01*
X120615002Y-64914998D01*
X120723073Y-65046685D01*
X120733718Y-65059655D01*
X120774780Y-65136477D01*
X120821932Y-65224691D01*
X120821932Y-65224692D01*
X120876254Y-65403768D01*
X120894596Y-65590000D01*
X120876254Y-65776232D01*
X120849093Y-65865770D01*
X120821932Y-65955309D01*
X120733717Y-66120346D01*
X120615002Y-66265002D01*
X120483315Y-66373073D01*
X120470345Y-66383718D01*
X120393523Y-66424780D01*
X120305309Y-66471932D01*
X120215770Y-66499093D01*
X120126232Y-66526254D01*
X119986666Y-66540000D01*
X119893334Y-66540000D01*
X119753768Y-66526254D01*
X119664230Y-66499093D01*
X119574691Y-66471932D01*
X119486477Y-66424780D01*
X119409655Y-66383718D01*
X119396684Y-66373073D01*
X119264998Y-66265002D01*
X119146283Y-66120346D01*
X119058068Y-65955309D01*
X119030907Y-65865770D01*
X119003746Y-65776232D01*
X118985404Y-65590000D01*
X119003746Y-65403768D01*
X119058068Y-65224692D01*
X119058068Y-65224691D01*
X119105220Y-65136477D01*
X119146282Y-65059655D01*
X119156927Y-65046685D01*
X119264998Y-64914998D01*
X119409654Y-64796283D01*
X119409653Y-64796283D01*
X119409655Y-64796282D01*
X119486477Y-64755220D01*
X119574691Y-64708068D01*
X119664230Y-64680907D01*
X119753768Y-64653746D01*
X119893334Y-64640000D01*
X119986666Y-64640000D01*
X120126232Y-64653746D01*
X120126232Y-64653746D01*
G37*
G36*
X112506232Y-64653746D02*
G01*
X112595770Y-64680907D01*
X112685309Y-64708068D01*
X112773523Y-64755220D01*
X112850345Y-64796282D01*
X112850347Y-64796283D01*
X112850346Y-64796283D01*
X112995002Y-64914998D01*
X113103073Y-65046685D01*
X113113718Y-65059655D01*
X113154780Y-65136477D01*
X113201932Y-65224691D01*
X113201932Y-65224692D01*
X113256254Y-65403768D01*
X113274596Y-65590000D01*
X113256254Y-65776232D01*
X113229093Y-65865770D01*
X113201932Y-65955309D01*
X113113717Y-66120346D01*
X112995002Y-66265002D01*
X112863315Y-66373073D01*
X112850345Y-66383718D01*
X112773523Y-66424780D01*
X112685309Y-66471932D01*
X112595770Y-66499093D01*
X112506232Y-66526254D01*
X112366666Y-66540000D01*
X112273334Y-66540000D01*
X112133768Y-66526254D01*
X112044230Y-66499093D01*
X111954691Y-66471932D01*
X111866477Y-66424780D01*
X111789655Y-66383718D01*
X111776684Y-66373073D01*
X111644998Y-66265002D01*
X111526283Y-66120346D01*
X111438068Y-65955309D01*
X111410907Y-65865770D01*
X111383746Y-65776232D01*
X111365404Y-65590000D01*
X111383746Y-65403768D01*
X111438068Y-65224692D01*
X111438068Y-65224691D01*
X111485220Y-65136477D01*
X111526282Y-65059655D01*
X111536927Y-65046685D01*
X111644998Y-64914998D01*
X111789654Y-64796283D01*
X111789653Y-64796283D01*
X111789655Y-64796282D01*
X111866477Y-64755220D01*
X111954691Y-64708068D01*
X112044230Y-64680907D01*
X112133768Y-64653746D01*
X112273334Y-64640000D01*
X112366666Y-64640000D01*
X112506232Y-64653746D01*
X112506232Y-64653746D01*
G37*
G36*
X97266232Y-64653746D02*
G01*
X97355770Y-64680907D01*
X97445309Y-64708068D01*
X97533523Y-64755220D01*
X97610345Y-64796282D01*
X97610347Y-64796283D01*
X97610346Y-64796283D01*
X97755002Y-64914998D01*
X97863073Y-65046685D01*
X97873718Y-65059655D01*
X97914780Y-65136477D01*
X97961932Y-65224691D01*
X97961932Y-65224692D01*
X98016254Y-65403768D01*
X98034596Y-65590000D01*
X98016254Y-65776232D01*
X97989093Y-65865770D01*
X97961932Y-65955309D01*
X97873717Y-66120346D01*
X97755002Y-66265002D01*
X97623315Y-66373073D01*
X97610345Y-66383718D01*
X97533523Y-66424780D01*
X97445309Y-66471932D01*
X97355770Y-66499093D01*
X97266232Y-66526254D01*
X97126666Y-66540000D01*
X97033334Y-66540000D01*
X96893768Y-66526254D01*
X96804230Y-66499093D01*
X96714691Y-66471932D01*
X96626477Y-66424780D01*
X96549655Y-66383718D01*
X96536684Y-66373073D01*
X96404998Y-66265002D01*
X96286283Y-66120346D01*
X96198068Y-65955309D01*
X96170907Y-65865770D01*
X96143746Y-65776232D01*
X96125404Y-65590000D01*
X96143746Y-65403768D01*
X96198068Y-65224692D01*
X96198068Y-65224691D01*
X96245220Y-65136477D01*
X96286282Y-65059655D01*
X96296927Y-65046685D01*
X96404998Y-64914998D01*
X96549654Y-64796283D01*
X96549653Y-64796283D01*
X96549655Y-64796282D01*
X96626477Y-64755220D01*
X96714691Y-64708068D01*
X96804230Y-64680907D01*
X96893768Y-64653746D01*
X97033334Y-64640000D01*
X97126666Y-64640000D01*
X97266232Y-64653746D01*
X97266232Y-64653746D01*
G37*
G36*
X125206232Y-64653746D02*
G01*
X125295770Y-64680907D01*
X125385309Y-64708068D01*
X125473523Y-64755220D01*
X125550345Y-64796282D01*
X125550347Y-64796283D01*
X125550346Y-64796283D01*
X125695002Y-64914998D01*
X125803073Y-65046685D01*
X125813718Y-65059655D01*
X125854780Y-65136477D01*
X125901932Y-65224691D01*
X125901932Y-65224692D01*
X125956254Y-65403768D01*
X125974596Y-65590000D01*
X125956254Y-65776232D01*
X125929093Y-65865770D01*
X125901932Y-65955309D01*
X125813717Y-66120346D01*
X125695002Y-66265002D01*
X125563315Y-66373073D01*
X125550345Y-66383718D01*
X125473523Y-66424780D01*
X125385309Y-66471932D01*
X125295770Y-66499093D01*
X125206232Y-66526254D01*
X125066666Y-66540000D01*
X124973334Y-66540000D01*
X124833768Y-66526254D01*
X124744230Y-66499093D01*
X124654691Y-66471932D01*
X124566477Y-66424780D01*
X124489655Y-66383718D01*
X124476684Y-66373073D01*
X124344998Y-66265002D01*
X124226283Y-66120346D01*
X124138068Y-65955309D01*
X124110907Y-65865770D01*
X124083746Y-65776232D01*
X124065404Y-65590000D01*
X124083746Y-65403768D01*
X124138068Y-65224692D01*
X124138068Y-65224691D01*
X124185220Y-65136477D01*
X124226282Y-65059655D01*
X124236927Y-65046685D01*
X124344998Y-64914998D01*
X124489654Y-64796283D01*
X124489653Y-64796283D01*
X124489655Y-64796282D01*
X124566477Y-64755220D01*
X124654691Y-64708068D01*
X124744230Y-64680907D01*
X124833768Y-64653746D01*
X124973334Y-64640000D01*
X125066666Y-64640000D01*
X125206232Y-64653746D01*
X125206232Y-64653746D01*
G37*
G36*
X127746232Y-64653746D02*
G01*
X127835770Y-64680907D01*
X127925309Y-64708068D01*
X128013523Y-64755220D01*
X128090345Y-64796282D01*
X128090347Y-64796283D01*
X128090346Y-64796283D01*
X128235002Y-64914998D01*
X128343073Y-65046685D01*
X128353718Y-65059655D01*
X128394780Y-65136477D01*
X128441932Y-65224691D01*
X128441932Y-65224692D01*
X128496254Y-65403768D01*
X128514596Y-65590000D01*
X128496254Y-65776232D01*
X128469093Y-65865770D01*
X128441932Y-65955309D01*
X128353717Y-66120346D01*
X128235002Y-66265002D01*
X128103315Y-66373073D01*
X128090345Y-66383718D01*
X128013523Y-66424780D01*
X127925309Y-66471932D01*
X127835770Y-66499093D01*
X127746232Y-66526254D01*
X127606666Y-66540000D01*
X127513334Y-66540000D01*
X127373768Y-66526254D01*
X127284230Y-66499093D01*
X127194691Y-66471932D01*
X127106477Y-66424780D01*
X127029655Y-66383718D01*
X127016684Y-66373073D01*
X126884998Y-66265002D01*
X126766283Y-66120346D01*
X126678068Y-65955309D01*
X126650907Y-65865770D01*
X126623746Y-65776232D01*
X126605404Y-65590000D01*
X126623746Y-65403768D01*
X126678068Y-65224692D01*
X126678068Y-65224691D01*
X126725220Y-65136477D01*
X126766282Y-65059655D01*
X126776927Y-65046685D01*
X126884998Y-64914998D01*
X127029654Y-64796283D01*
X127029653Y-64796283D01*
X127029655Y-64796282D01*
X127106477Y-64755220D01*
X127194691Y-64708068D01*
X127284230Y-64680907D01*
X127373768Y-64653746D01*
X127513334Y-64640000D01*
X127606666Y-64640000D01*
X127746232Y-64653746D01*
X127746232Y-64653746D01*
G37*
G36*
X130286232Y-64653746D02*
G01*
X130375770Y-64680907D01*
X130465309Y-64708068D01*
X130553523Y-64755220D01*
X130630345Y-64796282D01*
X130630347Y-64796283D01*
X130630346Y-64796283D01*
X130775002Y-64914998D01*
X130883073Y-65046685D01*
X130893718Y-65059655D01*
X130934780Y-65136477D01*
X130981932Y-65224691D01*
X130981932Y-65224692D01*
X131036254Y-65403768D01*
X131054596Y-65590000D01*
X131036254Y-65776232D01*
X131009093Y-65865770D01*
X130981932Y-65955309D01*
X130893717Y-66120346D01*
X130775002Y-66265002D01*
X130643315Y-66373073D01*
X130630345Y-66383718D01*
X130553523Y-66424780D01*
X130465309Y-66471932D01*
X130375770Y-66499093D01*
X130286232Y-66526254D01*
X130146666Y-66540000D01*
X130053334Y-66540000D01*
X129913768Y-66526254D01*
X129824230Y-66499093D01*
X129734691Y-66471932D01*
X129646477Y-66424780D01*
X129569655Y-66383718D01*
X129556684Y-66373073D01*
X129424998Y-66265002D01*
X129306283Y-66120346D01*
X129218068Y-65955309D01*
X129190907Y-65865770D01*
X129163746Y-65776232D01*
X129145404Y-65590000D01*
X129163746Y-65403768D01*
X129218068Y-65224692D01*
X129218068Y-65224691D01*
X129265220Y-65136477D01*
X129306282Y-65059655D01*
X129316927Y-65046685D01*
X129424998Y-64914998D01*
X129569654Y-64796283D01*
X129569653Y-64796283D01*
X129569655Y-64796282D01*
X129646477Y-64755220D01*
X129734691Y-64708068D01*
X129824230Y-64680907D01*
X129913768Y-64653746D01*
X130053334Y-64640000D01*
X130146666Y-64640000D01*
X130286232Y-64653746D01*
X130286232Y-64653746D01*
G37*
G36*
X132826232Y-64653746D02*
G01*
X132915770Y-64680907D01*
X133005309Y-64708068D01*
X133093523Y-64755220D01*
X133170345Y-64796282D01*
X133170347Y-64796283D01*
X133170346Y-64796283D01*
X133315002Y-64914998D01*
X133423073Y-65046685D01*
X133433718Y-65059655D01*
X133474780Y-65136477D01*
X133521932Y-65224691D01*
X133521932Y-65224692D01*
X133576254Y-65403768D01*
X133594596Y-65590000D01*
X133576254Y-65776232D01*
X133549093Y-65865770D01*
X133521932Y-65955309D01*
X133433717Y-66120346D01*
X133315002Y-66265002D01*
X133183315Y-66373073D01*
X133170345Y-66383718D01*
X133093523Y-66424780D01*
X133005309Y-66471932D01*
X132915770Y-66499093D01*
X132826232Y-66526254D01*
X132686666Y-66540000D01*
X132593334Y-66540000D01*
X132453768Y-66526254D01*
X132364230Y-66499093D01*
X132274691Y-66471932D01*
X132186477Y-66424780D01*
X132109655Y-66383718D01*
X132096684Y-66373073D01*
X131964998Y-66265002D01*
X131846283Y-66120346D01*
X131758068Y-65955309D01*
X131730907Y-65865770D01*
X131703746Y-65776232D01*
X131685404Y-65590000D01*
X131703746Y-65403768D01*
X131758068Y-65224692D01*
X131758068Y-65224691D01*
X131805220Y-65136477D01*
X131846282Y-65059655D01*
X131856927Y-65046685D01*
X131964998Y-64914998D01*
X132109654Y-64796283D01*
X132109653Y-64796283D01*
X132109655Y-64796282D01*
X132186477Y-64755220D01*
X132274691Y-64708068D01*
X132364230Y-64680907D01*
X132453768Y-64653746D01*
X132593334Y-64640000D01*
X132686666Y-64640000D01*
X132826232Y-64653746D01*
X132826232Y-64653746D01*
G37*
G36*
X135366232Y-64653746D02*
G01*
X135455770Y-64680907D01*
X135545309Y-64708068D01*
X135633523Y-64755220D01*
X135710345Y-64796282D01*
X135710347Y-64796283D01*
X135710346Y-64796283D01*
X135855002Y-64914998D01*
X135963073Y-65046685D01*
X135973718Y-65059655D01*
X136014780Y-65136477D01*
X136061932Y-65224691D01*
X136061932Y-65224692D01*
X136116254Y-65403768D01*
X136134596Y-65590000D01*
X136116254Y-65776232D01*
X136089093Y-65865770D01*
X136061932Y-65955309D01*
X135973717Y-66120346D01*
X135855002Y-66265002D01*
X135723315Y-66373073D01*
X135710345Y-66383718D01*
X135633523Y-66424780D01*
X135545309Y-66471932D01*
X135455770Y-66499093D01*
X135366232Y-66526254D01*
X135226666Y-66540000D01*
X135133334Y-66540000D01*
X134993768Y-66526254D01*
X134904230Y-66499093D01*
X134814691Y-66471932D01*
X134726477Y-66424780D01*
X134649655Y-66383718D01*
X134636684Y-66373073D01*
X134504998Y-66265002D01*
X134386283Y-66120346D01*
X134298068Y-65955309D01*
X134270907Y-65865770D01*
X134243746Y-65776232D01*
X134225404Y-65590000D01*
X134243746Y-65403768D01*
X134298068Y-65224692D01*
X134298068Y-65224691D01*
X134345220Y-65136477D01*
X134386282Y-65059655D01*
X134396927Y-65046685D01*
X134504998Y-64914998D01*
X134649654Y-64796283D01*
X134649653Y-64796283D01*
X134649655Y-64796282D01*
X134726477Y-64755220D01*
X134814691Y-64708068D01*
X134904230Y-64680907D01*
X134993768Y-64653746D01*
X135133334Y-64640000D01*
X135226666Y-64640000D01*
X135366232Y-64653746D01*
X135366232Y-64653746D01*
G37*
G36*
X107426232Y-64653746D02*
G01*
X107515770Y-64680907D01*
X107605309Y-64708068D01*
X107693523Y-64755220D01*
X107770345Y-64796282D01*
X107770347Y-64796283D01*
X107770346Y-64796283D01*
X107915002Y-64914998D01*
X108023073Y-65046685D01*
X108033718Y-65059655D01*
X108074780Y-65136477D01*
X108121932Y-65224691D01*
X108121932Y-65224692D01*
X108176254Y-65403768D01*
X108194596Y-65590000D01*
X108176254Y-65776232D01*
X108149093Y-65865770D01*
X108121932Y-65955309D01*
X108033717Y-66120346D01*
X107915002Y-66265002D01*
X107783315Y-66373073D01*
X107770345Y-66383718D01*
X107693523Y-66424780D01*
X107605309Y-66471932D01*
X107515770Y-66499093D01*
X107426232Y-66526254D01*
X107286666Y-66540000D01*
X107193334Y-66540000D01*
X107053768Y-66526254D01*
X106964230Y-66499093D01*
X106874691Y-66471932D01*
X106786477Y-66424780D01*
X106709655Y-66383718D01*
X106696684Y-66373073D01*
X106564998Y-66265002D01*
X106446283Y-66120346D01*
X106358068Y-65955309D01*
X106330907Y-65865770D01*
X106303746Y-65776232D01*
X106285404Y-65590000D01*
X106303746Y-65403768D01*
X106358068Y-65224692D01*
X106358068Y-65224691D01*
X106405220Y-65136477D01*
X106446282Y-65059655D01*
X106456927Y-65046685D01*
X106564998Y-64914998D01*
X106709654Y-64796283D01*
X106709653Y-64796283D01*
X106709655Y-64796282D01*
X106786477Y-64755220D01*
X106874691Y-64708068D01*
X106964230Y-64680907D01*
X107053768Y-64653746D01*
X107193334Y-64640000D01*
X107286666Y-64640000D01*
X107426232Y-64653746D01*
X107426232Y-64653746D01*
G37*
G36*
X104886232Y-64653746D02*
G01*
X104975770Y-64680907D01*
X105065309Y-64708068D01*
X105153523Y-64755220D01*
X105230345Y-64796282D01*
X105230347Y-64796283D01*
X105230346Y-64796283D01*
X105375002Y-64914998D01*
X105483073Y-65046685D01*
X105493718Y-65059655D01*
X105534780Y-65136477D01*
X105581932Y-65224691D01*
X105581932Y-65224692D01*
X105636254Y-65403768D01*
X105654596Y-65590000D01*
X105636254Y-65776232D01*
X105609093Y-65865770D01*
X105581932Y-65955309D01*
X105493717Y-66120346D01*
X105375002Y-66265002D01*
X105243315Y-66373073D01*
X105230345Y-66383718D01*
X105153523Y-66424780D01*
X105065309Y-66471932D01*
X104975770Y-66499093D01*
X104886232Y-66526254D01*
X104746666Y-66540000D01*
X104653334Y-66540000D01*
X104513768Y-66526254D01*
X104424230Y-66499093D01*
X104334691Y-66471932D01*
X104246477Y-66424780D01*
X104169655Y-66383718D01*
X104156684Y-66373073D01*
X104024998Y-66265002D01*
X103906283Y-66120346D01*
X103818068Y-65955309D01*
X103790907Y-65865770D01*
X103763746Y-65776232D01*
X103745404Y-65590000D01*
X103763746Y-65403768D01*
X103818068Y-65224692D01*
X103818068Y-65224691D01*
X103865220Y-65136477D01*
X103906282Y-65059655D01*
X103916927Y-65046685D01*
X104024998Y-64914998D01*
X104169654Y-64796283D01*
X104169653Y-64796283D01*
X104169655Y-64796282D01*
X104246477Y-64755220D01*
X104334691Y-64708068D01*
X104424230Y-64680907D01*
X104513768Y-64653746D01*
X104653334Y-64640000D01*
X104746666Y-64640000D01*
X104886232Y-64653746D01*
X104886232Y-64653746D01*
G37*
G36*
X102346232Y-64653746D02*
G01*
X102435770Y-64680907D01*
X102525309Y-64708068D01*
X102613523Y-64755220D01*
X102690345Y-64796282D01*
X102690347Y-64796283D01*
X102690346Y-64796283D01*
X102835002Y-64914998D01*
X102943073Y-65046685D01*
X102953718Y-65059655D01*
X102994780Y-65136477D01*
X103041932Y-65224691D01*
X103041932Y-65224692D01*
X103096254Y-65403768D01*
X103114596Y-65590000D01*
X103096254Y-65776232D01*
X103069093Y-65865770D01*
X103041932Y-65955309D01*
X102953717Y-66120346D01*
X102835002Y-66265002D01*
X102703315Y-66373073D01*
X102690345Y-66383718D01*
X102613523Y-66424780D01*
X102525309Y-66471932D01*
X102435770Y-66499093D01*
X102346232Y-66526254D01*
X102206666Y-66540000D01*
X102113334Y-66540000D01*
X101973768Y-66526254D01*
X101884230Y-66499093D01*
X101794691Y-66471932D01*
X101706477Y-66424780D01*
X101629655Y-66383718D01*
X101616684Y-66373073D01*
X101484998Y-66265002D01*
X101366283Y-66120346D01*
X101278068Y-65955309D01*
X101250907Y-65865770D01*
X101223746Y-65776232D01*
X101205404Y-65590000D01*
X101223746Y-65403768D01*
X101278068Y-65224692D01*
X101278068Y-65224691D01*
X101325220Y-65136477D01*
X101366282Y-65059655D01*
X101376927Y-65046685D01*
X101484998Y-64914998D01*
X101629654Y-64796283D01*
X101629653Y-64796283D01*
X101629655Y-64796282D01*
X101706477Y-64755220D01*
X101794691Y-64708068D01*
X101884230Y-64680907D01*
X101973768Y-64653746D01*
X102113334Y-64640000D01*
X102206666Y-64640000D01*
X102346232Y-64653746D01*
X102346232Y-64653746D01*
G37*
G36*
X99806232Y-64653746D02*
G01*
X99895770Y-64680907D01*
X99985309Y-64708068D01*
X100073523Y-64755220D01*
X100150345Y-64796282D01*
X100150347Y-64796283D01*
X100150346Y-64796283D01*
X100295002Y-64914998D01*
X100403073Y-65046685D01*
X100413718Y-65059655D01*
X100454780Y-65136477D01*
X100501932Y-65224691D01*
X100501932Y-65224692D01*
X100556254Y-65403768D01*
X100574596Y-65590000D01*
X100556254Y-65776232D01*
X100529093Y-65865770D01*
X100501932Y-65955309D01*
X100413717Y-66120346D01*
X100295002Y-66265002D01*
X100163315Y-66373073D01*
X100150345Y-66383718D01*
X100073523Y-66424780D01*
X99985309Y-66471932D01*
X99895770Y-66499093D01*
X99806232Y-66526254D01*
X99666666Y-66540000D01*
X99573334Y-66540000D01*
X99433768Y-66526254D01*
X99344230Y-66499093D01*
X99254691Y-66471932D01*
X99166477Y-66424780D01*
X99089655Y-66383718D01*
X99076684Y-66373073D01*
X98944998Y-66265002D01*
X98826283Y-66120346D01*
X98738068Y-65955309D01*
X98710907Y-65865770D01*
X98683746Y-65776232D01*
X98665404Y-65590000D01*
X98683746Y-65403768D01*
X98738068Y-65224692D01*
X98738068Y-65224691D01*
X98785220Y-65136477D01*
X98826282Y-65059655D01*
X98836927Y-65046685D01*
X98944998Y-64914998D01*
X99089654Y-64796283D01*
X99089653Y-64796283D01*
X99089655Y-64796282D01*
X99166477Y-64755220D01*
X99254691Y-64708068D01*
X99344230Y-64680907D01*
X99433768Y-64653746D01*
X99573334Y-64640000D01*
X99666666Y-64640000D01*
X99806232Y-64653746D01*
X99806232Y-64653746D01*
G37*
G36*
X94726232Y-64653746D02*
G01*
X94815770Y-64680907D01*
X94905309Y-64708068D01*
X94993523Y-64755220D01*
X95070345Y-64796282D01*
X95070347Y-64796283D01*
X95070346Y-64796283D01*
X95215002Y-64914998D01*
X95323073Y-65046685D01*
X95333718Y-65059655D01*
X95374780Y-65136477D01*
X95421932Y-65224691D01*
X95421932Y-65224692D01*
X95476254Y-65403768D01*
X95494596Y-65590000D01*
X95476254Y-65776232D01*
X95449093Y-65865770D01*
X95421932Y-65955309D01*
X95333717Y-66120346D01*
X95215002Y-66265002D01*
X95083315Y-66373073D01*
X95070345Y-66383718D01*
X94993523Y-66424780D01*
X94905309Y-66471932D01*
X94815770Y-66499093D01*
X94726232Y-66526254D01*
X94586666Y-66540000D01*
X94493334Y-66540000D01*
X94353768Y-66526254D01*
X94264230Y-66499093D01*
X94174691Y-66471932D01*
X94086477Y-66424780D01*
X94009655Y-66383718D01*
X93996684Y-66373073D01*
X93864998Y-66265002D01*
X93746283Y-66120346D01*
X93658068Y-65955309D01*
X93630907Y-65865770D01*
X93603746Y-65776232D01*
X93585404Y-65590000D01*
X93603746Y-65403768D01*
X93658068Y-65224692D01*
X93658068Y-65224691D01*
X93705220Y-65136477D01*
X93746282Y-65059655D01*
X93756927Y-65046685D01*
X93864998Y-64914998D01*
X94009654Y-64796283D01*
X94009653Y-64796283D01*
X94009655Y-64796282D01*
X94086477Y-64755220D01*
X94174691Y-64708068D01*
X94264230Y-64680907D01*
X94353768Y-64653746D01*
X94493334Y-64640000D01*
X94586666Y-64640000D01*
X94726232Y-64653746D01*
X94726232Y-64653746D01*
G37*
G36*
X92186232Y-64653746D02*
G01*
X92275770Y-64680907D01*
X92365309Y-64708068D01*
X92453523Y-64755220D01*
X92530345Y-64796282D01*
X92530347Y-64796283D01*
X92530346Y-64796283D01*
X92675002Y-64914998D01*
X92783073Y-65046685D01*
X92793718Y-65059655D01*
X92834780Y-65136477D01*
X92881932Y-65224691D01*
X92881932Y-65224692D01*
X92936254Y-65403768D01*
X92954596Y-65590000D01*
X92936254Y-65776232D01*
X92909093Y-65865770D01*
X92881932Y-65955309D01*
X92793717Y-66120346D01*
X92675002Y-66265002D01*
X92543315Y-66373073D01*
X92530345Y-66383718D01*
X92453523Y-66424780D01*
X92365309Y-66471932D01*
X92275770Y-66499093D01*
X92186232Y-66526254D01*
X92046666Y-66540000D01*
X91953334Y-66540000D01*
X91813768Y-66526254D01*
X91724230Y-66499093D01*
X91634691Y-66471932D01*
X91546477Y-66424780D01*
X91469655Y-66383718D01*
X91456684Y-66373073D01*
X91324998Y-66265002D01*
X91206283Y-66120346D01*
X91118068Y-65955309D01*
X91090907Y-65865770D01*
X91063746Y-65776232D01*
X91045404Y-65590000D01*
X91063746Y-65403768D01*
X91118068Y-65224692D01*
X91118068Y-65224691D01*
X91165220Y-65136477D01*
X91206282Y-65059655D01*
X91216927Y-65046685D01*
X91324998Y-64914998D01*
X91469654Y-64796283D01*
X91469653Y-64796283D01*
X91469655Y-64796282D01*
X91546477Y-64755220D01*
X91634691Y-64708068D01*
X91724230Y-64680907D01*
X91813768Y-64653746D01*
X91953334Y-64640000D01*
X92046666Y-64640000D01*
X92186232Y-64653746D01*
X92186232Y-64653746D01*
G37*
G36*
X89646232Y-64653746D02*
G01*
X89735770Y-64680907D01*
X89825309Y-64708068D01*
X89913523Y-64755220D01*
X89990345Y-64796282D01*
X89990347Y-64796283D01*
X89990346Y-64796283D01*
X90135002Y-64914998D01*
X90243073Y-65046685D01*
X90253718Y-65059655D01*
X90294780Y-65136477D01*
X90341932Y-65224691D01*
X90341932Y-65224692D01*
X90396254Y-65403768D01*
X90414596Y-65590000D01*
X90396254Y-65776232D01*
X90369093Y-65865770D01*
X90341932Y-65955309D01*
X90253717Y-66120346D01*
X90135002Y-66265002D01*
X90003315Y-66373073D01*
X89990345Y-66383718D01*
X89913523Y-66424780D01*
X89825309Y-66471932D01*
X89735770Y-66499093D01*
X89646232Y-66526254D01*
X89506666Y-66540000D01*
X89413334Y-66540000D01*
X89273768Y-66526254D01*
X89184230Y-66499093D01*
X89094691Y-66471932D01*
X89006477Y-66424780D01*
X88929655Y-66383718D01*
X88916684Y-66373073D01*
X88784998Y-66265002D01*
X88666283Y-66120346D01*
X88578068Y-65955309D01*
X88550907Y-65865770D01*
X88523746Y-65776232D01*
X88505404Y-65590000D01*
X88523746Y-65403768D01*
X88578068Y-65224692D01*
X88578068Y-65224691D01*
X88625220Y-65136477D01*
X88666282Y-65059655D01*
X88676927Y-65046685D01*
X88784998Y-64914998D01*
X88929654Y-64796283D01*
X88929653Y-64796283D01*
X88929655Y-64796282D01*
X89006477Y-64755220D01*
X89094691Y-64708068D01*
X89184230Y-64680907D01*
X89273768Y-64653746D01*
X89413334Y-64640000D01*
X89506666Y-64640000D01*
X89646232Y-64653746D01*
X89646232Y-64653746D01*
G37*
G36*
X122666232Y-64653746D02*
G01*
X122755770Y-64680907D01*
X122845309Y-64708068D01*
X122933523Y-64755220D01*
X123010345Y-64796282D01*
X123010347Y-64796283D01*
X123010346Y-64796283D01*
X123155002Y-64914998D01*
X123263073Y-65046685D01*
X123273718Y-65059655D01*
X123314780Y-65136477D01*
X123361932Y-65224691D01*
X123361932Y-65224692D01*
X123416254Y-65403768D01*
X123434596Y-65590000D01*
X123416254Y-65776232D01*
X123389093Y-65865770D01*
X123361932Y-65955309D01*
X123273717Y-66120346D01*
X123155002Y-66265002D01*
X123023315Y-66373073D01*
X123010345Y-66383718D01*
X122933523Y-66424780D01*
X122845309Y-66471932D01*
X122755770Y-66499093D01*
X122666232Y-66526254D01*
X122526666Y-66540000D01*
X122433334Y-66540000D01*
X122293768Y-66526254D01*
X122204230Y-66499093D01*
X122114691Y-66471932D01*
X122026477Y-66424780D01*
X121949655Y-66383718D01*
X121936684Y-66373073D01*
X121804998Y-66265002D01*
X121686283Y-66120346D01*
X121598068Y-65955309D01*
X121570907Y-65865770D01*
X121543746Y-65776232D01*
X121525404Y-65590000D01*
X121543746Y-65403768D01*
X121598068Y-65224692D01*
X121598068Y-65224691D01*
X121645220Y-65136477D01*
X121686282Y-65059655D01*
X121696927Y-65046685D01*
X121804998Y-64914998D01*
X121949654Y-64796283D01*
X121949653Y-64796283D01*
X121949655Y-64796282D01*
X122026477Y-64755220D01*
X122114691Y-64708068D01*
X122204230Y-64680907D01*
X122293768Y-64653746D01*
X122433334Y-64640000D01*
X122526666Y-64640000D01*
X122666232Y-64653746D01*
X122666232Y-64653746D01*
G37*
G36*
X87870000Y-66540000D02*
G01*
X85970000Y-66540000D01*
X85970000Y-64640000D01*
X87870000Y-64640000D01*
X87870000Y-66540000D01*
X87870000Y-66540000D01*
G37*
G36*
X109966232Y-64653746D02*
G01*
X110055770Y-64680907D01*
X110145309Y-64708068D01*
X110233523Y-64755220D01*
X110310345Y-64796282D01*
X110310347Y-64796283D01*
X110310346Y-64796283D01*
X110455002Y-64914998D01*
X110563073Y-65046685D01*
X110573718Y-65059655D01*
X110614780Y-65136477D01*
X110661932Y-65224691D01*
X110661932Y-65224692D01*
X110716254Y-65403768D01*
X110734596Y-65590000D01*
X110716254Y-65776232D01*
X110689093Y-65865770D01*
X110661932Y-65955309D01*
X110573717Y-66120346D01*
X110455002Y-66265002D01*
X110323315Y-66373073D01*
X110310345Y-66383718D01*
X110233523Y-66424780D01*
X110145309Y-66471932D01*
X110055770Y-66499093D01*
X109966232Y-66526254D01*
X109826666Y-66540000D01*
X109733334Y-66540000D01*
X109593768Y-66526254D01*
X109504230Y-66499093D01*
X109414691Y-66471932D01*
X109326477Y-66424780D01*
X109249655Y-66383718D01*
X109236684Y-66373073D01*
X109104998Y-66265002D01*
X108986283Y-66120346D01*
X108898068Y-65955309D01*
X108870907Y-65865770D01*
X108843746Y-65776232D01*
X108825404Y-65590000D01*
X108843746Y-65403768D01*
X108898068Y-65224692D01*
X108898068Y-65224691D01*
X108945220Y-65136477D01*
X108986282Y-65059655D01*
X108996927Y-65046685D01*
X109104998Y-64914998D01*
X109249654Y-64796283D01*
X109249653Y-64796283D01*
X109249655Y-64796282D01*
X109326477Y-64755220D01*
X109414691Y-64708068D01*
X109504230Y-64680907D01*
X109593768Y-64653746D01*
X109733334Y-64640000D01*
X109826666Y-64640000D01*
X109966232Y-64653746D01*
X109966232Y-64653746D01*
G37*
G36*
X140506703Y-62791486D02*
G01*
X140797883Y-62912097D01*
X141059940Y-63087198D01*
X141282802Y-63310060D01*
X141457903Y-63572117D01*
X141578514Y-63863297D01*
X141640000Y-64172412D01*
X141640000Y-64487588D01*
X141578514Y-64796703D01*
X141457903Y-65087883D01*
X141282802Y-65349940D01*
X141059940Y-65572802D01*
X140797883Y-65747903D01*
X140506703Y-65868514D01*
X140197588Y-65930000D01*
X139882412Y-65930000D01*
X139573297Y-65868514D01*
X139282117Y-65747903D01*
X139020060Y-65572802D01*
X138797198Y-65349940D01*
X138622097Y-65087883D01*
X138501486Y-64796703D01*
X138440000Y-64487588D01*
X138440000Y-64172412D01*
X138501486Y-63863297D01*
X138622097Y-63572117D01*
X138797198Y-63310060D01*
X139020060Y-63087198D01*
X139282117Y-62912097D01*
X139573297Y-62791486D01*
X139882412Y-62730000D01*
X140197588Y-62730000D01*
X140506703Y-62791486D01*
X140506703Y-62791486D01*
G37*
G36*
X82506703Y-62771486D02*
G01*
X82797883Y-62892097D01*
X83059940Y-63067198D01*
X83282802Y-63290060D01*
X83457903Y-63552117D01*
X83578514Y-63843297D01*
X83640000Y-64152412D01*
X83640000Y-64467588D01*
X83578514Y-64776703D01*
X83457903Y-65067883D01*
X83282802Y-65329940D01*
X83059940Y-65552802D01*
X82797883Y-65727903D01*
X82506703Y-65848514D01*
X82197588Y-65910000D01*
X81882412Y-65910000D01*
X81573297Y-65848514D01*
X81282117Y-65727903D01*
X81020060Y-65552802D01*
X80797198Y-65329940D01*
X80622097Y-65067883D01*
X80501486Y-64776703D01*
X80440000Y-64467588D01*
X80440000Y-64152412D01*
X80501486Y-63843297D01*
X80622097Y-63552117D01*
X80797198Y-63290060D01*
X81020060Y-63067198D01*
X81282117Y-62892097D01*
X81573297Y-62771486D01*
X81882412Y-62710000D01*
X82197588Y-62710000D01*
X82506703Y-62771486D01*
X82506703Y-62771486D01*
G37*
G36*
X132826232Y-62113746D02*
G01*
X132915770Y-62140907D01*
X133005309Y-62168068D01*
X133093523Y-62215220D01*
X133170345Y-62256282D01*
X133170347Y-62256283D01*
X133170346Y-62256283D01*
X133315002Y-62374998D01*
X133433717Y-62519654D01*
X133521932Y-62684691D01*
X133521932Y-62684692D01*
X133554328Y-62791486D01*
X133576254Y-62863769D01*
X133594596Y-63050000D01*
X133576254Y-63236231D01*
X133521932Y-63415309D01*
X133474780Y-63503523D01*
X133448807Y-63552116D01*
X133433717Y-63580346D01*
X133315002Y-63725002D01*
X133183316Y-63833073D01*
X133170345Y-63843718D01*
X133133715Y-63863297D01*
X133005309Y-63931932D01*
X132915770Y-63959093D01*
X132826232Y-63986254D01*
X132686666Y-64000000D01*
X132593334Y-64000000D01*
X132453768Y-63986254D01*
X132364230Y-63959093D01*
X132274691Y-63931932D01*
X132146285Y-63863297D01*
X132109655Y-63843718D01*
X132096684Y-63833073D01*
X131964998Y-63725002D01*
X131846283Y-63580346D01*
X131831194Y-63552116D01*
X131805220Y-63503523D01*
X131758068Y-63415309D01*
X131703746Y-63236231D01*
X131685404Y-63050000D01*
X131703746Y-62863769D01*
X131725673Y-62791486D01*
X131758068Y-62684692D01*
X131758068Y-62684691D01*
X131846283Y-62519654D01*
X131964998Y-62374998D01*
X132109654Y-62256283D01*
X132109653Y-62256283D01*
X132109655Y-62256282D01*
X132186477Y-62215220D01*
X132274691Y-62168068D01*
X132364230Y-62140907D01*
X132453768Y-62113746D01*
X132593334Y-62100000D01*
X132686666Y-62100000D01*
X132826232Y-62113746D01*
X132826232Y-62113746D01*
G37*
G36*
X130286232Y-62113746D02*
G01*
X130375770Y-62140907D01*
X130465309Y-62168068D01*
X130553523Y-62215220D01*
X130630345Y-62256282D01*
X130630347Y-62256283D01*
X130630346Y-62256283D01*
X130775002Y-62374998D01*
X130893717Y-62519654D01*
X130981932Y-62684691D01*
X130981932Y-62684692D01*
X131014328Y-62791486D01*
X131036254Y-62863769D01*
X131054596Y-63050000D01*
X131036254Y-63236231D01*
X130981932Y-63415309D01*
X130934780Y-63503523D01*
X130908807Y-63552116D01*
X130893717Y-63580346D01*
X130775002Y-63725002D01*
X130643316Y-63833073D01*
X130630345Y-63843718D01*
X130593715Y-63863297D01*
X130465309Y-63931932D01*
X130375770Y-63959093D01*
X130286232Y-63986254D01*
X130146666Y-64000000D01*
X130053334Y-64000000D01*
X129913768Y-63986254D01*
X129824230Y-63959093D01*
X129734691Y-63931932D01*
X129606285Y-63863297D01*
X129569655Y-63843718D01*
X129556684Y-63833073D01*
X129424998Y-63725002D01*
X129306283Y-63580346D01*
X129291194Y-63552116D01*
X129265220Y-63503523D01*
X129218068Y-63415309D01*
X129163746Y-63236231D01*
X129145404Y-63050000D01*
X129163746Y-62863769D01*
X129185673Y-62791486D01*
X129218068Y-62684692D01*
X129218068Y-62684691D01*
X129306283Y-62519654D01*
X129424998Y-62374998D01*
X129569654Y-62256283D01*
X129569653Y-62256283D01*
X129569655Y-62256282D01*
X129646477Y-62215220D01*
X129734691Y-62168068D01*
X129824230Y-62140907D01*
X129913768Y-62113746D01*
X130053334Y-62100000D01*
X130146666Y-62100000D01*
X130286232Y-62113746D01*
X130286232Y-62113746D01*
G37*
G36*
X127746232Y-62113746D02*
G01*
X127835770Y-62140907D01*
X127925309Y-62168068D01*
X128013523Y-62215220D01*
X128090345Y-62256282D01*
X128090347Y-62256283D01*
X128090346Y-62256283D01*
X128235002Y-62374998D01*
X128353717Y-62519654D01*
X128441932Y-62684691D01*
X128441932Y-62684692D01*
X128474328Y-62791486D01*
X128496254Y-62863769D01*
X128514596Y-63050000D01*
X128496254Y-63236231D01*
X128441932Y-63415309D01*
X128394780Y-63503523D01*
X128368807Y-63552116D01*
X128353717Y-63580346D01*
X128235002Y-63725002D01*
X128103316Y-63833073D01*
X128090345Y-63843718D01*
X128053715Y-63863297D01*
X127925309Y-63931932D01*
X127835770Y-63959093D01*
X127746232Y-63986254D01*
X127606666Y-64000000D01*
X127513334Y-64000000D01*
X127373768Y-63986254D01*
X127284230Y-63959093D01*
X127194691Y-63931932D01*
X127066285Y-63863297D01*
X127029655Y-63843718D01*
X127016684Y-63833073D01*
X126884998Y-63725002D01*
X126766283Y-63580346D01*
X126751194Y-63552116D01*
X126725220Y-63503523D01*
X126678068Y-63415309D01*
X126623746Y-63236231D01*
X126605404Y-63050000D01*
X126623746Y-62863769D01*
X126645673Y-62791486D01*
X126678068Y-62684692D01*
X126678068Y-62684691D01*
X126766283Y-62519654D01*
X126884998Y-62374998D01*
X127029654Y-62256283D01*
X127029653Y-62256283D01*
X127029655Y-62256282D01*
X127106477Y-62215220D01*
X127194691Y-62168068D01*
X127284230Y-62140907D01*
X127373768Y-62113746D01*
X127513334Y-62100000D01*
X127606666Y-62100000D01*
X127746232Y-62113746D01*
X127746232Y-62113746D01*
G37*
G36*
X125206232Y-62113746D02*
G01*
X125295770Y-62140907D01*
X125385309Y-62168068D01*
X125473523Y-62215220D01*
X125550345Y-62256282D01*
X125550347Y-62256283D01*
X125550346Y-62256283D01*
X125695002Y-62374998D01*
X125813717Y-62519654D01*
X125901932Y-62684691D01*
X125901932Y-62684692D01*
X125934328Y-62791486D01*
X125956254Y-62863769D01*
X125974596Y-63050000D01*
X125956254Y-63236231D01*
X125901932Y-63415309D01*
X125854780Y-63503523D01*
X125828807Y-63552116D01*
X125813717Y-63580346D01*
X125695002Y-63725002D01*
X125563316Y-63833073D01*
X125550345Y-63843718D01*
X125513715Y-63863297D01*
X125385309Y-63931932D01*
X125295770Y-63959093D01*
X125206232Y-63986254D01*
X125066666Y-64000000D01*
X124973334Y-64000000D01*
X124833768Y-63986254D01*
X124744230Y-63959093D01*
X124654691Y-63931932D01*
X124526285Y-63863297D01*
X124489655Y-63843718D01*
X124476684Y-63833073D01*
X124344998Y-63725002D01*
X124226283Y-63580346D01*
X124211194Y-63552116D01*
X124185220Y-63503523D01*
X124138068Y-63415309D01*
X124083746Y-63236231D01*
X124065404Y-63050000D01*
X124083746Y-62863769D01*
X124105673Y-62791486D01*
X124138068Y-62684692D01*
X124138068Y-62684691D01*
X124226283Y-62519654D01*
X124344998Y-62374998D01*
X124489654Y-62256283D01*
X124489653Y-62256283D01*
X124489655Y-62256282D01*
X124566477Y-62215220D01*
X124654691Y-62168068D01*
X124744230Y-62140907D01*
X124833768Y-62113746D01*
X124973334Y-62100000D01*
X125066666Y-62100000D01*
X125206232Y-62113746D01*
X125206232Y-62113746D01*
G37*
G36*
X122666232Y-62113746D02*
G01*
X122755770Y-62140907D01*
X122845309Y-62168068D01*
X122933523Y-62215220D01*
X123010345Y-62256282D01*
X123010347Y-62256283D01*
X123010346Y-62256283D01*
X123155002Y-62374998D01*
X123273717Y-62519654D01*
X123361932Y-62684691D01*
X123361932Y-62684692D01*
X123394328Y-62791486D01*
X123416254Y-62863769D01*
X123434596Y-63050000D01*
X123416254Y-63236231D01*
X123361932Y-63415309D01*
X123314780Y-63503523D01*
X123288807Y-63552116D01*
X123273717Y-63580346D01*
X123155002Y-63725002D01*
X123023316Y-63833073D01*
X123010345Y-63843718D01*
X122973715Y-63863297D01*
X122845309Y-63931932D01*
X122755770Y-63959093D01*
X122666232Y-63986254D01*
X122526666Y-64000000D01*
X122433334Y-64000000D01*
X122293768Y-63986254D01*
X122204230Y-63959093D01*
X122114691Y-63931932D01*
X121986285Y-63863297D01*
X121949655Y-63843718D01*
X121936684Y-63833073D01*
X121804998Y-63725002D01*
X121686283Y-63580346D01*
X121671194Y-63552116D01*
X121645220Y-63503523D01*
X121598068Y-63415309D01*
X121543746Y-63236231D01*
X121525404Y-63050000D01*
X121543746Y-62863769D01*
X121565673Y-62791486D01*
X121598068Y-62684692D01*
X121598068Y-62684691D01*
X121686283Y-62519654D01*
X121804998Y-62374998D01*
X121949654Y-62256283D01*
X121949653Y-62256283D01*
X121949655Y-62256282D01*
X122026477Y-62215220D01*
X122114691Y-62168068D01*
X122204230Y-62140907D01*
X122293768Y-62113746D01*
X122433334Y-62100000D01*
X122526666Y-62100000D01*
X122666232Y-62113746D01*
X122666232Y-62113746D01*
G37*
G36*
X120126232Y-62113746D02*
G01*
X120215770Y-62140907D01*
X120305309Y-62168068D01*
X120393523Y-62215220D01*
X120470345Y-62256282D01*
X120470347Y-62256283D01*
X120470346Y-62256283D01*
X120615002Y-62374998D01*
X120733717Y-62519654D01*
X120821932Y-62684691D01*
X120821932Y-62684692D01*
X120854328Y-62791486D01*
X120876254Y-62863769D01*
X120894596Y-63050000D01*
X120876254Y-63236231D01*
X120821932Y-63415309D01*
X120774780Y-63503523D01*
X120748807Y-63552116D01*
X120733717Y-63580346D01*
X120615002Y-63725002D01*
X120483316Y-63833073D01*
X120470345Y-63843718D01*
X120433715Y-63863297D01*
X120305309Y-63931932D01*
X120215770Y-63959093D01*
X120126232Y-63986254D01*
X119986666Y-64000000D01*
X119893334Y-64000000D01*
X119753768Y-63986254D01*
X119664230Y-63959093D01*
X119574691Y-63931932D01*
X119446285Y-63863297D01*
X119409655Y-63843718D01*
X119396684Y-63833073D01*
X119264998Y-63725002D01*
X119146283Y-63580346D01*
X119131194Y-63552116D01*
X119105220Y-63503523D01*
X119058068Y-63415309D01*
X119003746Y-63236231D01*
X118985404Y-63050000D01*
X119003746Y-62863769D01*
X119025673Y-62791486D01*
X119058068Y-62684692D01*
X119058068Y-62684691D01*
X119146283Y-62519654D01*
X119264998Y-62374998D01*
X119409654Y-62256283D01*
X119409653Y-62256283D01*
X119409655Y-62256282D01*
X119486477Y-62215220D01*
X119574691Y-62168068D01*
X119664230Y-62140907D01*
X119753768Y-62113746D01*
X119893334Y-62100000D01*
X119986666Y-62100000D01*
X120126232Y-62113746D01*
X120126232Y-62113746D01*
G37*
G36*
X117586232Y-62113746D02*
G01*
X117675770Y-62140907D01*
X117765309Y-62168068D01*
X117853523Y-62215220D01*
X117930345Y-62256282D01*
X117930347Y-62256283D01*
X117930346Y-62256283D01*
X118075002Y-62374998D01*
X118193717Y-62519654D01*
X118281932Y-62684691D01*
X118281932Y-62684692D01*
X118314328Y-62791486D01*
X118336254Y-62863769D01*
X118354596Y-63050000D01*
X118336254Y-63236231D01*
X118281932Y-63415309D01*
X118234780Y-63503523D01*
X118208807Y-63552116D01*
X118193717Y-63580346D01*
X118075002Y-63725002D01*
X117943316Y-63833073D01*
X117930345Y-63843718D01*
X117893715Y-63863297D01*
X117765309Y-63931932D01*
X117675770Y-63959093D01*
X117586232Y-63986254D01*
X117446666Y-64000000D01*
X117353334Y-64000000D01*
X117213768Y-63986254D01*
X117124230Y-63959093D01*
X117034691Y-63931932D01*
X116906285Y-63863297D01*
X116869655Y-63843718D01*
X116856684Y-63833073D01*
X116724998Y-63725002D01*
X116606283Y-63580346D01*
X116591194Y-63552116D01*
X116565220Y-63503523D01*
X116518068Y-63415309D01*
X116463746Y-63236231D01*
X116445404Y-63050000D01*
X116463746Y-62863769D01*
X116485673Y-62791486D01*
X116518068Y-62684692D01*
X116518068Y-62684691D01*
X116606283Y-62519654D01*
X116724998Y-62374998D01*
X116869654Y-62256283D01*
X116869653Y-62256283D01*
X116869655Y-62256282D01*
X116946477Y-62215220D01*
X117034691Y-62168068D01*
X117124230Y-62140907D01*
X117213768Y-62113746D01*
X117353334Y-62100000D01*
X117446666Y-62100000D01*
X117586232Y-62113746D01*
X117586232Y-62113746D01*
G37*
G36*
X115046232Y-62113746D02*
G01*
X115135770Y-62140907D01*
X115225309Y-62168068D01*
X115313523Y-62215220D01*
X115390345Y-62256282D01*
X115390347Y-62256283D01*
X115390346Y-62256283D01*
X115535002Y-62374998D01*
X115653717Y-62519654D01*
X115741932Y-62684691D01*
X115741932Y-62684692D01*
X115774328Y-62791486D01*
X115796254Y-62863769D01*
X115814596Y-63050000D01*
X115796254Y-63236231D01*
X115741932Y-63415309D01*
X115694780Y-63503523D01*
X115668807Y-63552116D01*
X115653717Y-63580346D01*
X115535002Y-63725002D01*
X115403316Y-63833073D01*
X115390345Y-63843718D01*
X115353715Y-63863297D01*
X115225309Y-63931932D01*
X115135770Y-63959093D01*
X115046232Y-63986254D01*
X114906666Y-64000000D01*
X114813334Y-64000000D01*
X114673768Y-63986254D01*
X114584230Y-63959093D01*
X114494691Y-63931932D01*
X114366285Y-63863297D01*
X114329655Y-63843718D01*
X114316684Y-63833073D01*
X114184998Y-63725002D01*
X114066283Y-63580346D01*
X114051194Y-63552116D01*
X114025220Y-63503523D01*
X113978068Y-63415309D01*
X113923746Y-63236231D01*
X113905404Y-63050000D01*
X113923746Y-62863769D01*
X113945673Y-62791486D01*
X113978068Y-62684692D01*
X113978068Y-62684691D01*
X114066283Y-62519654D01*
X114184998Y-62374998D01*
X114329654Y-62256283D01*
X114329653Y-62256283D01*
X114329655Y-62256282D01*
X114406477Y-62215220D01*
X114494691Y-62168068D01*
X114584230Y-62140907D01*
X114673768Y-62113746D01*
X114813334Y-62100000D01*
X114906666Y-62100000D01*
X115046232Y-62113746D01*
X115046232Y-62113746D01*
G37*
G36*
X112506232Y-62113746D02*
G01*
X112595770Y-62140907D01*
X112685309Y-62168068D01*
X112773523Y-62215220D01*
X112850345Y-62256282D01*
X112850347Y-62256283D01*
X112850346Y-62256283D01*
X112995002Y-62374998D01*
X113113717Y-62519654D01*
X113201932Y-62684691D01*
X113201932Y-62684692D01*
X113234328Y-62791486D01*
X113256254Y-62863769D01*
X113274596Y-63050000D01*
X113256254Y-63236231D01*
X113201932Y-63415309D01*
X113154780Y-63503523D01*
X113128807Y-63552116D01*
X113113717Y-63580346D01*
X112995002Y-63725002D01*
X112863316Y-63833073D01*
X112850345Y-63843718D01*
X112813715Y-63863297D01*
X112685309Y-63931932D01*
X112595770Y-63959093D01*
X112506232Y-63986254D01*
X112366666Y-64000000D01*
X112273334Y-64000000D01*
X112133768Y-63986254D01*
X112044230Y-63959093D01*
X111954691Y-63931932D01*
X111826285Y-63863297D01*
X111789655Y-63843718D01*
X111776684Y-63833073D01*
X111644998Y-63725002D01*
X111526283Y-63580346D01*
X111511194Y-63552116D01*
X111485220Y-63503523D01*
X111438068Y-63415309D01*
X111383746Y-63236231D01*
X111365404Y-63050000D01*
X111383746Y-62863769D01*
X111405673Y-62791486D01*
X111438068Y-62684692D01*
X111438068Y-62684691D01*
X111526283Y-62519654D01*
X111644998Y-62374998D01*
X111789654Y-62256283D01*
X111789653Y-62256283D01*
X111789655Y-62256282D01*
X111866477Y-62215220D01*
X111954691Y-62168068D01*
X112044230Y-62140907D01*
X112133768Y-62113746D01*
X112273334Y-62100000D01*
X112366666Y-62100000D01*
X112506232Y-62113746D01*
X112506232Y-62113746D01*
G37*
G36*
X109966232Y-62113746D02*
G01*
X110055770Y-62140907D01*
X110145309Y-62168068D01*
X110233523Y-62215220D01*
X110310345Y-62256282D01*
X110310347Y-62256283D01*
X110310346Y-62256283D01*
X110455002Y-62374998D01*
X110573717Y-62519654D01*
X110661932Y-62684691D01*
X110661932Y-62684692D01*
X110694328Y-62791486D01*
X110716254Y-62863769D01*
X110734596Y-63050000D01*
X110716254Y-63236231D01*
X110661932Y-63415309D01*
X110614780Y-63503523D01*
X110588807Y-63552116D01*
X110573717Y-63580346D01*
X110455002Y-63725002D01*
X110323316Y-63833073D01*
X110310345Y-63843718D01*
X110273715Y-63863297D01*
X110145309Y-63931932D01*
X110055770Y-63959093D01*
X109966232Y-63986254D01*
X109826666Y-64000000D01*
X109733334Y-64000000D01*
X109593768Y-63986254D01*
X109504230Y-63959093D01*
X109414691Y-63931932D01*
X109286285Y-63863297D01*
X109249655Y-63843718D01*
X109236684Y-63833073D01*
X109104998Y-63725002D01*
X108986283Y-63580346D01*
X108971194Y-63552116D01*
X108945220Y-63503523D01*
X108898068Y-63415309D01*
X108843746Y-63236231D01*
X108825404Y-63050000D01*
X108843746Y-62863769D01*
X108865673Y-62791486D01*
X108898068Y-62684692D01*
X108898068Y-62684691D01*
X108986283Y-62519654D01*
X109104998Y-62374998D01*
X109249654Y-62256283D01*
X109249653Y-62256283D01*
X109249655Y-62256282D01*
X109326477Y-62215220D01*
X109414691Y-62168068D01*
X109504230Y-62140907D01*
X109593768Y-62113746D01*
X109733334Y-62100000D01*
X109826666Y-62100000D01*
X109966232Y-62113746D01*
X109966232Y-62113746D01*
G37*
G36*
X107426232Y-62113746D02*
G01*
X107515770Y-62140907D01*
X107605309Y-62168068D01*
X107693523Y-62215220D01*
X107770345Y-62256282D01*
X107770347Y-62256283D01*
X107770346Y-62256283D01*
X107915002Y-62374998D01*
X108033717Y-62519654D01*
X108121932Y-62684691D01*
X108121932Y-62684692D01*
X108154328Y-62791486D01*
X108176254Y-62863769D01*
X108194596Y-63050000D01*
X108176254Y-63236231D01*
X108121932Y-63415309D01*
X108074780Y-63503523D01*
X108048807Y-63552116D01*
X108033717Y-63580346D01*
X107915002Y-63725002D01*
X107783316Y-63833073D01*
X107770345Y-63843718D01*
X107733715Y-63863297D01*
X107605309Y-63931932D01*
X107515770Y-63959093D01*
X107426232Y-63986254D01*
X107286666Y-64000000D01*
X107193334Y-64000000D01*
X107053768Y-63986254D01*
X106964230Y-63959093D01*
X106874691Y-63931932D01*
X106746285Y-63863297D01*
X106709655Y-63843718D01*
X106696684Y-63833073D01*
X106564998Y-63725002D01*
X106446283Y-63580346D01*
X106431194Y-63552116D01*
X106405220Y-63503523D01*
X106358068Y-63415309D01*
X106303746Y-63236231D01*
X106285404Y-63050000D01*
X106303746Y-62863769D01*
X106325673Y-62791486D01*
X106358068Y-62684692D01*
X106358068Y-62684691D01*
X106446283Y-62519654D01*
X106564998Y-62374998D01*
X106709654Y-62256283D01*
X106709653Y-62256283D01*
X106709655Y-62256282D01*
X106786477Y-62215220D01*
X106874691Y-62168068D01*
X106964230Y-62140907D01*
X107053768Y-62113746D01*
X107193334Y-62100000D01*
X107286666Y-62100000D01*
X107426232Y-62113746D01*
X107426232Y-62113746D01*
G37*
G36*
X104886232Y-62113746D02*
G01*
X104975770Y-62140907D01*
X105065309Y-62168068D01*
X105153523Y-62215220D01*
X105230345Y-62256282D01*
X105230347Y-62256283D01*
X105230346Y-62256283D01*
X105375002Y-62374998D01*
X105493717Y-62519654D01*
X105581932Y-62684691D01*
X105581932Y-62684692D01*
X105614328Y-62791486D01*
X105636254Y-62863769D01*
X105654596Y-63050000D01*
X105636254Y-63236231D01*
X105581932Y-63415309D01*
X105534780Y-63503523D01*
X105508807Y-63552116D01*
X105493717Y-63580346D01*
X105375002Y-63725002D01*
X105243316Y-63833073D01*
X105230345Y-63843718D01*
X105193715Y-63863297D01*
X105065309Y-63931932D01*
X104975770Y-63959093D01*
X104886232Y-63986254D01*
X104746666Y-64000000D01*
X104653334Y-64000000D01*
X104513768Y-63986254D01*
X104424230Y-63959093D01*
X104334691Y-63931932D01*
X104206285Y-63863297D01*
X104169655Y-63843718D01*
X104156684Y-63833073D01*
X104024998Y-63725002D01*
X103906283Y-63580346D01*
X103891194Y-63552116D01*
X103865220Y-63503523D01*
X103818068Y-63415309D01*
X103763746Y-63236231D01*
X103745404Y-63050000D01*
X103763746Y-62863769D01*
X103785673Y-62791486D01*
X103818068Y-62684692D01*
X103818068Y-62684691D01*
X103906283Y-62519654D01*
X104024998Y-62374998D01*
X104169654Y-62256283D01*
X104169653Y-62256283D01*
X104169655Y-62256282D01*
X104246477Y-62215220D01*
X104334691Y-62168068D01*
X104424230Y-62140907D01*
X104513768Y-62113746D01*
X104653334Y-62100000D01*
X104746666Y-62100000D01*
X104886232Y-62113746D01*
X104886232Y-62113746D01*
G37*
G36*
X102346232Y-62113746D02*
G01*
X102435770Y-62140907D01*
X102525309Y-62168068D01*
X102613523Y-62215220D01*
X102690345Y-62256282D01*
X102690347Y-62256283D01*
X102690346Y-62256283D01*
X102835002Y-62374998D01*
X102953717Y-62519654D01*
X103041932Y-62684691D01*
X103041932Y-62684692D01*
X103074328Y-62791486D01*
X103096254Y-62863769D01*
X103114596Y-63050000D01*
X103096254Y-63236231D01*
X103041932Y-63415309D01*
X102994780Y-63503523D01*
X102968807Y-63552116D01*
X102953717Y-63580346D01*
X102835002Y-63725002D01*
X102703316Y-63833073D01*
X102690345Y-63843718D01*
X102653715Y-63863297D01*
X102525309Y-63931932D01*
X102435770Y-63959093D01*
X102346232Y-63986254D01*
X102206666Y-64000000D01*
X102113334Y-64000000D01*
X101973768Y-63986254D01*
X101884230Y-63959093D01*
X101794691Y-63931932D01*
X101666285Y-63863297D01*
X101629655Y-63843718D01*
X101616684Y-63833073D01*
X101484998Y-63725002D01*
X101366283Y-63580346D01*
X101351194Y-63552116D01*
X101325220Y-63503523D01*
X101278068Y-63415309D01*
X101223746Y-63236231D01*
X101205404Y-63050000D01*
X101223746Y-62863769D01*
X101245673Y-62791486D01*
X101278068Y-62684692D01*
X101278068Y-62684691D01*
X101366283Y-62519654D01*
X101484998Y-62374998D01*
X101629654Y-62256283D01*
X101629653Y-62256283D01*
X101629655Y-62256282D01*
X101706477Y-62215220D01*
X101794691Y-62168068D01*
X101884230Y-62140907D01*
X101973768Y-62113746D01*
X102113334Y-62100000D01*
X102206666Y-62100000D01*
X102346232Y-62113746D01*
X102346232Y-62113746D01*
G37*
G36*
X97266232Y-62113746D02*
G01*
X97355770Y-62140907D01*
X97445309Y-62168068D01*
X97533523Y-62215220D01*
X97610345Y-62256282D01*
X97610347Y-62256283D01*
X97610346Y-62256283D01*
X97755002Y-62374998D01*
X97873717Y-62519654D01*
X97961932Y-62684691D01*
X97961932Y-62684692D01*
X97994328Y-62791486D01*
X98016254Y-62863769D01*
X98034596Y-63050000D01*
X98016254Y-63236231D01*
X97961932Y-63415309D01*
X97914780Y-63503523D01*
X97888807Y-63552116D01*
X97873717Y-63580346D01*
X97755002Y-63725002D01*
X97623316Y-63833073D01*
X97610345Y-63843718D01*
X97573715Y-63863297D01*
X97445309Y-63931932D01*
X97355770Y-63959093D01*
X97266232Y-63986254D01*
X97126666Y-64000000D01*
X97033334Y-64000000D01*
X96893768Y-63986254D01*
X96804230Y-63959093D01*
X96714691Y-63931932D01*
X96586285Y-63863297D01*
X96549655Y-63843718D01*
X96536684Y-63833073D01*
X96404998Y-63725002D01*
X96286283Y-63580346D01*
X96271194Y-63552116D01*
X96245220Y-63503523D01*
X96198068Y-63415309D01*
X96143746Y-63236231D01*
X96125404Y-63050000D01*
X96143746Y-62863769D01*
X96165673Y-62791486D01*
X96198068Y-62684692D01*
X96198068Y-62684691D01*
X96286283Y-62519654D01*
X96404998Y-62374998D01*
X96549654Y-62256283D01*
X96549653Y-62256283D01*
X96549655Y-62256282D01*
X96626477Y-62215220D01*
X96714691Y-62168068D01*
X96804230Y-62140907D01*
X96893768Y-62113746D01*
X97033334Y-62100000D01*
X97126666Y-62100000D01*
X97266232Y-62113746D01*
X97266232Y-62113746D01*
G37*
G36*
X94726232Y-62113746D02*
G01*
X94815770Y-62140907D01*
X94905309Y-62168068D01*
X94993523Y-62215220D01*
X95070345Y-62256282D01*
X95070347Y-62256283D01*
X95070346Y-62256283D01*
X95215002Y-62374998D01*
X95333717Y-62519654D01*
X95421932Y-62684691D01*
X95421932Y-62684692D01*
X95454328Y-62791486D01*
X95476254Y-62863769D01*
X95494596Y-63050000D01*
X95476254Y-63236231D01*
X95421932Y-63415309D01*
X95374780Y-63503523D01*
X95348807Y-63552116D01*
X95333717Y-63580346D01*
X95215002Y-63725002D01*
X95083316Y-63833073D01*
X95070345Y-63843718D01*
X95033715Y-63863297D01*
X94905309Y-63931932D01*
X94815770Y-63959093D01*
X94726232Y-63986254D01*
X94586666Y-64000000D01*
X94493334Y-64000000D01*
X94353768Y-63986254D01*
X94264230Y-63959093D01*
X94174691Y-63931932D01*
X94046285Y-63863297D01*
X94009655Y-63843718D01*
X93996684Y-63833073D01*
X93864998Y-63725002D01*
X93746283Y-63580346D01*
X93731194Y-63552116D01*
X93705220Y-63503523D01*
X93658068Y-63415309D01*
X93603746Y-63236231D01*
X93585404Y-63050000D01*
X93603746Y-62863769D01*
X93625673Y-62791486D01*
X93658068Y-62684692D01*
X93658068Y-62684691D01*
X93746283Y-62519654D01*
X93864998Y-62374998D01*
X94009654Y-62256283D01*
X94009653Y-62256283D01*
X94009655Y-62256282D01*
X94086477Y-62215220D01*
X94174691Y-62168068D01*
X94264230Y-62140907D01*
X94353768Y-62113746D01*
X94493334Y-62100000D01*
X94586666Y-62100000D01*
X94726232Y-62113746D01*
X94726232Y-62113746D01*
G37*
G36*
X99806232Y-62113746D02*
G01*
X99895770Y-62140907D01*
X99985309Y-62168068D01*
X100073523Y-62215220D01*
X100150345Y-62256282D01*
X100150347Y-62256283D01*
X100150346Y-62256283D01*
X100295002Y-62374998D01*
X100413717Y-62519654D01*
X100501932Y-62684691D01*
X100501932Y-62684692D01*
X100534328Y-62791486D01*
X100556254Y-62863769D01*
X100574596Y-63050000D01*
X100556254Y-63236231D01*
X100501932Y-63415309D01*
X100454780Y-63503523D01*
X100428807Y-63552116D01*
X100413717Y-63580346D01*
X100295002Y-63725002D01*
X100163316Y-63833073D01*
X100150345Y-63843718D01*
X100113715Y-63863297D01*
X99985309Y-63931932D01*
X99895770Y-63959093D01*
X99806232Y-63986254D01*
X99666666Y-64000000D01*
X99573334Y-64000000D01*
X99433768Y-63986254D01*
X99344230Y-63959093D01*
X99254691Y-63931932D01*
X99126285Y-63863297D01*
X99089655Y-63843718D01*
X99076684Y-63833073D01*
X98944998Y-63725002D01*
X98826283Y-63580346D01*
X98811194Y-63552116D01*
X98785220Y-63503523D01*
X98738068Y-63415309D01*
X98683746Y-63236231D01*
X98665404Y-63050000D01*
X98683746Y-62863769D01*
X98705673Y-62791486D01*
X98738068Y-62684692D01*
X98738068Y-62684691D01*
X98826283Y-62519654D01*
X98944998Y-62374998D01*
X99089654Y-62256283D01*
X99089653Y-62256283D01*
X99089655Y-62256282D01*
X99166477Y-62215220D01*
X99254691Y-62168068D01*
X99344230Y-62140907D01*
X99433768Y-62113746D01*
X99573334Y-62100000D01*
X99666666Y-62100000D01*
X99806232Y-62113746D01*
X99806232Y-62113746D01*
G37*
G36*
X92186232Y-62113746D02*
G01*
X92275770Y-62140907D01*
X92365309Y-62168068D01*
X92453523Y-62215220D01*
X92530345Y-62256282D01*
X92530347Y-62256283D01*
X92530346Y-62256283D01*
X92675002Y-62374998D01*
X92793717Y-62519654D01*
X92881932Y-62684691D01*
X92881932Y-62684692D01*
X92914328Y-62791486D01*
X92936254Y-62863769D01*
X92954596Y-63050000D01*
X92936254Y-63236231D01*
X92881932Y-63415309D01*
X92834780Y-63503523D01*
X92808807Y-63552116D01*
X92793717Y-63580346D01*
X92675002Y-63725002D01*
X92543316Y-63833073D01*
X92530345Y-63843718D01*
X92493715Y-63863297D01*
X92365309Y-63931932D01*
X92275770Y-63959093D01*
X92186232Y-63986254D01*
X92046666Y-64000000D01*
X91953334Y-64000000D01*
X91813768Y-63986254D01*
X91724230Y-63959093D01*
X91634691Y-63931932D01*
X91506285Y-63863297D01*
X91469655Y-63843718D01*
X91456684Y-63833073D01*
X91324998Y-63725002D01*
X91206283Y-63580346D01*
X91191194Y-63552116D01*
X91165220Y-63503523D01*
X91118068Y-63415309D01*
X91063746Y-63236231D01*
X91045404Y-63050000D01*
X91063746Y-62863769D01*
X91085673Y-62791486D01*
X91118068Y-62684692D01*
X91118068Y-62684691D01*
X91206283Y-62519654D01*
X91324998Y-62374998D01*
X91469654Y-62256283D01*
X91469653Y-62256283D01*
X91469655Y-62256282D01*
X91546477Y-62215220D01*
X91634691Y-62168068D01*
X91724230Y-62140907D01*
X91813768Y-62113746D01*
X91953334Y-62100000D01*
X92046666Y-62100000D01*
X92186232Y-62113746D01*
X92186232Y-62113746D01*
G37*
G36*
X89646232Y-62113746D02*
G01*
X89735770Y-62140907D01*
X89825309Y-62168068D01*
X89913523Y-62215220D01*
X89990345Y-62256282D01*
X89990347Y-62256283D01*
X89990346Y-62256283D01*
X90135002Y-62374998D01*
X90253717Y-62519654D01*
X90341932Y-62684691D01*
X90341932Y-62684692D01*
X90374328Y-62791486D01*
X90396254Y-62863769D01*
X90414596Y-63050000D01*
X90396254Y-63236231D01*
X90341932Y-63415309D01*
X90294780Y-63503523D01*
X90268807Y-63552116D01*
X90253717Y-63580346D01*
X90135002Y-63725002D01*
X90003316Y-63833073D01*
X89990345Y-63843718D01*
X89953715Y-63863297D01*
X89825309Y-63931932D01*
X89735770Y-63959093D01*
X89646232Y-63986254D01*
X89506666Y-64000000D01*
X89413334Y-64000000D01*
X89273768Y-63986254D01*
X89184230Y-63959093D01*
X89094691Y-63931932D01*
X88966285Y-63863297D01*
X88929655Y-63843718D01*
X88916684Y-63833073D01*
X88784998Y-63725002D01*
X88666283Y-63580346D01*
X88651194Y-63552116D01*
X88625220Y-63503523D01*
X88578068Y-63415309D01*
X88523746Y-63236231D01*
X88505404Y-63050000D01*
X88523746Y-62863769D01*
X88545673Y-62791486D01*
X88578068Y-62684692D01*
X88578068Y-62684691D01*
X88666283Y-62519654D01*
X88784998Y-62374998D01*
X88929654Y-62256283D01*
X88929653Y-62256283D01*
X88929655Y-62256282D01*
X89006477Y-62215220D01*
X89094691Y-62168068D01*
X89184230Y-62140907D01*
X89273768Y-62113746D01*
X89413334Y-62100000D01*
X89506666Y-62100000D01*
X89646232Y-62113746D01*
X89646232Y-62113746D01*
G37*
G36*
X87106232Y-62113746D02*
G01*
X87195770Y-62140907D01*
X87285309Y-62168068D01*
X87373523Y-62215220D01*
X87450345Y-62256282D01*
X87450347Y-62256283D01*
X87450346Y-62256283D01*
X87595002Y-62374998D01*
X87713717Y-62519654D01*
X87801932Y-62684691D01*
X87801932Y-62684692D01*
X87834328Y-62791486D01*
X87856254Y-62863769D01*
X87874596Y-63050000D01*
X87856254Y-63236231D01*
X87801932Y-63415309D01*
X87754780Y-63503523D01*
X87728807Y-63552116D01*
X87713717Y-63580346D01*
X87595002Y-63725002D01*
X87463316Y-63833073D01*
X87450345Y-63843718D01*
X87413715Y-63863297D01*
X87285309Y-63931932D01*
X87195770Y-63959093D01*
X87106232Y-63986254D01*
X86966666Y-64000000D01*
X86873334Y-64000000D01*
X86733768Y-63986254D01*
X86644230Y-63959093D01*
X86554691Y-63931932D01*
X86426285Y-63863297D01*
X86389655Y-63843718D01*
X86376684Y-63833073D01*
X86244998Y-63725002D01*
X86126283Y-63580346D01*
X86111194Y-63552116D01*
X86085220Y-63503523D01*
X86038068Y-63415309D01*
X85983746Y-63236231D01*
X85965404Y-63050000D01*
X85983746Y-62863769D01*
X86005673Y-62791486D01*
X86038068Y-62684692D01*
X86038068Y-62684691D01*
X86126283Y-62519654D01*
X86244998Y-62374998D01*
X86389654Y-62256283D01*
X86389653Y-62256283D01*
X86389655Y-62256282D01*
X86466477Y-62215220D01*
X86554691Y-62168068D01*
X86644230Y-62140907D01*
X86733768Y-62113746D01*
X86873334Y-62100000D01*
X86966666Y-62100000D01*
X87106232Y-62113746D01*
X87106232Y-62113746D01*
G37*
G36*
X135366232Y-62113746D02*
G01*
X135455770Y-62140907D01*
X135545309Y-62168068D01*
X135633523Y-62215220D01*
X135710345Y-62256282D01*
X135710347Y-62256283D01*
X135710346Y-62256283D01*
X135855002Y-62374998D01*
X135973717Y-62519654D01*
X136061932Y-62684691D01*
X136061932Y-62684692D01*
X136094328Y-62791486D01*
X136116254Y-62863769D01*
X136134596Y-63050000D01*
X136116254Y-63236231D01*
X136061932Y-63415309D01*
X136014780Y-63503523D01*
X135988807Y-63552116D01*
X135973717Y-63580346D01*
X135855002Y-63725002D01*
X135723316Y-63833073D01*
X135710345Y-63843718D01*
X135673715Y-63863297D01*
X135545309Y-63931932D01*
X135455770Y-63959093D01*
X135366232Y-63986254D01*
X135226666Y-64000000D01*
X135133334Y-64000000D01*
X134993768Y-63986254D01*
X134904230Y-63959093D01*
X134814691Y-63931932D01*
X134686285Y-63863297D01*
X134649655Y-63843718D01*
X134636684Y-63833073D01*
X134504998Y-63725002D01*
X134386283Y-63580346D01*
X134371194Y-63552116D01*
X134345220Y-63503523D01*
X134298068Y-63415309D01*
X134243746Y-63236231D01*
X134225404Y-63050000D01*
X134243746Y-62863769D01*
X134265673Y-62791486D01*
X134298068Y-62684692D01*
X134298068Y-62684691D01*
X134386283Y-62519654D01*
X134504998Y-62374998D01*
X134649654Y-62256283D01*
X134649653Y-62256283D01*
X134649655Y-62256282D01*
X134726477Y-62215220D01*
X134814691Y-62168068D01*
X134904230Y-62140907D01*
X134993768Y-62113746D01*
X135133334Y-62100000D01*
X135226666Y-62100000D01*
X135366232Y-62113746D01*
X135366232Y-62113746D01*
G37*
M02*
