%TF.GenerationSoftware,KiCad,Pcbnew,5.1.4-e60b266~84~ubuntu18.04.1*%
%TF.CreationDate,2019-11-04T19:33:46+01:00*%
%TF.ProjectId,FHSHat,46485348-6174-42e6-9b69-6361645f7063,rev?*%
%TF.SameCoordinates,Original*%
%TF.FileFunction,Copper,L2,Bot*%
%TF.FilePolarity,Positive*%
%FSLAX46Y46*%
G04 Gerber Fmt 4.6, Leading zero omitted, Abs format (unit mm)*
G04 Created by KiCad (PCBNEW 5.1.4-e60b266~84~ubuntu18.04.1) date 2019-11-04 19:33:46*
%MOMM*%
%LPD*%
G04 APERTURE LIST*
%ADD10C,0.100000*%
%ADD11O,2.500000X2.500000*%
%ADD12R,2.500000X2.500000*%
%ADD13C,0.150000*%
%ADD14C,2.400000*%
%ADD15O,1.700000X1.700000*%
%ADD16R,1.700000X1.700000*%
%ADD17C,3.000000*%
%ADD18C,2.100000*%
%ADD19R,2.100000X2.100000*%
%ADD20O,3.200000X3.200000*%
%ADD21R,3.200000X3.200000*%
%ADD22R,3.000000X3.000000*%
%ADD23C,0.400000*%
%ADD24C,0.800000*%
%ADD25C,1.000000*%
%ADD26C,0.500000*%
%ADD27C,0.250000*%
%ADD28C,0.254000*%
G04 APERTURE END LIST*
D10*
X78546356Y-63817611D02*
X78546356Y-113817611D01*
X78546356Y-63817611D02*
G75*
G02X81546356Y-60817611I3000000J0D01*
G01*
X140546356Y-60817611D02*
X81546356Y-60817611D01*
X140546356Y-60817611D02*
G75*
G02X143546356Y-63817611I0J-3000000D01*
G01*
X143546356Y-113817611D02*
X143546356Y-63817611D01*
X81546356Y-116817611D02*
G75*
G02X78546356Y-113817611I0J3000000D01*
G01*
X81546356Y-116817611D02*
X140546356Y-116817611D01*
X143546351Y-113822847D02*
G75*
G02X140546356Y-116817611I-2999995J5236D01*
G01*
D11*
X138970000Y-105060000D03*
X126770000Y-105060000D03*
X126770000Y-93060000D03*
X138970000Y-93060000D03*
D12*
X140970000Y-99060000D03*
D13*
G36*
X120228810Y-77542889D02*
G01*
X120287054Y-77551529D01*
X120344171Y-77565836D01*
X120399610Y-77585672D01*
X120452838Y-77610847D01*
X120503342Y-77641118D01*
X120550636Y-77676194D01*
X120594264Y-77715736D01*
X120633806Y-77759364D01*
X120668882Y-77806658D01*
X120699153Y-77857162D01*
X120724328Y-77910390D01*
X120744164Y-77965829D01*
X120758471Y-78022946D01*
X120767111Y-78081190D01*
X120770000Y-78140000D01*
X120770000Y-79340000D01*
X120767111Y-79398810D01*
X120758471Y-79457054D01*
X120744164Y-79514171D01*
X120724328Y-79569610D01*
X120699153Y-79622838D01*
X120668882Y-79673342D01*
X120633806Y-79720636D01*
X120594264Y-79764264D01*
X120550636Y-79803806D01*
X120503342Y-79838882D01*
X120452838Y-79869153D01*
X120399610Y-79894328D01*
X120344171Y-79914164D01*
X120287054Y-79928471D01*
X120228810Y-79937111D01*
X120170000Y-79940000D01*
X118970000Y-79940000D01*
X118911190Y-79937111D01*
X118852946Y-79928471D01*
X118795829Y-79914164D01*
X118740390Y-79894328D01*
X118687162Y-79869153D01*
X118636658Y-79838882D01*
X118589364Y-79803806D01*
X118545736Y-79764264D01*
X118506194Y-79720636D01*
X118471118Y-79673342D01*
X118440847Y-79622838D01*
X118415672Y-79569610D01*
X118395836Y-79514171D01*
X118381529Y-79457054D01*
X118372889Y-79398810D01*
X118370000Y-79340000D01*
X118370000Y-78140000D01*
X118372889Y-78081190D01*
X118381529Y-78022946D01*
X118395836Y-77965829D01*
X118415672Y-77910390D01*
X118440847Y-77857162D01*
X118471118Y-77806658D01*
X118506194Y-77759364D01*
X118545736Y-77715736D01*
X118589364Y-77676194D01*
X118636658Y-77641118D01*
X118687162Y-77610847D01*
X118740390Y-77585672D01*
X118795829Y-77565836D01*
X118852946Y-77551529D01*
X118911190Y-77542889D01*
X118970000Y-77540000D01*
X120170000Y-77540000D01*
X120228810Y-77542889D01*
X120228810Y-77542889D01*
G37*
D14*
X119570000Y-78740000D03*
X111570000Y-78740000D03*
D13*
G36*
X101178810Y-77542889D02*
G01*
X101237054Y-77551529D01*
X101294171Y-77565836D01*
X101349610Y-77585672D01*
X101402838Y-77610847D01*
X101453342Y-77641118D01*
X101500636Y-77676194D01*
X101544264Y-77715736D01*
X101583806Y-77759364D01*
X101618882Y-77806658D01*
X101649153Y-77857162D01*
X101674328Y-77910390D01*
X101694164Y-77965829D01*
X101708471Y-78022946D01*
X101717111Y-78081190D01*
X101720000Y-78140000D01*
X101720000Y-79340000D01*
X101717111Y-79398810D01*
X101708471Y-79457054D01*
X101694164Y-79514171D01*
X101674328Y-79569610D01*
X101649153Y-79622838D01*
X101618882Y-79673342D01*
X101583806Y-79720636D01*
X101544264Y-79764264D01*
X101500636Y-79803806D01*
X101453342Y-79838882D01*
X101402838Y-79869153D01*
X101349610Y-79894328D01*
X101294171Y-79914164D01*
X101237054Y-79928471D01*
X101178810Y-79937111D01*
X101120000Y-79940000D01*
X99920000Y-79940000D01*
X99861190Y-79937111D01*
X99802946Y-79928471D01*
X99745829Y-79914164D01*
X99690390Y-79894328D01*
X99637162Y-79869153D01*
X99586658Y-79838882D01*
X99539364Y-79803806D01*
X99495736Y-79764264D01*
X99456194Y-79720636D01*
X99421118Y-79673342D01*
X99390847Y-79622838D01*
X99365672Y-79569610D01*
X99345836Y-79514171D01*
X99331529Y-79457054D01*
X99322889Y-79398810D01*
X99320000Y-79340000D01*
X99320000Y-78140000D01*
X99322889Y-78081190D01*
X99331529Y-78022946D01*
X99345836Y-77965829D01*
X99365672Y-77910390D01*
X99390847Y-77857162D01*
X99421118Y-77806658D01*
X99456194Y-77759364D01*
X99495736Y-77715736D01*
X99539364Y-77676194D01*
X99586658Y-77641118D01*
X99637162Y-77610847D01*
X99690390Y-77585672D01*
X99745829Y-77565836D01*
X99802946Y-77551529D01*
X99861190Y-77542889D01*
X99920000Y-77540000D01*
X101120000Y-77540000D01*
X101178810Y-77542889D01*
X101178810Y-77542889D01*
G37*
D14*
X100520000Y-78740000D03*
X92520000Y-78740000D03*
D15*
X135180000Y-63050000D03*
X135180000Y-65590000D03*
X132640000Y-63050000D03*
X132640000Y-65590000D03*
X130100000Y-63050000D03*
X130100000Y-65590000D03*
X127560000Y-63050000D03*
X127560000Y-65590000D03*
X125020000Y-63050000D03*
X125020000Y-65590000D03*
X122480000Y-63050000D03*
X122480000Y-65590000D03*
X119940000Y-63050000D03*
X119940000Y-65590000D03*
X117400000Y-63050000D03*
X117400000Y-65590000D03*
X114860000Y-63050000D03*
X114860000Y-65590000D03*
X112320000Y-63050000D03*
X112320000Y-65590000D03*
X109780000Y-63050000D03*
X109780000Y-65590000D03*
X107240000Y-63050000D03*
X107240000Y-65590000D03*
X104700000Y-63050000D03*
X104700000Y-65590000D03*
X102160000Y-63050000D03*
X102160000Y-65590000D03*
X99620000Y-63050000D03*
X99620000Y-65590000D03*
X97080000Y-63050000D03*
X97080000Y-65590000D03*
X94540000Y-63050000D03*
X94540000Y-65590000D03*
X92000000Y-63050000D03*
X92000000Y-65590000D03*
X89460000Y-63050000D03*
X89460000Y-65590000D03*
X86920000Y-63050000D03*
D16*
X86920000Y-65590000D03*
D17*
X82040000Y-64310000D03*
X140040000Y-64330000D03*
X82040000Y-113320000D03*
X140030000Y-113310000D03*
D18*
X139700000Y-81915000D03*
D19*
X139700000Y-79375000D03*
D18*
X82550000Y-105410000D03*
D19*
X82550000Y-102870000D03*
D20*
X96520000Y-97790000D03*
D21*
X81280000Y-97790000D03*
X81280000Y-91440000D03*
D20*
X96520000Y-91440000D03*
D17*
X95250000Y-111760000D03*
D22*
X90170000Y-111760000D03*
X128270000Y-111760000D03*
D17*
X133350000Y-111760000D03*
D14*
X105410000Y-112950000D03*
X105410000Y-107950000D03*
X114300000Y-107950000D03*
X114300000Y-112950000D03*
D16*
X138700000Y-69050000D03*
D15*
X141240000Y-69050000D03*
D16*
X81470500Y-70993000D03*
D15*
X81470500Y-73533000D03*
X81470500Y-76073000D03*
X81470500Y-78613000D03*
D23*
X86360000Y-81280000D03*
X81280000Y-83185000D03*
X105283000Y-101600000D03*
X85725000Y-78740000D03*
X128270000Y-88900000D03*
D24*
X121920000Y-100330000D03*
D23*
X121920000Y-100330000D03*
X121760000Y-109220000D03*
X133985000Y-78740000D03*
X124460000Y-69215000D03*
X124460000Y-85335000D03*
X127000000Y-85090000D03*
X130430000Y-85090000D03*
X86868000Y-76073000D03*
X90043000Y-83058000D03*
X105283000Y-83058000D03*
X89471500Y-71833500D03*
X117221000Y-93599000D03*
X112395000Y-93599000D03*
X107950000Y-86487000D03*
X112395000Y-86487000D03*
X107950000Y-70231000D03*
X109093000Y-85344000D03*
X111125000Y-85344000D03*
X115316000Y-92456000D03*
X107315000Y-92456000D03*
X121158000Y-70612000D03*
X113792000Y-87376000D03*
X109855000Y-87376000D03*
X113792000Y-67860081D03*
D25*
X100520000Y-78740000D02*
X111570000Y-78740000D01*
X99220000Y-78740000D02*
X96680000Y-81280000D01*
X100520000Y-78740000D02*
X99220000Y-78740000D01*
X96680000Y-81280000D02*
X86360000Y-81280000D01*
X92520000Y-78740000D02*
X85725000Y-78740000D01*
X85725000Y-78740000D02*
X81280000Y-83185000D01*
D26*
X83820000Y-101600000D02*
X82550000Y-102870000D01*
X105283000Y-101600000D02*
X83820000Y-101600000D01*
X132430000Y-93060000D02*
X138970000Y-93060000D01*
X130810000Y-91440000D02*
X132430000Y-93060000D01*
X130810000Y-91440000D02*
X128270000Y-88900000D01*
D25*
X121920000Y-100330000D02*
X121920000Y-100330000D01*
X104220000Y-111760000D02*
X105410000Y-112950000D01*
X95250000Y-111760000D02*
X104220000Y-111760000D01*
X105410000Y-112950000D02*
X114300000Y-112950000D01*
X114300000Y-112950000D02*
X118030000Y-112950000D01*
X121760000Y-109220000D02*
X118030000Y-112950000D01*
X121920000Y-109220000D02*
X121760000Y-109220000D01*
D26*
X134620000Y-79375000D02*
X139700000Y-79375000D01*
X133985000Y-78740000D02*
X134620000Y-79375000D01*
X102160000Y-65590000D02*
X102160000Y-67870000D01*
X102160000Y-67870000D02*
X102870000Y-68580000D01*
X102870000Y-68580000D02*
X103505000Y-69215000D01*
X103505000Y-69215000D02*
X124460000Y-69215000D01*
X127000000Y-85090000D02*
X130430000Y-85090000D01*
X86868000Y-76073000D02*
X81470500Y-76073000D01*
X90043000Y-83058000D02*
X90325842Y-83058000D01*
X90325842Y-83058000D02*
X105283000Y-83058000D01*
X81470500Y-73533000D02*
X87947500Y-73533000D01*
X89471500Y-72009000D02*
X89471500Y-71883510D01*
X87947500Y-73533000D02*
X89471500Y-72009000D01*
X81661000Y-71183500D02*
X81470500Y-70993000D01*
X87613000Y-69977000D02*
X91059000Y-69977000D01*
X91059000Y-69977000D02*
X92000000Y-69036000D01*
X81470500Y-70993000D02*
X86597000Y-70993000D01*
X92000000Y-69036000D02*
X92000000Y-65590000D01*
X86597000Y-70993000D02*
X87613000Y-69977000D01*
D25*
X126770000Y-93060000D02*
X130810000Y-97100000D01*
X130810000Y-97100000D02*
X130810000Y-106680000D01*
X128270000Y-109220000D02*
X128270000Y-111760000D01*
X130810000Y-106680000D02*
X128270000Y-109220000D01*
X138720000Y-99060000D02*
X134620000Y-103160000D01*
X140970000Y-99060000D02*
X138720000Y-99060000D01*
X133350000Y-111760000D02*
X133350000Y-109220000D01*
X134620000Y-107950000D02*
X134620000Y-103160000D01*
X133350000Y-109220000D02*
X134620000Y-107950000D01*
D26*
X117221000Y-93599000D02*
X112395000Y-93599000D01*
X107950000Y-86487000D02*
X112395000Y-86487000D01*
X103058919Y-70231000D02*
X107950000Y-70231000D01*
X99620000Y-66792081D02*
X103058919Y-70231000D01*
X99620000Y-65590000D02*
X99620000Y-66792081D01*
X109093000Y-85344000D02*
X111125000Y-85344000D01*
D27*
X119940000Y-66060000D02*
X119940000Y-65590000D01*
D26*
X115316000Y-92456000D02*
X107315000Y-92456000D01*
X138700000Y-69050000D02*
X137325000Y-69050000D01*
X121357999Y-70811999D02*
X135563001Y-70811999D01*
X135563001Y-70811999D02*
X137325000Y-69050000D01*
X121158000Y-70612000D02*
X121357999Y-70811999D01*
X113792000Y-87376000D02*
X109855000Y-87376000D01*
X104700000Y-66792081D02*
X105979919Y-68072000D01*
X104700000Y-65590000D02*
X104700000Y-66792081D01*
X113580081Y-68072000D02*
X113792000Y-67860081D01*
X105979919Y-68072000D02*
X113580081Y-68072000D01*
D28*
G36*
X139098719Y-61227012D02*
G01*
X138511442Y-61470270D01*
X137982907Y-61823425D01*
X137533425Y-62272907D01*
X137180270Y-62801442D01*
X136937012Y-63388719D01*
X136813000Y-64012168D01*
X136813000Y-64647832D01*
X136937012Y-65271281D01*
X137180270Y-65858558D01*
X137533425Y-66387093D01*
X137982907Y-66836575D01*
X138511442Y-67189730D01*
X139098719Y-67432988D01*
X139722168Y-67557000D01*
X140357832Y-67557000D01*
X140981281Y-67432988D01*
X141568558Y-67189730D01*
X142097093Y-66836575D01*
X142546575Y-66387093D01*
X142899730Y-65858558D01*
X143142988Y-65271281D01*
X143169357Y-65138716D01*
X143169356Y-90043000D01*
X130229001Y-90043000D01*
X128657964Y-88471963D01*
X128592114Y-88417922D01*
X128491876Y-88364344D01*
X128383111Y-88331349D01*
X128270000Y-88320210D01*
X128156889Y-88331349D01*
X128048124Y-88364344D01*
X127947886Y-88417922D01*
X127860026Y-88490026D01*
X127787922Y-88577886D01*
X127734344Y-88678124D01*
X127701349Y-88786889D01*
X127690210Y-88900000D01*
X127701349Y-89013111D01*
X127734344Y-89121876D01*
X127787922Y-89222114D01*
X127841963Y-89287964D01*
X128596999Y-90043000D01*
X120650000Y-90043000D01*
X120625224Y-90045440D01*
X120601399Y-90052667D01*
X120579443Y-90064403D01*
X120560197Y-90080197D01*
X120544403Y-90099443D01*
X120532667Y-90121399D01*
X120525440Y-90145224D01*
X120523000Y-90170000D01*
X120523000Y-109287445D01*
X117687447Y-112123000D01*
X115583924Y-112123000D01*
X115486099Y-111976594D01*
X115273406Y-111763901D01*
X115023306Y-111596790D01*
X114745410Y-111481681D01*
X114450396Y-111423000D01*
X114149604Y-111423000D01*
X113854590Y-111481681D01*
X113576694Y-111596790D01*
X113326594Y-111763901D01*
X113113901Y-111976594D01*
X113016076Y-112123000D01*
X106693924Y-112123000D01*
X106596099Y-111976594D01*
X106383406Y-111763901D01*
X106133306Y-111596790D01*
X105855410Y-111481681D01*
X105560396Y-111423000D01*
X105259604Y-111423000D01*
X105086905Y-111457351D01*
X104833505Y-111203952D01*
X104807606Y-111172394D01*
X104681679Y-111069048D01*
X104538010Y-110992255D01*
X104382120Y-110944966D01*
X104260624Y-110933000D01*
X104260614Y-110933000D01*
X104220000Y-110929000D01*
X104179386Y-110933000D01*
X96884976Y-110933000D01*
X96869066Y-110894591D01*
X96669124Y-110595355D01*
X96414645Y-110340876D01*
X96115409Y-110140934D01*
X95782916Y-110003211D01*
X95429944Y-109933000D01*
X95070056Y-109933000D01*
X94717084Y-110003211D01*
X94384591Y-110140934D01*
X94085355Y-110340876D01*
X93830876Y-110595355D01*
X93630934Y-110894591D01*
X93493211Y-111227084D01*
X93423000Y-111580056D01*
X93423000Y-111939944D01*
X93493211Y-112292916D01*
X93630934Y-112625409D01*
X93830876Y-112924645D01*
X94085355Y-113179124D01*
X94384591Y-113379066D01*
X94717084Y-113516789D01*
X95070056Y-113587000D01*
X95429944Y-113587000D01*
X95782916Y-113516789D01*
X96115409Y-113379066D01*
X96414645Y-113179124D01*
X96669124Y-112924645D01*
X96869066Y-112625409D01*
X96884976Y-112587000D01*
X103877447Y-112587000D01*
X103917351Y-112626905D01*
X103883000Y-112799604D01*
X103883000Y-113100396D01*
X103941681Y-113395410D01*
X104056790Y-113673306D01*
X104223901Y-113923406D01*
X104436594Y-114136099D01*
X104686694Y-114303210D01*
X104964590Y-114418319D01*
X105259604Y-114477000D01*
X105560396Y-114477000D01*
X105855410Y-114418319D01*
X106133306Y-114303210D01*
X106383406Y-114136099D01*
X106596099Y-113923406D01*
X106693924Y-113777000D01*
X113016076Y-113777000D01*
X113113901Y-113923406D01*
X113326594Y-114136099D01*
X113576694Y-114303210D01*
X113854590Y-114418319D01*
X114149604Y-114477000D01*
X114450396Y-114477000D01*
X114745410Y-114418319D01*
X115023306Y-114303210D01*
X115273406Y-114136099D01*
X115486099Y-113923406D01*
X115583924Y-113777000D01*
X117989386Y-113777000D01*
X118030000Y-113781000D01*
X118070614Y-113777000D01*
X118070624Y-113777000D01*
X118192120Y-113765034D01*
X118348010Y-113717745D01*
X118491679Y-113640952D01*
X118617606Y-113537606D01*
X118643505Y-113506048D01*
X120523000Y-111626554D01*
X120523000Y-116440611D01*
X82892684Y-116440611D01*
X82981281Y-116422988D01*
X83568558Y-116179730D01*
X84097093Y-115826575D01*
X84546575Y-115377093D01*
X84899730Y-114848558D01*
X85142988Y-114261281D01*
X85267000Y-113637832D01*
X85267000Y-113260000D01*
X88031928Y-113260000D01*
X88044188Y-113384482D01*
X88080498Y-113504180D01*
X88139463Y-113614494D01*
X88218815Y-113711185D01*
X88315506Y-113790537D01*
X88425820Y-113849502D01*
X88545518Y-113885812D01*
X88670000Y-113898072D01*
X89884250Y-113895000D01*
X90043000Y-113736250D01*
X90043000Y-111887000D01*
X90297000Y-111887000D01*
X90297000Y-113736250D01*
X90455750Y-113895000D01*
X91670000Y-113898072D01*
X91794482Y-113885812D01*
X91914180Y-113849502D01*
X92024494Y-113790537D01*
X92121185Y-113711185D01*
X92200537Y-113614494D01*
X92259502Y-113504180D01*
X92295812Y-113384482D01*
X92308072Y-113260000D01*
X92305000Y-112045750D01*
X92146250Y-111887000D01*
X90297000Y-111887000D01*
X90043000Y-111887000D01*
X88193750Y-111887000D01*
X88035000Y-112045750D01*
X88031928Y-113260000D01*
X85267000Y-113260000D01*
X85267000Y-113002168D01*
X85142988Y-112378719D01*
X84899730Y-111791442D01*
X84546575Y-111262907D01*
X84097093Y-110813425D01*
X83568558Y-110460270D01*
X83085064Y-110260000D01*
X88031928Y-110260000D01*
X88035000Y-111474250D01*
X88193750Y-111633000D01*
X90043000Y-111633000D01*
X90043000Y-109783750D01*
X90297000Y-109783750D01*
X90297000Y-111633000D01*
X92146250Y-111633000D01*
X92305000Y-111474250D01*
X92308072Y-110260000D01*
X92295812Y-110135518D01*
X92259502Y-110015820D01*
X92200537Y-109905506D01*
X92121185Y-109808815D01*
X92024494Y-109729463D01*
X91914180Y-109670498D01*
X91794482Y-109634188D01*
X91670000Y-109621928D01*
X90455750Y-109625000D01*
X90297000Y-109783750D01*
X90043000Y-109783750D01*
X89884250Y-109625000D01*
X88670000Y-109621928D01*
X88545518Y-109634188D01*
X88425820Y-109670498D01*
X88315506Y-109729463D01*
X88218815Y-109808815D01*
X88139463Y-109905506D01*
X88080498Y-110015820D01*
X88044188Y-110135518D01*
X88031928Y-110260000D01*
X83085064Y-110260000D01*
X82981281Y-110217012D01*
X82357832Y-110093000D01*
X81722168Y-110093000D01*
X81098719Y-110217012D01*
X80511442Y-110460270D01*
X79982907Y-110813425D01*
X79533425Y-111262907D01*
X79180270Y-111791442D01*
X78937012Y-112378719D01*
X78923356Y-112447372D01*
X78923356Y-107799604D01*
X103883000Y-107799604D01*
X103883000Y-108100396D01*
X103941681Y-108395410D01*
X104056790Y-108673306D01*
X104223901Y-108923406D01*
X104436594Y-109136099D01*
X104686694Y-109303210D01*
X104964590Y-109418319D01*
X105259604Y-109477000D01*
X105560396Y-109477000D01*
X105855410Y-109418319D01*
X106133306Y-109303210D01*
X106383406Y-109136099D01*
X106596099Y-108923406D01*
X106763210Y-108673306D01*
X106878319Y-108395410D01*
X106937000Y-108100396D01*
X106937000Y-107799604D01*
X112773000Y-107799604D01*
X112773000Y-108100396D01*
X112831681Y-108395410D01*
X112946790Y-108673306D01*
X113113901Y-108923406D01*
X113326594Y-109136099D01*
X113576694Y-109303210D01*
X113854590Y-109418319D01*
X114149604Y-109477000D01*
X114450396Y-109477000D01*
X114745410Y-109418319D01*
X115023306Y-109303210D01*
X115273406Y-109136099D01*
X115486099Y-108923406D01*
X115653210Y-108673306D01*
X115768319Y-108395410D01*
X115827000Y-108100396D01*
X115827000Y-107799604D01*
X115768319Y-107504590D01*
X115653210Y-107226694D01*
X115486099Y-106976594D01*
X115273406Y-106763901D01*
X115023306Y-106596790D01*
X114745410Y-106481681D01*
X114450396Y-106423000D01*
X114149604Y-106423000D01*
X113854590Y-106481681D01*
X113576694Y-106596790D01*
X113326594Y-106763901D01*
X113113901Y-106976594D01*
X112946790Y-107226694D01*
X112831681Y-107504590D01*
X112773000Y-107799604D01*
X106937000Y-107799604D01*
X106878319Y-107504590D01*
X106763210Y-107226694D01*
X106596099Y-106976594D01*
X106383406Y-106763901D01*
X106133306Y-106596790D01*
X105855410Y-106481681D01*
X105560396Y-106423000D01*
X105259604Y-106423000D01*
X104964590Y-106481681D01*
X104686694Y-106596790D01*
X104436594Y-106763901D01*
X104223901Y-106976594D01*
X104056790Y-107226694D01*
X103941681Y-107504590D01*
X103883000Y-107799604D01*
X78923356Y-107799604D01*
X78923356Y-106581066D01*
X81558539Y-106581066D01*
X81660339Y-106850579D01*
X81958477Y-106996463D01*
X82279346Y-107081380D01*
X82610617Y-107102066D01*
X82939557Y-107057728D01*
X83253527Y-106950069D01*
X83439661Y-106850579D01*
X83541461Y-106581066D01*
X82550000Y-105589605D01*
X81558539Y-106581066D01*
X78923356Y-106581066D01*
X78923356Y-105470617D01*
X80857934Y-105470617D01*
X80902272Y-105799557D01*
X81009931Y-106113527D01*
X81109421Y-106299661D01*
X81378934Y-106401461D01*
X82370395Y-105410000D01*
X82729605Y-105410000D01*
X83721066Y-106401461D01*
X83990579Y-106299661D01*
X84136463Y-106001523D01*
X84221380Y-105680654D01*
X84242066Y-105349383D01*
X84197728Y-105020443D01*
X84090069Y-104706473D01*
X83990579Y-104520339D01*
X83721066Y-104418539D01*
X82729605Y-105410000D01*
X82370395Y-105410000D01*
X81378934Y-104418539D01*
X81109421Y-104520339D01*
X80963537Y-104818477D01*
X80878620Y-105139346D01*
X80857934Y-105470617D01*
X78923356Y-105470617D01*
X78923356Y-101820000D01*
X81171418Y-101820000D01*
X81171418Y-103920000D01*
X81177732Y-103984103D01*
X81196430Y-104045743D01*
X81226794Y-104102550D01*
X81267657Y-104152343D01*
X81317450Y-104193206D01*
X81374257Y-104223570D01*
X81435897Y-104242268D01*
X81500000Y-104248582D01*
X81568187Y-104248582D01*
X82550000Y-105230395D01*
X83531813Y-104248582D01*
X83600000Y-104248582D01*
X83664103Y-104242268D01*
X83725743Y-104223570D01*
X83782550Y-104193206D01*
X83832343Y-104152343D01*
X83873206Y-104102550D01*
X83903570Y-104045743D01*
X83922268Y-103984103D01*
X83928582Y-103920000D01*
X83928582Y-102307420D01*
X84059002Y-102177000D01*
X105311336Y-102177000D01*
X105396112Y-102168650D01*
X105504876Y-102135657D01*
X105605115Y-102082079D01*
X105692974Y-102009974D01*
X105765079Y-101922115D01*
X105818657Y-101821876D01*
X105851650Y-101713112D01*
X105862791Y-101600000D01*
X105851650Y-101486888D01*
X105818657Y-101378124D01*
X105765079Y-101277885D01*
X105692974Y-101190026D01*
X105605115Y-101117921D01*
X105504876Y-101064343D01*
X105396112Y-101031350D01*
X105311336Y-101023000D01*
X83848328Y-101023000D01*
X83819999Y-101020210D01*
X83791670Y-101023000D01*
X83791664Y-101023000D01*
X83706888Y-101031350D01*
X83598124Y-101064343D01*
X83497885Y-101117921D01*
X83451980Y-101155595D01*
X83432035Y-101171963D01*
X83432033Y-101171965D01*
X83410026Y-101190026D01*
X83391965Y-101212033D01*
X83112580Y-101491418D01*
X81500000Y-101491418D01*
X81435897Y-101497732D01*
X81374257Y-101516430D01*
X81317450Y-101546794D01*
X81267657Y-101587657D01*
X81226794Y-101637450D01*
X81196430Y-101694257D01*
X81177732Y-101755897D01*
X81171418Y-101820000D01*
X78923356Y-101820000D01*
X78923356Y-96190000D01*
X79351418Y-96190000D01*
X79351418Y-99390000D01*
X79357732Y-99454103D01*
X79376430Y-99515743D01*
X79406794Y-99572550D01*
X79447657Y-99622343D01*
X79497450Y-99663206D01*
X79554257Y-99693570D01*
X79615897Y-99712268D01*
X79680000Y-99718582D01*
X82880000Y-99718582D01*
X82944103Y-99712268D01*
X83005743Y-99693570D01*
X83062550Y-99663206D01*
X83112343Y-99622343D01*
X83153206Y-99572550D01*
X83183570Y-99515743D01*
X83202268Y-99454103D01*
X83208582Y-99390000D01*
X83208582Y-97790000D01*
X94583677Y-97790000D01*
X94620883Y-98167758D01*
X94731071Y-98530999D01*
X94910006Y-98865763D01*
X95150813Y-99159187D01*
X95444237Y-99399994D01*
X95779001Y-99578929D01*
X96142242Y-99689117D01*
X96425342Y-99717000D01*
X96614658Y-99717000D01*
X96897758Y-99689117D01*
X97260999Y-99578929D01*
X97595763Y-99399994D01*
X97889187Y-99159187D01*
X98129994Y-98865763D01*
X98308929Y-98530999D01*
X98419117Y-98167758D01*
X98456323Y-97790000D01*
X98419117Y-97412242D01*
X98308929Y-97049001D01*
X98129994Y-96714237D01*
X97889187Y-96420813D01*
X97595763Y-96180006D01*
X97260999Y-96001071D01*
X96897758Y-95890883D01*
X96614658Y-95863000D01*
X96425342Y-95863000D01*
X96142242Y-95890883D01*
X95779001Y-96001071D01*
X95444237Y-96180006D01*
X95150813Y-96420813D01*
X94910006Y-96714237D01*
X94731071Y-97049001D01*
X94620883Y-97412242D01*
X94583677Y-97790000D01*
X83208582Y-97790000D01*
X83208582Y-96190000D01*
X83202268Y-96125897D01*
X83183570Y-96064257D01*
X83153206Y-96007450D01*
X83112343Y-95957657D01*
X83062550Y-95916794D01*
X83005743Y-95886430D01*
X82944103Y-95867732D01*
X82880000Y-95861418D01*
X79680000Y-95861418D01*
X79615897Y-95867732D01*
X79554257Y-95886430D01*
X79497450Y-95916794D01*
X79447657Y-95957657D01*
X79406794Y-96007450D01*
X79376430Y-96064257D01*
X79357732Y-96125897D01*
X79351418Y-96190000D01*
X78923356Y-96190000D01*
X78923356Y-89840000D01*
X79351418Y-89840000D01*
X79351418Y-93040000D01*
X79357732Y-93104103D01*
X79376430Y-93165743D01*
X79406794Y-93222550D01*
X79447657Y-93272343D01*
X79497450Y-93313206D01*
X79554257Y-93343570D01*
X79615897Y-93362268D01*
X79680000Y-93368582D01*
X82880000Y-93368582D01*
X82944103Y-93362268D01*
X83005743Y-93343570D01*
X83062550Y-93313206D01*
X83112343Y-93272343D01*
X83153206Y-93222550D01*
X83183570Y-93165743D01*
X83202268Y-93104103D01*
X83208582Y-93040000D01*
X83208582Y-91440000D01*
X94583677Y-91440000D01*
X94620883Y-91817758D01*
X94731071Y-92180999D01*
X94910006Y-92515763D01*
X95150813Y-92809187D01*
X95444237Y-93049994D01*
X95779001Y-93228929D01*
X96142242Y-93339117D01*
X96425342Y-93367000D01*
X96614658Y-93367000D01*
X96897758Y-93339117D01*
X97260999Y-93228929D01*
X97595763Y-93049994D01*
X97889187Y-92809187D01*
X98129994Y-92515763D01*
X98161937Y-92456000D01*
X106735209Y-92456000D01*
X106746350Y-92569112D01*
X106779343Y-92677876D01*
X106832921Y-92778115D01*
X106905026Y-92865974D01*
X106992885Y-92938079D01*
X107093124Y-92991657D01*
X107201888Y-93024650D01*
X107286664Y-93033000D01*
X112273152Y-93033000D01*
X112173124Y-93063343D01*
X112072885Y-93116921D01*
X111985026Y-93189026D01*
X111912921Y-93276885D01*
X111859343Y-93377124D01*
X111826350Y-93485888D01*
X111815209Y-93599000D01*
X111826350Y-93712112D01*
X111859343Y-93820876D01*
X111912921Y-93921115D01*
X111985026Y-94008974D01*
X112072885Y-94081079D01*
X112173124Y-94134657D01*
X112281888Y-94167650D01*
X112366664Y-94176000D01*
X117249336Y-94176000D01*
X117334112Y-94167650D01*
X117442876Y-94134657D01*
X117543115Y-94081079D01*
X117630974Y-94008974D01*
X117703079Y-93921115D01*
X117756657Y-93820876D01*
X117789650Y-93712112D01*
X117800791Y-93599000D01*
X117789650Y-93485888D01*
X117756657Y-93377124D01*
X117703079Y-93276885D01*
X117630974Y-93189026D01*
X117543115Y-93116921D01*
X117442876Y-93063343D01*
X117334112Y-93030350D01*
X117249336Y-93022000D01*
X115437848Y-93022000D01*
X115537876Y-92991657D01*
X115638115Y-92938079D01*
X115725974Y-92865974D01*
X115798079Y-92778115D01*
X115851657Y-92677876D01*
X115884650Y-92569112D01*
X115895791Y-92456000D01*
X115884650Y-92342888D01*
X115851657Y-92234124D01*
X115798079Y-92133885D01*
X115725974Y-92046026D01*
X115638115Y-91973921D01*
X115537876Y-91920343D01*
X115429112Y-91887350D01*
X115344336Y-91879000D01*
X107286664Y-91879000D01*
X107201888Y-91887350D01*
X107093124Y-91920343D01*
X106992885Y-91973921D01*
X106905026Y-92046026D01*
X106832921Y-92133885D01*
X106779343Y-92234124D01*
X106746350Y-92342888D01*
X106735209Y-92456000D01*
X98161937Y-92456000D01*
X98308929Y-92180999D01*
X98419117Y-91817758D01*
X98456323Y-91440000D01*
X98419117Y-91062242D01*
X98308929Y-90699001D01*
X98129994Y-90364237D01*
X97889187Y-90070813D01*
X97595763Y-89830006D01*
X97260999Y-89651071D01*
X96897758Y-89540883D01*
X96614658Y-89513000D01*
X96425342Y-89513000D01*
X96142242Y-89540883D01*
X95779001Y-89651071D01*
X95444237Y-89830006D01*
X95150813Y-90070813D01*
X94910006Y-90364237D01*
X94731071Y-90699001D01*
X94620883Y-91062242D01*
X94583677Y-91440000D01*
X83208582Y-91440000D01*
X83208582Y-89840000D01*
X83202268Y-89775897D01*
X83183570Y-89714257D01*
X83153206Y-89657450D01*
X83112343Y-89607657D01*
X83062550Y-89566794D01*
X83005743Y-89536430D01*
X82944103Y-89517732D01*
X82880000Y-89511418D01*
X79680000Y-89511418D01*
X79615897Y-89517732D01*
X79554257Y-89536430D01*
X79497450Y-89566794D01*
X79447657Y-89607657D01*
X79406794Y-89657450D01*
X79376430Y-89714257D01*
X79357732Y-89775897D01*
X79351418Y-89840000D01*
X78923356Y-89840000D01*
X78923356Y-86487000D01*
X107370209Y-86487000D01*
X107381350Y-86600112D01*
X107414343Y-86708876D01*
X107467921Y-86809115D01*
X107540026Y-86896974D01*
X107627885Y-86969079D01*
X107728124Y-87022657D01*
X107836888Y-87055650D01*
X107921664Y-87064000D01*
X109367515Y-87064000D01*
X109319343Y-87154124D01*
X109286350Y-87262888D01*
X109275209Y-87376000D01*
X109286350Y-87489112D01*
X109319343Y-87597876D01*
X109372921Y-87698115D01*
X109445026Y-87785974D01*
X109532885Y-87858079D01*
X109633124Y-87911657D01*
X109741888Y-87944650D01*
X109826664Y-87953000D01*
X113820336Y-87953000D01*
X113905112Y-87944650D01*
X114013876Y-87911657D01*
X114114115Y-87858079D01*
X114201974Y-87785974D01*
X114274079Y-87698115D01*
X114327657Y-87597876D01*
X114360650Y-87489112D01*
X114371791Y-87376000D01*
X114360650Y-87262888D01*
X114327657Y-87154124D01*
X114274079Y-87053885D01*
X114201974Y-86966026D01*
X114114115Y-86893921D01*
X114013876Y-86840343D01*
X113905112Y-86807350D01*
X113820336Y-86799000D01*
X112882485Y-86799000D01*
X112930657Y-86708876D01*
X112963650Y-86600112D01*
X112974791Y-86487000D01*
X112963650Y-86373888D01*
X112930657Y-86265124D01*
X112877079Y-86164885D01*
X112804974Y-86077026D01*
X112717115Y-86004921D01*
X112616876Y-85951343D01*
X112508112Y-85918350D01*
X112423336Y-85910000D01*
X111246848Y-85910000D01*
X111346876Y-85879657D01*
X111447115Y-85826079D01*
X111534974Y-85753974D01*
X111607079Y-85666115D01*
X111660657Y-85565876D01*
X111693650Y-85457112D01*
X111704791Y-85344000D01*
X111698793Y-85283095D01*
X123933000Y-85283095D01*
X123933000Y-85386905D01*
X123953252Y-85488720D01*
X123992979Y-85584628D01*
X124050652Y-85670943D01*
X124124057Y-85744348D01*
X124210372Y-85802021D01*
X124306280Y-85841748D01*
X124408095Y-85862000D01*
X124511905Y-85862000D01*
X124613720Y-85841748D01*
X124709628Y-85802021D01*
X124795943Y-85744348D01*
X124869348Y-85670943D01*
X124927021Y-85584628D01*
X124966748Y-85488720D01*
X124987000Y-85386905D01*
X124987000Y-85283095D01*
X124966748Y-85181280D01*
X124928939Y-85090000D01*
X126420209Y-85090000D01*
X126431350Y-85203112D01*
X126464343Y-85311876D01*
X126517921Y-85412115D01*
X126590026Y-85499974D01*
X126677885Y-85572079D01*
X126778124Y-85625657D01*
X126886888Y-85658650D01*
X126971664Y-85667000D01*
X130458336Y-85667000D01*
X130543112Y-85658650D01*
X130651876Y-85625657D01*
X130752115Y-85572079D01*
X130839974Y-85499974D01*
X130912079Y-85412115D01*
X130965657Y-85311876D01*
X130998650Y-85203112D01*
X131009791Y-85090000D01*
X130998650Y-84976888D01*
X130965657Y-84868124D01*
X130912079Y-84767885D01*
X130839974Y-84680026D01*
X130752115Y-84607921D01*
X130651876Y-84554343D01*
X130543112Y-84521350D01*
X130458336Y-84513000D01*
X126971664Y-84513000D01*
X126886888Y-84521350D01*
X126778124Y-84554343D01*
X126677885Y-84607921D01*
X126590026Y-84680026D01*
X126517921Y-84767885D01*
X126464343Y-84868124D01*
X126431350Y-84976888D01*
X126420209Y-85090000D01*
X124928939Y-85090000D01*
X124927021Y-85085372D01*
X124869348Y-84999057D01*
X124795943Y-84925652D01*
X124709628Y-84867979D01*
X124613720Y-84828252D01*
X124511905Y-84808000D01*
X124408095Y-84808000D01*
X124306280Y-84828252D01*
X124210372Y-84867979D01*
X124124057Y-84925652D01*
X124050652Y-84999057D01*
X123992979Y-85085372D01*
X123953252Y-85181280D01*
X123933000Y-85283095D01*
X111698793Y-85283095D01*
X111693650Y-85230888D01*
X111660657Y-85122124D01*
X111607079Y-85021885D01*
X111534974Y-84934026D01*
X111447115Y-84861921D01*
X111346876Y-84808343D01*
X111238112Y-84775350D01*
X111153336Y-84767000D01*
X109064664Y-84767000D01*
X108979888Y-84775350D01*
X108871124Y-84808343D01*
X108770885Y-84861921D01*
X108683026Y-84934026D01*
X108610921Y-85021885D01*
X108557343Y-85122124D01*
X108524350Y-85230888D01*
X108513209Y-85344000D01*
X108524350Y-85457112D01*
X108557343Y-85565876D01*
X108610921Y-85666115D01*
X108683026Y-85753974D01*
X108770885Y-85826079D01*
X108871124Y-85879657D01*
X108971152Y-85910000D01*
X107921664Y-85910000D01*
X107836888Y-85918350D01*
X107728124Y-85951343D01*
X107627885Y-86004921D01*
X107540026Y-86077026D01*
X107467921Y-86164885D01*
X107414343Y-86265124D01*
X107381350Y-86373888D01*
X107370209Y-86487000D01*
X78923356Y-86487000D01*
X78923356Y-83185000D01*
X80449000Y-83185000D01*
X80464967Y-83347120D01*
X80512256Y-83503010D01*
X80589048Y-83646679D01*
X80692394Y-83772606D01*
X80818321Y-83875952D01*
X80961990Y-83952744D01*
X81117880Y-84000033D01*
X81280000Y-84016000D01*
X81442120Y-84000033D01*
X81598010Y-83952744D01*
X81741679Y-83875952D01*
X81836051Y-83798502D01*
X82576553Y-83058000D01*
X89463209Y-83058000D01*
X89474350Y-83171112D01*
X89507343Y-83279876D01*
X89560921Y-83380115D01*
X89633026Y-83467974D01*
X89720885Y-83540079D01*
X89821124Y-83593657D01*
X89929888Y-83626650D01*
X90014664Y-83635000D01*
X105311336Y-83635000D01*
X105396112Y-83626650D01*
X105504876Y-83593657D01*
X105605115Y-83540079D01*
X105692974Y-83467974D01*
X105765079Y-83380115D01*
X105818657Y-83279876D01*
X105851650Y-83171112D01*
X105862791Y-83058000D01*
X105851650Y-82944888D01*
X105818657Y-82836124D01*
X105765079Y-82735885D01*
X105692974Y-82648026D01*
X105605115Y-82575921D01*
X105504876Y-82522343D01*
X105396112Y-82489350D01*
X105311336Y-82481000D01*
X90014664Y-82481000D01*
X89929888Y-82489350D01*
X89821124Y-82522343D01*
X89720885Y-82575921D01*
X89633026Y-82648026D01*
X89560921Y-82735885D01*
X89507343Y-82836124D01*
X89474350Y-82944888D01*
X89463209Y-83058000D01*
X82576553Y-83058000D01*
X84354554Y-81280000D01*
X85528999Y-81280000D01*
X85544966Y-81442120D01*
X85592255Y-81598010D01*
X85669048Y-81741679D01*
X85772394Y-81867606D01*
X85898321Y-81970952D01*
X86041990Y-82047745D01*
X86197880Y-82095034D01*
X86319376Y-82107000D01*
X96639386Y-82107000D01*
X96680000Y-82111000D01*
X96720614Y-82107000D01*
X96720624Y-82107000D01*
X96842120Y-82095034D01*
X96998010Y-82047745D01*
X97141679Y-81970952D01*
X97267606Y-81867606D01*
X97293505Y-81836048D01*
X99204594Y-79924960D01*
X99263393Y-79996607D01*
X99404107Y-80112088D01*
X99564647Y-80197898D01*
X99738843Y-80250740D01*
X99920000Y-80268582D01*
X101120000Y-80268582D01*
X101301157Y-80250740D01*
X101475353Y-80197898D01*
X101635893Y-80112088D01*
X101776607Y-79996607D01*
X101892088Y-79855893D01*
X101977898Y-79695353D01*
X102016834Y-79567000D01*
X110286076Y-79567000D01*
X110383901Y-79713406D01*
X110596594Y-79926099D01*
X110846694Y-80093210D01*
X111124590Y-80208319D01*
X111419604Y-80267000D01*
X111720396Y-80267000D01*
X112015410Y-80208319D01*
X112293306Y-80093210D01*
X112522601Y-79940000D01*
X117731928Y-79940000D01*
X117744188Y-80064482D01*
X117780498Y-80184180D01*
X117839463Y-80294494D01*
X117918815Y-80391185D01*
X118015506Y-80470537D01*
X118125820Y-80529502D01*
X118245518Y-80565812D01*
X118370000Y-80578072D01*
X119284250Y-80575000D01*
X119443000Y-80416250D01*
X119443000Y-78867000D01*
X119697000Y-78867000D01*
X119697000Y-80416250D01*
X119855750Y-80575000D01*
X120770000Y-80578072D01*
X120894482Y-80565812D01*
X121014180Y-80529502D01*
X121124494Y-80470537D01*
X121221185Y-80391185D01*
X121300537Y-80294494D01*
X121359502Y-80184180D01*
X121395812Y-80064482D01*
X121408072Y-79940000D01*
X121405000Y-79025750D01*
X121246250Y-78867000D01*
X119697000Y-78867000D01*
X119443000Y-78867000D01*
X117893750Y-78867000D01*
X117735000Y-79025750D01*
X117731928Y-79940000D01*
X112522601Y-79940000D01*
X112543406Y-79926099D01*
X112756099Y-79713406D01*
X112923210Y-79463306D01*
X113038319Y-79185410D01*
X113097000Y-78890396D01*
X113097000Y-78740000D01*
X133405210Y-78740000D01*
X133416349Y-78853111D01*
X133449344Y-78961876D01*
X133502922Y-79062114D01*
X133556963Y-79127964D01*
X134191961Y-79762962D01*
X134210026Y-79784974D01*
X134297885Y-79857079D01*
X134398124Y-79910657D01*
X134442782Y-79924204D01*
X134506888Y-79943651D01*
X134620000Y-79954791D01*
X134648339Y-79952000D01*
X138321418Y-79952000D01*
X138321418Y-80425000D01*
X138327732Y-80489103D01*
X138346430Y-80550743D01*
X138376794Y-80607550D01*
X138417657Y-80657343D01*
X138467450Y-80698206D01*
X138524257Y-80728570D01*
X138585897Y-80747268D01*
X138650000Y-80753582D01*
X138959650Y-80753582D01*
X138822213Y-80845414D01*
X138630414Y-81037213D01*
X138479718Y-81262746D01*
X138375917Y-81513344D01*
X138323000Y-81779377D01*
X138323000Y-82050623D01*
X138375917Y-82316656D01*
X138479718Y-82567254D01*
X138630414Y-82792787D01*
X138822213Y-82984586D01*
X139047746Y-83135282D01*
X139298344Y-83239083D01*
X139564377Y-83292000D01*
X139835623Y-83292000D01*
X140101656Y-83239083D01*
X140352254Y-83135282D01*
X140577787Y-82984586D01*
X140769586Y-82792787D01*
X140920282Y-82567254D01*
X141024083Y-82316656D01*
X141077000Y-82050623D01*
X141077000Y-81779377D01*
X141024083Y-81513344D01*
X140920282Y-81262746D01*
X140769586Y-81037213D01*
X140577787Y-80845414D01*
X140440350Y-80753582D01*
X140750000Y-80753582D01*
X140814103Y-80747268D01*
X140875743Y-80728570D01*
X140932550Y-80698206D01*
X140982343Y-80657343D01*
X141023206Y-80607550D01*
X141053570Y-80550743D01*
X141072268Y-80489103D01*
X141078582Y-80425000D01*
X141078582Y-78325000D01*
X141072268Y-78260897D01*
X141053570Y-78199257D01*
X141023206Y-78142450D01*
X140982343Y-78092657D01*
X140932550Y-78051794D01*
X140875743Y-78021430D01*
X140814103Y-78002732D01*
X140750000Y-77996418D01*
X138650000Y-77996418D01*
X138585897Y-78002732D01*
X138524257Y-78021430D01*
X138467450Y-78051794D01*
X138417657Y-78092657D01*
X138376794Y-78142450D01*
X138346430Y-78199257D01*
X138327732Y-78260897D01*
X138321418Y-78325000D01*
X138321418Y-78798000D01*
X134859001Y-78798000D01*
X134372964Y-78311963D01*
X134307114Y-78257922D01*
X134206876Y-78204344D01*
X134098111Y-78171349D01*
X133985000Y-78160210D01*
X133871889Y-78171349D01*
X133763124Y-78204344D01*
X133662886Y-78257922D01*
X133575026Y-78330026D01*
X133502922Y-78417886D01*
X133449344Y-78518124D01*
X133416349Y-78626889D01*
X133405210Y-78740000D01*
X113097000Y-78740000D01*
X113097000Y-78589604D01*
X113038319Y-78294590D01*
X112923210Y-78016694D01*
X112756099Y-77766594D01*
X112543406Y-77553901D01*
X112522602Y-77540000D01*
X117731928Y-77540000D01*
X117735000Y-78454250D01*
X117893750Y-78613000D01*
X119443000Y-78613000D01*
X119443000Y-77063750D01*
X119697000Y-77063750D01*
X119697000Y-78613000D01*
X121246250Y-78613000D01*
X121405000Y-78454250D01*
X121408072Y-77540000D01*
X121395812Y-77415518D01*
X121359502Y-77295820D01*
X121300537Y-77185506D01*
X121221185Y-77088815D01*
X121124494Y-77009463D01*
X121014180Y-76950498D01*
X120894482Y-76914188D01*
X120770000Y-76901928D01*
X119855750Y-76905000D01*
X119697000Y-77063750D01*
X119443000Y-77063750D01*
X119284250Y-76905000D01*
X118370000Y-76901928D01*
X118245518Y-76914188D01*
X118125820Y-76950498D01*
X118015506Y-77009463D01*
X117918815Y-77088815D01*
X117839463Y-77185506D01*
X117780498Y-77295820D01*
X117744188Y-77415518D01*
X117731928Y-77540000D01*
X112522602Y-77540000D01*
X112293306Y-77386790D01*
X112015410Y-77271681D01*
X111720396Y-77213000D01*
X111419604Y-77213000D01*
X111124590Y-77271681D01*
X110846694Y-77386790D01*
X110596594Y-77553901D01*
X110383901Y-77766594D01*
X110286076Y-77913000D01*
X102016834Y-77913000D01*
X101977898Y-77784647D01*
X101892088Y-77624107D01*
X101776607Y-77483393D01*
X101635893Y-77367912D01*
X101475353Y-77282102D01*
X101301157Y-77229260D01*
X101120000Y-77211418D01*
X99920000Y-77211418D01*
X99738843Y-77229260D01*
X99564647Y-77282102D01*
X99404107Y-77367912D01*
X99263393Y-77483393D01*
X99147912Y-77624107D01*
X99062102Y-77784647D01*
X99015651Y-77937776D01*
X98901990Y-77972255D01*
X98776872Y-78039132D01*
X98758319Y-78049049D01*
X98663947Y-78126498D01*
X98663941Y-78126504D01*
X98632394Y-78152394D01*
X98606504Y-78183942D01*
X96337447Y-80453000D01*
X86319376Y-80453000D01*
X86197880Y-80464966D01*
X86041990Y-80512255D01*
X85898321Y-80589048D01*
X85772394Y-80692394D01*
X85669048Y-80818321D01*
X85592255Y-80961990D01*
X85544966Y-81117880D01*
X85528999Y-81280000D01*
X84354554Y-81280000D01*
X86067555Y-79567000D01*
X91236076Y-79567000D01*
X91333901Y-79713406D01*
X91546594Y-79926099D01*
X91796694Y-80093210D01*
X92074590Y-80208319D01*
X92369604Y-80267000D01*
X92670396Y-80267000D01*
X92965410Y-80208319D01*
X93243306Y-80093210D01*
X93493406Y-79926099D01*
X93706099Y-79713406D01*
X93873210Y-79463306D01*
X93988319Y-79185410D01*
X94047000Y-78890396D01*
X94047000Y-78589604D01*
X93988319Y-78294590D01*
X93873210Y-78016694D01*
X93706099Y-77766594D01*
X93493406Y-77553901D01*
X93243306Y-77386790D01*
X92965410Y-77271681D01*
X92670396Y-77213000D01*
X92369604Y-77213000D01*
X92074590Y-77271681D01*
X91796694Y-77386790D01*
X91546594Y-77553901D01*
X91333901Y-77766594D01*
X91236076Y-77913000D01*
X85765610Y-77913000D01*
X85724999Y-77909000D01*
X85684388Y-77913000D01*
X85684376Y-77913000D01*
X85562880Y-77924966D01*
X85406990Y-77972255D01*
X85363407Y-77995550D01*
X85263319Y-78049048D01*
X85168947Y-78126498D01*
X85168941Y-78126504D01*
X85137394Y-78152394D01*
X85111504Y-78183941D01*
X80666498Y-82628949D01*
X80589048Y-82723321D01*
X80512256Y-82866990D01*
X80464967Y-83022880D01*
X80449000Y-83185000D01*
X78923356Y-83185000D01*
X78923356Y-78969890D01*
X80029024Y-78969890D01*
X80073675Y-79117099D01*
X80198859Y-79379920D01*
X80372912Y-79613269D01*
X80589145Y-79808178D01*
X80839248Y-79957157D01*
X81113609Y-80054481D01*
X81343500Y-79933814D01*
X81343500Y-78740000D01*
X81597500Y-78740000D01*
X81597500Y-79933814D01*
X81827391Y-80054481D01*
X82101752Y-79957157D01*
X82351855Y-79808178D01*
X82568088Y-79613269D01*
X82742141Y-79379920D01*
X82867325Y-79117099D01*
X82911976Y-78969890D01*
X82790655Y-78740000D01*
X81597500Y-78740000D01*
X81343500Y-78740000D01*
X80150345Y-78740000D01*
X80029024Y-78969890D01*
X78923356Y-78969890D01*
X78923356Y-78256110D01*
X80029024Y-78256110D01*
X80150345Y-78486000D01*
X81343500Y-78486000D01*
X81343500Y-78466000D01*
X81597500Y-78466000D01*
X81597500Y-78486000D01*
X82790655Y-78486000D01*
X82911976Y-78256110D01*
X82867325Y-78108901D01*
X82742141Y-77846080D01*
X82568088Y-77612731D01*
X82351855Y-77417822D01*
X82101752Y-77268843D01*
X81862615Y-77184014D01*
X81923097Y-77165667D01*
X82127570Y-77056374D01*
X82306791Y-76909291D01*
X82453874Y-76730070D01*
X82496672Y-76650000D01*
X86896336Y-76650000D01*
X86981112Y-76641650D01*
X87089876Y-76608657D01*
X87190115Y-76555079D01*
X87277974Y-76482974D01*
X87350079Y-76395115D01*
X87403657Y-76294876D01*
X87436650Y-76186112D01*
X87447791Y-76073000D01*
X87436650Y-75959888D01*
X87403657Y-75851124D01*
X87350079Y-75750885D01*
X87277974Y-75663026D01*
X87190115Y-75590921D01*
X87089876Y-75537343D01*
X86981112Y-75504350D01*
X86896336Y-75496000D01*
X82496672Y-75496000D01*
X82453874Y-75415930D01*
X82306791Y-75236709D01*
X82127570Y-75089626D01*
X81923097Y-74980333D01*
X81701232Y-74913031D01*
X81528312Y-74896000D01*
X81412688Y-74896000D01*
X81239768Y-74913031D01*
X81017903Y-74980333D01*
X80813430Y-75089626D01*
X80634209Y-75236709D01*
X80487126Y-75415930D01*
X80377833Y-75620403D01*
X80310531Y-75842268D01*
X80287806Y-76073000D01*
X80310531Y-76303732D01*
X80377833Y-76525597D01*
X80487126Y-76730070D01*
X80634209Y-76909291D01*
X80813430Y-77056374D01*
X81017903Y-77165667D01*
X81078385Y-77184014D01*
X80839248Y-77268843D01*
X80589145Y-77417822D01*
X80372912Y-77612731D01*
X80198859Y-77846080D01*
X80073675Y-78108901D01*
X80029024Y-78256110D01*
X78923356Y-78256110D01*
X78923356Y-73533000D01*
X80287806Y-73533000D01*
X80310531Y-73763732D01*
X80377833Y-73985597D01*
X80487126Y-74190070D01*
X80634209Y-74369291D01*
X80813430Y-74516374D01*
X81017903Y-74625667D01*
X81239768Y-74692969D01*
X81412688Y-74710000D01*
X81528312Y-74710000D01*
X81701232Y-74692969D01*
X81923097Y-74625667D01*
X82127570Y-74516374D01*
X82306791Y-74369291D01*
X82453874Y-74190070D01*
X82496672Y-74110000D01*
X87919169Y-74110000D01*
X87947500Y-74112790D01*
X87975831Y-74110000D01*
X87975836Y-74110000D01*
X88005545Y-74107074D01*
X88060611Y-74101651D01*
X88105270Y-74088103D01*
X88169376Y-74068657D01*
X88269615Y-74015079D01*
X88357474Y-73942974D01*
X88375539Y-73920962D01*
X89859463Y-72437038D01*
X89881474Y-72418974D01*
X89953579Y-72331115D01*
X90007157Y-72230876D01*
X90040150Y-72122112D01*
X90048500Y-72037336D01*
X90048500Y-72037330D01*
X90051290Y-72009001D01*
X90048500Y-71980672D01*
X90048500Y-71855175D01*
X90040150Y-71770399D01*
X90007157Y-71661635D01*
X89953579Y-71561396D01*
X89881474Y-71473536D01*
X89793615Y-71401431D01*
X89693376Y-71347853D01*
X89629064Y-71328344D01*
X89625220Y-71326752D01*
X89621139Y-71325940D01*
X89584612Y-71314860D01*
X89546623Y-71311118D01*
X89523405Y-71306500D01*
X89499735Y-71306500D01*
X89471500Y-71303719D01*
X89443265Y-71306500D01*
X89419595Y-71306500D01*
X89396377Y-71311118D01*
X89358389Y-71314860D01*
X89321864Y-71325940D01*
X89317780Y-71326752D01*
X89313933Y-71328345D01*
X89249625Y-71347853D01*
X89149386Y-71401431D01*
X89061527Y-71473536D01*
X88989421Y-71561395D01*
X88935843Y-71661634D01*
X88906660Y-71757839D01*
X87708499Y-72956000D01*
X82496672Y-72956000D01*
X82453874Y-72875930D01*
X82306791Y-72696709D01*
X82127570Y-72549626D01*
X81923097Y-72440333D01*
X81701232Y-72373031D01*
X81528312Y-72356000D01*
X81412688Y-72356000D01*
X81239768Y-72373031D01*
X81017903Y-72440333D01*
X80813430Y-72549626D01*
X80634209Y-72696709D01*
X80487126Y-72875930D01*
X80377833Y-73080403D01*
X80310531Y-73302268D01*
X80287806Y-73533000D01*
X78923356Y-73533000D01*
X78923356Y-70143000D01*
X80291918Y-70143000D01*
X80291918Y-71843000D01*
X80298232Y-71907103D01*
X80316930Y-71968743D01*
X80347294Y-72025550D01*
X80388157Y-72075343D01*
X80437950Y-72116206D01*
X80494757Y-72146570D01*
X80556397Y-72165268D01*
X80620500Y-72171582D01*
X82320500Y-72171582D01*
X82384603Y-72165268D01*
X82446243Y-72146570D01*
X82503050Y-72116206D01*
X82552843Y-72075343D01*
X82593706Y-72025550D01*
X82624070Y-71968743D01*
X82642768Y-71907103D01*
X82649082Y-71843000D01*
X82649082Y-71570000D01*
X86568669Y-71570000D01*
X86597000Y-71572790D01*
X86625331Y-71570000D01*
X86625336Y-71570000D01*
X86655045Y-71567074D01*
X86710111Y-71561651D01*
X86754770Y-71548103D01*
X86818876Y-71528657D01*
X86919115Y-71475079D01*
X87006974Y-71402974D01*
X87025039Y-71380962D01*
X87852002Y-70554000D01*
X91030669Y-70554000D01*
X91059000Y-70556790D01*
X91087331Y-70554000D01*
X91087336Y-70554000D01*
X91117045Y-70551074D01*
X91172111Y-70545651D01*
X91216770Y-70532103D01*
X91280876Y-70512657D01*
X91381115Y-70459079D01*
X91468974Y-70386974D01*
X91487039Y-70364962D01*
X92387968Y-69464034D01*
X92409974Y-69445974D01*
X92482079Y-69358115D01*
X92535657Y-69257876D01*
X92549204Y-69213218D01*
X92568651Y-69149112D01*
X92579790Y-69036000D01*
X92577000Y-69007669D01*
X92577000Y-66616172D01*
X92657070Y-66573374D01*
X92836291Y-66426291D01*
X92983374Y-66247070D01*
X93092667Y-66042597D01*
X93159969Y-65820732D01*
X93182694Y-65590000D01*
X93357306Y-65590000D01*
X93380031Y-65820732D01*
X93447333Y-66042597D01*
X93556626Y-66247070D01*
X93703709Y-66426291D01*
X93882930Y-66573374D01*
X94087403Y-66682667D01*
X94309268Y-66749969D01*
X94482188Y-66767000D01*
X94597812Y-66767000D01*
X94770732Y-66749969D01*
X94992597Y-66682667D01*
X95197070Y-66573374D01*
X95376291Y-66426291D01*
X95523374Y-66247070D01*
X95632667Y-66042597D01*
X95651014Y-65982115D01*
X95735843Y-66221252D01*
X95884822Y-66471355D01*
X96079731Y-66687588D01*
X96313080Y-66861641D01*
X96575901Y-66986825D01*
X96723110Y-67031476D01*
X96953000Y-66910155D01*
X96953000Y-65717000D01*
X96933000Y-65717000D01*
X96933000Y-65463000D01*
X96953000Y-65463000D01*
X96953000Y-65443000D01*
X97207000Y-65443000D01*
X97207000Y-65463000D01*
X97227000Y-65463000D01*
X97227000Y-65717000D01*
X97207000Y-65717000D01*
X97207000Y-66910155D01*
X97436890Y-67031476D01*
X97584099Y-66986825D01*
X97846920Y-66861641D01*
X98080269Y-66687588D01*
X98275178Y-66471355D01*
X98424157Y-66221252D01*
X98508986Y-65982115D01*
X98527333Y-66042597D01*
X98636626Y-66247070D01*
X98783709Y-66426291D01*
X98962930Y-66573374D01*
X99043001Y-66616173D01*
X99043001Y-66763740D01*
X99040210Y-66792081D01*
X99051349Y-66905192D01*
X99084344Y-67013957D01*
X99137922Y-67114196D01*
X99168840Y-67151869D01*
X99191963Y-67180045D01*
X99191966Y-67180048D01*
X99210027Y-67202055D01*
X99232034Y-67220116D01*
X102630880Y-70618962D01*
X102648945Y-70640974D01*
X102736804Y-70713079D01*
X102837043Y-70766657D01*
X102881701Y-70780204D01*
X102945807Y-70799651D01*
X103003805Y-70805363D01*
X103030583Y-70808000D01*
X103030588Y-70808000D01*
X103058919Y-70810790D01*
X103087250Y-70808000D01*
X107978336Y-70808000D01*
X108063112Y-70799650D01*
X108171876Y-70766657D01*
X108272115Y-70713079D01*
X108359974Y-70640974D01*
X108383752Y-70612000D01*
X120578210Y-70612000D01*
X120589349Y-70725111D01*
X120622344Y-70833876D01*
X120675922Y-70934114D01*
X120729963Y-70999964D01*
X120929956Y-71199956D01*
X120948025Y-71221973D01*
X121035884Y-71294078D01*
X121136123Y-71347656D01*
X121244887Y-71380649D01*
X121329663Y-71388999D01*
X121329669Y-71388999D01*
X121357998Y-71391789D01*
X121386327Y-71388999D01*
X135534670Y-71388999D01*
X135563001Y-71391789D01*
X135591332Y-71388999D01*
X135591337Y-71388999D01*
X135621046Y-71386073D01*
X135676112Y-71380650D01*
X135720771Y-71367102D01*
X135784877Y-71347656D01*
X135885116Y-71294078D01*
X135972975Y-71221973D01*
X135991040Y-71199961D01*
X137521418Y-69669583D01*
X137521418Y-69900000D01*
X137527732Y-69964103D01*
X137546430Y-70025743D01*
X137576794Y-70082550D01*
X137617657Y-70132343D01*
X137667450Y-70173206D01*
X137724257Y-70203570D01*
X137785897Y-70222268D01*
X137850000Y-70228582D01*
X139550000Y-70228582D01*
X139614103Y-70222268D01*
X139675743Y-70203570D01*
X139732550Y-70173206D01*
X139782343Y-70132343D01*
X139823206Y-70082550D01*
X139853570Y-70025743D01*
X139872268Y-69964103D01*
X139878582Y-69900000D01*
X139878582Y-69050000D01*
X140057306Y-69050000D01*
X140080031Y-69280732D01*
X140147333Y-69502597D01*
X140256626Y-69707070D01*
X140403709Y-69886291D01*
X140582930Y-70033374D01*
X140787403Y-70142667D01*
X141009268Y-70209969D01*
X141182188Y-70227000D01*
X141297812Y-70227000D01*
X141470732Y-70209969D01*
X141692597Y-70142667D01*
X141897070Y-70033374D01*
X142076291Y-69886291D01*
X142223374Y-69707070D01*
X142332667Y-69502597D01*
X142399969Y-69280732D01*
X142422694Y-69050000D01*
X142399969Y-68819268D01*
X142332667Y-68597403D01*
X142223374Y-68392930D01*
X142076291Y-68213709D01*
X141897070Y-68066626D01*
X141692597Y-67957333D01*
X141470732Y-67890031D01*
X141297812Y-67873000D01*
X141182188Y-67873000D01*
X141009268Y-67890031D01*
X140787403Y-67957333D01*
X140582930Y-68066626D01*
X140403709Y-68213709D01*
X140256626Y-68392930D01*
X140147333Y-68597403D01*
X140080031Y-68819268D01*
X140057306Y-69050000D01*
X139878582Y-69050000D01*
X139878582Y-68200000D01*
X139872268Y-68135897D01*
X139853570Y-68074257D01*
X139823206Y-68017450D01*
X139782343Y-67967657D01*
X139732550Y-67926794D01*
X139675743Y-67896430D01*
X139614103Y-67877732D01*
X139550000Y-67871418D01*
X137850000Y-67871418D01*
X137785897Y-67877732D01*
X137724257Y-67896430D01*
X137667450Y-67926794D01*
X137617657Y-67967657D01*
X137576794Y-68017450D01*
X137546430Y-68074257D01*
X137527732Y-68135897D01*
X137521418Y-68200000D01*
X137521418Y-68473000D01*
X137353331Y-68473000D01*
X137325000Y-68470210D01*
X137296669Y-68473000D01*
X137296664Y-68473000D01*
X137269886Y-68475637D01*
X137211888Y-68481349D01*
X137150285Y-68500037D01*
X137103124Y-68514343D01*
X137002885Y-68567921D01*
X136915026Y-68640026D01*
X136896961Y-68662038D01*
X135324000Y-70234999D01*
X121597000Y-70234999D01*
X121545964Y-70183963D01*
X121480114Y-70129922D01*
X121379876Y-70076344D01*
X121271111Y-70043349D01*
X121158000Y-70032210D01*
X121044889Y-70043349D01*
X120936124Y-70076344D01*
X120835886Y-70129922D01*
X120748026Y-70202026D01*
X120675922Y-70289886D01*
X120622344Y-70390124D01*
X120589349Y-70498889D01*
X120578210Y-70612000D01*
X108383752Y-70612000D01*
X108432079Y-70553115D01*
X108485657Y-70452876D01*
X108518650Y-70344112D01*
X108529791Y-70231000D01*
X108518650Y-70117888D01*
X108485657Y-70009124D01*
X108432079Y-69908885D01*
X108359974Y-69821026D01*
X108324606Y-69792000D01*
X124488336Y-69792000D01*
X124573112Y-69783650D01*
X124681876Y-69750657D01*
X124782115Y-69697079D01*
X124869974Y-69624974D01*
X124942079Y-69537115D01*
X124995657Y-69436876D01*
X125028650Y-69328112D01*
X125039791Y-69215000D01*
X125028650Y-69101888D01*
X124995657Y-68993124D01*
X124942079Y-68892885D01*
X124869974Y-68805026D01*
X124782115Y-68732921D01*
X124681876Y-68679343D01*
X124573112Y-68646350D01*
X124488336Y-68638000D01*
X113701931Y-68638000D01*
X113741402Y-68626026D01*
X113801957Y-68607657D01*
X113902196Y-68554079D01*
X113990055Y-68481974D01*
X114008121Y-68459961D01*
X114220037Y-68248044D01*
X114274078Y-68182194D01*
X114327656Y-68081957D01*
X114360651Y-67973193D01*
X114371790Y-67860081D01*
X114360651Y-67746970D01*
X114327656Y-67638205D01*
X114274078Y-67537967D01*
X114201974Y-67450107D01*
X114114114Y-67378003D01*
X114013876Y-67324425D01*
X113905111Y-67291430D01*
X113792000Y-67280291D01*
X113678888Y-67291430D01*
X113570124Y-67324425D01*
X113469887Y-67378003D01*
X113404037Y-67432044D01*
X113341081Y-67495000D01*
X106218920Y-67495000D01*
X105318116Y-66594196D01*
X105357070Y-66573374D01*
X105536291Y-66426291D01*
X105683374Y-66247070D01*
X105792667Y-66042597D01*
X105859969Y-65820732D01*
X105882694Y-65590000D01*
X106057306Y-65590000D01*
X106080031Y-65820732D01*
X106147333Y-66042597D01*
X106256626Y-66247070D01*
X106403709Y-66426291D01*
X106582930Y-66573374D01*
X106787403Y-66682667D01*
X107009268Y-66749969D01*
X107182188Y-66767000D01*
X107297812Y-66767000D01*
X107470732Y-66749969D01*
X107692597Y-66682667D01*
X107897070Y-66573374D01*
X108076291Y-66426291D01*
X108223374Y-66247070D01*
X108332667Y-66042597D01*
X108399969Y-65820732D01*
X108422694Y-65590000D01*
X108399969Y-65359268D01*
X108332667Y-65137403D01*
X108223374Y-64932930D01*
X108076291Y-64753709D01*
X107897070Y-64606626D01*
X107692597Y-64497333D01*
X107470732Y-64430031D01*
X107297812Y-64413000D01*
X107182188Y-64413000D01*
X107009268Y-64430031D01*
X106787403Y-64497333D01*
X106582930Y-64606626D01*
X106403709Y-64753709D01*
X106256626Y-64932930D01*
X106147333Y-65137403D01*
X106080031Y-65359268D01*
X106057306Y-65590000D01*
X105882694Y-65590000D01*
X105859969Y-65359268D01*
X105792667Y-65137403D01*
X105683374Y-64932930D01*
X105536291Y-64753709D01*
X105357070Y-64606626D01*
X105152597Y-64497333D01*
X104930732Y-64430031D01*
X104757812Y-64413000D01*
X104642188Y-64413000D01*
X104469268Y-64430031D01*
X104247403Y-64497333D01*
X104042930Y-64606626D01*
X103863709Y-64753709D01*
X103716626Y-64932930D01*
X103607333Y-65137403D01*
X103540031Y-65359268D01*
X103517306Y-65590000D01*
X103540031Y-65820732D01*
X103607333Y-66042597D01*
X103716626Y-66247070D01*
X103863709Y-66426291D01*
X104042930Y-66573374D01*
X104123001Y-66616173D01*
X104123001Y-66763740D01*
X104120210Y-66792081D01*
X104131349Y-66905192D01*
X104164344Y-67013957D01*
X104217922Y-67114196D01*
X104248840Y-67151869D01*
X104271963Y-67180045D01*
X104271966Y-67180048D01*
X104290027Y-67202055D01*
X104312034Y-67220116D01*
X105551880Y-68459962D01*
X105569945Y-68481974D01*
X105657804Y-68554079D01*
X105758043Y-68607657D01*
X105802701Y-68621204D01*
X105858068Y-68638000D01*
X103744001Y-68638000D01*
X102737000Y-67630999D01*
X102737000Y-66616172D01*
X102817070Y-66573374D01*
X102996291Y-66426291D01*
X103143374Y-66247070D01*
X103252667Y-66042597D01*
X103319969Y-65820732D01*
X103342694Y-65590000D01*
X103319969Y-65359268D01*
X103252667Y-65137403D01*
X103143374Y-64932930D01*
X102996291Y-64753709D01*
X102817070Y-64606626D01*
X102612597Y-64497333D01*
X102555091Y-64479889D01*
X102664099Y-64446825D01*
X102926920Y-64321641D01*
X103160269Y-64147588D01*
X103355178Y-63931355D01*
X103504157Y-63681252D01*
X103588986Y-63442115D01*
X103607333Y-63502597D01*
X103716626Y-63707070D01*
X103863709Y-63886291D01*
X104042930Y-64033374D01*
X104247403Y-64142667D01*
X104469268Y-64209969D01*
X104642188Y-64227000D01*
X104757812Y-64227000D01*
X104930732Y-64209969D01*
X105152597Y-64142667D01*
X105357070Y-64033374D01*
X105536291Y-63886291D01*
X105683374Y-63707070D01*
X105792667Y-63502597D01*
X105859969Y-63280732D01*
X105882694Y-63050000D01*
X106057306Y-63050000D01*
X106080031Y-63280732D01*
X106147333Y-63502597D01*
X106256626Y-63707070D01*
X106403709Y-63886291D01*
X106582930Y-64033374D01*
X106787403Y-64142667D01*
X107009268Y-64209969D01*
X107182188Y-64227000D01*
X107297812Y-64227000D01*
X107470732Y-64209969D01*
X107692597Y-64142667D01*
X107897070Y-64033374D01*
X108076291Y-63886291D01*
X108223374Y-63707070D01*
X108332667Y-63502597D01*
X108351014Y-63442115D01*
X108435843Y-63681252D01*
X108584822Y-63931355D01*
X108779731Y-64147588D01*
X109013080Y-64321641D01*
X109275901Y-64446825D01*
X109384909Y-64479889D01*
X109327403Y-64497333D01*
X109122930Y-64606626D01*
X108943709Y-64753709D01*
X108796626Y-64932930D01*
X108687333Y-65137403D01*
X108620031Y-65359268D01*
X108597306Y-65590000D01*
X108620031Y-65820732D01*
X108687333Y-66042597D01*
X108796626Y-66247070D01*
X108943709Y-66426291D01*
X109122930Y-66573374D01*
X109327403Y-66682667D01*
X109549268Y-66749969D01*
X109722188Y-66767000D01*
X109837812Y-66767000D01*
X110010732Y-66749969D01*
X110232597Y-66682667D01*
X110437070Y-66573374D01*
X110616291Y-66426291D01*
X110763374Y-66247070D01*
X110872667Y-66042597D01*
X110939969Y-65820732D01*
X110962694Y-65590000D01*
X111137306Y-65590000D01*
X111160031Y-65820732D01*
X111227333Y-66042597D01*
X111336626Y-66247070D01*
X111483709Y-66426291D01*
X111662930Y-66573374D01*
X111867403Y-66682667D01*
X112089268Y-66749969D01*
X112262188Y-66767000D01*
X112377812Y-66767000D01*
X112550732Y-66749969D01*
X112772597Y-66682667D01*
X112977070Y-66573374D01*
X113156291Y-66426291D01*
X113303374Y-66247070D01*
X113412667Y-66042597D01*
X113479969Y-65820732D01*
X113502694Y-65590000D01*
X113677306Y-65590000D01*
X113700031Y-65820732D01*
X113767333Y-66042597D01*
X113876626Y-66247070D01*
X114023709Y-66426291D01*
X114202930Y-66573374D01*
X114407403Y-66682667D01*
X114629268Y-66749969D01*
X114802188Y-66767000D01*
X114917812Y-66767000D01*
X115090732Y-66749969D01*
X115312597Y-66682667D01*
X115517070Y-66573374D01*
X115696291Y-66426291D01*
X115843374Y-66247070D01*
X115952667Y-66042597D01*
X115971014Y-65982115D01*
X116055843Y-66221252D01*
X116204822Y-66471355D01*
X116399731Y-66687588D01*
X116633080Y-66861641D01*
X116895901Y-66986825D01*
X117043110Y-67031476D01*
X117273000Y-66910155D01*
X117273000Y-65717000D01*
X117253000Y-65717000D01*
X117253000Y-65463000D01*
X117273000Y-65463000D01*
X117273000Y-65443000D01*
X117527000Y-65443000D01*
X117527000Y-65463000D01*
X117547000Y-65463000D01*
X117547000Y-65717000D01*
X117527000Y-65717000D01*
X117527000Y-66910155D01*
X117756890Y-67031476D01*
X117904099Y-66986825D01*
X118166920Y-66861641D01*
X118400269Y-66687588D01*
X118595178Y-66471355D01*
X118744157Y-66221252D01*
X118828986Y-65982115D01*
X118847333Y-66042597D01*
X118956626Y-66247070D01*
X119103709Y-66426291D01*
X119282930Y-66573374D01*
X119487403Y-66682667D01*
X119709268Y-66749969D01*
X119882188Y-66767000D01*
X119997812Y-66767000D01*
X120170732Y-66749969D01*
X120392597Y-66682667D01*
X120597070Y-66573374D01*
X120776291Y-66426291D01*
X120923374Y-66247070D01*
X121032667Y-66042597D01*
X121099969Y-65820732D01*
X121122694Y-65590000D01*
X121099969Y-65359268D01*
X121032667Y-65137403D01*
X120923374Y-64932930D01*
X120776291Y-64753709D01*
X120597070Y-64606626D01*
X120392597Y-64497333D01*
X120170732Y-64430031D01*
X119997812Y-64413000D01*
X119882188Y-64413000D01*
X119709268Y-64430031D01*
X119487403Y-64497333D01*
X119282930Y-64606626D01*
X119103709Y-64753709D01*
X118956626Y-64932930D01*
X118847333Y-65137403D01*
X118828986Y-65197885D01*
X118744157Y-64958748D01*
X118595178Y-64708645D01*
X118400269Y-64492412D01*
X118166920Y-64318359D01*
X117904099Y-64193175D01*
X117795091Y-64160111D01*
X117852597Y-64142667D01*
X118057070Y-64033374D01*
X118236291Y-63886291D01*
X118383374Y-63707070D01*
X118492667Y-63502597D01*
X118559969Y-63280732D01*
X118582694Y-63050000D01*
X118757306Y-63050000D01*
X118780031Y-63280732D01*
X118847333Y-63502597D01*
X118956626Y-63707070D01*
X119103709Y-63886291D01*
X119282930Y-64033374D01*
X119487403Y-64142667D01*
X119709268Y-64209969D01*
X119882188Y-64227000D01*
X119997812Y-64227000D01*
X120170732Y-64209969D01*
X120392597Y-64142667D01*
X120597070Y-64033374D01*
X120776291Y-63886291D01*
X120923374Y-63707070D01*
X121032667Y-63502597D01*
X121051014Y-63442115D01*
X121135843Y-63681252D01*
X121284822Y-63931355D01*
X121479731Y-64147588D01*
X121713080Y-64321641D01*
X121975901Y-64446825D01*
X122084909Y-64479889D01*
X122027403Y-64497333D01*
X121822930Y-64606626D01*
X121643709Y-64753709D01*
X121496626Y-64932930D01*
X121387333Y-65137403D01*
X121320031Y-65359268D01*
X121297306Y-65590000D01*
X121320031Y-65820732D01*
X121387333Y-66042597D01*
X121496626Y-66247070D01*
X121643709Y-66426291D01*
X121822930Y-66573374D01*
X122027403Y-66682667D01*
X122249268Y-66749969D01*
X122422188Y-66767000D01*
X122537812Y-66767000D01*
X122710732Y-66749969D01*
X122932597Y-66682667D01*
X123137070Y-66573374D01*
X123316291Y-66426291D01*
X123463374Y-66247070D01*
X123572667Y-66042597D01*
X123639969Y-65820732D01*
X123662694Y-65590000D01*
X123837306Y-65590000D01*
X123860031Y-65820732D01*
X123927333Y-66042597D01*
X124036626Y-66247070D01*
X124183709Y-66426291D01*
X124362930Y-66573374D01*
X124567403Y-66682667D01*
X124789268Y-66749969D01*
X124962188Y-66767000D01*
X125077812Y-66767000D01*
X125250732Y-66749969D01*
X125472597Y-66682667D01*
X125677070Y-66573374D01*
X125856291Y-66426291D01*
X126003374Y-66247070D01*
X126112667Y-66042597D01*
X126179969Y-65820732D01*
X126202694Y-65590000D01*
X126179969Y-65359268D01*
X126112667Y-65137403D01*
X126003374Y-64932930D01*
X125856291Y-64753709D01*
X125677070Y-64606626D01*
X125472597Y-64497333D01*
X125250732Y-64430031D01*
X125077812Y-64413000D01*
X124962188Y-64413000D01*
X124789268Y-64430031D01*
X124567403Y-64497333D01*
X124362930Y-64606626D01*
X124183709Y-64753709D01*
X124036626Y-64932930D01*
X123927333Y-65137403D01*
X123860031Y-65359268D01*
X123837306Y-65590000D01*
X123662694Y-65590000D01*
X123639969Y-65359268D01*
X123572667Y-65137403D01*
X123463374Y-64932930D01*
X123316291Y-64753709D01*
X123137070Y-64606626D01*
X122932597Y-64497333D01*
X122875091Y-64479889D01*
X122984099Y-64446825D01*
X123246920Y-64321641D01*
X123480269Y-64147588D01*
X123675178Y-63931355D01*
X123824157Y-63681252D01*
X123908986Y-63442115D01*
X123927333Y-63502597D01*
X124036626Y-63707070D01*
X124183709Y-63886291D01*
X124362930Y-64033374D01*
X124567403Y-64142667D01*
X124789268Y-64209969D01*
X124962188Y-64227000D01*
X125077812Y-64227000D01*
X125250732Y-64209969D01*
X125472597Y-64142667D01*
X125677070Y-64033374D01*
X125856291Y-63886291D01*
X126003374Y-63707070D01*
X126112667Y-63502597D01*
X126131014Y-63442115D01*
X126215843Y-63681252D01*
X126364822Y-63931355D01*
X126559731Y-64147588D01*
X126793080Y-64321641D01*
X127055901Y-64446825D01*
X127164909Y-64479889D01*
X127107403Y-64497333D01*
X126902930Y-64606626D01*
X126723709Y-64753709D01*
X126576626Y-64932930D01*
X126467333Y-65137403D01*
X126400031Y-65359268D01*
X126377306Y-65590000D01*
X126400031Y-65820732D01*
X126467333Y-66042597D01*
X126576626Y-66247070D01*
X126723709Y-66426291D01*
X126902930Y-66573374D01*
X127107403Y-66682667D01*
X127329268Y-66749969D01*
X127502188Y-66767000D01*
X127617812Y-66767000D01*
X127790732Y-66749969D01*
X128012597Y-66682667D01*
X128217070Y-66573374D01*
X128396291Y-66426291D01*
X128543374Y-66247070D01*
X128652667Y-66042597D01*
X128719969Y-65820732D01*
X128742694Y-65590000D01*
X128917306Y-65590000D01*
X128940031Y-65820732D01*
X129007333Y-66042597D01*
X129116626Y-66247070D01*
X129263709Y-66426291D01*
X129442930Y-66573374D01*
X129647403Y-66682667D01*
X129869268Y-66749969D01*
X130042188Y-66767000D01*
X130157812Y-66767000D01*
X130330732Y-66749969D01*
X130552597Y-66682667D01*
X130757070Y-66573374D01*
X130936291Y-66426291D01*
X131083374Y-66247070D01*
X131192667Y-66042597D01*
X131259969Y-65820732D01*
X131282694Y-65590000D01*
X131457306Y-65590000D01*
X131480031Y-65820732D01*
X131547333Y-66042597D01*
X131656626Y-66247070D01*
X131803709Y-66426291D01*
X131982930Y-66573374D01*
X132187403Y-66682667D01*
X132409268Y-66749969D01*
X132582188Y-66767000D01*
X132697812Y-66767000D01*
X132870732Y-66749969D01*
X133092597Y-66682667D01*
X133297070Y-66573374D01*
X133476291Y-66426291D01*
X133623374Y-66247070D01*
X133732667Y-66042597D01*
X133751014Y-65982115D01*
X133835843Y-66221252D01*
X133984822Y-66471355D01*
X134179731Y-66687588D01*
X134413080Y-66861641D01*
X134675901Y-66986825D01*
X134823110Y-67031476D01*
X135053000Y-66910155D01*
X135053000Y-65717000D01*
X135307000Y-65717000D01*
X135307000Y-66910155D01*
X135536890Y-67031476D01*
X135684099Y-66986825D01*
X135946920Y-66861641D01*
X136180269Y-66687588D01*
X136375178Y-66471355D01*
X136524157Y-66221252D01*
X136621481Y-65946891D01*
X136500814Y-65717000D01*
X135307000Y-65717000D01*
X135053000Y-65717000D01*
X135033000Y-65717000D01*
X135033000Y-65463000D01*
X135053000Y-65463000D01*
X135053000Y-65443000D01*
X135307000Y-65443000D01*
X135307000Y-65463000D01*
X136500814Y-65463000D01*
X136621481Y-65233109D01*
X136524157Y-64958748D01*
X136375178Y-64708645D01*
X136180269Y-64492412D01*
X135946920Y-64318359D01*
X135684099Y-64193175D01*
X135575091Y-64160111D01*
X135632597Y-64142667D01*
X135837070Y-64033374D01*
X136016291Y-63886291D01*
X136163374Y-63707070D01*
X136272667Y-63502597D01*
X136339969Y-63280732D01*
X136362694Y-63050000D01*
X136339969Y-62819268D01*
X136272667Y-62597403D01*
X136163374Y-62392930D01*
X136016291Y-62213709D01*
X135837070Y-62066626D01*
X135632597Y-61957333D01*
X135410732Y-61890031D01*
X135237812Y-61873000D01*
X135122188Y-61873000D01*
X134949268Y-61890031D01*
X134727403Y-61957333D01*
X134522930Y-62066626D01*
X134343709Y-62213709D01*
X134196626Y-62392930D01*
X134087333Y-62597403D01*
X134020031Y-62819268D01*
X133997306Y-63050000D01*
X134020031Y-63280732D01*
X134087333Y-63502597D01*
X134196626Y-63707070D01*
X134343709Y-63886291D01*
X134522930Y-64033374D01*
X134727403Y-64142667D01*
X134784909Y-64160111D01*
X134675901Y-64193175D01*
X134413080Y-64318359D01*
X134179731Y-64492412D01*
X133984822Y-64708645D01*
X133835843Y-64958748D01*
X133751014Y-65197885D01*
X133732667Y-65137403D01*
X133623374Y-64932930D01*
X133476291Y-64753709D01*
X133297070Y-64606626D01*
X133092597Y-64497333D01*
X132870732Y-64430031D01*
X132697812Y-64413000D01*
X132582188Y-64413000D01*
X132409268Y-64430031D01*
X132187403Y-64497333D01*
X131982930Y-64606626D01*
X131803709Y-64753709D01*
X131656626Y-64932930D01*
X131547333Y-65137403D01*
X131480031Y-65359268D01*
X131457306Y-65590000D01*
X131282694Y-65590000D01*
X131259969Y-65359268D01*
X131192667Y-65137403D01*
X131083374Y-64932930D01*
X130936291Y-64753709D01*
X130757070Y-64606626D01*
X130552597Y-64497333D01*
X130330732Y-64430031D01*
X130157812Y-64413000D01*
X130042188Y-64413000D01*
X129869268Y-64430031D01*
X129647403Y-64497333D01*
X129442930Y-64606626D01*
X129263709Y-64753709D01*
X129116626Y-64932930D01*
X129007333Y-65137403D01*
X128940031Y-65359268D01*
X128917306Y-65590000D01*
X128742694Y-65590000D01*
X128719969Y-65359268D01*
X128652667Y-65137403D01*
X128543374Y-64932930D01*
X128396291Y-64753709D01*
X128217070Y-64606626D01*
X128012597Y-64497333D01*
X127955091Y-64479889D01*
X128064099Y-64446825D01*
X128326920Y-64321641D01*
X128560269Y-64147588D01*
X128755178Y-63931355D01*
X128904157Y-63681252D01*
X128988986Y-63442115D01*
X129007333Y-63502597D01*
X129116626Y-63707070D01*
X129263709Y-63886291D01*
X129442930Y-64033374D01*
X129647403Y-64142667D01*
X129869268Y-64209969D01*
X130042188Y-64227000D01*
X130157812Y-64227000D01*
X130330732Y-64209969D01*
X130552597Y-64142667D01*
X130757070Y-64033374D01*
X130936291Y-63886291D01*
X131083374Y-63707070D01*
X131192667Y-63502597D01*
X131259969Y-63280732D01*
X131282694Y-63050000D01*
X131457306Y-63050000D01*
X131480031Y-63280732D01*
X131547333Y-63502597D01*
X131656626Y-63707070D01*
X131803709Y-63886291D01*
X131982930Y-64033374D01*
X132187403Y-64142667D01*
X132409268Y-64209969D01*
X132582188Y-64227000D01*
X132697812Y-64227000D01*
X132870732Y-64209969D01*
X133092597Y-64142667D01*
X133297070Y-64033374D01*
X133476291Y-63886291D01*
X133623374Y-63707070D01*
X133732667Y-63502597D01*
X133799969Y-63280732D01*
X133822694Y-63050000D01*
X133799969Y-62819268D01*
X133732667Y-62597403D01*
X133623374Y-62392930D01*
X133476291Y-62213709D01*
X133297070Y-62066626D01*
X133092597Y-61957333D01*
X132870732Y-61890031D01*
X132697812Y-61873000D01*
X132582188Y-61873000D01*
X132409268Y-61890031D01*
X132187403Y-61957333D01*
X131982930Y-62066626D01*
X131803709Y-62213709D01*
X131656626Y-62392930D01*
X131547333Y-62597403D01*
X131480031Y-62819268D01*
X131457306Y-63050000D01*
X131282694Y-63050000D01*
X131259969Y-62819268D01*
X131192667Y-62597403D01*
X131083374Y-62392930D01*
X130936291Y-62213709D01*
X130757070Y-62066626D01*
X130552597Y-61957333D01*
X130330732Y-61890031D01*
X130157812Y-61873000D01*
X130042188Y-61873000D01*
X129869268Y-61890031D01*
X129647403Y-61957333D01*
X129442930Y-62066626D01*
X129263709Y-62213709D01*
X129116626Y-62392930D01*
X129007333Y-62597403D01*
X128988986Y-62657885D01*
X128904157Y-62418748D01*
X128755178Y-62168645D01*
X128560269Y-61952412D01*
X128326920Y-61778359D01*
X128064099Y-61653175D01*
X127916890Y-61608524D01*
X127687000Y-61729845D01*
X127687000Y-62923000D01*
X127707000Y-62923000D01*
X127707000Y-63177000D01*
X127687000Y-63177000D01*
X127687000Y-63197000D01*
X127433000Y-63197000D01*
X127433000Y-63177000D01*
X127413000Y-63177000D01*
X127413000Y-62923000D01*
X127433000Y-62923000D01*
X127433000Y-61729845D01*
X127203110Y-61608524D01*
X127055901Y-61653175D01*
X126793080Y-61778359D01*
X126559731Y-61952412D01*
X126364822Y-62168645D01*
X126215843Y-62418748D01*
X126131014Y-62657885D01*
X126112667Y-62597403D01*
X126003374Y-62392930D01*
X125856291Y-62213709D01*
X125677070Y-62066626D01*
X125472597Y-61957333D01*
X125250732Y-61890031D01*
X125077812Y-61873000D01*
X124962188Y-61873000D01*
X124789268Y-61890031D01*
X124567403Y-61957333D01*
X124362930Y-62066626D01*
X124183709Y-62213709D01*
X124036626Y-62392930D01*
X123927333Y-62597403D01*
X123908986Y-62657885D01*
X123824157Y-62418748D01*
X123675178Y-62168645D01*
X123480269Y-61952412D01*
X123246920Y-61778359D01*
X122984099Y-61653175D01*
X122836890Y-61608524D01*
X122607000Y-61729845D01*
X122607000Y-62923000D01*
X122627000Y-62923000D01*
X122627000Y-63177000D01*
X122607000Y-63177000D01*
X122607000Y-63197000D01*
X122353000Y-63197000D01*
X122353000Y-63177000D01*
X122333000Y-63177000D01*
X122333000Y-62923000D01*
X122353000Y-62923000D01*
X122353000Y-61729845D01*
X122123110Y-61608524D01*
X121975901Y-61653175D01*
X121713080Y-61778359D01*
X121479731Y-61952412D01*
X121284822Y-62168645D01*
X121135843Y-62418748D01*
X121051014Y-62657885D01*
X121032667Y-62597403D01*
X120923374Y-62392930D01*
X120776291Y-62213709D01*
X120597070Y-62066626D01*
X120392597Y-61957333D01*
X120170732Y-61890031D01*
X119997812Y-61873000D01*
X119882188Y-61873000D01*
X119709268Y-61890031D01*
X119487403Y-61957333D01*
X119282930Y-62066626D01*
X119103709Y-62213709D01*
X118956626Y-62392930D01*
X118847333Y-62597403D01*
X118780031Y-62819268D01*
X118757306Y-63050000D01*
X118582694Y-63050000D01*
X118559969Y-62819268D01*
X118492667Y-62597403D01*
X118383374Y-62392930D01*
X118236291Y-62213709D01*
X118057070Y-62066626D01*
X117852597Y-61957333D01*
X117630732Y-61890031D01*
X117457812Y-61873000D01*
X117342188Y-61873000D01*
X117169268Y-61890031D01*
X116947403Y-61957333D01*
X116742930Y-62066626D01*
X116563709Y-62213709D01*
X116416626Y-62392930D01*
X116307333Y-62597403D01*
X116240031Y-62819268D01*
X116217306Y-63050000D01*
X116240031Y-63280732D01*
X116307333Y-63502597D01*
X116416626Y-63707070D01*
X116563709Y-63886291D01*
X116742930Y-64033374D01*
X116947403Y-64142667D01*
X117004909Y-64160111D01*
X116895901Y-64193175D01*
X116633080Y-64318359D01*
X116399731Y-64492412D01*
X116204822Y-64708645D01*
X116055843Y-64958748D01*
X115971014Y-65197885D01*
X115952667Y-65137403D01*
X115843374Y-64932930D01*
X115696291Y-64753709D01*
X115517070Y-64606626D01*
X115312597Y-64497333D01*
X115090732Y-64430031D01*
X114917812Y-64413000D01*
X114802188Y-64413000D01*
X114629268Y-64430031D01*
X114407403Y-64497333D01*
X114202930Y-64606626D01*
X114023709Y-64753709D01*
X113876626Y-64932930D01*
X113767333Y-65137403D01*
X113700031Y-65359268D01*
X113677306Y-65590000D01*
X113502694Y-65590000D01*
X113479969Y-65359268D01*
X113412667Y-65137403D01*
X113303374Y-64932930D01*
X113156291Y-64753709D01*
X112977070Y-64606626D01*
X112772597Y-64497333D01*
X112550732Y-64430031D01*
X112377812Y-64413000D01*
X112262188Y-64413000D01*
X112089268Y-64430031D01*
X111867403Y-64497333D01*
X111662930Y-64606626D01*
X111483709Y-64753709D01*
X111336626Y-64932930D01*
X111227333Y-65137403D01*
X111160031Y-65359268D01*
X111137306Y-65590000D01*
X110962694Y-65590000D01*
X110939969Y-65359268D01*
X110872667Y-65137403D01*
X110763374Y-64932930D01*
X110616291Y-64753709D01*
X110437070Y-64606626D01*
X110232597Y-64497333D01*
X110175091Y-64479889D01*
X110284099Y-64446825D01*
X110546920Y-64321641D01*
X110780269Y-64147588D01*
X110975178Y-63931355D01*
X111124157Y-63681252D01*
X111208986Y-63442115D01*
X111227333Y-63502597D01*
X111336626Y-63707070D01*
X111483709Y-63886291D01*
X111662930Y-64033374D01*
X111867403Y-64142667D01*
X112089268Y-64209969D01*
X112262188Y-64227000D01*
X112377812Y-64227000D01*
X112550732Y-64209969D01*
X112772597Y-64142667D01*
X112977070Y-64033374D01*
X113156291Y-63886291D01*
X113303374Y-63707070D01*
X113412667Y-63502597D01*
X113479969Y-63280732D01*
X113502694Y-63050000D01*
X113677306Y-63050000D01*
X113700031Y-63280732D01*
X113767333Y-63502597D01*
X113876626Y-63707070D01*
X114023709Y-63886291D01*
X114202930Y-64033374D01*
X114407403Y-64142667D01*
X114629268Y-64209969D01*
X114802188Y-64227000D01*
X114917812Y-64227000D01*
X115090732Y-64209969D01*
X115312597Y-64142667D01*
X115517070Y-64033374D01*
X115696291Y-63886291D01*
X115843374Y-63707070D01*
X115952667Y-63502597D01*
X116019969Y-63280732D01*
X116042694Y-63050000D01*
X116019969Y-62819268D01*
X115952667Y-62597403D01*
X115843374Y-62392930D01*
X115696291Y-62213709D01*
X115517070Y-62066626D01*
X115312597Y-61957333D01*
X115090732Y-61890031D01*
X114917812Y-61873000D01*
X114802188Y-61873000D01*
X114629268Y-61890031D01*
X114407403Y-61957333D01*
X114202930Y-62066626D01*
X114023709Y-62213709D01*
X113876626Y-62392930D01*
X113767333Y-62597403D01*
X113700031Y-62819268D01*
X113677306Y-63050000D01*
X113502694Y-63050000D01*
X113479969Y-62819268D01*
X113412667Y-62597403D01*
X113303374Y-62392930D01*
X113156291Y-62213709D01*
X112977070Y-62066626D01*
X112772597Y-61957333D01*
X112550732Y-61890031D01*
X112377812Y-61873000D01*
X112262188Y-61873000D01*
X112089268Y-61890031D01*
X111867403Y-61957333D01*
X111662930Y-62066626D01*
X111483709Y-62213709D01*
X111336626Y-62392930D01*
X111227333Y-62597403D01*
X111208986Y-62657885D01*
X111124157Y-62418748D01*
X110975178Y-62168645D01*
X110780269Y-61952412D01*
X110546920Y-61778359D01*
X110284099Y-61653175D01*
X110136890Y-61608524D01*
X109907000Y-61729845D01*
X109907000Y-62923000D01*
X109927000Y-62923000D01*
X109927000Y-63177000D01*
X109907000Y-63177000D01*
X109907000Y-63197000D01*
X109653000Y-63197000D01*
X109653000Y-63177000D01*
X109633000Y-63177000D01*
X109633000Y-62923000D01*
X109653000Y-62923000D01*
X109653000Y-61729845D01*
X109423110Y-61608524D01*
X109275901Y-61653175D01*
X109013080Y-61778359D01*
X108779731Y-61952412D01*
X108584822Y-62168645D01*
X108435843Y-62418748D01*
X108351014Y-62657885D01*
X108332667Y-62597403D01*
X108223374Y-62392930D01*
X108076291Y-62213709D01*
X107897070Y-62066626D01*
X107692597Y-61957333D01*
X107470732Y-61890031D01*
X107297812Y-61873000D01*
X107182188Y-61873000D01*
X107009268Y-61890031D01*
X106787403Y-61957333D01*
X106582930Y-62066626D01*
X106403709Y-62213709D01*
X106256626Y-62392930D01*
X106147333Y-62597403D01*
X106080031Y-62819268D01*
X106057306Y-63050000D01*
X105882694Y-63050000D01*
X105859969Y-62819268D01*
X105792667Y-62597403D01*
X105683374Y-62392930D01*
X105536291Y-62213709D01*
X105357070Y-62066626D01*
X105152597Y-61957333D01*
X104930732Y-61890031D01*
X104757812Y-61873000D01*
X104642188Y-61873000D01*
X104469268Y-61890031D01*
X104247403Y-61957333D01*
X104042930Y-62066626D01*
X103863709Y-62213709D01*
X103716626Y-62392930D01*
X103607333Y-62597403D01*
X103588986Y-62657885D01*
X103504157Y-62418748D01*
X103355178Y-62168645D01*
X103160269Y-61952412D01*
X102926920Y-61778359D01*
X102664099Y-61653175D01*
X102516890Y-61608524D01*
X102287000Y-61729845D01*
X102287000Y-62923000D01*
X102307000Y-62923000D01*
X102307000Y-63177000D01*
X102287000Y-63177000D01*
X102287000Y-63197000D01*
X102033000Y-63197000D01*
X102033000Y-63177000D01*
X102013000Y-63177000D01*
X102013000Y-62923000D01*
X102033000Y-62923000D01*
X102033000Y-61729845D01*
X101803110Y-61608524D01*
X101655901Y-61653175D01*
X101393080Y-61778359D01*
X101159731Y-61952412D01*
X100964822Y-62168645D01*
X100815843Y-62418748D01*
X100731014Y-62657885D01*
X100712667Y-62597403D01*
X100603374Y-62392930D01*
X100456291Y-62213709D01*
X100277070Y-62066626D01*
X100072597Y-61957333D01*
X99850732Y-61890031D01*
X99677812Y-61873000D01*
X99562188Y-61873000D01*
X99389268Y-61890031D01*
X99167403Y-61957333D01*
X98962930Y-62066626D01*
X98783709Y-62213709D01*
X98636626Y-62392930D01*
X98527333Y-62597403D01*
X98460031Y-62819268D01*
X98437306Y-63050000D01*
X98460031Y-63280732D01*
X98527333Y-63502597D01*
X98636626Y-63707070D01*
X98783709Y-63886291D01*
X98962930Y-64033374D01*
X99167403Y-64142667D01*
X99389268Y-64209969D01*
X99562188Y-64227000D01*
X99677812Y-64227000D01*
X99850732Y-64209969D01*
X100072597Y-64142667D01*
X100277070Y-64033374D01*
X100456291Y-63886291D01*
X100603374Y-63707070D01*
X100712667Y-63502597D01*
X100731014Y-63442115D01*
X100815843Y-63681252D01*
X100964822Y-63931355D01*
X101159731Y-64147588D01*
X101393080Y-64321641D01*
X101655901Y-64446825D01*
X101764909Y-64479889D01*
X101707403Y-64497333D01*
X101502930Y-64606626D01*
X101323709Y-64753709D01*
X101176626Y-64932930D01*
X101067333Y-65137403D01*
X101000031Y-65359268D01*
X100977306Y-65590000D01*
X101000031Y-65820732D01*
X101067333Y-66042597D01*
X101176626Y-66247070D01*
X101323709Y-66426291D01*
X101502930Y-66573374D01*
X101583000Y-66616173D01*
X101583001Y-67841659D01*
X101580210Y-67870000D01*
X101587451Y-67943531D01*
X100238116Y-66594196D01*
X100277070Y-66573374D01*
X100456291Y-66426291D01*
X100603374Y-66247070D01*
X100712667Y-66042597D01*
X100779969Y-65820732D01*
X100802694Y-65590000D01*
X100779969Y-65359268D01*
X100712667Y-65137403D01*
X100603374Y-64932930D01*
X100456291Y-64753709D01*
X100277070Y-64606626D01*
X100072597Y-64497333D01*
X99850732Y-64430031D01*
X99677812Y-64413000D01*
X99562188Y-64413000D01*
X99389268Y-64430031D01*
X99167403Y-64497333D01*
X98962930Y-64606626D01*
X98783709Y-64753709D01*
X98636626Y-64932930D01*
X98527333Y-65137403D01*
X98508986Y-65197885D01*
X98424157Y-64958748D01*
X98275178Y-64708645D01*
X98080269Y-64492412D01*
X97846920Y-64318359D01*
X97584099Y-64193175D01*
X97475091Y-64160111D01*
X97532597Y-64142667D01*
X97737070Y-64033374D01*
X97916291Y-63886291D01*
X98063374Y-63707070D01*
X98172667Y-63502597D01*
X98239969Y-63280732D01*
X98262694Y-63050000D01*
X98239969Y-62819268D01*
X98172667Y-62597403D01*
X98063374Y-62392930D01*
X97916291Y-62213709D01*
X97737070Y-62066626D01*
X97532597Y-61957333D01*
X97310732Y-61890031D01*
X97137812Y-61873000D01*
X97022188Y-61873000D01*
X96849268Y-61890031D01*
X96627403Y-61957333D01*
X96422930Y-62066626D01*
X96243709Y-62213709D01*
X96096626Y-62392930D01*
X95987333Y-62597403D01*
X95920031Y-62819268D01*
X95897306Y-63050000D01*
X95920031Y-63280732D01*
X95987333Y-63502597D01*
X96096626Y-63707070D01*
X96243709Y-63886291D01*
X96422930Y-64033374D01*
X96627403Y-64142667D01*
X96684909Y-64160111D01*
X96575901Y-64193175D01*
X96313080Y-64318359D01*
X96079731Y-64492412D01*
X95884822Y-64708645D01*
X95735843Y-64958748D01*
X95651014Y-65197885D01*
X95632667Y-65137403D01*
X95523374Y-64932930D01*
X95376291Y-64753709D01*
X95197070Y-64606626D01*
X94992597Y-64497333D01*
X94770732Y-64430031D01*
X94597812Y-64413000D01*
X94482188Y-64413000D01*
X94309268Y-64430031D01*
X94087403Y-64497333D01*
X93882930Y-64606626D01*
X93703709Y-64753709D01*
X93556626Y-64932930D01*
X93447333Y-65137403D01*
X93380031Y-65359268D01*
X93357306Y-65590000D01*
X93182694Y-65590000D01*
X93159969Y-65359268D01*
X93092667Y-65137403D01*
X92983374Y-64932930D01*
X92836291Y-64753709D01*
X92657070Y-64606626D01*
X92452597Y-64497333D01*
X92395091Y-64479889D01*
X92504099Y-64446825D01*
X92766920Y-64321641D01*
X93000269Y-64147588D01*
X93195178Y-63931355D01*
X93344157Y-63681252D01*
X93428986Y-63442115D01*
X93447333Y-63502597D01*
X93556626Y-63707070D01*
X93703709Y-63886291D01*
X93882930Y-64033374D01*
X94087403Y-64142667D01*
X94309268Y-64209969D01*
X94482188Y-64227000D01*
X94597812Y-64227000D01*
X94770732Y-64209969D01*
X94992597Y-64142667D01*
X95197070Y-64033374D01*
X95376291Y-63886291D01*
X95523374Y-63707070D01*
X95632667Y-63502597D01*
X95699969Y-63280732D01*
X95722694Y-63050000D01*
X95699969Y-62819268D01*
X95632667Y-62597403D01*
X95523374Y-62392930D01*
X95376291Y-62213709D01*
X95197070Y-62066626D01*
X94992597Y-61957333D01*
X94770732Y-61890031D01*
X94597812Y-61873000D01*
X94482188Y-61873000D01*
X94309268Y-61890031D01*
X94087403Y-61957333D01*
X93882930Y-62066626D01*
X93703709Y-62213709D01*
X93556626Y-62392930D01*
X93447333Y-62597403D01*
X93428986Y-62657885D01*
X93344157Y-62418748D01*
X93195178Y-62168645D01*
X93000269Y-61952412D01*
X92766920Y-61778359D01*
X92504099Y-61653175D01*
X92356890Y-61608524D01*
X92127000Y-61729845D01*
X92127000Y-62923000D01*
X92147000Y-62923000D01*
X92147000Y-63177000D01*
X92127000Y-63177000D01*
X92127000Y-63197000D01*
X91873000Y-63197000D01*
X91873000Y-63177000D01*
X91853000Y-63177000D01*
X91853000Y-62923000D01*
X91873000Y-62923000D01*
X91873000Y-61729845D01*
X91643110Y-61608524D01*
X91495901Y-61653175D01*
X91233080Y-61778359D01*
X90999731Y-61952412D01*
X90804822Y-62168645D01*
X90655843Y-62418748D01*
X90571014Y-62657885D01*
X90552667Y-62597403D01*
X90443374Y-62392930D01*
X90296291Y-62213709D01*
X90117070Y-62066626D01*
X89912597Y-61957333D01*
X89690732Y-61890031D01*
X89517812Y-61873000D01*
X89402188Y-61873000D01*
X89229268Y-61890031D01*
X89007403Y-61957333D01*
X88802930Y-62066626D01*
X88623709Y-62213709D01*
X88476626Y-62392930D01*
X88367333Y-62597403D01*
X88300031Y-62819268D01*
X88277306Y-63050000D01*
X88300031Y-63280732D01*
X88367333Y-63502597D01*
X88476626Y-63707070D01*
X88623709Y-63886291D01*
X88802930Y-64033374D01*
X89007403Y-64142667D01*
X89229268Y-64209969D01*
X89402188Y-64227000D01*
X89517812Y-64227000D01*
X89690732Y-64209969D01*
X89912597Y-64142667D01*
X90117070Y-64033374D01*
X90296291Y-63886291D01*
X90443374Y-63707070D01*
X90552667Y-63502597D01*
X90571014Y-63442115D01*
X90655843Y-63681252D01*
X90804822Y-63931355D01*
X90999731Y-64147588D01*
X91233080Y-64321641D01*
X91495901Y-64446825D01*
X91604909Y-64479889D01*
X91547403Y-64497333D01*
X91342930Y-64606626D01*
X91163709Y-64753709D01*
X91016626Y-64932930D01*
X90907333Y-65137403D01*
X90840031Y-65359268D01*
X90817306Y-65590000D01*
X90840031Y-65820732D01*
X90907333Y-66042597D01*
X91016626Y-66247070D01*
X91163709Y-66426291D01*
X91342930Y-66573374D01*
X91423001Y-66616173D01*
X91423000Y-68796998D01*
X90819999Y-69400000D01*
X87641331Y-69400000D01*
X87613000Y-69397210D01*
X87584669Y-69400000D01*
X87584664Y-69400000D01*
X87557886Y-69402637D01*
X87499888Y-69408349D01*
X87435782Y-69427796D01*
X87391124Y-69441343D01*
X87290885Y-69494921D01*
X87239473Y-69537114D01*
X87225035Y-69548963D01*
X87225033Y-69548965D01*
X87203026Y-69567026D01*
X87184965Y-69589033D01*
X86357999Y-70416000D01*
X82649082Y-70416000D01*
X82649082Y-70143000D01*
X82642768Y-70078897D01*
X82624070Y-70017257D01*
X82593706Y-69960450D01*
X82552843Y-69910657D01*
X82503050Y-69869794D01*
X82446243Y-69839430D01*
X82384603Y-69820732D01*
X82320500Y-69814418D01*
X80620500Y-69814418D01*
X80556397Y-69820732D01*
X80494757Y-69839430D01*
X80437950Y-69869794D01*
X80388157Y-69910657D01*
X80347294Y-69960450D01*
X80316930Y-70017257D01*
X80298232Y-70078897D01*
X80291918Y-70143000D01*
X78923356Y-70143000D01*
X78923356Y-65182628D01*
X78937012Y-65251281D01*
X79180270Y-65838558D01*
X79533425Y-66367093D01*
X79982907Y-66816575D01*
X80511442Y-67169730D01*
X81098719Y-67412988D01*
X81722168Y-67537000D01*
X82357832Y-67537000D01*
X82981281Y-67412988D01*
X83568558Y-67169730D01*
X84097093Y-66816575D01*
X84546575Y-66367093D01*
X84899730Y-65838558D01*
X85142988Y-65251281D01*
X85244688Y-64740000D01*
X85741418Y-64740000D01*
X85741418Y-66440000D01*
X85747732Y-66504103D01*
X85766430Y-66565743D01*
X85796794Y-66622550D01*
X85837657Y-66672343D01*
X85887450Y-66713206D01*
X85944257Y-66743570D01*
X86005897Y-66762268D01*
X86070000Y-66768582D01*
X87770000Y-66768582D01*
X87834103Y-66762268D01*
X87895743Y-66743570D01*
X87952550Y-66713206D01*
X88002343Y-66672343D01*
X88043206Y-66622550D01*
X88073570Y-66565743D01*
X88092268Y-66504103D01*
X88098582Y-66440000D01*
X88098582Y-65590000D01*
X88277306Y-65590000D01*
X88300031Y-65820732D01*
X88367333Y-66042597D01*
X88476626Y-66247070D01*
X88623709Y-66426291D01*
X88802930Y-66573374D01*
X89007403Y-66682667D01*
X89229268Y-66749969D01*
X89402188Y-66767000D01*
X89517812Y-66767000D01*
X89690732Y-66749969D01*
X89912597Y-66682667D01*
X90117070Y-66573374D01*
X90296291Y-66426291D01*
X90443374Y-66247070D01*
X90552667Y-66042597D01*
X90619969Y-65820732D01*
X90642694Y-65590000D01*
X90619969Y-65359268D01*
X90552667Y-65137403D01*
X90443374Y-64932930D01*
X90296291Y-64753709D01*
X90117070Y-64606626D01*
X89912597Y-64497333D01*
X89690732Y-64430031D01*
X89517812Y-64413000D01*
X89402188Y-64413000D01*
X89229268Y-64430031D01*
X89007403Y-64497333D01*
X88802930Y-64606626D01*
X88623709Y-64753709D01*
X88476626Y-64932930D01*
X88367333Y-65137403D01*
X88300031Y-65359268D01*
X88277306Y-65590000D01*
X88098582Y-65590000D01*
X88098582Y-64740000D01*
X88092268Y-64675897D01*
X88073570Y-64614257D01*
X88043206Y-64557450D01*
X88002343Y-64507657D01*
X87952550Y-64466794D01*
X87895743Y-64436430D01*
X87834103Y-64417732D01*
X87770000Y-64411418D01*
X86070000Y-64411418D01*
X86005897Y-64417732D01*
X85944257Y-64436430D01*
X85887450Y-64466794D01*
X85837657Y-64507657D01*
X85796794Y-64557450D01*
X85766430Y-64614257D01*
X85747732Y-64675897D01*
X85741418Y-64740000D01*
X85244688Y-64740000D01*
X85267000Y-64627832D01*
X85267000Y-63992168D01*
X85142988Y-63368719D01*
X85010971Y-63050000D01*
X85737306Y-63050000D01*
X85760031Y-63280732D01*
X85827333Y-63502597D01*
X85936626Y-63707070D01*
X86083709Y-63886291D01*
X86262930Y-64033374D01*
X86467403Y-64142667D01*
X86689268Y-64209969D01*
X86862188Y-64227000D01*
X86977812Y-64227000D01*
X87150732Y-64209969D01*
X87372597Y-64142667D01*
X87577070Y-64033374D01*
X87756291Y-63886291D01*
X87903374Y-63707070D01*
X88012667Y-63502597D01*
X88079969Y-63280732D01*
X88102694Y-63050000D01*
X88079969Y-62819268D01*
X88012667Y-62597403D01*
X87903374Y-62392930D01*
X87756291Y-62213709D01*
X87577070Y-62066626D01*
X87372597Y-61957333D01*
X87150732Y-61890031D01*
X86977812Y-61873000D01*
X86862188Y-61873000D01*
X86689268Y-61890031D01*
X86467403Y-61957333D01*
X86262930Y-62066626D01*
X86083709Y-62213709D01*
X85936626Y-62392930D01*
X85827333Y-62597403D01*
X85760031Y-62819268D01*
X85737306Y-63050000D01*
X85010971Y-63050000D01*
X84899730Y-62781442D01*
X84546575Y-62252907D01*
X84097093Y-61803425D01*
X83568558Y-61450270D01*
X82981281Y-61207012D01*
X82918937Y-61194611D01*
X139261609Y-61194611D01*
X139098719Y-61227012D01*
X139098719Y-61227012D01*
G37*
X139098719Y-61227012D02*
X138511442Y-61470270D01*
X137982907Y-61823425D01*
X137533425Y-62272907D01*
X137180270Y-62801442D01*
X136937012Y-63388719D01*
X136813000Y-64012168D01*
X136813000Y-64647832D01*
X136937012Y-65271281D01*
X137180270Y-65858558D01*
X137533425Y-66387093D01*
X137982907Y-66836575D01*
X138511442Y-67189730D01*
X139098719Y-67432988D01*
X139722168Y-67557000D01*
X140357832Y-67557000D01*
X140981281Y-67432988D01*
X141568558Y-67189730D01*
X142097093Y-66836575D01*
X142546575Y-66387093D01*
X142899730Y-65858558D01*
X143142988Y-65271281D01*
X143169357Y-65138716D01*
X143169356Y-90043000D01*
X130229001Y-90043000D01*
X128657964Y-88471963D01*
X128592114Y-88417922D01*
X128491876Y-88364344D01*
X128383111Y-88331349D01*
X128270000Y-88320210D01*
X128156889Y-88331349D01*
X128048124Y-88364344D01*
X127947886Y-88417922D01*
X127860026Y-88490026D01*
X127787922Y-88577886D01*
X127734344Y-88678124D01*
X127701349Y-88786889D01*
X127690210Y-88900000D01*
X127701349Y-89013111D01*
X127734344Y-89121876D01*
X127787922Y-89222114D01*
X127841963Y-89287964D01*
X128596999Y-90043000D01*
X120650000Y-90043000D01*
X120625224Y-90045440D01*
X120601399Y-90052667D01*
X120579443Y-90064403D01*
X120560197Y-90080197D01*
X120544403Y-90099443D01*
X120532667Y-90121399D01*
X120525440Y-90145224D01*
X120523000Y-90170000D01*
X120523000Y-109287445D01*
X117687447Y-112123000D01*
X115583924Y-112123000D01*
X115486099Y-111976594D01*
X115273406Y-111763901D01*
X115023306Y-111596790D01*
X114745410Y-111481681D01*
X114450396Y-111423000D01*
X114149604Y-111423000D01*
X113854590Y-111481681D01*
X113576694Y-111596790D01*
X113326594Y-111763901D01*
X113113901Y-111976594D01*
X113016076Y-112123000D01*
X106693924Y-112123000D01*
X106596099Y-111976594D01*
X106383406Y-111763901D01*
X106133306Y-111596790D01*
X105855410Y-111481681D01*
X105560396Y-111423000D01*
X105259604Y-111423000D01*
X105086905Y-111457351D01*
X104833505Y-111203952D01*
X104807606Y-111172394D01*
X104681679Y-111069048D01*
X104538010Y-110992255D01*
X104382120Y-110944966D01*
X104260624Y-110933000D01*
X104260614Y-110933000D01*
X104220000Y-110929000D01*
X104179386Y-110933000D01*
X96884976Y-110933000D01*
X96869066Y-110894591D01*
X96669124Y-110595355D01*
X96414645Y-110340876D01*
X96115409Y-110140934D01*
X95782916Y-110003211D01*
X95429944Y-109933000D01*
X95070056Y-109933000D01*
X94717084Y-110003211D01*
X94384591Y-110140934D01*
X94085355Y-110340876D01*
X93830876Y-110595355D01*
X93630934Y-110894591D01*
X93493211Y-111227084D01*
X93423000Y-111580056D01*
X93423000Y-111939944D01*
X93493211Y-112292916D01*
X93630934Y-112625409D01*
X93830876Y-112924645D01*
X94085355Y-113179124D01*
X94384591Y-113379066D01*
X94717084Y-113516789D01*
X95070056Y-113587000D01*
X95429944Y-113587000D01*
X95782916Y-113516789D01*
X96115409Y-113379066D01*
X96414645Y-113179124D01*
X96669124Y-112924645D01*
X96869066Y-112625409D01*
X96884976Y-112587000D01*
X103877447Y-112587000D01*
X103917351Y-112626905D01*
X103883000Y-112799604D01*
X103883000Y-113100396D01*
X103941681Y-113395410D01*
X104056790Y-113673306D01*
X104223901Y-113923406D01*
X104436594Y-114136099D01*
X104686694Y-114303210D01*
X104964590Y-114418319D01*
X105259604Y-114477000D01*
X105560396Y-114477000D01*
X105855410Y-114418319D01*
X106133306Y-114303210D01*
X106383406Y-114136099D01*
X106596099Y-113923406D01*
X106693924Y-113777000D01*
X113016076Y-113777000D01*
X113113901Y-113923406D01*
X113326594Y-114136099D01*
X113576694Y-114303210D01*
X113854590Y-114418319D01*
X114149604Y-114477000D01*
X114450396Y-114477000D01*
X114745410Y-114418319D01*
X115023306Y-114303210D01*
X115273406Y-114136099D01*
X115486099Y-113923406D01*
X115583924Y-113777000D01*
X117989386Y-113777000D01*
X118030000Y-113781000D01*
X118070614Y-113777000D01*
X118070624Y-113777000D01*
X118192120Y-113765034D01*
X118348010Y-113717745D01*
X118491679Y-113640952D01*
X118617606Y-113537606D01*
X118643505Y-113506048D01*
X120523000Y-111626554D01*
X120523000Y-116440611D01*
X82892684Y-116440611D01*
X82981281Y-116422988D01*
X83568558Y-116179730D01*
X84097093Y-115826575D01*
X84546575Y-115377093D01*
X84899730Y-114848558D01*
X85142988Y-114261281D01*
X85267000Y-113637832D01*
X85267000Y-113260000D01*
X88031928Y-113260000D01*
X88044188Y-113384482D01*
X88080498Y-113504180D01*
X88139463Y-113614494D01*
X88218815Y-113711185D01*
X88315506Y-113790537D01*
X88425820Y-113849502D01*
X88545518Y-113885812D01*
X88670000Y-113898072D01*
X89884250Y-113895000D01*
X90043000Y-113736250D01*
X90043000Y-111887000D01*
X90297000Y-111887000D01*
X90297000Y-113736250D01*
X90455750Y-113895000D01*
X91670000Y-113898072D01*
X91794482Y-113885812D01*
X91914180Y-113849502D01*
X92024494Y-113790537D01*
X92121185Y-113711185D01*
X92200537Y-113614494D01*
X92259502Y-113504180D01*
X92295812Y-113384482D01*
X92308072Y-113260000D01*
X92305000Y-112045750D01*
X92146250Y-111887000D01*
X90297000Y-111887000D01*
X90043000Y-111887000D01*
X88193750Y-111887000D01*
X88035000Y-112045750D01*
X88031928Y-113260000D01*
X85267000Y-113260000D01*
X85267000Y-113002168D01*
X85142988Y-112378719D01*
X84899730Y-111791442D01*
X84546575Y-111262907D01*
X84097093Y-110813425D01*
X83568558Y-110460270D01*
X83085064Y-110260000D01*
X88031928Y-110260000D01*
X88035000Y-111474250D01*
X88193750Y-111633000D01*
X90043000Y-111633000D01*
X90043000Y-109783750D01*
X90297000Y-109783750D01*
X90297000Y-111633000D01*
X92146250Y-111633000D01*
X92305000Y-111474250D01*
X92308072Y-110260000D01*
X92295812Y-110135518D01*
X92259502Y-110015820D01*
X92200537Y-109905506D01*
X92121185Y-109808815D01*
X92024494Y-109729463D01*
X91914180Y-109670498D01*
X91794482Y-109634188D01*
X91670000Y-109621928D01*
X90455750Y-109625000D01*
X90297000Y-109783750D01*
X90043000Y-109783750D01*
X89884250Y-109625000D01*
X88670000Y-109621928D01*
X88545518Y-109634188D01*
X88425820Y-109670498D01*
X88315506Y-109729463D01*
X88218815Y-109808815D01*
X88139463Y-109905506D01*
X88080498Y-110015820D01*
X88044188Y-110135518D01*
X88031928Y-110260000D01*
X83085064Y-110260000D01*
X82981281Y-110217012D01*
X82357832Y-110093000D01*
X81722168Y-110093000D01*
X81098719Y-110217012D01*
X80511442Y-110460270D01*
X79982907Y-110813425D01*
X79533425Y-111262907D01*
X79180270Y-111791442D01*
X78937012Y-112378719D01*
X78923356Y-112447372D01*
X78923356Y-107799604D01*
X103883000Y-107799604D01*
X103883000Y-108100396D01*
X103941681Y-108395410D01*
X104056790Y-108673306D01*
X104223901Y-108923406D01*
X104436594Y-109136099D01*
X104686694Y-109303210D01*
X104964590Y-109418319D01*
X105259604Y-109477000D01*
X105560396Y-109477000D01*
X105855410Y-109418319D01*
X106133306Y-109303210D01*
X106383406Y-109136099D01*
X106596099Y-108923406D01*
X106763210Y-108673306D01*
X106878319Y-108395410D01*
X106937000Y-108100396D01*
X106937000Y-107799604D01*
X112773000Y-107799604D01*
X112773000Y-108100396D01*
X112831681Y-108395410D01*
X112946790Y-108673306D01*
X113113901Y-108923406D01*
X113326594Y-109136099D01*
X113576694Y-109303210D01*
X113854590Y-109418319D01*
X114149604Y-109477000D01*
X114450396Y-109477000D01*
X114745410Y-109418319D01*
X115023306Y-109303210D01*
X115273406Y-109136099D01*
X115486099Y-108923406D01*
X115653210Y-108673306D01*
X115768319Y-108395410D01*
X115827000Y-108100396D01*
X115827000Y-107799604D01*
X115768319Y-107504590D01*
X115653210Y-107226694D01*
X115486099Y-106976594D01*
X115273406Y-106763901D01*
X115023306Y-106596790D01*
X114745410Y-106481681D01*
X114450396Y-106423000D01*
X114149604Y-106423000D01*
X113854590Y-106481681D01*
X113576694Y-106596790D01*
X113326594Y-106763901D01*
X113113901Y-106976594D01*
X112946790Y-107226694D01*
X112831681Y-107504590D01*
X112773000Y-107799604D01*
X106937000Y-107799604D01*
X106878319Y-107504590D01*
X106763210Y-107226694D01*
X106596099Y-106976594D01*
X106383406Y-106763901D01*
X106133306Y-106596790D01*
X105855410Y-106481681D01*
X105560396Y-106423000D01*
X105259604Y-106423000D01*
X104964590Y-106481681D01*
X104686694Y-106596790D01*
X104436594Y-106763901D01*
X104223901Y-106976594D01*
X104056790Y-107226694D01*
X103941681Y-107504590D01*
X103883000Y-107799604D01*
X78923356Y-107799604D01*
X78923356Y-106581066D01*
X81558539Y-106581066D01*
X81660339Y-106850579D01*
X81958477Y-106996463D01*
X82279346Y-107081380D01*
X82610617Y-107102066D01*
X82939557Y-107057728D01*
X83253527Y-106950069D01*
X83439661Y-106850579D01*
X83541461Y-106581066D01*
X82550000Y-105589605D01*
X81558539Y-106581066D01*
X78923356Y-106581066D01*
X78923356Y-105470617D01*
X80857934Y-105470617D01*
X80902272Y-105799557D01*
X81009931Y-106113527D01*
X81109421Y-106299661D01*
X81378934Y-106401461D01*
X82370395Y-105410000D01*
X82729605Y-105410000D01*
X83721066Y-106401461D01*
X83990579Y-106299661D01*
X84136463Y-106001523D01*
X84221380Y-105680654D01*
X84242066Y-105349383D01*
X84197728Y-105020443D01*
X84090069Y-104706473D01*
X83990579Y-104520339D01*
X83721066Y-104418539D01*
X82729605Y-105410000D01*
X82370395Y-105410000D01*
X81378934Y-104418539D01*
X81109421Y-104520339D01*
X80963537Y-104818477D01*
X80878620Y-105139346D01*
X80857934Y-105470617D01*
X78923356Y-105470617D01*
X78923356Y-101820000D01*
X81171418Y-101820000D01*
X81171418Y-103920000D01*
X81177732Y-103984103D01*
X81196430Y-104045743D01*
X81226794Y-104102550D01*
X81267657Y-104152343D01*
X81317450Y-104193206D01*
X81374257Y-104223570D01*
X81435897Y-104242268D01*
X81500000Y-104248582D01*
X81568187Y-104248582D01*
X82550000Y-105230395D01*
X83531813Y-104248582D01*
X83600000Y-104248582D01*
X83664103Y-104242268D01*
X83725743Y-104223570D01*
X83782550Y-104193206D01*
X83832343Y-104152343D01*
X83873206Y-104102550D01*
X83903570Y-104045743D01*
X83922268Y-103984103D01*
X83928582Y-103920000D01*
X83928582Y-102307420D01*
X84059002Y-102177000D01*
X105311336Y-102177000D01*
X105396112Y-102168650D01*
X105504876Y-102135657D01*
X105605115Y-102082079D01*
X105692974Y-102009974D01*
X105765079Y-101922115D01*
X105818657Y-101821876D01*
X105851650Y-101713112D01*
X105862791Y-101600000D01*
X105851650Y-101486888D01*
X105818657Y-101378124D01*
X105765079Y-101277885D01*
X105692974Y-101190026D01*
X105605115Y-101117921D01*
X105504876Y-101064343D01*
X105396112Y-101031350D01*
X105311336Y-101023000D01*
X83848328Y-101023000D01*
X83819999Y-101020210D01*
X83791670Y-101023000D01*
X83791664Y-101023000D01*
X83706888Y-101031350D01*
X83598124Y-101064343D01*
X83497885Y-101117921D01*
X83451980Y-101155595D01*
X83432035Y-101171963D01*
X83432033Y-101171965D01*
X83410026Y-101190026D01*
X83391965Y-101212033D01*
X83112580Y-101491418D01*
X81500000Y-101491418D01*
X81435897Y-101497732D01*
X81374257Y-101516430D01*
X81317450Y-101546794D01*
X81267657Y-101587657D01*
X81226794Y-101637450D01*
X81196430Y-101694257D01*
X81177732Y-101755897D01*
X81171418Y-101820000D01*
X78923356Y-101820000D01*
X78923356Y-96190000D01*
X79351418Y-96190000D01*
X79351418Y-99390000D01*
X79357732Y-99454103D01*
X79376430Y-99515743D01*
X79406794Y-99572550D01*
X79447657Y-99622343D01*
X79497450Y-99663206D01*
X79554257Y-99693570D01*
X79615897Y-99712268D01*
X79680000Y-99718582D01*
X82880000Y-99718582D01*
X82944103Y-99712268D01*
X83005743Y-99693570D01*
X83062550Y-99663206D01*
X83112343Y-99622343D01*
X83153206Y-99572550D01*
X83183570Y-99515743D01*
X83202268Y-99454103D01*
X83208582Y-99390000D01*
X83208582Y-97790000D01*
X94583677Y-97790000D01*
X94620883Y-98167758D01*
X94731071Y-98530999D01*
X94910006Y-98865763D01*
X95150813Y-99159187D01*
X95444237Y-99399994D01*
X95779001Y-99578929D01*
X96142242Y-99689117D01*
X96425342Y-99717000D01*
X96614658Y-99717000D01*
X96897758Y-99689117D01*
X97260999Y-99578929D01*
X97595763Y-99399994D01*
X97889187Y-99159187D01*
X98129994Y-98865763D01*
X98308929Y-98530999D01*
X98419117Y-98167758D01*
X98456323Y-97790000D01*
X98419117Y-97412242D01*
X98308929Y-97049001D01*
X98129994Y-96714237D01*
X97889187Y-96420813D01*
X97595763Y-96180006D01*
X97260999Y-96001071D01*
X96897758Y-95890883D01*
X96614658Y-95863000D01*
X96425342Y-95863000D01*
X96142242Y-95890883D01*
X95779001Y-96001071D01*
X95444237Y-96180006D01*
X95150813Y-96420813D01*
X94910006Y-96714237D01*
X94731071Y-97049001D01*
X94620883Y-97412242D01*
X94583677Y-97790000D01*
X83208582Y-97790000D01*
X83208582Y-96190000D01*
X83202268Y-96125897D01*
X83183570Y-96064257D01*
X83153206Y-96007450D01*
X83112343Y-95957657D01*
X83062550Y-95916794D01*
X83005743Y-95886430D01*
X82944103Y-95867732D01*
X82880000Y-95861418D01*
X79680000Y-95861418D01*
X79615897Y-95867732D01*
X79554257Y-95886430D01*
X79497450Y-95916794D01*
X79447657Y-95957657D01*
X79406794Y-96007450D01*
X79376430Y-96064257D01*
X79357732Y-96125897D01*
X79351418Y-96190000D01*
X78923356Y-96190000D01*
X78923356Y-89840000D01*
X79351418Y-89840000D01*
X79351418Y-93040000D01*
X79357732Y-93104103D01*
X79376430Y-93165743D01*
X79406794Y-93222550D01*
X79447657Y-93272343D01*
X79497450Y-93313206D01*
X79554257Y-93343570D01*
X79615897Y-93362268D01*
X79680000Y-93368582D01*
X82880000Y-93368582D01*
X82944103Y-93362268D01*
X83005743Y-93343570D01*
X83062550Y-93313206D01*
X83112343Y-93272343D01*
X83153206Y-93222550D01*
X83183570Y-93165743D01*
X83202268Y-93104103D01*
X83208582Y-93040000D01*
X83208582Y-91440000D01*
X94583677Y-91440000D01*
X94620883Y-91817758D01*
X94731071Y-92180999D01*
X94910006Y-92515763D01*
X95150813Y-92809187D01*
X95444237Y-93049994D01*
X95779001Y-93228929D01*
X96142242Y-93339117D01*
X96425342Y-93367000D01*
X96614658Y-93367000D01*
X96897758Y-93339117D01*
X97260999Y-93228929D01*
X97595763Y-93049994D01*
X97889187Y-92809187D01*
X98129994Y-92515763D01*
X98161937Y-92456000D01*
X106735209Y-92456000D01*
X106746350Y-92569112D01*
X106779343Y-92677876D01*
X106832921Y-92778115D01*
X106905026Y-92865974D01*
X106992885Y-92938079D01*
X107093124Y-92991657D01*
X107201888Y-93024650D01*
X107286664Y-93033000D01*
X112273152Y-93033000D01*
X112173124Y-93063343D01*
X112072885Y-93116921D01*
X111985026Y-93189026D01*
X111912921Y-93276885D01*
X111859343Y-93377124D01*
X111826350Y-93485888D01*
X111815209Y-93599000D01*
X111826350Y-93712112D01*
X111859343Y-93820876D01*
X111912921Y-93921115D01*
X111985026Y-94008974D01*
X112072885Y-94081079D01*
X112173124Y-94134657D01*
X112281888Y-94167650D01*
X112366664Y-94176000D01*
X117249336Y-94176000D01*
X117334112Y-94167650D01*
X117442876Y-94134657D01*
X117543115Y-94081079D01*
X117630974Y-94008974D01*
X117703079Y-93921115D01*
X117756657Y-93820876D01*
X117789650Y-93712112D01*
X117800791Y-93599000D01*
X117789650Y-93485888D01*
X117756657Y-93377124D01*
X117703079Y-93276885D01*
X117630974Y-93189026D01*
X117543115Y-93116921D01*
X117442876Y-93063343D01*
X117334112Y-93030350D01*
X117249336Y-93022000D01*
X115437848Y-93022000D01*
X115537876Y-92991657D01*
X115638115Y-92938079D01*
X115725974Y-92865974D01*
X115798079Y-92778115D01*
X115851657Y-92677876D01*
X115884650Y-92569112D01*
X115895791Y-92456000D01*
X115884650Y-92342888D01*
X115851657Y-92234124D01*
X115798079Y-92133885D01*
X115725974Y-92046026D01*
X115638115Y-91973921D01*
X115537876Y-91920343D01*
X115429112Y-91887350D01*
X115344336Y-91879000D01*
X107286664Y-91879000D01*
X107201888Y-91887350D01*
X107093124Y-91920343D01*
X106992885Y-91973921D01*
X106905026Y-92046026D01*
X106832921Y-92133885D01*
X106779343Y-92234124D01*
X106746350Y-92342888D01*
X106735209Y-92456000D01*
X98161937Y-92456000D01*
X98308929Y-92180999D01*
X98419117Y-91817758D01*
X98456323Y-91440000D01*
X98419117Y-91062242D01*
X98308929Y-90699001D01*
X98129994Y-90364237D01*
X97889187Y-90070813D01*
X97595763Y-89830006D01*
X97260999Y-89651071D01*
X96897758Y-89540883D01*
X96614658Y-89513000D01*
X96425342Y-89513000D01*
X96142242Y-89540883D01*
X95779001Y-89651071D01*
X95444237Y-89830006D01*
X95150813Y-90070813D01*
X94910006Y-90364237D01*
X94731071Y-90699001D01*
X94620883Y-91062242D01*
X94583677Y-91440000D01*
X83208582Y-91440000D01*
X83208582Y-89840000D01*
X83202268Y-89775897D01*
X83183570Y-89714257D01*
X83153206Y-89657450D01*
X83112343Y-89607657D01*
X83062550Y-89566794D01*
X83005743Y-89536430D01*
X82944103Y-89517732D01*
X82880000Y-89511418D01*
X79680000Y-89511418D01*
X79615897Y-89517732D01*
X79554257Y-89536430D01*
X79497450Y-89566794D01*
X79447657Y-89607657D01*
X79406794Y-89657450D01*
X79376430Y-89714257D01*
X79357732Y-89775897D01*
X79351418Y-89840000D01*
X78923356Y-89840000D01*
X78923356Y-86487000D01*
X107370209Y-86487000D01*
X107381350Y-86600112D01*
X107414343Y-86708876D01*
X107467921Y-86809115D01*
X107540026Y-86896974D01*
X107627885Y-86969079D01*
X107728124Y-87022657D01*
X107836888Y-87055650D01*
X107921664Y-87064000D01*
X109367515Y-87064000D01*
X109319343Y-87154124D01*
X109286350Y-87262888D01*
X109275209Y-87376000D01*
X109286350Y-87489112D01*
X109319343Y-87597876D01*
X109372921Y-87698115D01*
X109445026Y-87785974D01*
X109532885Y-87858079D01*
X109633124Y-87911657D01*
X109741888Y-87944650D01*
X109826664Y-87953000D01*
X113820336Y-87953000D01*
X113905112Y-87944650D01*
X114013876Y-87911657D01*
X114114115Y-87858079D01*
X114201974Y-87785974D01*
X114274079Y-87698115D01*
X114327657Y-87597876D01*
X114360650Y-87489112D01*
X114371791Y-87376000D01*
X114360650Y-87262888D01*
X114327657Y-87154124D01*
X114274079Y-87053885D01*
X114201974Y-86966026D01*
X114114115Y-86893921D01*
X114013876Y-86840343D01*
X113905112Y-86807350D01*
X113820336Y-86799000D01*
X112882485Y-86799000D01*
X112930657Y-86708876D01*
X112963650Y-86600112D01*
X112974791Y-86487000D01*
X112963650Y-86373888D01*
X112930657Y-86265124D01*
X112877079Y-86164885D01*
X112804974Y-86077026D01*
X112717115Y-86004921D01*
X112616876Y-85951343D01*
X112508112Y-85918350D01*
X112423336Y-85910000D01*
X111246848Y-85910000D01*
X111346876Y-85879657D01*
X111447115Y-85826079D01*
X111534974Y-85753974D01*
X111607079Y-85666115D01*
X111660657Y-85565876D01*
X111693650Y-85457112D01*
X111704791Y-85344000D01*
X111698793Y-85283095D01*
X123933000Y-85283095D01*
X123933000Y-85386905D01*
X123953252Y-85488720D01*
X123992979Y-85584628D01*
X124050652Y-85670943D01*
X124124057Y-85744348D01*
X124210372Y-85802021D01*
X124306280Y-85841748D01*
X124408095Y-85862000D01*
X124511905Y-85862000D01*
X124613720Y-85841748D01*
X124709628Y-85802021D01*
X124795943Y-85744348D01*
X124869348Y-85670943D01*
X124927021Y-85584628D01*
X124966748Y-85488720D01*
X124987000Y-85386905D01*
X124987000Y-85283095D01*
X124966748Y-85181280D01*
X124928939Y-85090000D01*
X126420209Y-85090000D01*
X126431350Y-85203112D01*
X126464343Y-85311876D01*
X126517921Y-85412115D01*
X126590026Y-85499974D01*
X126677885Y-85572079D01*
X126778124Y-85625657D01*
X126886888Y-85658650D01*
X126971664Y-85667000D01*
X130458336Y-85667000D01*
X130543112Y-85658650D01*
X130651876Y-85625657D01*
X130752115Y-85572079D01*
X130839974Y-85499974D01*
X130912079Y-85412115D01*
X130965657Y-85311876D01*
X130998650Y-85203112D01*
X131009791Y-85090000D01*
X130998650Y-84976888D01*
X130965657Y-84868124D01*
X130912079Y-84767885D01*
X130839974Y-84680026D01*
X130752115Y-84607921D01*
X130651876Y-84554343D01*
X130543112Y-84521350D01*
X130458336Y-84513000D01*
X126971664Y-84513000D01*
X126886888Y-84521350D01*
X126778124Y-84554343D01*
X126677885Y-84607921D01*
X126590026Y-84680026D01*
X126517921Y-84767885D01*
X126464343Y-84868124D01*
X126431350Y-84976888D01*
X126420209Y-85090000D01*
X124928939Y-85090000D01*
X124927021Y-85085372D01*
X124869348Y-84999057D01*
X124795943Y-84925652D01*
X124709628Y-84867979D01*
X124613720Y-84828252D01*
X124511905Y-84808000D01*
X124408095Y-84808000D01*
X124306280Y-84828252D01*
X124210372Y-84867979D01*
X124124057Y-84925652D01*
X124050652Y-84999057D01*
X123992979Y-85085372D01*
X123953252Y-85181280D01*
X123933000Y-85283095D01*
X111698793Y-85283095D01*
X111693650Y-85230888D01*
X111660657Y-85122124D01*
X111607079Y-85021885D01*
X111534974Y-84934026D01*
X111447115Y-84861921D01*
X111346876Y-84808343D01*
X111238112Y-84775350D01*
X111153336Y-84767000D01*
X109064664Y-84767000D01*
X108979888Y-84775350D01*
X108871124Y-84808343D01*
X108770885Y-84861921D01*
X108683026Y-84934026D01*
X108610921Y-85021885D01*
X108557343Y-85122124D01*
X108524350Y-85230888D01*
X108513209Y-85344000D01*
X108524350Y-85457112D01*
X108557343Y-85565876D01*
X108610921Y-85666115D01*
X108683026Y-85753974D01*
X108770885Y-85826079D01*
X108871124Y-85879657D01*
X108971152Y-85910000D01*
X107921664Y-85910000D01*
X107836888Y-85918350D01*
X107728124Y-85951343D01*
X107627885Y-86004921D01*
X107540026Y-86077026D01*
X107467921Y-86164885D01*
X107414343Y-86265124D01*
X107381350Y-86373888D01*
X107370209Y-86487000D01*
X78923356Y-86487000D01*
X78923356Y-83185000D01*
X80449000Y-83185000D01*
X80464967Y-83347120D01*
X80512256Y-83503010D01*
X80589048Y-83646679D01*
X80692394Y-83772606D01*
X80818321Y-83875952D01*
X80961990Y-83952744D01*
X81117880Y-84000033D01*
X81280000Y-84016000D01*
X81442120Y-84000033D01*
X81598010Y-83952744D01*
X81741679Y-83875952D01*
X81836051Y-83798502D01*
X82576553Y-83058000D01*
X89463209Y-83058000D01*
X89474350Y-83171112D01*
X89507343Y-83279876D01*
X89560921Y-83380115D01*
X89633026Y-83467974D01*
X89720885Y-83540079D01*
X89821124Y-83593657D01*
X89929888Y-83626650D01*
X90014664Y-83635000D01*
X105311336Y-83635000D01*
X105396112Y-83626650D01*
X105504876Y-83593657D01*
X105605115Y-83540079D01*
X105692974Y-83467974D01*
X105765079Y-83380115D01*
X105818657Y-83279876D01*
X105851650Y-83171112D01*
X105862791Y-83058000D01*
X105851650Y-82944888D01*
X105818657Y-82836124D01*
X105765079Y-82735885D01*
X105692974Y-82648026D01*
X105605115Y-82575921D01*
X105504876Y-82522343D01*
X105396112Y-82489350D01*
X105311336Y-82481000D01*
X90014664Y-82481000D01*
X89929888Y-82489350D01*
X89821124Y-82522343D01*
X89720885Y-82575921D01*
X89633026Y-82648026D01*
X89560921Y-82735885D01*
X89507343Y-82836124D01*
X89474350Y-82944888D01*
X89463209Y-83058000D01*
X82576553Y-83058000D01*
X84354554Y-81280000D01*
X85528999Y-81280000D01*
X85544966Y-81442120D01*
X85592255Y-81598010D01*
X85669048Y-81741679D01*
X85772394Y-81867606D01*
X85898321Y-81970952D01*
X86041990Y-82047745D01*
X86197880Y-82095034D01*
X86319376Y-82107000D01*
X96639386Y-82107000D01*
X96680000Y-82111000D01*
X96720614Y-82107000D01*
X96720624Y-82107000D01*
X96842120Y-82095034D01*
X96998010Y-82047745D01*
X97141679Y-81970952D01*
X97267606Y-81867606D01*
X97293505Y-81836048D01*
X99204594Y-79924960D01*
X99263393Y-79996607D01*
X99404107Y-80112088D01*
X99564647Y-80197898D01*
X99738843Y-80250740D01*
X99920000Y-80268582D01*
X101120000Y-80268582D01*
X101301157Y-80250740D01*
X101475353Y-80197898D01*
X101635893Y-80112088D01*
X101776607Y-79996607D01*
X101892088Y-79855893D01*
X101977898Y-79695353D01*
X102016834Y-79567000D01*
X110286076Y-79567000D01*
X110383901Y-79713406D01*
X110596594Y-79926099D01*
X110846694Y-80093210D01*
X111124590Y-80208319D01*
X111419604Y-80267000D01*
X111720396Y-80267000D01*
X112015410Y-80208319D01*
X112293306Y-80093210D01*
X112522601Y-79940000D01*
X117731928Y-79940000D01*
X117744188Y-80064482D01*
X117780498Y-80184180D01*
X117839463Y-80294494D01*
X117918815Y-80391185D01*
X118015506Y-80470537D01*
X118125820Y-80529502D01*
X118245518Y-80565812D01*
X118370000Y-80578072D01*
X119284250Y-80575000D01*
X119443000Y-80416250D01*
X119443000Y-78867000D01*
X119697000Y-78867000D01*
X119697000Y-80416250D01*
X119855750Y-80575000D01*
X120770000Y-80578072D01*
X120894482Y-80565812D01*
X121014180Y-80529502D01*
X121124494Y-80470537D01*
X121221185Y-80391185D01*
X121300537Y-80294494D01*
X121359502Y-80184180D01*
X121395812Y-80064482D01*
X121408072Y-79940000D01*
X121405000Y-79025750D01*
X121246250Y-78867000D01*
X119697000Y-78867000D01*
X119443000Y-78867000D01*
X117893750Y-78867000D01*
X117735000Y-79025750D01*
X117731928Y-79940000D01*
X112522601Y-79940000D01*
X112543406Y-79926099D01*
X112756099Y-79713406D01*
X112923210Y-79463306D01*
X113038319Y-79185410D01*
X113097000Y-78890396D01*
X113097000Y-78740000D01*
X133405210Y-78740000D01*
X133416349Y-78853111D01*
X133449344Y-78961876D01*
X133502922Y-79062114D01*
X133556963Y-79127964D01*
X134191961Y-79762962D01*
X134210026Y-79784974D01*
X134297885Y-79857079D01*
X134398124Y-79910657D01*
X134442782Y-79924204D01*
X134506888Y-79943651D01*
X134620000Y-79954791D01*
X134648339Y-79952000D01*
X138321418Y-79952000D01*
X138321418Y-80425000D01*
X138327732Y-80489103D01*
X138346430Y-80550743D01*
X138376794Y-80607550D01*
X138417657Y-80657343D01*
X138467450Y-80698206D01*
X138524257Y-80728570D01*
X138585897Y-80747268D01*
X138650000Y-80753582D01*
X138959650Y-80753582D01*
X138822213Y-80845414D01*
X138630414Y-81037213D01*
X138479718Y-81262746D01*
X138375917Y-81513344D01*
X138323000Y-81779377D01*
X138323000Y-82050623D01*
X138375917Y-82316656D01*
X138479718Y-82567254D01*
X138630414Y-82792787D01*
X138822213Y-82984586D01*
X139047746Y-83135282D01*
X139298344Y-83239083D01*
X139564377Y-83292000D01*
X139835623Y-83292000D01*
X140101656Y-83239083D01*
X140352254Y-83135282D01*
X140577787Y-82984586D01*
X140769586Y-82792787D01*
X140920282Y-82567254D01*
X141024083Y-82316656D01*
X141077000Y-82050623D01*
X141077000Y-81779377D01*
X141024083Y-81513344D01*
X140920282Y-81262746D01*
X140769586Y-81037213D01*
X140577787Y-80845414D01*
X140440350Y-80753582D01*
X140750000Y-80753582D01*
X140814103Y-80747268D01*
X140875743Y-80728570D01*
X140932550Y-80698206D01*
X140982343Y-80657343D01*
X141023206Y-80607550D01*
X141053570Y-80550743D01*
X141072268Y-80489103D01*
X141078582Y-80425000D01*
X141078582Y-78325000D01*
X141072268Y-78260897D01*
X141053570Y-78199257D01*
X141023206Y-78142450D01*
X140982343Y-78092657D01*
X140932550Y-78051794D01*
X140875743Y-78021430D01*
X140814103Y-78002732D01*
X140750000Y-77996418D01*
X138650000Y-77996418D01*
X138585897Y-78002732D01*
X138524257Y-78021430D01*
X138467450Y-78051794D01*
X138417657Y-78092657D01*
X138376794Y-78142450D01*
X138346430Y-78199257D01*
X138327732Y-78260897D01*
X138321418Y-78325000D01*
X138321418Y-78798000D01*
X134859001Y-78798000D01*
X134372964Y-78311963D01*
X134307114Y-78257922D01*
X134206876Y-78204344D01*
X134098111Y-78171349D01*
X133985000Y-78160210D01*
X133871889Y-78171349D01*
X133763124Y-78204344D01*
X133662886Y-78257922D01*
X133575026Y-78330026D01*
X133502922Y-78417886D01*
X133449344Y-78518124D01*
X133416349Y-78626889D01*
X133405210Y-78740000D01*
X113097000Y-78740000D01*
X113097000Y-78589604D01*
X113038319Y-78294590D01*
X112923210Y-78016694D01*
X112756099Y-77766594D01*
X112543406Y-77553901D01*
X112522602Y-77540000D01*
X117731928Y-77540000D01*
X117735000Y-78454250D01*
X117893750Y-78613000D01*
X119443000Y-78613000D01*
X119443000Y-77063750D01*
X119697000Y-77063750D01*
X119697000Y-78613000D01*
X121246250Y-78613000D01*
X121405000Y-78454250D01*
X121408072Y-77540000D01*
X121395812Y-77415518D01*
X121359502Y-77295820D01*
X121300537Y-77185506D01*
X121221185Y-77088815D01*
X121124494Y-77009463D01*
X121014180Y-76950498D01*
X120894482Y-76914188D01*
X120770000Y-76901928D01*
X119855750Y-76905000D01*
X119697000Y-77063750D01*
X119443000Y-77063750D01*
X119284250Y-76905000D01*
X118370000Y-76901928D01*
X118245518Y-76914188D01*
X118125820Y-76950498D01*
X118015506Y-77009463D01*
X117918815Y-77088815D01*
X117839463Y-77185506D01*
X117780498Y-77295820D01*
X117744188Y-77415518D01*
X117731928Y-77540000D01*
X112522602Y-77540000D01*
X112293306Y-77386790D01*
X112015410Y-77271681D01*
X111720396Y-77213000D01*
X111419604Y-77213000D01*
X111124590Y-77271681D01*
X110846694Y-77386790D01*
X110596594Y-77553901D01*
X110383901Y-77766594D01*
X110286076Y-77913000D01*
X102016834Y-77913000D01*
X101977898Y-77784647D01*
X101892088Y-77624107D01*
X101776607Y-77483393D01*
X101635893Y-77367912D01*
X101475353Y-77282102D01*
X101301157Y-77229260D01*
X101120000Y-77211418D01*
X99920000Y-77211418D01*
X99738843Y-77229260D01*
X99564647Y-77282102D01*
X99404107Y-77367912D01*
X99263393Y-77483393D01*
X99147912Y-77624107D01*
X99062102Y-77784647D01*
X99015651Y-77937776D01*
X98901990Y-77972255D01*
X98776872Y-78039132D01*
X98758319Y-78049049D01*
X98663947Y-78126498D01*
X98663941Y-78126504D01*
X98632394Y-78152394D01*
X98606504Y-78183942D01*
X96337447Y-80453000D01*
X86319376Y-80453000D01*
X86197880Y-80464966D01*
X86041990Y-80512255D01*
X85898321Y-80589048D01*
X85772394Y-80692394D01*
X85669048Y-80818321D01*
X85592255Y-80961990D01*
X85544966Y-81117880D01*
X85528999Y-81280000D01*
X84354554Y-81280000D01*
X86067555Y-79567000D01*
X91236076Y-79567000D01*
X91333901Y-79713406D01*
X91546594Y-79926099D01*
X91796694Y-80093210D01*
X92074590Y-80208319D01*
X92369604Y-80267000D01*
X92670396Y-80267000D01*
X92965410Y-80208319D01*
X93243306Y-80093210D01*
X93493406Y-79926099D01*
X93706099Y-79713406D01*
X93873210Y-79463306D01*
X93988319Y-79185410D01*
X94047000Y-78890396D01*
X94047000Y-78589604D01*
X93988319Y-78294590D01*
X93873210Y-78016694D01*
X93706099Y-77766594D01*
X93493406Y-77553901D01*
X93243306Y-77386790D01*
X92965410Y-77271681D01*
X92670396Y-77213000D01*
X92369604Y-77213000D01*
X92074590Y-77271681D01*
X91796694Y-77386790D01*
X91546594Y-77553901D01*
X91333901Y-77766594D01*
X91236076Y-77913000D01*
X85765610Y-77913000D01*
X85724999Y-77909000D01*
X85684388Y-77913000D01*
X85684376Y-77913000D01*
X85562880Y-77924966D01*
X85406990Y-77972255D01*
X85363407Y-77995550D01*
X85263319Y-78049048D01*
X85168947Y-78126498D01*
X85168941Y-78126504D01*
X85137394Y-78152394D01*
X85111504Y-78183941D01*
X80666498Y-82628949D01*
X80589048Y-82723321D01*
X80512256Y-82866990D01*
X80464967Y-83022880D01*
X80449000Y-83185000D01*
X78923356Y-83185000D01*
X78923356Y-78969890D01*
X80029024Y-78969890D01*
X80073675Y-79117099D01*
X80198859Y-79379920D01*
X80372912Y-79613269D01*
X80589145Y-79808178D01*
X80839248Y-79957157D01*
X81113609Y-80054481D01*
X81343500Y-79933814D01*
X81343500Y-78740000D01*
X81597500Y-78740000D01*
X81597500Y-79933814D01*
X81827391Y-80054481D01*
X82101752Y-79957157D01*
X82351855Y-79808178D01*
X82568088Y-79613269D01*
X82742141Y-79379920D01*
X82867325Y-79117099D01*
X82911976Y-78969890D01*
X82790655Y-78740000D01*
X81597500Y-78740000D01*
X81343500Y-78740000D01*
X80150345Y-78740000D01*
X80029024Y-78969890D01*
X78923356Y-78969890D01*
X78923356Y-78256110D01*
X80029024Y-78256110D01*
X80150345Y-78486000D01*
X81343500Y-78486000D01*
X81343500Y-78466000D01*
X81597500Y-78466000D01*
X81597500Y-78486000D01*
X82790655Y-78486000D01*
X82911976Y-78256110D01*
X82867325Y-78108901D01*
X82742141Y-77846080D01*
X82568088Y-77612731D01*
X82351855Y-77417822D01*
X82101752Y-77268843D01*
X81862615Y-77184014D01*
X81923097Y-77165667D01*
X82127570Y-77056374D01*
X82306791Y-76909291D01*
X82453874Y-76730070D01*
X82496672Y-76650000D01*
X86896336Y-76650000D01*
X86981112Y-76641650D01*
X87089876Y-76608657D01*
X87190115Y-76555079D01*
X87277974Y-76482974D01*
X87350079Y-76395115D01*
X87403657Y-76294876D01*
X87436650Y-76186112D01*
X87447791Y-76073000D01*
X87436650Y-75959888D01*
X87403657Y-75851124D01*
X87350079Y-75750885D01*
X87277974Y-75663026D01*
X87190115Y-75590921D01*
X87089876Y-75537343D01*
X86981112Y-75504350D01*
X86896336Y-75496000D01*
X82496672Y-75496000D01*
X82453874Y-75415930D01*
X82306791Y-75236709D01*
X82127570Y-75089626D01*
X81923097Y-74980333D01*
X81701232Y-74913031D01*
X81528312Y-74896000D01*
X81412688Y-74896000D01*
X81239768Y-74913031D01*
X81017903Y-74980333D01*
X80813430Y-75089626D01*
X80634209Y-75236709D01*
X80487126Y-75415930D01*
X80377833Y-75620403D01*
X80310531Y-75842268D01*
X80287806Y-76073000D01*
X80310531Y-76303732D01*
X80377833Y-76525597D01*
X80487126Y-76730070D01*
X80634209Y-76909291D01*
X80813430Y-77056374D01*
X81017903Y-77165667D01*
X81078385Y-77184014D01*
X80839248Y-77268843D01*
X80589145Y-77417822D01*
X80372912Y-77612731D01*
X80198859Y-77846080D01*
X80073675Y-78108901D01*
X80029024Y-78256110D01*
X78923356Y-78256110D01*
X78923356Y-73533000D01*
X80287806Y-73533000D01*
X80310531Y-73763732D01*
X80377833Y-73985597D01*
X80487126Y-74190070D01*
X80634209Y-74369291D01*
X80813430Y-74516374D01*
X81017903Y-74625667D01*
X81239768Y-74692969D01*
X81412688Y-74710000D01*
X81528312Y-74710000D01*
X81701232Y-74692969D01*
X81923097Y-74625667D01*
X82127570Y-74516374D01*
X82306791Y-74369291D01*
X82453874Y-74190070D01*
X82496672Y-74110000D01*
X87919169Y-74110000D01*
X87947500Y-74112790D01*
X87975831Y-74110000D01*
X87975836Y-74110000D01*
X88005545Y-74107074D01*
X88060611Y-74101651D01*
X88105270Y-74088103D01*
X88169376Y-74068657D01*
X88269615Y-74015079D01*
X88357474Y-73942974D01*
X88375539Y-73920962D01*
X89859463Y-72437038D01*
X89881474Y-72418974D01*
X89953579Y-72331115D01*
X90007157Y-72230876D01*
X90040150Y-72122112D01*
X90048500Y-72037336D01*
X90048500Y-72037330D01*
X90051290Y-72009001D01*
X90048500Y-71980672D01*
X90048500Y-71855175D01*
X90040150Y-71770399D01*
X90007157Y-71661635D01*
X89953579Y-71561396D01*
X89881474Y-71473536D01*
X89793615Y-71401431D01*
X89693376Y-71347853D01*
X89629064Y-71328344D01*
X89625220Y-71326752D01*
X89621139Y-71325940D01*
X89584612Y-71314860D01*
X89546623Y-71311118D01*
X89523405Y-71306500D01*
X89499735Y-71306500D01*
X89471500Y-71303719D01*
X89443265Y-71306500D01*
X89419595Y-71306500D01*
X89396377Y-71311118D01*
X89358389Y-71314860D01*
X89321864Y-71325940D01*
X89317780Y-71326752D01*
X89313933Y-71328345D01*
X89249625Y-71347853D01*
X89149386Y-71401431D01*
X89061527Y-71473536D01*
X88989421Y-71561395D01*
X88935843Y-71661634D01*
X88906660Y-71757839D01*
X87708499Y-72956000D01*
X82496672Y-72956000D01*
X82453874Y-72875930D01*
X82306791Y-72696709D01*
X82127570Y-72549626D01*
X81923097Y-72440333D01*
X81701232Y-72373031D01*
X81528312Y-72356000D01*
X81412688Y-72356000D01*
X81239768Y-72373031D01*
X81017903Y-72440333D01*
X80813430Y-72549626D01*
X80634209Y-72696709D01*
X80487126Y-72875930D01*
X80377833Y-73080403D01*
X80310531Y-73302268D01*
X80287806Y-73533000D01*
X78923356Y-73533000D01*
X78923356Y-70143000D01*
X80291918Y-70143000D01*
X80291918Y-71843000D01*
X80298232Y-71907103D01*
X80316930Y-71968743D01*
X80347294Y-72025550D01*
X80388157Y-72075343D01*
X80437950Y-72116206D01*
X80494757Y-72146570D01*
X80556397Y-72165268D01*
X80620500Y-72171582D01*
X82320500Y-72171582D01*
X82384603Y-72165268D01*
X82446243Y-72146570D01*
X82503050Y-72116206D01*
X82552843Y-72075343D01*
X82593706Y-72025550D01*
X82624070Y-71968743D01*
X82642768Y-71907103D01*
X82649082Y-71843000D01*
X82649082Y-71570000D01*
X86568669Y-71570000D01*
X86597000Y-71572790D01*
X86625331Y-71570000D01*
X86625336Y-71570000D01*
X86655045Y-71567074D01*
X86710111Y-71561651D01*
X86754770Y-71548103D01*
X86818876Y-71528657D01*
X86919115Y-71475079D01*
X87006974Y-71402974D01*
X87025039Y-71380962D01*
X87852002Y-70554000D01*
X91030669Y-70554000D01*
X91059000Y-70556790D01*
X91087331Y-70554000D01*
X91087336Y-70554000D01*
X91117045Y-70551074D01*
X91172111Y-70545651D01*
X91216770Y-70532103D01*
X91280876Y-70512657D01*
X91381115Y-70459079D01*
X91468974Y-70386974D01*
X91487039Y-70364962D01*
X92387968Y-69464034D01*
X92409974Y-69445974D01*
X92482079Y-69358115D01*
X92535657Y-69257876D01*
X92549204Y-69213218D01*
X92568651Y-69149112D01*
X92579790Y-69036000D01*
X92577000Y-69007669D01*
X92577000Y-66616172D01*
X92657070Y-66573374D01*
X92836291Y-66426291D01*
X92983374Y-66247070D01*
X93092667Y-66042597D01*
X93159969Y-65820732D01*
X93182694Y-65590000D01*
X93357306Y-65590000D01*
X93380031Y-65820732D01*
X93447333Y-66042597D01*
X93556626Y-66247070D01*
X93703709Y-66426291D01*
X93882930Y-66573374D01*
X94087403Y-66682667D01*
X94309268Y-66749969D01*
X94482188Y-66767000D01*
X94597812Y-66767000D01*
X94770732Y-66749969D01*
X94992597Y-66682667D01*
X95197070Y-66573374D01*
X95376291Y-66426291D01*
X95523374Y-66247070D01*
X95632667Y-66042597D01*
X95651014Y-65982115D01*
X95735843Y-66221252D01*
X95884822Y-66471355D01*
X96079731Y-66687588D01*
X96313080Y-66861641D01*
X96575901Y-66986825D01*
X96723110Y-67031476D01*
X96953000Y-66910155D01*
X96953000Y-65717000D01*
X96933000Y-65717000D01*
X96933000Y-65463000D01*
X96953000Y-65463000D01*
X96953000Y-65443000D01*
X97207000Y-65443000D01*
X97207000Y-65463000D01*
X97227000Y-65463000D01*
X97227000Y-65717000D01*
X97207000Y-65717000D01*
X97207000Y-66910155D01*
X97436890Y-67031476D01*
X97584099Y-66986825D01*
X97846920Y-66861641D01*
X98080269Y-66687588D01*
X98275178Y-66471355D01*
X98424157Y-66221252D01*
X98508986Y-65982115D01*
X98527333Y-66042597D01*
X98636626Y-66247070D01*
X98783709Y-66426291D01*
X98962930Y-66573374D01*
X99043001Y-66616173D01*
X99043001Y-66763740D01*
X99040210Y-66792081D01*
X99051349Y-66905192D01*
X99084344Y-67013957D01*
X99137922Y-67114196D01*
X99168840Y-67151869D01*
X99191963Y-67180045D01*
X99191966Y-67180048D01*
X99210027Y-67202055D01*
X99232034Y-67220116D01*
X102630880Y-70618962D01*
X102648945Y-70640974D01*
X102736804Y-70713079D01*
X102837043Y-70766657D01*
X102881701Y-70780204D01*
X102945807Y-70799651D01*
X103003805Y-70805363D01*
X103030583Y-70808000D01*
X103030588Y-70808000D01*
X103058919Y-70810790D01*
X103087250Y-70808000D01*
X107978336Y-70808000D01*
X108063112Y-70799650D01*
X108171876Y-70766657D01*
X108272115Y-70713079D01*
X108359974Y-70640974D01*
X108383752Y-70612000D01*
X120578210Y-70612000D01*
X120589349Y-70725111D01*
X120622344Y-70833876D01*
X120675922Y-70934114D01*
X120729963Y-70999964D01*
X120929956Y-71199956D01*
X120948025Y-71221973D01*
X121035884Y-71294078D01*
X121136123Y-71347656D01*
X121244887Y-71380649D01*
X121329663Y-71388999D01*
X121329669Y-71388999D01*
X121357998Y-71391789D01*
X121386327Y-71388999D01*
X135534670Y-71388999D01*
X135563001Y-71391789D01*
X135591332Y-71388999D01*
X135591337Y-71388999D01*
X135621046Y-71386073D01*
X135676112Y-71380650D01*
X135720771Y-71367102D01*
X135784877Y-71347656D01*
X135885116Y-71294078D01*
X135972975Y-71221973D01*
X135991040Y-71199961D01*
X137521418Y-69669583D01*
X137521418Y-69900000D01*
X137527732Y-69964103D01*
X137546430Y-70025743D01*
X137576794Y-70082550D01*
X137617657Y-70132343D01*
X137667450Y-70173206D01*
X137724257Y-70203570D01*
X137785897Y-70222268D01*
X137850000Y-70228582D01*
X139550000Y-70228582D01*
X139614103Y-70222268D01*
X139675743Y-70203570D01*
X139732550Y-70173206D01*
X139782343Y-70132343D01*
X139823206Y-70082550D01*
X139853570Y-70025743D01*
X139872268Y-69964103D01*
X139878582Y-69900000D01*
X139878582Y-69050000D01*
X140057306Y-69050000D01*
X140080031Y-69280732D01*
X140147333Y-69502597D01*
X140256626Y-69707070D01*
X140403709Y-69886291D01*
X140582930Y-70033374D01*
X140787403Y-70142667D01*
X141009268Y-70209969D01*
X141182188Y-70227000D01*
X141297812Y-70227000D01*
X141470732Y-70209969D01*
X141692597Y-70142667D01*
X141897070Y-70033374D01*
X142076291Y-69886291D01*
X142223374Y-69707070D01*
X142332667Y-69502597D01*
X142399969Y-69280732D01*
X142422694Y-69050000D01*
X142399969Y-68819268D01*
X142332667Y-68597403D01*
X142223374Y-68392930D01*
X142076291Y-68213709D01*
X141897070Y-68066626D01*
X141692597Y-67957333D01*
X141470732Y-67890031D01*
X141297812Y-67873000D01*
X141182188Y-67873000D01*
X141009268Y-67890031D01*
X140787403Y-67957333D01*
X140582930Y-68066626D01*
X140403709Y-68213709D01*
X140256626Y-68392930D01*
X140147333Y-68597403D01*
X140080031Y-68819268D01*
X140057306Y-69050000D01*
X139878582Y-69050000D01*
X139878582Y-68200000D01*
X139872268Y-68135897D01*
X139853570Y-68074257D01*
X139823206Y-68017450D01*
X139782343Y-67967657D01*
X139732550Y-67926794D01*
X139675743Y-67896430D01*
X139614103Y-67877732D01*
X139550000Y-67871418D01*
X137850000Y-67871418D01*
X137785897Y-67877732D01*
X137724257Y-67896430D01*
X137667450Y-67926794D01*
X137617657Y-67967657D01*
X137576794Y-68017450D01*
X137546430Y-68074257D01*
X137527732Y-68135897D01*
X137521418Y-68200000D01*
X137521418Y-68473000D01*
X137353331Y-68473000D01*
X137325000Y-68470210D01*
X137296669Y-68473000D01*
X137296664Y-68473000D01*
X137269886Y-68475637D01*
X137211888Y-68481349D01*
X137150285Y-68500037D01*
X137103124Y-68514343D01*
X137002885Y-68567921D01*
X136915026Y-68640026D01*
X136896961Y-68662038D01*
X135324000Y-70234999D01*
X121597000Y-70234999D01*
X121545964Y-70183963D01*
X121480114Y-70129922D01*
X121379876Y-70076344D01*
X121271111Y-70043349D01*
X121158000Y-70032210D01*
X121044889Y-70043349D01*
X120936124Y-70076344D01*
X120835886Y-70129922D01*
X120748026Y-70202026D01*
X120675922Y-70289886D01*
X120622344Y-70390124D01*
X120589349Y-70498889D01*
X120578210Y-70612000D01*
X108383752Y-70612000D01*
X108432079Y-70553115D01*
X108485657Y-70452876D01*
X108518650Y-70344112D01*
X108529791Y-70231000D01*
X108518650Y-70117888D01*
X108485657Y-70009124D01*
X108432079Y-69908885D01*
X108359974Y-69821026D01*
X108324606Y-69792000D01*
X124488336Y-69792000D01*
X124573112Y-69783650D01*
X124681876Y-69750657D01*
X124782115Y-69697079D01*
X124869974Y-69624974D01*
X124942079Y-69537115D01*
X124995657Y-69436876D01*
X125028650Y-69328112D01*
X125039791Y-69215000D01*
X125028650Y-69101888D01*
X124995657Y-68993124D01*
X124942079Y-68892885D01*
X124869974Y-68805026D01*
X124782115Y-68732921D01*
X124681876Y-68679343D01*
X124573112Y-68646350D01*
X124488336Y-68638000D01*
X113701931Y-68638000D01*
X113741402Y-68626026D01*
X113801957Y-68607657D01*
X113902196Y-68554079D01*
X113990055Y-68481974D01*
X114008121Y-68459961D01*
X114220037Y-68248044D01*
X114274078Y-68182194D01*
X114327656Y-68081957D01*
X114360651Y-67973193D01*
X114371790Y-67860081D01*
X114360651Y-67746970D01*
X114327656Y-67638205D01*
X114274078Y-67537967D01*
X114201974Y-67450107D01*
X114114114Y-67378003D01*
X114013876Y-67324425D01*
X113905111Y-67291430D01*
X113792000Y-67280291D01*
X113678888Y-67291430D01*
X113570124Y-67324425D01*
X113469887Y-67378003D01*
X113404037Y-67432044D01*
X113341081Y-67495000D01*
X106218920Y-67495000D01*
X105318116Y-66594196D01*
X105357070Y-66573374D01*
X105536291Y-66426291D01*
X105683374Y-66247070D01*
X105792667Y-66042597D01*
X105859969Y-65820732D01*
X105882694Y-65590000D01*
X106057306Y-65590000D01*
X106080031Y-65820732D01*
X106147333Y-66042597D01*
X106256626Y-66247070D01*
X106403709Y-66426291D01*
X106582930Y-66573374D01*
X106787403Y-66682667D01*
X107009268Y-66749969D01*
X107182188Y-66767000D01*
X107297812Y-66767000D01*
X107470732Y-66749969D01*
X107692597Y-66682667D01*
X107897070Y-66573374D01*
X108076291Y-66426291D01*
X108223374Y-66247070D01*
X108332667Y-66042597D01*
X108399969Y-65820732D01*
X108422694Y-65590000D01*
X108399969Y-65359268D01*
X108332667Y-65137403D01*
X108223374Y-64932930D01*
X108076291Y-64753709D01*
X107897070Y-64606626D01*
X107692597Y-64497333D01*
X107470732Y-64430031D01*
X107297812Y-64413000D01*
X107182188Y-64413000D01*
X107009268Y-64430031D01*
X106787403Y-64497333D01*
X106582930Y-64606626D01*
X106403709Y-64753709D01*
X106256626Y-64932930D01*
X106147333Y-65137403D01*
X106080031Y-65359268D01*
X106057306Y-65590000D01*
X105882694Y-65590000D01*
X105859969Y-65359268D01*
X105792667Y-65137403D01*
X105683374Y-64932930D01*
X105536291Y-64753709D01*
X105357070Y-64606626D01*
X105152597Y-64497333D01*
X104930732Y-64430031D01*
X104757812Y-64413000D01*
X104642188Y-64413000D01*
X104469268Y-64430031D01*
X104247403Y-64497333D01*
X104042930Y-64606626D01*
X103863709Y-64753709D01*
X103716626Y-64932930D01*
X103607333Y-65137403D01*
X103540031Y-65359268D01*
X103517306Y-65590000D01*
X103540031Y-65820732D01*
X103607333Y-66042597D01*
X103716626Y-66247070D01*
X103863709Y-66426291D01*
X104042930Y-66573374D01*
X104123001Y-66616173D01*
X104123001Y-66763740D01*
X104120210Y-66792081D01*
X104131349Y-66905192D01*
X104164344Y-67013957D01*
X104217922Y-67114196D01*
X104248840Y-67151869D01*
X104271963Y-67180045D01*
X104271966Y-67180048D01*
X104290027Y-67202055D01*
X104312034Y-67220116D01*
X105551880Y-68459962D01*
X105569945Y-68481974D01*
X105657804Y-68554079D01*
X105758043Y-68607657D01*
X105802701Y-68621204D01*
X105858068Y-68638000D01*
X103744001Y-68638000D01*
X102737000Y-67630999D01*
X102737000Y-66616172D01*
X102817070Y-66573374D01*
X102996291Y-66426291D01*
X103143374Y-66247070D01*
X103252667Y-66042597D01*
X103319969Y-65820732D01*
X103342694Y-65590000D01*
X103319969Y-65359268D01*
X103252667Y-65137403D01*
X103143374Y-64932930D01*
X102996291Y-64753709D01*
X102817070Y-64606626D01*
X102612597Y-64497333D01*
X102555091Y-64479889D01*
X102664099Y-64446825D01*
X102926920Y-64321641D01*
X103160269Y-64147588D01*
X103355178Y-63931355D01*
X103504157Y-63681252D01*
X103588986Y-63442115D01*
X103607333Y-63502597D01*
X103716626Y-63707070D01*
X103863709Y-63886291D01*
X104042930Y-64033374D01*
X104247403Y-64142667D01*
X104469268Y-64209969D01*
X104642188Y-64227000D01*
X104757812Y-64227000D01*
X104930732Y-64209969D01*
X105152597Y-64142667D01*
X105357070Y-64033374D01*
X105536291Y-63886291D01*
X105683374Y-63707070D01*
X105792667Y-63502597D01*
X105859969Y-63280732D01*
X105882694Y-63050000D01*
X106057306Y-63050000D01*
X106080031Y-63280732D01*
X106147333Y-63502597D01*
X106256626Y-63707070D01*
X106403709Y-63886291D01*
X106582930Y-64033374D01*
X106787403Y-64142667D01*
X107009268Y-64209969D01*
X107182188Y-64227000D01*
X107297812Y-64227000D01*
X107470732Y-64209969D01*
X107692597Y-64142667D01*
X107897070Y-64033374D01*
X108076291Y-63886291D01*
X108223374Y-63707070D01*
X108332667Y-63502597D01*
X108351014Y-63442115D01*
X108435843Y-63681252D01*
X108584822Y-63931355D01*
X108779731Y-64147588D01*
X109013080Y-64321641D01*
X109275901Y-64446825D01*
X109384909Y-64479889D01*
X109327403Y-64497333D01*
X109122930Y-64606626D01*
X108943709Y-64753709D01*
X108796626Y-64932930D01*
X108687333Y-65137403D01*
X108620031Y-65359268D01*
X108597306Y-65590000D01*
X108620031Y-65820732D01*
X108687333Y-66042597D01*
X108796626Y-66247070D01*
X108943709Y-66426291D01*
X109122930Y-66573374D01*
X109327403Y-66682667D01*
X109549268Y-66749969D01*
X109722188Y-66767000D01*
X109837812Y-66767000D01*
X110010732Y-66749969D01*
X110232597Y-66682667D01*
X110437070Y-66573374D01*
X110616291Y-66426291D01*
X110763374Y-66247070D01*
X110872667Y-66042597D01*
X110939969Y-65820732D01*
X110962694Y-65590000D01*
X111137306Y-65590000D01*
X111160031Y-65820732D01*
X111227333Y-66042597D01*
X111336626Y-66247070D01*
X111483709Y-66426291D01*
X111662930Y-66573374D01*
X111867403Y-66682667D01*
X112089268Y-66749969D01*
X112262188Y-66767000D01*
X112377812Y-66767000D01*
X112550732Y-66749969D01*
X112772597Y-66682667D01*
X112977070Y-66573374D01*
X113156291Y-66426291D01*
X113303374Y-66247070D01*
X113412667Y-66042597D01*
X113479969Y-65820732D01*
X113502694Y-65590000D01*
X113677306Y-65590000D01*
X113700031Y-65820732D01*
X113767333Y-66042597D01*
X113876626Y-66247070D01*
X114023709Y-66426291D01*
X114202930Y-66573374D01*
X114407403Y-66682667D01*
X114629268Y-66749969D01*
X114802188Y-66767000D01*
X114917812Y-66767000D01*
X115090732Y-66749969D01*
X115312597Y-66682667D01*
X115517070Y-66573374D01*
X115696291Y-66426291D01*
X115843374Y-66247070D01*
X115952667Y-66042597D01*
X115971014Y-65982115D01*
X116055843Y-66221252D01*
X116204822Y-66471355D01*
X116399731Y-66687588D01*
X116633080Y-66861641D01*
X116895901Y-66986825D01*
X117043110Y-67031476D01*
X117273000Y-66910155D01*
X117273000Y-65717000D01*
X117253000Y-65717000D01*
X117253000Y-65463000D01*
X117273000Y-65463000D01*
X117273000Y-65443000D01*
X117527000Y-65443000D01*
X117527000Y-65463000D01*
X117547000Y-65463000D01*
X117547000Y-65717000D01*
X117527000Y-65717000D01*
X117527000Y-66910155D01*
X117756890Y-67031476D01*
X117904099Y-66986825D01*
X118166920Y-66861641D01*
X118400269Y-66687588D01*
X118595178Y-66471355D01*
X118744157Y-66221252D01*
X118828986Y-65982115D01*
X118847333Y-66042597D01*
X118956626Y-66247070D01*
X119103709Y-66426291D01*
X119282930Y-66573374D01*
X119487403Y-66682667D01*
X119709268Y-66749969D01*
X119882188Y-66767000D01*
X119997812Y-66767000D01*
X120170732Y-66749969D01*
X120392597Y-66682667D01*
X120597070Y-66573374D01*
X120776291Y-66426291D01*
X120923374Y-66247070D01*
X121032667Y-66042597D01*
X121099969Y-65820732D01*
X121122694Y-65590000D01*
X121099969Y-65359268D01*
X121032667Y-65137403D01*
X120923374Y-64932930D01*
X120776291Y-64753709D01*
X120597070Y-64606626D01*
X120392597Y-64497333D01*
X120170732Y-64430031D01*
X119997812Y-64413000D01*
X119882188Y-64413000D01*
X119709268Y-64430031D01*
X119487403Y-64497333D01*
X119282930Y-64606626D01*
X119103709Y-64753709D01*
X118956626Y-64932930D01*
X118847333Y-65137403D01*
X118828986Y-65197885D01*
X118744157Y-64958748D01*
X118595178Y-64708645D01*
X118400269Y-64492412D01*
X118166920Y-64318359D01*
X117904099Y-64193175D01*
X117795091Y-64160111D01*
X117852597Y-64142667D01*
X118057070Y-64033374D01*
X118236291Y-63886291D01*
X118383374Y-63707070D01*
X118492667Y-63502597D01*
X118559969Y-63280732D01*
X118582694Y-63050000D01*
X118757306Y-63050000D01*
X118780031Y-63280732D01*
X118847333Y-63502597D01*
X118956626Y-63707070D01*
X119103709Y-63886291D01*
X119282930Y-64033374D01*
X119487403Y-64142667D01*
X119709268Y-64209969D01*
X119882188Y-64227000D01*
X119997812Y-64227000D01*
X120170732Y-64209969D01*
X120392597Y-64142667D01*
X120597070Y-64033374D01*
X120776291Y-63886291D01*
X120923374Y-63707070D01*
X121032667Y-63502597D01*
X121051014Y-63442115D01*
X121135843Y-63681252D01*
X121284822Y-63931355D01*
X121479731Y-64147588D01*
X121713080Y-64321641D01*
X121975901Y-64446825D01*
X122084909Y-64479889D01*
X122027403Y-64497333D01*
X121822930Y-64606626D01*
X121643709Y-64753709D01*
X121496626Y-64932930D01*
X121387333Y-65137403D01*
X121320031Y-65359268D01*
X121297306Y-65590000D01*
X121320031Y-65820732D01*
X121387333Y-66042597D01*
X121496626Y-66247070D01*
X121643709Y-66426291D01*
X121822930Y-66573374D01*
X122027403Y-66682667D01*
X122249268Y-66749969D01*
X122422188Y-66767000D01*
X122537812Y-66767000D01*
X122710732Y-66749969D01*
X122932597Y-66682667D01*
X123137070Y-66573374D01*
X123316291Y-66426291D01*
X123463374Y-66247070D01*
X123572667Y-66042597D01*
X123639969Y-65820732D01*
X123662694Y-65590000D01*
X123837306Y-65590000D01*
X123860031Y-65820732D01*
X123927333Y-66042597D01*
X124036626Y-66247070D01*
X124183709Y-66426291D01*
X124362930Y-66573374D01*
X124567403Y-66682667D01*
X124789268Y-66749969D01*
X124962188Y-66767000D01*
X125077812Y-66767000D01*
X125250732Y-66749969D01*
X125472597Y-66682667D01*
X125677070Y-66573374D01*
X125856291Y-66426291D01*
X126003374Y-66247070D01*
X126112667Y-66042597D01*
X126179969Y-65820732D01*
X126202694Y-65590000D01*
X126179969Y-65359268D01*
X126112667Y-65137403D01*
X126003374Y-64932930D01*
X125856291Y-64753709D01*
X125677070Y-64606626D01*
X125472597Y-64497333D01*
X125250732Y-64430031D01*
X125077812Y-64413000D01*
X124962188Y-64413000D01*
X124789268Y-64430031D01*
X124567403Y-64497333D01*
X124362930Y-64606626D01*
X124183709Y-64753709D01*
X124036626Y-64932930D01*
X123927333Y-65137403D01*
X123860031Y-65359268D01*
X123837306Y-65590000D01*
X123662694Y-65590000D01*
X123639969Y-65359268D01*
X123572667Y-65137403D01*
X123463374Y-64932930D01*
X123316291Y-64753709D01*
X123137070Y-64606626D01*
X122932597Y-64497333D01*
X122875091Y-64479889D01*
X122984099Y-64446825D01*
X123246920Y-64321641D01*
X123480269Y-64147588D01*
X123675178Y-63931355D01*
X123824157Y-63681252D01*
X123908986Y-63442115D01*
X123927333Y-63502597D01*
X124036626Y-63707070D01*
X124183709Y-63886291D01*
X124362930Y-64033374D01*
X124567403Y-64142667D01*
X124789268Y-64209969D01*
X124962188Y-64227000D01*
X125077812Y-64227000D01*
X125250732Y-64209969D01*
X125472597Y-64142667D01*
X125677070Y-64033374D01*
X125856291Y-63886291D01*
X126003374Y-63707070D01*
X126112667Y-63502597D01*
X126131014Y-63442115D01*
X126215843Y-63681252D01*
X126364822Y-63931355D01*
X126559731Y-64147588D01*
X126793080Y-64321641D01*
X127055901Y-64446825D01*
X127164909Y-64479889D01*
X127107403Y-64497333D01*
X126902930Y-64606626D01*
X126723709Y-64753709D01*
X126576626Y-64932930D01*
X126467333Y-65137403D01*
X126400031Y-65359268D01*
X126377306Y-65590000D01*
X126400031Y-65820732D01*
X126467333Y-66042597D01*
X126576626Y-66247070D01*
X126723709Y-66426291D01*
X126902930Y-66573374D01*
X127107403Y-66682667D01*
X127329268Y-66749969D01*
X127502188Y-66767000D01*
X127617812Y-66767000D01*
X127790732Y-66749969D01*
X128012597Y-66682667D01*
X128217070Y-66573374D01*
X128396291Y-66426291D01*
X128543374Y-66247070D01*
X128652667Y-66042597D01*
X128719969Y-65820732D01*
X128742694Y-65590000D01*
X128917306Y-65590000D01*
X128940031Y-65820732D01*
X129007333Y-66042597D01*
X129116626Y-66247070D01*
X129263709Y-66426291D01*
X129442930Y-66573374D01*
X129647403Y-66682667D01*
X129869268Y-66749969D01*
X130042188Y-66767000D01*
X130157812Y-66767000D01*
X130330732Y-66749969D01*
X130552597Y-66682667D01*
X130757070Y-66573374D01*
X130936291Y-66426291D01*
X131083374Y-66247070D01*
X131192667Y-66042597D01*
X131259969Y-65820732D01*
X131282694Y-65590000D01*
X131457306Y-65590000D01*
X131480031Y-65820732D01*
X131547333Y-66042597D01*
X131656626Y-66247070D01*
X131803709Y-66426291D01*
X131982930Y-66573374D01*
X132187403Y-66682667D01*
X132409268Y-66749969D01*
X132582188Y-66767000D01*
X132697812Y-66767000D01*
X132870732Y-66749969D01*
X133092597Y-66682667D01*
X133297070Y-66573374D01*
X133476291Y-66426291D01*
X133623374Y-66247070D01*
X133732667Y-66042597D01*
X133751014Y-65982115D01*
X133835843Y-66221252D01*
X133984822Y-66471355D01*
X134179731Y-66687588D01*
X134413080Y-66861641D01*
X134675901Y-66986825D01*
X134823110Y-67031476D01*
X135053000Y-66910155D01*
X135053000Y-65717000D01*
X135307000Y-65717000D01*
X135307000Y-66910155D01*
X135536890Y-67031476D01*
X135684099Y-66986825D01*
X135946920Y-66861641D01*
X136180269Y-66687588D01*
X136375178Y-66471355D01*
X136524157Y-66221252D01*
X136621481Y-65946891D01*
X136500814Y-65717000D01*
X135307000Y-65717000D01*
X135053000Y-65717000D01*
X135033000Y-65717000D01*
X135033000Y-65463000D01*
X135053000Y-65463000D01*
X135053000Y-65443000D01*
X135307000Y-65443000D01*
X135307000Y-65463000D01*
X136500814Y-65463000D01*
X136621481Y-65233109D01*
X136524157Y-64958748D01*
X136375178Y-64708645D01*
X136180269Y-64492412D01*
X135946920Y-64318359D01*
X135684099Y-64193175D01*
X135575091Y-64160111D01*
X135632597Y-64142667D01*
X135837070Y-64033374D01*
X136016291Y-63886291D01*
X136163374Y-63707070D01*
X136272667Y-63502597D01*
X136339969Y-63280732D01*
X136362694Y-63050000D01*
X136339969Y-62819268D01*
X136272667Y-62597403D01*
X136163374Y-62392930D01*
X136016291Y-62213709D01*
X135837070Y-62066626D01*
X135632597Y-61957333D01*
X135410732Y-61890031D01*
X135237812Y-61873000D01*
X135122188Y-61873000D01*
X134949268Y-61890031D01*
X134727403Y-61957333D01*
X134522930Y-62066626D01*
X134343709Y-62213709D01*
X134196626Y-62392930D01*
X134087333Y-62597403D01*
X134020031Y-62819268D01*
X133997306Y-63050000D01*
X134020031Y-63280732D01*
X134087333Y-63502597D01*
X134196626Y-63707070D01*
X134343709Y-63886291D01*
X134522930Y-64033374D01*
X134727403Y-64142667D01*
X134784909Y-64160111D01*
X134675901Y-64193175D01*
X134413080Y-64318359D01*
X134179731Y-64492412D01*
X133984822Y-64708645D01*
X133835843Y-64958748D01*
X133751014Y-65197885D01*
X133732667Y-65137403D01*
X133623374Y-64932930D01*
X133476291Y-64753709D01*
X133297070Y-64606626D01*
X133092597Y-64497333D01*
X132870732Y-64430031D01*
X132697812Y-64413000D01*
X132582188Y-64413000D01*
X132409268Y-64430031D01*
X132187403Y-64497333D01*
X131982930Y-64606626D01*
X131803709Y-64753709D01*
X131656626Y-64932930D01*
X131547333Y-65137403D01*
X131480031Y-65359268D01*
X131457306Y-65590000D01*
X131282694Y-65590000D01*
X131259969Y-65359268D01*
X131192667Y-65137403D01*
X131083374Y-64932930D01*
X130936291Y-64753709D01*
X130757070Y-64606626D01*
X130552597Y-64497333D01*
X130330732Y-64430031D01*
X130157812Y-64413000D01*
X130042188Y-64413000D01*
X129869268Y-64430031D01*
X129647403Y-64497333D01*
X129442930Y-64606626D01*
X129263709Y-64753709D01*
X129116626Y-64932930D01*
X129007333Y-65137403D01*
X128940031Y-65359268D01*
X128917306Y-65590000D01*
X128742694Y-65590000D01*
X128719969Y-65359268D01*
X128652667Y-65137403D01*
X128543374Y-64932930D01*
X128396291Y-64753709D01*
X128217070Y-64606626D01*
X128012597Y-64497333D01*
X127955091Y-64479889D01*
X128064099Y-64446825D01*
X128326920Y-64321641D01*
X128560269Y-64147588D01*
X128755178Y-63931355D01*
X128904157Y-63681252D01*
X128988986Y-63442115D01*
X129007333Y-63502597D01*
X129116626Y-63707070D01*
X129263709Y-63886291D01*
X129442930Y-64033374D01*
X129647403Y-64142667D01*
X129869268Y-64209969D01*
X130042188Y-64227000D01*
X130157812Y-64227000D01*
X130330732Y-64209969D01*
X130552597Y-64142667D01*
X130757070Y-64033374D01*
X130936291Y-63886291D01*
X131083374Y-63707070D01*
X131192667Y-63502597D01*
X131259969Y-63280732D01*
X131282694Y-63050000D01*
X131457306Y-63050000D01*
X131480031Y-63280732D01*
X131547333Y-63502597D01*
X131656626Y-63707070D01*
X131803709Y-63886291D01*
X131982930Y-64033374D01*
X132187403Y-64142667D01*
X132409268Y-64209969D01*
X132582188Y-64227000D01*
X132697812Y-64227000D01*
X132870732Y-64209969D01*
X133092597Y-64142667D01*
X133297070Y-64033374D01*
X133476291Y-63886291D01*
X133623374Y-63707070D01*
X133732667Y-63502597D01*
X133799969Y-63280732D01*
X133822694Y-63050000D01*
X133799969Y-62819268D01*
X133732667Y-62597403D01*
X133623374Y-62392930D01*
X133476291Y-62213709D01*
X133297070Y-62066626D01*
X133092597Y-61957333D01*
X132870732Y-61890031D01*
X132697812Y-61873000D01*
X132582188Y-61873000D01*
X132409268Y-61890031D01*
X132187403Y-61957333D01*
X131982930Y-62066626D01*
X131803709Y-62213709D01*
X131656626Y-62392930D01*
X131547333Y-62597403D01*
X131480031Y-62819268D01*
X131457306Y-63050000D01*
X131282694Y-63050000D01*
X131259969Y-62819268D01*
X131192667Y-62597403D01*
X131083374Y-62392930D01*
X130936291Y-62213709D01*
X130757070Y-62066626D01*
X130552597Y-61957333D01*
X130330732Y-61890031D01*
X130157812Y-61873000D01*
X130042188Y-61873000D01*
X129869268Y-61890031D01*
X129647403Y-61957333D01*
X129442930Y-62066626D01*
X129263709Y-62213709D01*
X129116626Y-62392930D01*
X129007333Y-62597403D01*
X128988986Y-62657885D01*
X128904157Y-62418748D01*
X128755178Y-62168645D01*
X128560269Y-61952412D01*
X128326920Y-61778359D01*
X128064099Y-61653175D01*
X127916890Y-61608524D01*
X127687000Y-61729845D01*
X127687000Y-62923000D01*
X127707000Y-62923000D01*
X127707000Y-63177000D01*
X127687000Y-63177000D01*
X127687000Y-63197000D01*
X127433000Y-63197000D01*
X127433000Y-63177000D01*
X127413000Y-63177000D01*
X127413000Y-62923000D01*
X127433000Y-62923000D01*
X127433000Y-61729845D01*
X127203110Y-61608524D01*
X127055901Y-61653175D01*
X126793080Y-61778359D01*
X126559731Y-61952412D01*
X126364822Y-62168645D01*
X126215843Y-62418748D01*
X126131014Y-62657885D01*
X126112667Y-62597403D01*
X126003374Y-62392930D01*
X125856291Y-62213709D01*
X125677070Y-62066626D01*
X125472597Y-61957333D01*
X125250732Y-61890031D01*
X125077812Y-61873000D01*
X124962188Y-61873000D01*
X124789268Y-61890031D01*
X124567403Y-61957333D01*
X124362930Y-62066626D01*
X124183709Y-62213709D01*
X124036626Y-62392930D01*
X123927333Y-62597403D01*
X123908986Y-62657885D01*
X123824157Y-62418748D01*
X123675178Y-62168645D01*
X123480269Y-61952412D01*
X123246920Y-61778359D01*
X122984099Y-61653175D01*
X122836890Y-61608524D01*
X122607000Y-61729845D01*
X122607000Y-62923000D01*
X122627000Y-62923000D01*
X122627000Y-63177000D01*
X122607000Y-63177000D01*
X122607000Y-63197000D01*
X122353000Y-63197000D01*
X122353000Y-63177000D01*
X122333000Y-63177000D01*
X122333000Y-62923000D01*
X122353000Y-62923000D01*
X122353000Y-61729845D01*
X122123110Y-61608524D01*
X121975901Y-61653175D01*
X121713080Y-61778359D01*
X121479731Y-61952412D01*
X121284822Y-62168645D01*
X121135843Y-62418748D01*
X121051014Y-62657885D01*
X121032667Y-62597403D01*
X120923374Y-62392930D01*
X120776291Y-62213709D01*
X120597070Y-62066626D01*
X120392597Y-61957333D01*
X120170732Y-61890031D01*
X119997812Y-61873000D01*
X119882188Y-61873000D01*
X119709268Y-61890031D01*
X119487403Y-61957333D01*
X119282930Y-62066626D01*
X119103709Y-62213709D01*
X118956626Y-62392930D01*
X118847333Y-62597403D01*
X118780031Y-62819268D01*
X118757306Y-63050000D01*
X118582694Y-63050000D01*
X118559969Y-62819268D01*
X118492667Y-62597403D01*
X118383374Y-62392930D01*
X118236291Y-62213709D01*
X118057070Y-62066626D01*
X117852597Y-61957333D01*
X117630732Y-61890031D01*
X117457812Y-61873000D01*
X117342188Y-61873000D01*
X117169268Y-61890031D01*
X116947403Y-61957333D01*
X116742930Y-62066626D01*
X116563709Y-62213709D01*
X116416626Y-62392930D01*
X116307333Y-62597403D01*
X116240031Y-62819268D01*
X116217306Y-63050000D01*
X116240031Y-63280732D01*
X116307333Y-63502597D01*
X116416626Y-63707070D01*
X116563709Y-63886291D01*
X116742930Y-64033374D01*
X116947403Y-64142667D01*
X117004909Y-64160111D01*
X116895901Y-64193175D01*
X116633080Y-64318359D01*
X116399731Y-64492412D01*
X116204822Y-64708645D01*
X116055843Y-64958748D01*
X115971014Y-65197885D01*
X115952667Y-65137403D01*
X115843374Y-64932930D01*
X115696291Y-64753709D01*
X115517070Y-64606626D01*
X115312597Y-64497333D01*
X115090732Y-64430031D01*
X114917812Y-64413000D01*
X114802188Y-64413000D01*
X114629268Y-64430031D01*
X114407403Y-64497333D01*
X114202930Y-64606626D01*
X114023709Y-64753709D01*
X113876626Y-64932930D01*
X113767333Y-65137403D01*
X113700031Y-65359268D01*
X113677306Y-65590000D01*
X113502694Y-65590000D01*
X113479969Y-65359268D01*
X113412667Y-65137403D01*
X113303374Y-64932930D01*
X113156291Y-64753709D01*
X112977070Y-64606626D01*
X112772597Y-64497333D01*
X112550732Y-64430031D01*
X112377812Y-64413000D01*
X112262188Y-64413000D01*
X112089268Y-64430031D01*
X111867403Y-64497333D01*
X111662930Y-64606626D01*
X111483709Y-64753709D01*
X111336626Y-64932930D01*
X111227333Y-65137403D01*
X111160031Y-65359268D01*
X111137306Y-65590000D01*
X110962694Y-65590000D01*
X110939969Y-65359268D01*
X110872667Y-65137403D01*
X110763374Y-64932930D01*
X110616291Y-64753709D01*
X110437070Y-64606626D01*
X110232597Y-64497333D01*
X110175091Y-64479889D01*
X110284099Y-64446825D01*
X110546920Y-64321641D01*
X110780269Y-64147588D01*
X110975178Y-63931355D01*
X111124157Y-63681252D01*
X111208986Y-63442115D01*
X111227333Y-63502597D01*
X111336626Y-63707070D01*
X111483709Y-63886291D01*
X111662930Y-64033374D01*
X111867403Y-64142667D01*
X112089268Y-64209969D01*
X112262188Y-64227000D01*
X112377812Y-64227000D01*
X112550732Y-64209969D01*
X112772597Y-64142667D01*
X112977070Y-64033374D01*
X113156291Y-63886291D01*
X113303374Y-63707070D01*
X113412667Y-63502597D01*
X113479969Y-63280732D01*
X113502694Y-63050000D01*
X113677306Y-63050000D01*
X113700031Y-63280732D01*
X113767333Y-63502597D01*
X113876626Y-63707070D01*
X114023709Y-63886291D01*
X114202930Y-64033374D01*
X114407403Y-64142667D01*
X114629268Y-64209969D01*
X114802188Y-64227000D01*
X114917812Y-64227000D01*
X115090732Y-64209969D01*
X115312597Y-64142667D01*
X115517070Y-64033374D01*
X115696291Y-63886291D01*
X115843374Y-63707070D01*
X115952667Y-63502597D01*
X116019969Y-63280732D01*
X116042694Y-63050000D01*
X116019969Y-62819268D01*
X115952667Y-62597403D01*
X115843374Y-62392930D01*
X115696291Y-62213709D01*
X115517070Y-62066626D01*
X115312597Y-61957333D01*
X115090732Y-61890031D01*
X114917812Y-61873000D01*
X114802188Y-61873000D01*
X114629268Y-61890031D01*
X114407403Y-61957333D01*
X114202930Y-62066626D01*
X114023709Y-62213709D01*
X113876626Y-62392930D01*
X113767333Y-62597403D01*
X113700031Y-62819268D01*
X113677306Y-63050000D01*
X113502694Y-63050000D01*
X113479969Y-62819268D01*
X113412667Y-62597403D01*
X113303374Y-62392930D01*
X113156291Y-62213709D01*
X112977070Y-62066626D01*
X112772597Y-61957333D01*
X112550732Y-61890031D01*
X112377812Y-61873000D01*
X112262188Y-61873000D01*
X112089268Y-61890031D01*
X111867403Y-61957333D01*
X111662930Y-62066626D01*
X111483709Y-62213709D01*
X111336626Y-62392930D01*
X111227333Y-62597403D01*
X111208986Y-62657885D01*
X111124157Y-62418748D01*
X110975178Y-62168645D01*
X110780269Y-61952412D01*
X110546920Y-61778359D01*
X110284099Y-61653175D01*
X110136890Y-61608524D01*
X109907000Y-61729845D01*
X109907000Y-62923000D01*
X109927000Y-62923000D01*
X109927000Y-63177000D01*
X109907000Y-63177000D01*
X109907000Y-63197000D01*
X109653000Y-63197000D01*
X109653000Y-63177000D01*
X109633000Y-63177000D01*
X109633000Y-62923000D01*
X109653000Y-62923000D01*
X109653000Y-61729845D01*
X109423110Y-61608524D01*
X109275901Y-61653175D01*
X109013080Y-61778359D01*
X108779731Y-61952412D01*
X108584822Y-62168645D01*
X108435843Y-62418748D01*
X108351014Y-62657885D01*
X108332667Y-62597403D01*
X108223374Y-62392930D01*
X108076291Y-62213709D01*
X107897070Y-62066626D01*
X107692597Y-61957333D01*
X107470732Y-61890031D01*
X107297812Y-61873000D01*
X107182188Y-61873000D01*
X107009268Y-61890031D01*
X106787403Y-61957333D01*
X106582930Y-62066626D01*
X106403709Y-62213709D01*
X106256626Y-62392930D01*
X106147333Y-62597403D01*
X106080031Y-62819268D01*
X106057306Y-63050000D01*
X105882694Y-63050000D01*
X105859969Y-62819268D01*
X105792667Y-62597403D01*
X105683374Y-62392930D01*
X105536291Y-62213709D01*
X105357070Y-62066626D01*
X105152597Y-61957333D01*
X104930732Y-61890031D01*
X104757812Y-61873000D01*
X104642188Y-61873000D01*
X104469268Y-61890031D01*
X104247403Y-61957333D01*
X104042930Y-62066626D01*
X103863709Y-62213709D01*
X103716626Y-62392930D01*
X103607333Y-62597403D01*
X103588986Y-62657885D01*
X103504157Y-62418748D01*
X103355178Y-62168645D01*
X103160269Y-61952412D01*
X102926920Y-61778359D01*
X102664099Y-61653175D01*
X102516890Y-61608524D01*
X102287000Y-61729845D01*
X102287000Y-62923000D01*
X102307000Y-62923000D01*
X102307000Y-63177000D01*
X102287000Y-63177000D01*
X102287000Y-63197000D01*
X102033000Y-63197000D01*
X102033000Y-63177000D01*
X102013000Y-63177000D01*
X102013000Y-62923000D01*
X102033000Y-62923000D01*
X102033000Y-61729845D01*
X101803110Y-61608524D01*
X101655901Y-61653175D01*
X101393080Y-61778359D01*
X101159731Y-61952412D01*
X100964822Y-62168645D01*
X100815843Y-62418748D01*
X100731014Y-62657885D01*
X100712667Y-62597403D01*
X100603374Y-62392930D01*
X100456291Y-62213709D01*
X100277070Y-62066626D01*
X100072597Y-61957333D01*
X99850732Y-61890031D01*
X99677812Y-61873000D01*
X99562188Y-61873000D01*
X99389268Y-61890031D01*
X99167403Y-61957333D01*
X98962930Y-62066626D01*
X98783709Y-62213709D01*
X98636626Y-62392930D01*
X98527333Y-62597403D01*
X98460031Y-62819268D01*
X98437306Y-63050000D01*
X98460031Y-63280732D01*
X98527333Y-63502597D01*
X98636626Y-63707070D01*
X98783709Y-63886291D01*
X98962930Y-64033374D01*
X99167403Y-64142667D01*
X99389268Y-64209969D01*
X99562188Y-64227000D01*
X99677812Y-64227000D01*
X99850732Y-64209969D01*
X100072597Y-64142667D01*
X100277070Y-64033374D01*
X100456291Y-63886291D01*
X100603374Y-63707070D01*
X100712667Y-63502597D01*
X100731014Y-63442115D01*
X100815843Y-63681252D01*
X100964822Y-63931355D01*
X101159731Y-64147588D01*
X101393080Y-64321641D01*
X101655901Y-64446825D01*
X101764909Y-64479889D01*
X101707403Y-64497333D01*
X101502930Y-64606626D01*
X101323709Y-64753709D01*
X101176626Y-64932930D01*
X101067333Y-65137403D01*
X101000031Y-65359268D01*
X100977306Y-65590000D01*
X101000031Y-65820732D01*
X101067333Y-66042597D01*
X101176626Y-66247070D01*
X101323709Y-66426291D01*
X101502930Y-66573374D01*
X101583000Y-66616173D01*
X101583001Y-67841659D01*
X101580210Y-67870000D01*
X101587451Y-67943531D01*
X100238116Y-66594196D01*
X100277070Y-66573374D01*
X100456291Y-66426291D01*
X100603374Y-66247070D01*
X100712667Y-66042597D01*
X100779969Y-65820732D01*
X100802694Y-65590000D01*
X100779969Y-65359268D01*
X100712667Y-65137403D01*
X100603374Y-64932930D01*
X100456291Y-64753709D01*
X100277070Y-64606626D01*
X100072597Y-64497333D01*
X99850732Y-64430031D01*
X99677812Y-64413000D01*
X99562188Y-64413000D01*
X99389268Y-64430031D01*
X99167403Y-64497333D01*
X98962930Y-64606626D01*
X98783709Y-64753709D01*
X98636626Y-64932930D01*
X98527333Y-65137403D01*
X98508986Y-65197885D01*
X98424157Y-64958748D01*
X98275178Y-64708645D01*
X98080269Y-64492412D01*
X97846920Y-64318359D01*
X97584099Y-64193175D01*
X97475091Y-64160111D01*
X97532597Y-64142667D01*
X97737070Y-64033374D01*
X97916291Y-63886291D01*
X98063374Y-63707070D01*
X98172667Y-63502597D01*
X98239969Y-63280732D01*
X98262694Y-63050000D01*
X98239969Y-62819268D01*
X98172667Y-62597403D01*
X98063374Y-62392930D01*
X97916291Y-62213709D01*
X97737070Y-62066626D01*
X97532597Y-61957333D01*
X97310732Y-61890031D01*
X97137812Y-61873000D01*
X97022188Y-61873000D01*
X96849268Y-61890031D01*
X96627403Y-61957333D01*
X96422930Y-62066626D01*
X96243709Y-62213709D01*
X96096626Y-62392930D01*
X95987333Y-62597403D01*
X95920031Y-62819268D01*
X95897306Y-63050000D01*
X95920031Y-63280732D01*
X95987333Y-63502597D01*
X96096626Y-63707070D01*
X96243709Y-63886291D01*
X96422930Y-64033374D01*
X96627403Y-64142667D01*
X96684909Y-64160111D01*
X96575901Y-64193175D01*
X96313080Y-64318359D01*
X96079731Y-64492412D01*
X95884822Y-64708645D01*
X95735843Y-64958748D01*
X95651014Y-65197885D01*
X95632667Y-65137403D01*
X95523374Y-64932930D01*
X95376291Y-64753709D01*
X95197070Y-64606626D01*
X94992597Y-64497333D01*
X94770732Y-64430031D01*
X94597812Y-64413000D01*
X94482188Y-64413000D01*
X94309268Y-64430031D01*
X94087403Y-64497333D01*
X93882930Y-64606626D01*
X93703709Y-64753709D01*
X93556626Y-64932930D01*
X93447333Y-65137403D01*
X93380031Y-65359268D01*
X93357306Y-65590000D01*
X93182694Y-65590000D01*
X93159969Y-65359268D01*
X93092667Y-65137403D01*
X92983374Y-64932930D01*
X92836291Y-64753709D01*
X92657070Y-64606626D01*
X92452597Y-64497333D01*
X92395091Y-64479889D01*
X92504099Y-64446825D01*
X92766920Y-64321641D01*
X93000269Y-64147588D01*
X93195178Y-63931355D01*
X93344157Y-63681252D01*
X93428986Y-63442115D01*
X93447333Y-63502597D01*
X93556626Y-63707070D01*
X93703709Y-63886291D01*
X93882930Y-64033374D01*
X94087403Y-64142667D01*
X94309268Y-64209969D01*
X94482188Y-64227000D01*
X94597812Y-64227000D01*
X94770732Y-64209969D01*
X94992597Y-64142667D01*
X95197070Y-64033374D01*
X95376291Y-63886291D01*
X95523374Y-63707070D01*
X95632667Y-63502597D01*
X95699969Y-63280732D01*
X95722694Y-63050000D01*
X95699969Y-62819268D01*
X95632667Y-62597403D01*
X95523374Y-62392930D01*
X95376291Y-62213709D01*
X95197070Y-62066626D01*
X94992597Y-61957333D01*
X94770732Y-61890031D01*
X94597812Y-61873000D01*
X94482188Y-61873000D01*
X94309268Y-61890031D01*
X94087403Y-61957333D01*
X93882930Y-62066626D01*
X93703709Y-62213709D01*
X93556626Y-62392930D01*
X93447333Y-62597403D01*
X93428986Y-62657885D01*
X93344157Y-62418748D01*
X93195178Y-62168645D01*
X93000269Y-61952412D01*
X92766920Y-61778359D01*
X92504099Y-61653175D01*
X92356890Y-61608524D01*
X92127000Y-61729845D01*
X92127000Y-62923000D01*
X92147000Y-62923000D01*
X92147000Y-63177000D01*
X92127000Y-63177000D01*
X92127000Y-63197000D01*
X91873000Y-63197000D01*
X91873000Y-63177000D01*
X91853000Y-63177000D01*
X91853000Y-62923000D01*
X91873000Y-62923000D01*
X91873000Y-61729845D01*
X91643110Y-61608524D01*
X91495901Y-61653175D01*
X91233080Y-61778359D01*
X90999731Y-61952412D01*
X90804822Y-62168645D01*
X90655843Y-62418748D01*
X90571014Y-62657885D01*
X90552667Y-62597403D01*
X90443374Y-62392930D01*
X90296291Y-62213709D01*
X90117070Y-62066626D01*
X89912597Y-61957333D01*
X89690732Y-61890031D01*
X89517812Y-61873000D01*
X89402188Y-61873000D01*
X89229268Y-61890031D01*
X89007403Y-61957333D01*
X88802930Y-62066626D01*
X88623709Y-62213709D01*
X88476626Y-62392930D01*
X88367333Y-62597403D01*
X88300031Y-62819268D01*
X88277306Y-63050000D01*
X88300031Y-63280732D01*
X88367333Y-63502597D01*
X88476626Y-63707070D01*
X88623709Y-63886291D01*
X88802930Y-64033374D01*
X89007403Y-64142667D01*
X89229268Y-64209969D01*
X89402188Y-64227000D01*
X89517812Y-64227000D01*
X89690732Y-64209969D01*
X89912597Y-64142667D01*
X90117070Y-64033374D01*
X90296291Y-63886291D01*
X90443374Y-63707070D01*
X90552667Y-63502597D01*
X90571014Y-63442115D01*
X90655843Y-63681252D01*
X90804822Y-63931355D01*
X90999731Y-64147588D01*
X91233080Y-64321641D01*
X91495901Y-64446825D01*
X91604909Y-64479889D01*
X91547403Y-64497333D01*
X91342930Y-64606626D01*
X91163709Y-64753709D01*
X91016626Y-64932930D01*
X90907333Y-65137403D01*
X90840031Y-65359268D01*
X90817306Y-65590000D01*
X90840031Y-65820732D01*
X90907333Y-66042597D01*
X91016626Y-66247070D01*
X91163709Y-66426291D01*
X91342930Y-66573374D01*
X91423001Y-66616173D01*
X91423000Y-68796998D01*
X90819999Y-69400000D01*
X87641331Y-69400000D01*
X87613000Y-69397210D01*
X87584669Y-69400000D01*
X87584664Y-69400000D01*
X87557886Y-69402637D01*
X87499888Y-69408349D01*
X87435782Y-69427796D01*
X87391124Y-69441343D01*
X87290885Y-69494921D01*
X87239473Y-69537114D01*
X87225035Y-69548963D01*
X87225033Y-69548965D01*
X87203026Y-69567026D01*
X87184965Y-69589033D01*
X86357999Y-70416000D01*
X82649082Y-70416000D01*
X82649082Y-70143000D01*
X82642768Y-70078897D01*
X82624070Y-70017257D01*
X82593706Y-69960450D01*
X82552843Y-69910657D01*
X82503050Y-69869794D01*
X82446243Y-69839430D01*
X82384603Y-69820732D01*
X82320500Y-69814418D01*
X80620500Y-69814418D01*
X80556397Y-69820732D01*
X80494757Y-69839430D01*
X80437950Y-69869794D01*
X80388157Y-69910657D01*
X80347294Y-69960450D01*
X80316930Y-70017257D01*
X80298232Y-70078897D01*
X80291918Y-70143000D01*
X78923356Y-70143000D01*
X78923356Y-65182628D01*
X78937012Y-65251281D01*
X79180270Y-65838558D01*
X79533425Y-66367093D01*
X79982907Y-66816575D01*
X80511442Y-67169730D01*
X81098719Y-67412988D01*
X81722168Y-67537000D01*
X82357832Y-67537000D01*
X82981281Y-67412988D01*
X83568558Y-67169730D01*
X84097093Y-66816575D01*
X84546575Y-66367093D01*
X84899730Y-65838558D01*
X85142988Y-65251281D01*
X85244688Y-64740000D01*
X85741418Y-64740000D01*
X85741418Y-66440000D01*
X85747732Y-66504103D01*
X85766430Y-66565743D01*
X85796794Y-66622550D01*
X85837657Y-66672343D01*
X85887450Y-66713206D01*
X85944257Y-66743570D01*
X86005897Y-66762268D01*
X86070000Y-66768582D01*
X87770000Y-66768582D01*
X87834103Y-66762268D01*
X87895743Y-66743570D01*
X87952550Y-66713206D01*
X88002343Y-66672343D01*
X88043206Y-66622550D01*
X88073570Y-66565743D01*
X88092268Y-66504103D01*
X88098582Y-66440000D01*
X88098582Y-65590000D01*
X88277306Y-65590000D01*
X88300031Y-65820732D01*
X88367333Y-66042597D01*
X88476626Y-66247070D01*
X88623709Y-66426291D01*
X88802930Y-66573374D01*
X89007403Y-66682667D01*
X89229268Y-66749969D01*
X89402188Y-66767000D01*
X89517812Y-66767000D01*
X89690732Y-66749969D01*
X89912597Y-66682667D01*
X90117070Y-66573374D01*
X90296291Y-66426291D01*
X90443374Y-66247070D01*
X90552667Y-66042597D01*
X90619969Y-65820732D01*
X90642694Y-65590000D01*
X90619969Y-65359268D01*
X90552667Y-65137403D01*
X90443374Y-64932930D01*
X90296291Y-64753709D01*
X90117070Y-64606626D01*
X89912597Y-64497333D01*
X89690732Y-64430031D01*
X89517812Y-64413000D01*
X89402188Y-64413000D01*
X89229268Y-64430031D01*
X89007403Y-64497333D01*
X88802930Y-64606626D01*
X88623709Y-64753709D01*
X88476626Y-64932930D01*
X88367333Y-65137403D01*
X88300031Y-65359268D01*
X88277306Y-65590000D01*
X88098582Y-65590000D01*
X88098582Y-64740000D01*
X88092268Y-64675897D01*
X88073570Y-64614257D01*
X88043206Y-64557450D01*
X88002343Y-64507657D01*
X87952550Y-64466794D01*
X87895743Y-64436430D01*
X87834103Y-64417732D01*
X87770000Y-64411418D01*
X86070000Y-64411418D01*
X86005897Y-64417732D01*
X85944257Y-64436430D01*
X85887450Y-64466794D01*
X85837657Y-64507657D01*
X85796794Y-64557450D01*
X85766430Y-64614257D01*
X85747732Y-64675897D01*
X85741418Y-64740000D01*
X85244688Y-64740000D01*
X85267000Y-64627832D01*
X85267000Y-63992168D01*
X85142988Y-63368719D01*
X85010971Y-63050000D01*
X85737306Y-63050000D01*
X85760031Y-63280732D01*
X85827333Y-63502597D01*
X85936626Y-63707070D01*
X86083709Y-63886291D01*
X86262930Y-64033374D01*
X86467403Y-64142667D01*
X86689268Y-64209969D01*
X86862188Y-64227000D01*
X86977812Y-64227000D01*
X87150732Y-64209969D01*
X87372597Y-64142667D01*
X87577070Y-64033374D01*
X87756291Y-63886291D01*
X87903374Y-63707070D01*
X88012667Y-63502597D01*
X88079969Y-63280732D01*
X88102694Y-63050000D01*
X88079969Y-62819268D01*
X88012667Y-62597403D01*
X87903374Y-62392930D01*
X87756291Y-62213709D01*
X87577070Y-62066626D01*
X87372597Y-61957333D01*
X87150732Y-61890031D01*
X86977812Y-61873000D01*
X86862188Y-61873000D01*
X86689268Y-61890031D01*
X86467403Y-61957333D01*
X86262930Y-62066626D01*
X86083709Y-62213709D01*
X85936626Y-62392930D01*
X85827333Y-62597403D01*
X85760031Y-62819268D01*
X85737306Y-63050000D01*
X85010971Y-63050000D01*
X84899730Y-62781442D01*
X84546575Y-62252907D01*
X84097093Y-61803425D01*
X83568558Y-61450270D01*
X82981281Y-61207012D01*
X82918937Y-61194611D01*
X139261609Y-61194611D01*
X139098719Y-61227012D01*
M02*
