%TF.GenerationSoftware,KiCad,Pcbnew,5.1.4-e60b266~84~ubuntu18.04.1*%
%TF.CreationDate,2019-11-04T19:33:46+01:00*%
%TF.ProjectId,FHSHat,46485348-6174-42e6-9b69-6361645f7063,rev?*%
%TF.SameCoordinates,Original*%
%TF.FileFunction,Paste,Top*%
%TF.FilePolarity,Positive*%
%FSLAX46Y46*%
G04 Gerber Fmt 4.6, Leading zero omitted, Abs format (unit mm)*
G04 Created by KiCad (PCBNEW 5.1.4-e60b266~84~ubuntu18.04.1) date 2019-11-04 19:33:46*
%MOMM*%
%LPD*%
G04 APERTURE LIST*
%ADD10C,0.100000*%
%ADD11C,0.150000*%
%ADD12C,1.150000*%
%ADD13R,1.500000X2.000000*%
%ADD14R,3.800000X2.000000*%
%ADD15C,0.975000*%
%ADD16C,0.600000*%
G04 APERTURE END LIST*
D10*
X78546356Y-63817611D02*
X78546356Y-113817611D01*
X78546356Y-63817611D02*
G75*
G02X81546356Y-60817611I3000000J0D01*
G01*
X140546356Y-60817611D02*
X81546356Y-60817611D01*
X140546356Y-60817611D02*
G75*
G02X143546356Y-63817611I0J-3000000D01*
G01*
X143546356Y-113817611D02*
X143546356Y-63817611D01*
X81546356Y-116817611D02*
G75*
G02X78546356Y-113817611I0J3000000D01*
G01*
X81546356Y-116817611D02*
X140546356Y-116817611D01*
X143546351Y-113822847D02*
G75*
G02X140546356Y-116817611I-2999995J5236D01*
G01*
D11*
G36*
X88759505Y-85661204D02*
G01*
X88783773Y-85664804D01*
X88807572Y-85670765D01*
X88830671Y-85679030D01*
X88852850Y-85689520D01*
X88873893Y-85702132D01*
X88893599Y-85716747D01*
X88911777Y-85733223D01*
X88928253Y-85751401D01*
X88942868Y-85771107D01*
X88955480Y-85792150D01*
X88965970Y-85814329D01*
X88974235Y-85837428D01*
X88980196Y-85861227D01*
X88983796Y-85885495D01*
X88985000Y-85909999D01*
X88985000Y-86810001D01*
X88983796Y-86834505D01*
X88980196Y-86858773D01*
X88974235Y-86882572D01*
X88965970Y-86905671D01*
X88955480Y-86927850D01*
X88942868Y-86948893D01*
X88928253Y-86968599D01*
X88911777Y-86986777D01*
X88893599Y-87003253D01*
X88873893Y-87017868D01*
X88852850Y-87030480D01*
X88830671Y-87040970D01*
X88807572Y-87049235D01*
X88783773Y-87055196D01*
X88759505Y-87058796D01*
X88735001Y-87060000D01*
X88084999Y-87060000D01*
X88060495Y-87058796D01*
X88036227Y-87055196D01*
X88012428Y-87049235D01*
X87989329Y-87040970D01*
X87967150Y-87030480D01*
X87946107Y-87017868D01*
X87926401Y-87003253D01*
X87908223Y-86986777D01*
X87891747Y-86968599D01*
X87877132Y-86948893D01*
X87864520Y-86927850D01*
X87854030Y-86905671D01*
X87845765Y-86882572D01*
X87839804Y-86858773D01*
X87836204Y-86834505D01*
X87835000Y-86810001D01*
X87835000Y-85909999D01*
X87836204Y-85885495D01*
X87839804Y-85861227D01*
X87845765Y-85837428D01*
X87854030Y-85814329D01*
X87864520Y-85792150D01*
X87877132Y-85771107D01*
X87891747Y-85751401D01*
X87908223Y-85733223D01*
X87926401Y-85716747D01*
X87946107Y-85702132D01*
X87967150Y-85689520D01*
X87989329Y-85679030D01*
X88012428Y-85670765D01*
X88036227Y-85664804D01*
X88060495Y-85661204D01*
X88084999Y-85660000D01*
X88735001Y-85660000D01*
X88759505Y-85661204D01*
X88759505Y-85661204D01*
G37*
D12*
X88410000Y-86360000D03*
D11*
G36*
X86709505Y-85661204D02*
G01*
X86733773Y-85664804D01*
X86757572Y-85670765D01*
X86780671Y-85679030D01*
X86802850Y-85689520D01*
X86823893Y-85702132D01*
X86843599Y-85716747D01*
X86861777Y-85733223D01*
X86878253Y-85751401D01*
X86892868Y-85771107D01*
X86905480Y-85792150D01*
X86915970Y-85814329D01*
X86924235Y-85837428D01*
X86930196Y-85861227D01*
X86933796Y-85885495D01*
X86935000Y-85909999D01*
X86935000Y-86810001D01*
X86933796Y-86834505D01*
X86930196Y-86858773D01*
X86924235Y-86882572D01*
X86915970Y-86905671D01*
X86905480Y-86927850D01*
X86892868Y-86948893D01*
X86878253Y-86968599D01*
X86861777Y-86986777D01*
X86843599Y-87003253D01*
X86823893Y-87017868D01*
X86802850Y-87030480D01*
X86780671Y-87040970D01*
X86757572Y-87049235D01*
X86733773Y-87055196D01*
X86709505Y-87058796D01*
X86685001Y-87060000D01*
X86034999Y-87060000D01*
X86010495Y-87058796D01*
X85986227Y-87055196D01*
X85962428Y-87049235D01*
X85939329Y-87040970D01*
X85917150Y-87030480D01*
X85896107Y-87017868D01*
X85876401Y-87003253D01*
X85858223Y-86986777D01*
X85841747Y-86968599D01*
X85827132Y-86948893D01*
X85814520Y-86927850D01*
X85804030Y-86905671D01*
X85795765Y-86882572D01*
X85789804Y-86858773D01*
X85786204Y-86834505D01*
X85785000Y-86810001D01*
X85785000Y-85909999D01*
X85786204Y-85885495D01*
X85789804Y-85861227D01*
X85795765Y-85837428D01*
X85804030Y-85814329D01*
X85814520Y-85792150D01*
X85827132Y-85771107D01*
X85841747Y-85751401D01*
X85858223Y-85733223D01*
X85876401Y-85716747D01*
X85896107Y-85702132D01*
X85917150Y-85689520D01*
X85939329Y-85679030D01*
X85962428Y-85670765D01*
X85986227Y-85664804D01*
X86010495Y-85661204D01*
X86034999Y-85660000D01*
X86685001Y-85660000D01*
X86709505Y-85661204D01*
X86709505Y-85661204D01*
G37*
D12*
X86360000Y-86360000D03*
D11*
G36*
X83924505Y-85661204D02*
G01*
X83948773Y-85664804D01*
X83972572Y-85670765D01*
X83995671Y-85679030D01*
X84017850Y-85689520D01*
X84038893Y-85702132D01*
X84058599Y-85716747D01*
X84076777Y-85733223D01*
X84093253Y-85751401D01*
X84107868Y-85771107D01*
X84120480Y-85792150D01*
X84130970Y-85814329D01*
X84139235Y-85837428D01*
X84145196Y-85861227D01*
X84148796Y-85885495D01*
X84150000Y-85909999D01*
X84150000Y-86810001D01*
X84148796Y-86834505D01*
X84145196Y-86858773D01*
X84139235Y-86882572D01*
X84130970Y-86905671D01*
X84120480Y-86927850D01*
X84107868Y-86948893D01*
X84093253Y-86968599D01*
X84076777Y-86986777D01*
X84058599Y-87003253D01*
X84038893Y-87017868D01*
X84017850Y-87030480D01*
X83995671Y-87040970D01*
X83972572Y-87049235D01*
X83948773Y-87055196D01*
X83924505Y-87058796D01*
X83900001Y-87060000D01*
X83249999Y-87060000D01*
X83225495Y-87058796D01*
X83201227Y-87055196D01*
X83177428Y-87049235D01*
X83154329Y-87040970D01*
X83132150Y-87030480D01*
X83111107Y-87017868D01*
X83091401Y-87003253D01*
X83073223Y-86986777D01*
X83056747Y-86968599D01*
X83042132Y-86948893D01*
X83029520Y-86927850D01*
X83019030Y-86905671D01*
X83010765Y-86882572D01*
X83004804Y-86858773D01*
X83001204Y-86834505D01*
X83000000Y-86810001D01*
X83000000Y-85909999D01*
X83001204Y-85885495D01*
X83004804Y-85861227D01*
X83010765Y-85837428D01*
X83019030Y-85814329D01*
X83029520Y-85792150D01*
X83042132Y-85771107D01*
X83056747Y-85751401D01*
X83073223Y-85733223D01*
X83091401Y-85716747D01*
X83111107Y-85702132D01*
X83132150Y-85689520D01*
X83154329Y-85679030D01*
X83177428Y-85670765D01*
X83201227Y-85664804D01*
X83225495Y-85661204D01*
X83249999Y-85660000D01*
X83900001Y-85660000D01*
X83924505Y-85661204D01*
X83924505Y-85661204D01*
G37*
D12*
X83575000Y-86360000D03*
D11*
G36*
X81874505Y-85661204D02*
G01*
X81898773Y-85664804D01*
X81922572Y-85670765D01*
X81945671Y-85679030D01*
X81967850Y-85689520D01*
X81988893Y-85702132D01*
X82008599Y-85716747D01*
X82026777Y-85733223D01*
X82043253Y-85751401D01*
X82057868Y-85771107D01*
X82070480Y-85792150D01*
X82080970Y-85814329D01*
X82089235Y-85837428D01*
X82095196Y-85861227D01*
X82098796Y-85885495D01*
X82100000Y-85909999D01*
X82100000Y-86810001D01*
X82098796Y-86834505D01*
X82095196Y-86858773D01*
X82089235Y-86882572D01*
X82080970Y-86905671D01*
X82070480Y-86927850D01*
X82057868Y-86948893D01*
X82043253Y-86968599D01*
X82026777Y-86986777D01*
X82008599Y-87003253D01*
X81988893Y-87017868D01*
X81967850Y-87030480D01*
X81945671Y-87040970D01*
X81922572Y-87049235D01*
X81898773Y-87055196D01*
X81874505Y-87058796D01*
X81850001Y-87060000D01*
X81199999Y-87060000D01*
X81175495Y-87058796D01*
X81151227Y-87055196D01*
X81127428Y-87049235D01*
X81104329Y-87040970D01*
X81082150Y-87030480D01*
X81061107Y-87017868D01*
X81041401Y-87003253D01*
X81023223Y-86986777D01*
X81006747Y-86968599D01*
X80992132Y-86948893D01*
X80979520Y-86927850D01*
X80969030Y-86905671D01*
X80960765Y-86882572D01*
X80954804Y-86858773D01*
X80951204Y-86834505D01*
X80950000Y-86810001D01*
X80950000Y-85909999D01*
X80951204Y-85885495D01*
X80954804Y-85861227D01*
X80960765Y-85837428D01*
X80969030Y-85814329D01*
X80979520Y-85792150D01*
X80992132Y-85771107D01*
X81006747Y-85751401D01*
X81023223Y-85733223D01*
X81041401Y-85716747D01*
X81061107Y-85702132D01*
X81082150Y-85689520D01*
X81104329Y-85679030D01*
X81127428Y-85670765D01*
X81151227Y-85664804D01*
X81175495Y-85661204D01*
X81199999Y-85660000D01*
X81850001Y-85660000D01*
X81874505Y-85661204D01*
X81874505Y-85661204D01*
G37*
D12*
X81525000Y-86360000D03*
D11*
G36*
X124934505Y-84761204D02*
G01*
X124958773Y-84764804D01*
X124982572Y-84770765D01*
X125005671Y-84779030D01*
X125027850Y-84789520D01*
X125048893Y-84802132D01*
X125068599Y-84816747D01*
X125086777Y-84833223D01*
X125103253Y-84851401D01*
X125117868Y-84871107D01*
X125130480Y-84892150D01*
X125140970Y-84914329D01*
X125149235Y-84937428D01*
X125155196Y-84961227D01*
X125158796Y-84985495D01*
X125160000Y-85009999D01*
X125160000Y-85660001D01*
X125158796Y-85684505D01*
X125155196Y-85708773D01*
X125149235Y-85732572D01*
X125140970Y-85755671D01*
X125130480Y-85777850D01*
X125117868Y-85798893D01*
X125103253Y-85818599D01*
X125086777Y-85836777D01*
X125068599Y-85853253D01*
X125048893Y-85867868D01*
X125027850Y-85880480D01*
X125005671Y-85890970D01*
X124982572Y-85899235D01*
X124958773Y-85905196D01*
X124934505Y-85908796D01*
X124910001Y-85910000D01*
X124009999Y-85910000D01*
X123985495Y-85908796D01*
X123961227Y-85905196D01*
X123937428Y-85899235D01*
X123914329Y-85890970D01*
X123892150Y-85880480D01*
X123871107Y-85867868D01*
X123851401Y-85853253D01*
X123833223Y-85836777D01*
X123816747Y-85818599D01*
X123802132Y-85798893D01*
X123789520Y-85777850D01*
X123779030Y-85755671D01*
X123770765Y-85732572D01*
X123764804Y-85708773D01*
X123761204Y-85684505D01*
X123760000Y-85660001D01*
X123760000Y-85009999D01*
X123761204Y-84985495D01*
X123764804Y-84961227D01*
X123770765Y-84937428D01*
X123779030Y-84914329D01*
X123789520Y-84892150D01*
X123802132Y-84871107D01*
X123816747Y-84851401D01*
X123833223Y-84833223D01*
X123851401Y-84816747D01*
X123871107Y-84802132D01*
X123892150Y-84789520D01*
X123914329Y-84779030D01*
X123937428Y-84770765D01*
X123961227Y-84764804D01*
X123985495Y-84761204D01*
X124009999Y-84760000D01*
X124910001Y-84760000D01*
X124934505Y-84761204D01*
X124934505Y-84761204D01*
G37*
D12*
X124460000Y-85335000D03*
D11*
G36*
X124934505Y-86811204D02*
G01*
X124958773Y-86814804D01*
X124982572Y-86820765D01*
X125005671Y-86829030D01*
X125027850Y-86839520D01*
X125048893Y-86852132D01*
X125068599Y-86866747D01*
X125086777Y-86883223D01*
X125103253Y-86901401D01*
X125117868Y-86921107D01*
X125130480Y-86942150D01*
X125140970Y-86964329D01*
X125149235Y-86987428D01*
X125155196Y-87011227D01*
X125158796Y-87035495D01*
X125160000Y-87059999D01*
X125160000Y-87710001D01*
X125158796Y-87734505D01*
X125155196Y-87758773D01*
X125149235Y-87782572D01*
X125140970Y-87805671D01*
X125130480Y-87827850D01*
X125117868Y-87848893D01*
X125103253Y-87868599D01*
X125086777Y-87886777D01*
X125068599Y-87903253D01*
X125048893Y-87917868D01*
X125027850Y-87930480D01*
X125005671Y-87940970D01*
X124982572Y-87949235D01*
X124958773Y-87955196D01*
X124934505Y-87958796D01*
X124910001Y-87960000D01*
X124009999Y-87960000D01*
X123985495Y-87958796D01*
X123961227Y-87955196D01*
X123937428Y-87949235D01*
X123914329Y-87940970D01*
X123892150Y-87930480D01*
X123871107Y-87917868D01*
X123851401Y-87903253D01*
X123833223Y-87886777D01*
X123816747Y-87868599D01*
X123802132Y-87848893D01*
X123789520Y-87827850D01*
X123779030Y-87805671D01*
X123770765Y-87782572D01*
X123764804Y-87758773D01*
X123761204Y-87734505D01*
X123760000Y-87710001D01*
X123760000Y-87059999D01*
X123761204Y-87035495D01*
X123764804Y-87011227D01*
X123770765Y-86987428D01*
X123779030Y-86964329D01*
X123789520Y-86942150D01*
X123802132Y-86921107D01*
X123816747Y-86901401D01*
X123833223Y-86883223D01*
X123851401Y-86866747D01*
X123871107Y-86852132D01*
X123892150Y-86839520D01*
X123914329Y-86829030D01*
X123937428Y-86820765D01*
X123961227Y-86814804D01*
X123985495Y-86811204D01*
X124009999Y-86810000D01*
X124910001Y-86810000D01*
X124934505Y-86811204D01*
X124934505Y-86811204D01*
G37*
D12*
X124460000Y-87385000D03*
D11*
G36*
X118838505Y-90984204D02*
G01*
X118862773Y-90987804D01*
X118886572Y-90993765D01*
X118909671Y-91002030D01*
X118931850Y-91012520D01*
X118952893Y-91025132D01*
X118972599Y-91039747D01*
X118990777Y-91056223D01*
X119007253Y-91074401D01*
X119021868Y-91094107D01*
X119034480Y-91115150D01*
X119044970Y-91137329D01*
X119053235Y-91160428D01*
X119059196Y-91184227D01*
X119062796Y-91208495D01*
X119064000Y-91232999D01*
X119064000Y-91883001D01*
X119062796Y-91907505D01*
X119059196Y-91931773D01*
X119053235Y-91955572D01*
X119044970Y-91978671D01*
X119034480Y-92000850D01*
X119021868Y-92021893D01*
X119007253Y-92041599D01*
X118990777Y-92059777D01*
X118972599Y-92076253D01*
X118952893Y-92090868D01*
X118931850Y-92103480D01*
X118909671Y-92113970D01*
X118886572Y-92122235D01*
X118862773Y-92128196D01*
X118838505Y-92131796D01*
X118814001Y-92133000D01*
X117913999Y-92133000D01*
X117889495Y-92131796D01*
X117865227Y-92128196D01*
X117841428Y-92122235D01*
X117818329Y-92113970D01*
X117796150Y-92103480D01*
X117775107Y-92090868D01*
X117755401Y-92076253D01*
X117737223Y-92059777D01*
X117720747Y-92041599D01*
X117706132Y-92021893D01*
X117693520Y-92000850D01*
X117683030Y-91978671D01*
X117674765Y-91955572D01*
X117668804Y-91931773D01*
X117665204Y-91907505D01*
X117664000Y-91883001D01*
X117664000Y-91232999D01*
X117665204Y-91208495D01*
X117668804Y-91184227D01*
X117674765Y-91160428D01*
X117683030Y-91137329D01*
X117693520Y-91115150D01*
X117706132Y-91094107D01*
X117720747Y-91074401D01*
X117737223Y-91056223D01*
X117755401Y-91039747D01*
X117775107Y-91025132D01*
X117796150Y-91012520D01*
X117818329Y-91002030D01*
X117841428Y-90993765D01*
X117865227Y-90987804D01*
X117889495Y-90984204D01*
X117913999Y-90983000D01*
X118814001Y-90983000D01*
X118838505Y-90984204D01*
X118838505Y-90984204D01*
G37*
D12*
X118364000Y-91558000D03*
D11*
G36*
X118838505Y-93034204D02*
G01*
X118862773Y-93037804D01*
X118886572Y-93043765D01*
X118909671Y-93052030D01*
X118931850Y-93062520D01*
X118952893Y-93075132D01*
X118972599Y-93089747D01*
X118990777Y-93106223D01*
X119007253Y-93124401D01*
X119021868Y-93144107D01*
X119034480Y-93165150D01*
X119044970Y-93187329D01*
X119053235Y-93210428D01*
X119059196Y-93234227D01*
X119062796Y-93258495D01*
X119064000Y-93282999D01*
X119064000Y-93933001D01*
X119062796Y-93957505D01*
X119059196Y-93981773D01*
X119053235Y-94005572D01*
X119044970Y-94028671D01*
X119034480Y-94050850D01*
X119021868Y-94071893D01*
X119007253Y-94091599D01*
X118990777Y-94109777D01*
X118972599Y-94126253D01*
X118952893Y-94140868D01*
X118931850Y-94153480D01*
X118909671Y-94163970D01*
X118886572Y-94172235D01*
X118862773Y-94178196D01*
X118838505Y-94181796D01*
X118814001Y-94183000D01*
X117913999Y-94183000D01*
X117889495Y-94181796D01*
X117865227Y-94178196D01*
X117841428Y-94172235D01*
X117818329Y-94163970D01*
X117796150Y-94153480D01*
X117775107Y-94140868D01*
X117755401Y-94126253D01*
X117737223Y-94109777D01*
X117720747Y-94091599D01*
X117706132Y-94071893D01*
X117693520Y-94050850D01*
X117683030Y-94028671D01*
X117674765Y-94005572D01*
X117668804Y-93981773D01*
X117665204Y-93957505D01*
X117664000Y-93933001D01*
X117664000Y-93282999D01*
X117665204Y-93258495D01*
X117668804Y-93234227D01*
X117674765Y-93210428D01*
X117683030Y-93187329D01*
X117693520Y-93165150D01*
X117706132Y-93144107D01*
X117720747Y-93124401D01*
X117737223Y-93106223D01*
X117755401Y-93089747D01*
X117775107Y-93075132D01*
X117796150Y-93062520D01*
X117818329Y-93052030D01*
X117841428Y-93043765D01*
X117865227Y-93037804D01*
X117889495Y-93034204D01*
X117913999Y-93033000D01*
X118814001Y-93033000D01*
X118838505Y-93034204D01*
X118838505Y-93034204D01*
G37*
D12*
X118364000Y-93608000D03*
D11*
G36*
X118838505Y-95302204D02*
G01*
X118862773Y-95305804D01*
X118886572Y-95311765D01*
X118909671Y-95320030D01*
X118931850Y-95330520D01*
X118952893Y-95343132D01*
X118972599Y-95357747D01*
X118990777Y-95374223D01*
X119007253Y-95392401D01*
X119021868Y-95412107D01*
X119034480Y-95433150D01*
X119044970Y-95455329D01*
X119053235Y-95478428D01*
X119059196Y-95502227D01*
X119062796Y-95526495D01*
X119064000Y-95550999D01*
X119064000Y-96201001D01*
X119062796Y-96225505D01*
X119059196Y-96249773D01*
X119053235Y-96273572D01*
X119044970Y-96296671D01*
X119034480Y-96318850D01*
X119021868Y-96339893D01*
X119007253Y-96359599D01*
X118990777Y-96377777D01*
X118972599Y-96394253D01*
X118952893Y-96408868D01*
X118931850Y-96421480D01*
X118909671Y-96431970D01*
X118886572Y-96440235D01*
X118862773Y-96446196D01*
X118838505Y-96449796D01*
X118814001Y-96451000D01*
X117913999Y-96451000D01*
X117889495Y-96449796D01*
X117865227Y-96446196D01*
X117841428Y-96440235D01*
X117818329Y-96431970D01*
X117796150Y-96421480D01*
X117775107Y-96408868D01*
X117755401Y-96394253D01*
X117737223Y-96377777D01*
X117720747Y-96359599D01*
X117706132Y-96339893D01*
X117693520Y-96318850D01*
X117683030Y-96296671D01*
X117674765Y-96273572D01*
X117668804Y-96249773D01*
X117665204Y-96225505D01*
X117664000Y-96201001D01*
X117664000Y-95550999D01*
X117665204Y-95526495D01*
X117668804Y-95502227D01*
X117674765Y-95478428D01*
X117683030Y-95455329D01*
X117693520Y-95433150D01*
X117706132Y-95412107D01*
X117720747Y-95392401D01*
X117737223Y-95374223D01*
X117755401Y-95357747D01*
X117775107Y-95343132D01*
X117796150Y-95330520D01*
X117818329Y-95320030D01*
X117841428Y-95311765D01*
X117865227Y-95305804D01*
X117889495Y-95302204D01*
X117913999Y-95301000D01*
X118814001Y-95301000D01*
X118838505Y-95302204D01*
X118838505Y-95302204D01*
G37*
D12*
X118364000Y-95876000D03*
D11*
G36*
X118838505Y-97352204D02*
G01*
X118862773Y-97355804D01*
X118886572Y-97361765D01*
X118909671Y-97370030D01*
X118931850Y-97380520D01*
X118952893Y-97393132D01*
X118972599Y-97407747D01*
X118990777Y-97424223D01*
X119007253Y-97442401D01*
X119021868Y-97462107D01*
X119034480Y-97483150D01*
X119044970Y-97505329D01*
X119053235Y-97528428D01*
X119059196Y-97552227D01*
X119062796Y-97576495D01*
X119064000Y-97600999D01*
X119064000Y-98251001D01*
X119062796Y-98275505D01*
X119059196Y-98299773D01*
X119053235Y-98323572D01*
X119044970Y-98346671D01*
X119034480Y-98368850D01*
X119021868Y-98389893D01*
X119007253Y-98409599D01*
X118990777Y-98427777D01*
X118972599Y-98444253D01*
X118952893Y-98458868D01*
X118931850Y-98471480D01*
X118909671Y-98481970D01*
X118886572Y-98490235D01*
X118862773Y-98496196D01*
X118838505Y-98499796D01*
X118814001Y-98501000D01*
X117913999Y-98501000D01*
X117889495Y-98499796D01*
X117865227Y-98496196D01*
X117841428Y-98490235D01*
X117818329Y-98481970D01*
X117796150Y-98471480D01*
X117775107Y-98458868D01*
X117755401Y-98444253D01*
X117737223Y-98427777D01*
X117720747Y-98409599D01*
X117706132Y-98389893D01*
X117693520Y-98368850D01*
X117683030Y-98346671D01*
X117674765Y-98323572D01*
X117668804Y-98299773D01*
X117665204Y-98275505D01*
X117664000Y-98251001D01*
X117664000Y-97600999D01*
X117665204Y-97576495D01*
X117668804Y-97552227D01*
X117674765Y-97528428D01*
X117683030Y-97505329D01*
X117693520Y-97483150D01*
X117706132Y-97462107D01*
X117720747Y-97442401D01*
X117737223Y-97424223D01*
X117755401Y-97407747D01*
X117775107Y-97393132D01*
X117796150Y-97380520D01*
X117818329Y-97370030D01*
X117841428Y-97361765D01*
X117865227Y-97355804D01*
X117889495Y-97352204D01*
X117913999Y-97351000D01*
X118814001Y-97351000D01*
X118838505Y-97352204D01*
X118838505Y-97352204D01*
G37*
D12*
X118364000Y-97926000D03*
D13*
X128510000Y-86970000D03*
X133110000Y-86970000D03*
X130810000Y-86970000D03*
D14*
X130810000Y-80670000D03*
D11*
G36*
X139635142Y-86931174D02*
G01*
X139658803Y-86934684D01*
X139682007Y-86940496D01*
X139704529Y-86948554D01*
X139726153Y-86958782D01*
X139746670Y-86971079D01*
X139765883Y-86985329D01*
X139783607Y-87001393D01*
X139799671Y-87019117D01*
X139813921Y-87038330D01*
X139826218Y-87058847D01*
X139836446Y-87080471D01*
X139844504Y-87102993D01*
X139850316Y-87126197D01*
X139853826Y-87149858D01*
X139855000Y-87173750D01*
X139855000Y-88086250D01*
X139853826Y-88110142D01*
X139850316Y-88133803D01*
X139844504Y-88157007D01*
X139836446Y-88179529D01*
X139826218Y-88201153D01*
X139813921Y-88221670D01*
X139799671Y-88240883D01*
X139783607Y-88258607D01*
X139765883Y-88274671D01*
X139746670Y-88288921D01*
X139726153Y-88301218D01*
X139704529Y-88311446D01*
X139682007Y-88319504D01*
X139658803Y-88325316D01*
X139635142Y-88328826D01*
X139611250Y-88330000D01*
X139123750Y-88330000D01*
X139099858Y-88328826D01*
X139076197Y-88325316D01*
X139052993Y-88319504D01*
X139030471Y-88311446D01*
X139008847Y-88301218D01*
X138988330Y-88288921D01*
X138969117Y-88274671D01*
X138951393Y-88258607D01*
X138935329Y-88240883D01*
X138921079Y-88221670D01*
X138908782Y-88201153D01*
X138898554Y-88179529D01*
X138890496Y-88157007D01*
X138884684Y-88133803D01*
X138881174Y-88110142D01*
X138880000Y-88086250D01*
X138880000Y-87173750D01*
X138881174Y-87149858D01*
X138884684Y-87126197D01*
X138890496Y-87102993D01*
X138898554Y-87080471D01*
X138908782Y-87058847D01*
X138921079Y-87038330D01*
X138935329Y-87019117D01*
X138951393Y-87001393D01*
X138969117Y-86985329D01*
X138988330Y-86971079D01*
X139008847Y-86958782D01*
X139030471Y-86948554D01*
X139052993Y-86940496D01*
X139076197Y-86934684D01*
X139099858Y-86931174D01*
X139123750Y-86930000D01*
X139611250Y-86930000D01*
X139635142Y-86931174D01*
X139635142Y-86931174D01*
G37*
D15*
X139367500Y-87630000D03*
D11*
G36*
X137760142Y-86931174D02*
G01*
X137783803Y-86934684D01*
X137807007Y-86940496D01*
X137829529Y-86948554D01*
X137851153Y-86958782D01*
X137871670Y-86971079D01*
X137890883Y-86985329D01*
X137908607Y-87001393D01*
X137924671Y-87019117D01*
X137938921Y-87038330D01*
X137951218Y-87058847D01*
X137961446Y-87080471D01*
X137969504Y-87102993D01*
X137975316Y-87126197D01*
X137978826Y-87149858D01*
X137980000Y-87173750D01*
X137980000Y-88086250D01*
X137978826Y-88110142D01*
X137975316Y-88133803D01*
X137969504Y-88157007D01*
X137961446Y-88179529D01*
X137951218Y-88201153D01*
X137938921Y-88221670D01*
X137924671Y-88240883D01*
X137908607Y-88258607D01*
X137890883Y-88274671D01*
X137871670Y-88288921D01*
X137851153Y-88301218D01*
X137829529Y-88311446D01*
X137807007Y-88319504D01*
X137783803Y-88325316D01*
X137760142Y-88328826D01*
X137736250Y-88330000D01*
X137248750Y-88330000D01*
X137224858Y-88328826D01*
X137201197Y-88325316D01*
X137177993Y-88319504D01*
X137155471Y-88311446D01*
X137133847Y-88301218D01*
X137113330Y-88288921D01*
X137094117Y-88274671D01*
X137076393Y-88258607D01*
X137060329Y-88240883D01*
X137046079Y-88221670D01*
X137033782Y-88201153D01*
X137023554Y-88179529D01*
X137015496Y-88157007D01*
X137009684Y-88133803D01*
X137006174Y-88110142D01*
X137005000Y-88086250D01*
X137005000Y-87173750D01*
X137006174Y-87149858D01*
X137009684Y-87126197D01*
X137015496Y-87102993D01*
X137023554Y-87080471D01*
X137033782Y-87058847D01*
X137046079Y-87038330D01*
X137060329Y-87019117D01*
X137076393Y-87001393D01*
X137094117Y-86985329D01*
X137113330Y-86971079D01*
X137133847Y-86958782D01*
X137155471Y-86948554D01*
X137177993Y-86940496D01*
X137201197Y-86934684D01*
X137224858Y-86931174D01*
X137248750Y-86930000D01*
X137736250Y-86930000D01*
X137760142Y-86931174D01*
X137760142Y-86931174D01*
G37*
D15*
X137492500Y-87630000D03*
D11*
G36*
X105890142Y-91256174D02*
G01*
X105913803Y-91259684D01*
X105937007Y-91265496D01*
X105959529Y-91273554D01*
X105981153Y-91283782D01*
X106001670Y-91296079D01*
X106020883Y-91310329D01*
X106038607Y-91326393D01*
X106054671Y-91344117D01*
X106068921Y-91363330D01*
X106081218Y-91383847D01*
X106091446Y-91405471D01*
X106099504Y-91427993D01*
X106105316Y-91451197D01*
X106108826Y-91474858D01*
X106110000Y-91498750D01*
X106110000Y-91986250D01*
X106108826Y-92010142D01*
X106105316Y-92033803D01*
X106099504Y-92057007D01*
X106091446Y-92079529D01*
X106081218Y-92101153D01*
X106068921Y-92121670D01*
X106054671Y-92140883D01*
X106038607Y-92158607D01*
X106020883Y-92174671D01*
X106001670Y-92188921D01*
X105981153Y-92201218D01*
X105959529Y-92211446D01*
X105937007Y-92219504D01*
X105913803Y-92225316D01*
X105890142Y-92228826D01*
X105866250Y-92230000D01*
X104953750Y-92230000D01*
X104929858Y-92228826D01*
X104906197Y-92225316D01*
X104882993Y-92219504D01*
X104860471Y-92211446D01*
X104838847Y-92201218D01*
X104818330Y-92188921D01*
X104799117Y-92174671D01*
X104781393Y-92158607D01*
X104765329Y-92140883D01*
X104751079Y-92121670D01*
X104738782Y-92101153D01*
X104728554Y-92079529D01*
X104720496Y-92057007D01*
X104714684Y-92033803D01*
X104711174Y-92010142D01*
X104710000Y-91986250D01*
X104710000Y-91498750D01*
X104711174Y-91474858D01*
X104714684Y-91451197D01*
X104720496Y-91427993D01*
X104728554Y-91405471D01*
X104738782Y-91383847D01*
X104751079Y-91363330D01*
X104765329Y-91344117D01*
X104781393Y-91326393D01*
X104799117Y-91310329D01*
X104818330Y-91296079D01*
X104838847Y-91283782D01*
X104860471Y-91273554D01*
X104882993Y-91265496D01*
X104906197Y-91259684D01*
X104929858Y-91256174D01*
X104953750Y-91255000D01*
X105866250Y-91255000D01*
X105890142Y-91256174D01*
X105890142Y-91256174D01*
G37*
D15*
X105410000Y-91742500D03*
D11*
G36*
X105890142Y-89381174D02*
G01*
X105913803Y-89384684D01*
X105937007Y-89390496D01*
X105959529Y-89398554D01*
X105981153Y-89408782D01*
X106001670Y-89421079D01*
X106020883Y-89435329D01*
X106038607Y-89451393D01*
X106054671Y-89469117D01*
X106068921Y-89488330D01*
X106081218Y-89508847D01*
X106091446Y-89530471D01*
X106099504Y-89552993D01*
X106105316Y-89576197D01*
X106108826Y-89599858D01*
X106110000Y-89623750D01*
X106110000Y-90111250D01*
X106108826Y-90135142D01*
X106105316Y-90158803D01*
X106099504Y-90182007D01*
X106091446Y-90204529D01*
X106081218Y-90226153D01*
X106068921Y-90246670D01*
X106054671Y-90265883D01*
X106038607Y-90283607D01*
X106020883Y-90299671D01*
X106001670Y-90313921D01*
X105981153Y-90326218D01*
X105959529Y-90336446D01*
X105937007Y-90344504D01*
X105913803Y-90350316D01*
X105890142Y-90353826D01*
X105866250Y-90355000D01*
X104953750Y-90355000D01*
X104929858Y-90353826D01*
X104906197Y-90350316D01*
X104882993Y-90344504D01*
X104860471Y-90336446D01*
X104838847Y-90326218D01*
X104818330Y-90313921D01*
X104799117Y-90299671D01*
X104781393Y-90283607D01*
X104765329Y-90265883D01*
X104751079Y-90246670D01*
X104738782Y-90226153D01*
X104728554Y-90204529D01*
X104720496Y-90182007D01*
X104714684Y-90158803D01*
X104711174Y-90135142D01*
X104710000Y-90111250D01*
X104710000Y-89623750D01*
X104711174Y-89599858D01*
X104714684Y-89576197D01*
X104720496Y-89552993D01*
X104728554Y-89530471D01*
X104738782Y-89508847D01*
X104751079Y-89488330D01*
X104765329Y-89469117D01*
X104781393Y-89451393D01*
X104799117Y-89435329D01*
X104818330Y-89421079D01*
X104838847Y-89408782D01*
X104860471Y-89398554D01*
X104882993Y-89390496D01*
X104906197Y-89384684D01*
X104929858Y-89381174D01*
X104953750Y-89380000D01*
X105866250Y-89380000D01*
X105890142Y-89381174D01*
X105890142Y-89381174D01*
G37*
D15*
X105410000Y-89867500D03*
D11*
G36*
X116431142Y-99414174D02*
G01*
X116454803Y-99417684D01*
X116478007Y-99423496D01*
X116500529Y-99431554D01*
X116522153Y-99441782D01*
X116542670Y-99454079D01*
X116561883Y-99468329D01*
X116579607Y-99484393D01*
X116595671Y-99502117D01*
X116609921Y-99521330D01*
X116622218Y-99541847D01*
X116632446Y-99563471D01*
X116640504Y-99585993D01*
X116646316Y-99609197D01*
X116649826Y-99632858D01*
X116651000Y-99656750D01*
X116651000Y-100144250D01*
X116649826Y-100168142D01*
X116646316Y-100191803D01*
X116640504Y-100215007D01*
X116632446Y-100237529D01*
X116622218Y-100259153D01*
X116609921Y-100279670D01*
X116595671Y-100298883D01*
X116579607Y-100316607D01*
X116561883Y-100332671D01*
X116542670Y-100346921D01*
X116522153Y-100359218D01*
X116500529Y-100369446D01*
X116478007Y-100377504D01*
X116454803Y-100383316D01*
X116431142Y-100386826D01*
X116407250Y-100388000D01*
X115494750Y-100388000D01*
X115470858Y-100386826D01*
X115447197Y-100383316D01*
X115423993Y-100377504D01*
X115401471Y-100369446D01*
X115379847Y-100359218D01*
X115359330Y-100346921D01*
X115340117Y-100332671D01*
X115322393Y-100316607D01*
X115306329Y-100298883D01*
X115292079Y-100279670D01*
X115279782Y-100259153D01*
X115269554Y-100237529D01*
X115261496Y-100215007D01*
X115255684Y-100191803D01*
X115252174Y-100168142D01*
X115251000Y-100144250D01*
X115251000Y-99656750D01*
X115252174Y-99632858D01*
X115255684Y-99609197D01*
X115261496Y-99585993D01*
X115269554Y-99563471D01*
X115279782Y-99541847D01*
X115292079Y-99521330D01*
X115306329Y-99502117D01*
X115322393Y-99484393D01*
X115340117Y-99468329D01*
X115359330Y-99454079D01*
X115379847Y-99441782D01*
X115401471Y-99431554D01*
X115423993Y-99423496D01*
X115447197Y-99417684D01*
X115470858Y-99414174D01*
X115494750Y-99413000D01*
X116407250Y-99413000D01*
X116431142Y-99414174D01*
X116431142Y-99414174D01*
G37*
D15*
X115951000Y-99900500D03*
D11*
G36*
X116431142Y-101289174D02*
G01*
X116454803Y-101292684D01*
X116478007Y-101298496D01*
X116500529Y-101306554D01*
X116522153Y-101316782D01*
X116542670Y-101329079D01*
X116561883Y-101343329D01*
X116579607Y-101359393D01*
X116595671Y-101377117D01*
X116609921Y-101396330D01*
X116622218Y-101416847D01*
X116632446Y-101438471D01*
X116640504Y-101460993D01*
X116646316Y-101484197D01*
X116649826Y-101507858D01*
X116651000Y-101531750D01*
X116651000Y-102019250D01*
X116649826Y-102043142D01*
X116646316Y-102066803D01*
X116640504Y-102090007D01*
X116632446Y-102112529D01*
X116622218Y-102134153D01*
X116609921Y-102154670D01*
X116595671Y-102173883D01*
X116579607Y-102191607D01*
X116561883Y-102207671D01*
X116542670Y-102221921D01*
X116522153Y-102234218D01*
X116500529Y-102244446D01*
X116478007Y-102252504D01*
X116454803Y-102258316D01*
X116431142Y-102261826D01*
X116407250Y-102263000D01*
X115494750Y-102263000D01*
X115470858Y-102261826D01*
X115447197Y-102258316D01*
X115423993Y-102252504D01*
X115401471Y-102244446D01*
X115379847Y-102234218D01*
X115359330Y-102221921D01*
X115340117Y-102207671D01*
X115322393Y-102191607D01*
X115306329Y-102173883D01*
X115292079Y-102154670D01*
X115279782Y-102134153D01*
X115269554Y-102112529D01*
X115261496Y-102090007D01*
X115255684Y-102066803D01*
X115252174Y-102043142D01*
X115251000Y-102019250D01*
X115251000Y-101531750D01*
X115252174Y-101507858D01*
X115255684Y-101484197D01*
X115261496Y-101460993D01*
X115269554Y-101438471D01*
X115279782Y-101416847D01*
X115292079Y-101396330D01*
X115306329Y-101377117D01*
X115322393Y-101359393D01*
X115340117Y-101343329D01*
X115359330Y-101329079D01*
X115379847Y-101316782D01*
X115401471Y-101306554D01*
X115423993Y-101298496D01*
X115447197Y-101292684D01*
X115470858Y-101289174D01*
X115494750Y-101288000D01*
X116407250Y-101288000D01*
X116431142Y-101289174D01*
X116431142Y-101289174D01*
G37*
D15*
X115951000Y-101775500D03*
D11*
G36*
X133454505Y-76771204D02*
G01*
X133478773Y-76774804D01*
X133502572Y-76780765D01*
X133525671Y-76789030D01*
X133547850Y-76799520D01*
X133568893Y-76812132D01*
X133588599Y-76826747D01*
X133606777Y-76843223D01*
X133623253Y-76861401D01*
X133637868Y-76881107D01*
X133650480Y-76902150D01*
X133660970Y-76924329D01*
X133669235Y-76947428D01*
X133675196Y-76971227D01*
X133678796Y-76995495D01*
X133680000Y-77019999D01*
X133680000Y-77920001D01*
X133678796Y-77944505D01*
X133675196Y-77968773D01*
X133669235Y-77992572D01*
X133660970Y-78015671D01*
X133650480Y-78037850D01*
X133637868Y-78058893D01*
X133623253Y-78078599D01*
X133606777Y-78096777D01*
X133588599Y-78113253D01*
X133568893Y-78127868D01*
X133547850Y-78140480D01*
X133525671Y-78150970D01*
X133502572Y-78159235D01*
X133478773Y-78165196D01*
X133454505Y-78168796D01*
X133430001Y-78170000D01*
X132779999Y-78170000D01*
X132755495Y-78168796D01*
X132731227Y-78165196D01*
X132707428Y-78159235D01*
X132684329Y-78150970D01*
X132662150Y-78140480D01*
X132641107Y-78127868D01*
X132621401Y-78113253D01*
X132603223Y-78096777D01*
X132586747Y-78078599D01*
X132572132Y-78058893D01*
X132559520Y-78037850D01*
X132549030Y-78015671D01*
X132540765Y-77992572D01*
X132534804Y-77968773D01*
X132531204Y-77944505D01*
X132530000Y-77920001D01*
X132530000Y-77019999D01*
X132531204Y-76995495D01*
X132534804Y-76971227D01*
X132540765Y-76947428D01*
X132549030Y-76924329D01*
X132559520Y-76902150D01*
X132572132Y-76881107D01*
X132586747Y-76861401D01*
X132603223Y-76843223D01*
X132621401Y-76826747D01*
X132641107Y-76812132D01*
X132662150Y-76799520D01*
X132684329Y-76789030D01*
X132707428Y-76780765D01*
X132731227Y-76774804D01*
X132755495Y-76771204D01*
X132779999Y-76770000D01*
X133430001Y-76770000D01*
X133454505Y-76771204D01*
X133454505Y-76771204D01*
G37*
D12*
X133105000Y-77470000D03*
D11*
G36*
X131404505Y-76771204D02*
G01*
X131428773Y-76774804D01*
X131452572Y-76780765D01*
X131475671Y-76789030D01*
X131497850Y-76799520D01*
X131518893Y-76812132D01*
X131538599Y-76826747D01*
X131556777Y-76843223D01*
X131573253Y-76861401D01*
X131587868Y-76881107D01*
X131600480Y-76902150D01*
X131610970Y-76924329D01*
X131619235Y-76947428D01*
X131625196Y-76971227D01*
X131628796Y-76995495D01*
X131630000Y-77019999D01*
X131630000Y-77920001D01*
X131628796Y-77944505D01*
X131625196Y-77968773D01*
X131619235Y-77992572D01*
X131610970Y-78015671D01*
X131600480Y-78037850D01*
X131587868Y-78058893D01*
X131573253Y-78078599D01*
X131556777Y-78096777D01*
X131538599Y-78113253D01*
X131518893Y-78127868D01*
X131497850Y-78140480D01*
X131475671Y-78150970D01*
X131452572Y-78159235D01*
X131428773Y-78165196D01*
X131404505Y-78168796D01*
X131380001Y-78170000D01*
X130729999Y-78170000D01*
X130705495Y-78168796D01*
X130681227Y-78165196D01*
X130657428Y-78159235D01*
X130634329Y-78150970D01*
X130612150Y-78140480D01*
X130591107Y-78127868D01*
X130571401Y-78113253D01*
X130553223Y-78096777D01*
X130536747Y-78078599D01*
X130522132Y-78058893D01*
X130509520Y-78037850D01*
X130499030Y-78015671D01*
X130490765Y-77992572D01*
X130484804Y-77968773D01*
X130481204Y-77944505D01*
X130480000Y-77920001D01*
X130480000Y-77019999D01*
X130481204Y-76995495D01*
X130484804Y-76971227D01*
X130490765Y-76947428D01*
X130499030Y-76924329D01*
X130509520Y-76902150D01*
X130522132Y-76881107D01*
X130536747Y-76861401D01*
X130553223Y-76843223D01*
X130571401Y-76826747D01*
X130591107Y-76812132D01*
X130612150Y-76799520D01*
X130634329Y-76789030D01*
X130657428Y-76780765D01*
X130681227Y-76774804D01*
X130705495Y-76771204D01*
X130729999Y-76770000D01*
X131380001Y-76770000D01*
X131404505Y-76771204D01*
X131404505Y-76771204D01*
G37*
D12*
X131055000Y-77470000D03*
D11*
G36*
X105884505Y-95701204D02*
G01*
X105908773Y-95704804D01*
X105932572Y-95710765D01*
X105955671Y-95719030D01*
X105977850Y-95729520D01*
X105998893Y-95742132D01*
X106018599Y-95756747D01*
X106036777Y-95773223D01*
X106053253Y-95791401D01*
X106067868Y-95811107D01*
X106080480Y-95832150D01*
X106090970Y-95854329D01*
X106099235Y-95877428D01*
X106105196Y-95901227D01*
X106108796Y-95925495D01*
X106110000Y-95949999D01*
X106110000Y-96600001D01*
X106108796Y-96624505D01*
X106105196Y-96648773D01*
X106099235Y-96672572D01*
X106090970Y-96695671D01*
X106080480Y-96717850D01*
X106067868Y-96738893D01*
X106053253Y-96758599D01*
X106036777Y-96776777D01*
X106018599Y-96793253D01*
X105998893Y-96807868D01*
X105977850Y-96820480D01*
X105955671Y-96830970D01*
X105932572Y-96839235D01*
X105908773Y-96845196D01*
X105884505Y-96848796D01*
X105860001Y-96850000D01*
X104959999Y-96850000D01*
X104935495Y-96848796D01*
X104911227Y-96845196D01*
X104887428Y-96839235D01*
X104864329Y-96830970D01*
X104842150Y-96820480D01*
X104821107Y-96807868D01*
X104801401Y-96793253D01*
X104783223Y-96776777D01*
X104766747Y-96758599D01*
X104752132Y-96738893D01*
X104739520Y-96717850D01*
X104729030Y-96695671D01*
X104720765Y-96672572D01*
X104714804Y-96648773D01*
X104711204Y-96624505D01*
X104710000Y-96600001D01*
X104710000Y-95949999D01*
X104711204Y-95925495D01*
X104714804Y-95901227D01*
X104720765Y-95877428D01*
X104729030Y-95854329D01*
X104739520Y-95832150D01*
X104752132Y-95811107D01*
X104766747Y-95791401D01*
X104783223Y-95773223D01*
X104801401Y-95756747D01*
X104821107Y-95742132D01*
X104842150Y-95729520D01*
X104864329Y-95719030D01*
X104887428Y-95710765D01*
X104911227Y-95704804D01*
X104935495Y-95701204D01*
X104959999Y-95700000D01*
X105860001Y-95700000D01*
X105884505Y-95701204D01*
X105884505Y-95701204D01*
G37*
D12*
X105410000Y-96275000D03*
D11*
G36*
X105884505Y-93651204D02*
G01*
X105908773Y-93654804D01*
X105932572Y-93660765D01*
X105955671Y-93669030D01*
X105977850Y-93679520D01*
X105998893Y-93692132D01*
X106018599Y-93706747D01*
X106036777Y-93723223D01*
X106053253Y-93741401D01*
X106067868Y-93761107D01*
X106080480Y-93782150D01*
X106090970Y-93804329D01*
X106099235Y-93827428D01*
X106105196Y-93851227D01*
X106108796Y-93875495D01*
X106110000Y-93899999D01*
X106110000Y-94550001D01*
X106108796Y-94574505D01*
X106105196Y-94598773D01*
X106099235Y-94622572D01*
X106090970Y-94645671D01*
X106080480Y-94667850D01*
X106067868Y-94688893D01*
X106053253Y-94708599D01*
X106036777Y-94726777D01*
X106018599Y-94743253D01*
X105998893Y-94757868D01*
X105977850Y-94770480D01*
X105955671Y-94780970D01*
X105932572Y-94789235D01*
X105908773Y-94795196D01*
X105884505Y-94798796D01*
X105860001Y-94800000D01*
X104959999Y-94800000D01*
X104935495Y-94798796D01*
X104911227Y-94795196D01*
X104887428Y-94789235D01*
X104864329Y-94780970D01*
X104842150Y-94770480D01*
X104821107Y-94757868D01*
X104801401Y-94743253D01*
X104783223Y-94726777D01*
X104766747Y-94708599D01*
X104752132Y-94688893D01*
X104739520Y-94667850D01*
X104729030Y-94645671D01*
X104720765Y-94622572D01*
X104714804Y-94598773D01*
X104711204Y-94574505D01*
X104710000Y-94550001D01*
X104710000Y-93899999D01*
X104711204Y-93875495D01*
X104714804Y-93851227D01*
X104720765Y-93827428D01*
X104729030Y-93804329D01*
X104739520Y-93782150D01*
X104752132Y-93761107D01*
X104766747Y-93741401D01*
X104783223Y-93723223D01*
X104801401Y-93706747D01*
X104821107Y-93692132D01*
X104842150Y-93679520D01*
X104864329Y-93669030D01*
X104887428Y-93660765D01*
X104911227Y-93654804D01*
X104935495Y-93651204D01*
X104959999Y-93650000D01*
X105860001Y-93650000D01*
X105884505Y-93651204D01*
X105884505Y-93651204D01*
G37*
D12*
X105410000Y-94225000D03*
D11*
G36*
X109324505Y-100901204D02*
G01*
X109348773Y-100904804D01*
X109372572Y-100910765D01*
X109395671Y-100919030D01*
X109417850Y-100929520D01*
X109438893Y-100942132D01*
X109458599Y-100956747D01*
X109476777Y-100973223D01*
X109493253Y-100991401D01*
X109507868Y-101011107D01*
X109520480Y-101032150D01*
X109530970Y-101054329D01*
X109539235Y-101077428D01*
X109545196Y-101101227D01*
X109548796Y-101125495D01*
X109550000Y-101149999D01*
X109550000Y-102050001D01*
X109548796Y-102074505D01*
X109545196Y-102098773D01*
X109539235Y-102122572D01*
X109530970Y-102145671D01*
X109520480Y-102167850D01*
X109507868Y-102188893D01*
X109493253Y-102208599D01*
X109476777Y-102226777D01*
X109458599Y-102243253D01*
X109438893Y-102257868D01*
X109417850Y-102270480D01*
X109395671Y-102280970D01*
X109372572Y-102289235D01*
X109348773Y-102295196D01*
X109324505Y-102298796D01*
X109300001Y-102300000D01*
X108649999Y-102300000D01*
X108625495Y-102298796D01*
X108601227Y-102295196D01*
X108577428Y-102289235D01*
X108554329Y-102280970D01*
X108532150Y-102270480D01*
X108511107Y-102257868D01*
X108491401Y-102243253D01*
X108473223Y-102226777D01*
X108456747Y-102208599D01*
X108442132Y-102188893D01*
X108429520Y-102167850D01*
X108419030Y-102145671D01*
X108410765Y-102122572D01*
X108404804Y-102098773D01*
X108401204Y-102074505D01*
X108400000Y-102050001D01*
X108400000Y-101149999D01*
X108401204Y-101125495D01*
X108404804Y-101101227D01*
X108410765Y-101077428D01*
X108419030Y-101054329D01*
X108429520Y-101032150D01*
X108442132Y-101011107D01*
X108456747Y-100991401D01*
X108473223Y-100973223D01*
X108491401Y-100956747D01*
X108511107Y-100942132D01*
X108532150Y-100929520D01*
X108554329Y-100919030D01*
X108577428Y-100910765D01*
X108601227Y-100904804D01*
X108625495Y-100901204D01*
X108649999Y-100900000D01*
X109300001Y-100900000D01*
X109324505Y-100901204D01*
X109324505Y-100901204D01*
G37*
D12*
X108975000Y-101600000D03*
D11*
G36*
X107274505Y-100901204D02*
G01*
X107298773Y-100904804D01*
X107322572Y-100910765D01*
X107345671Y-100919030D01*
X107367850Y-100929520D01*
X107388893Y-100942132D01*
X107408599Y-100956747D01*
X107426777Y-100973223D01*
X107443253Y-100991401D01*
X107457868Y-101011107D01*
X107470480Y-101032150D01*
X107480970Y-101054329D01*
X107489235Y-101077428D01*
X107495196Y-101101227D01*
X107498796Y-101125495D01*
X107500000Y-101149999D01*
X107500000Y-102050001D01*
X107498796Y-102074505D01*
X107495196Y-102098773D01*
X107489235Y-102122572D01*
X107480970Y-102145671D01*
X107470480Y-102167850D01*
X107457868Y-102188893D01*
X107443253Y-102208599D01*
X107426777Y-102226777D01*
X107408599Y-102243253D01*
X107388893Y-102257868D01*
X107367850Y-102270480D01*
X107345671Y-102280970D01*
X107322572Y-102289235D01*
X107298773Y-102295196D01*
X107274505Y-102298796D01*
X107250001Y-102300000D01*
X106599999Y-102300000D01*
X106575495Y-102298796D01*
X106551227Y-102295196D01*
X106527428Y-102289235D01*
X106504329Y-102280970D01*
X106482150Y-102270480D01*
X106461107Y-102257868D01*
X106441401Y-102243253D01*
X106423223Y-102226777D01*
X106406747Y-102208599D01*
X106392132Y-102188893D01*
X106379520Y-102167850D01*
X106369030Y-102145671D01*
X106360765Y-102122572D01*
X106354804Y-102098773D01*
X106351204Y-102074505D01*
X106350000Y-102050001D01*
X106350000Y-101149999D01*
X106351204Y-101125495D01*
X106354804Y-101101227D01*
X106360765Y-101077428D01*
X106369030Y-101054329D01*
X106379520Y-101032150D01*
X106392132Y-101011107D01*
X106406747Y-100991401D01*
X106423223Y-100973223D01*
X106441401Y-100956747D01*
X106461107Y-100942132D01*
X106482150Y-100929520D01*
X106504329Y-100919030D01*
X106527428Y-100910765D01*
X106551227Y-100904804D01*
X106575495Y-100901204D01*
X106599999Y-100900000D01*
X107250001Y-100900000D01*
X107274505Y-100901204D01*
X107274505Y-100901204D01*
G37*
D12*
X106925000Y-101600000D03*
D11*
G36*
X113769505Y-100901204D02*
G01*
X113793773Y-100904804D01*
X113817572Y-100910765D01*
X113840671Y-100919030D01*
X113862850Y-100929520D01*
X113883893Y-100942132D01*
X113903599Y-100956747D01*
X113921777Y-100973223D01*
X113938253Y-100991401D01*
X113952868Y-101011107D01*
X113965480Y-101032150D01*
X113975970Y-101054329D01*
X113984235Y-101077428D01*
X113990196Y-101101227D01*
X113993796Y-101125495D01*
X113995000Y-101149999D01*
X113995000Y-102050001D01*
X113993796Y-102074505D01*
X113990196Y-102098773D01*
X113984235Y-102122572D01*
X113975970Y-102145671D01*
X113965480Y-102167850D01*
X113952868Y-102188893D01*
X113938253Y-102208599D01*
X113921777Y-102226777D01*
X113903599Y-102243253D01*
X113883893Y-102257868D01*
X113862850Y-102270480D01*
X113840671Y-102280970D01*
X113817572Y-102289235D01*
X113793773Y-102295196D01*
X113769505Y-102298796D01*
X113745001Y-102300000D01*
X113094999Y-102300000D01*
X113070495Y-102298796D01*
X113046227Y-102295196D01*
X113022428Y-102289235D01*
X112999329Y-102280970D01*
X112977150Y-102270480D01*
X112956107Y-102257868D01*
X112936401Y-102243253D01*
X112918223Y-102226777D01*
X112901747Y-102208599D01*
X112887132Y-102188893D01*
X112874520Y-102167850D01*
X112864030Y-102145671D01*
X112855765Y-102122572D01*
X112849804Y-102098773D01*
X112846204Y-102074505D01*
X112845000Y-102050001D01*
X112845000Y-101149999D01*
X112846204Y-101125495D01*
X112849804Y-101101227D01*
X112855765Y-101077428D01*
X112864030Y-101054329D01*
X112874520Y-101032150D01*
X112887132Y-101011107D01*
X112901747Y-100991401D01*
X112918223Y-100973223D01*
X112936401Y-100956747D01*
X112956107Y-100942132D01*
X112977150Y-100929520D01*
X112999329Y-100919030D01*
X113022428Y-100910765D01*
X113046227Y-100904804D01*
X113070495Y-100901204D01*
X113094999Y-100900000D01*
X113745001Y-100900000D01*
X113769505Y-100901204D01*
X113769505Y-100901204D01*
G37*
D12*
X113420000Y-101600000D03*
D11*
G36*
X111719505Y-100901204D02*
G01*
X111743773Y-100904804D01*
X111767572Y-100910765D01*
X111790671Y-100919030D01*
X111812850Y-100929520D01*
X111833893Y-100942132D01*
X111853599Y-100956747D01*
X111871777Y-100973223D01*
X111888253Y-100991401D01*
X111902868Y-101011107D01*
X111915480Y-101032150D01*
X111925970Y-101054329D01*
X111934235Y-101077428D01*
X111940196Y-101101227D01*
X111943796Y-101125495D01*
X111945000Y-101149999D01*
X111945000Y-102050001D01*
X111943796Y-102074505D01*
X111940196Y-102098773D01*
X111934235Y-102122572D01*
X111925970Y-102145671D01*
X111915480Y-102167850D01*
X111902868Y-102188893D01*
X111888253Y-102208599D01*
X111871777Y-102226777D01*
X111853599Y-102243253D01*
X111833893Y-102257868D01*
X111812850Y-102270480D01*
X111790671Y-102280970D01*
X111767572Y-102289235D01*
X111743773Y-102295196D01*
X111719505Y-102298796D01*
X111695001Y-102300000D01*
X111044999Y-102300000D01*
X111020495Y-102298796D01*
X110996227Y-102295196D01*
X110972428Y-102289235D01*
X110949329Y-102280970D01*
X110927150Y-102270480D01*
X110906107Y-102257868D01*
X110886401Y-102243253D01*
X110868223Y-102226777D01*
X110851747Y-102208599D01*
X110837132Y-102188893D01*
X110824520Y-102167850D01*
X110814030Y-102145671D01*
X110805765Y-102122572D01*
X110799804Y-102098773D01*
X110796204Y-102074505D01*
X110795000Y-102050001D01*
X110795000Y-101149999D01*
X110796204Y-101125495D01*
X110799804Y-101101227D01*
X110805765Y-101077428D01*
X110814030Y-101054329D01*
X110824520Y-101032150D01*
X110837132Y-101011107D01*
X110851747Y-100991401D01*
X110868223Y-100973223D01*
X110886401Y-100956747D01*
X110906107Y-100942132D01*
X110927150Y-100929520D01*
X110949329Y-100919030D01*
X110972428Y-100910765D01*
X110996227Y-100904804D01*
X111020495Y-100901204D01*
X111044999Y-100900000D01*
X111695001Y-100900000D01*
X111719505Y-100901204D01*
X111719505Y-100901204D01*
G37*
D12*
X111370000Y-101600000D03*
D11*
G36*
X116425505Y-97352204D02*
G01*
X116449773Y-97355804D01*
X116473572Y-97361765D01*
X116496671Y-97370030D01*
X116518850Y-97380520D01*
X116539893Y-97393132D01*
X116559599Y-97407747D01*
X116577777Y-97424223D01*
X116594253Y-97442401D01*
X116608868Y-97462107D01*
X116621480Y-97483150D01*
X116631970Y-97505329D01*
X116640235Y-97528428D01*
X116646196Y-97552227D01*
X116649796Y-97576495D01*
X116651000Y-97600999D01*
X116651000Y-98251001D01*
X116649796Y-98275505D01*
X116646196Y-98299773D01*
X116640235Y-98323572D01*
X116631970Y-98346671D01*
X116621480Y-98368850D01*
X116608868Y-98389893D01*
X116594253Y-98409599D01*
X116577777Y-98427777D01*
X116559599Y-98444253D01*
X116539893Y-98458868D01*
X116518850Y-98471480D01*
X116496671Y-98481970D01*
X116473572Y-98490235D01*
X116449773Y-98496196D01*
X116425505Y-98499796D01*
X116401001Y-98501000D01*
X115500999Y-98501000D01*
X115476495Y-98499796D01*
X115452227Y-98496196D01*
X115428428Y-98490235D01*
X115405329Y-98481970D01*
X115383150Y-98471480D01*
X115362107Y-98458868D01*
X115342401Y-98444253D01*
X115324223Y-98427777D01*
X115307747Y-98409599D01*
X115293132Y-98389893D01*
X115280520Y-98368850D01*
X115270030Y-98346671D01*
X115261765Y-98323572D01*
X115255804Y-98299773D01*
X115252204Y-98275505D01*
X115251000Y-98251001D01*
X115251000Y-97600999D01*
X115252204Y-97576495D01*
X115255804Y-97552227D01*
X115261765Y-97528428D01*
X115270030Y-97505329D01*
X115280520Y-97483150D01*
X115293132Y-97462107D01*
X115307747Y-97442401D01*
X115324223Y-97424223D01*
X115342401Y-97407747D01*
X115362107Y-97393132D01*
X115383150Y-97380520D01*
X115405329Y-97370030D01*
X115428428Y-97361765D01*
X115452227Y-97355804D01*
X115476495Y-97352204D01*
X115500999Y-97351000D01*
X116401001Y-97351000D01*
X116425505Y-97352204D01*
X116425505Y-97352204D01*
G37*
D12*
X115951000Y-97926000D03*
D11*
G36*
X116425505Y-95302204D02*
G01*
X116449773Y-95305804D01*
X116473572Y-95311765D01*
X116496671Y-95320030D01*
X116518850Y-95330520D01*
X116539893Y-95343132D01*
X116559599Y-95357747D01*
X116577777Y-95374223D01*
X116594253Y-95392401D01*
X116608868Y-95412107D01*
X116621480Y-95433150D01*
X116631970Y-95455329D01*
X116640235Y-95478428D01*
X116646196Y-95502227D01*
X116649796Y-95526495D01*
X116651000Y-95550999D01*
X116651000Y-96201001D01*
X116649796Y-96225505D01*
X116646196Y-96249773D01*
X116640235Y-96273572D01*
X116631970Y-96296671D01*
X116621480Y-96318850D01*
X116608868Y-96339893D01*
X116594253Y-96359599D01*
X116577777Y-96377777D01*
X116559599Y-96394253D01*
X116539893Y-96408868D01*
X116518850Y-96421480D01*
X116496671Y-96431970D01*
X116473572Y-96440235D01*
X116449773Y-96446196D01*
X116425505Y-96449796D01*
X116401001Y-96451000D01*
X115500999Y-96451000D01*
X115476495Y-96449796D01*
X115452227Y-96446196D01*
X115428428Y-96440235D01*
X115405329Y-96431970D01*
X115383150Y-96421480D01*
X115362107Y-96408868D01*
X115342401Y-96394253D01*
X115324223Y-96377777D01*
X115307747Y-96359599D01*
X115293132Y-96339893D01*
X115280520Y-96318850D01*
X115270030Y-96296671D01*
X115261765Y-96273572D01*
X115255804Y-96249773D01*
X115252204Y-96225505D01*
X115251000Y-96201001D01*
X115251000Y-95550999D01*
X115252204Y-95526495D01*
X115255804Y-95502227D01*
X115261765Y-95478428D01*
X115270030Y-95455329D01*
X115280520Y-95433150D01*
X115293132Y-95412107D01*
X115307747Y-95392401D01*
X115324223Y-95374223D01*
X115342401Y-95357747D01*
X115362107Y-95343132D01*
X115383150Y-95330520D01*
X115405329Y-95320030D01*
X115428428Y-95311765D01*
X115452227Y-95305804D01*
X115476495Y-95302204D01*
X115500999Y-95301000D01*
X116401001Y-95301000D01*
X116425505Y-95302204D01*
X116425505Y-95302204D01*
G37*
D12*
X115951000Y-95876000D03*
D11*
G36*
X108749703Y-89580722D02*
G01*
X108764264Y-89582882D01*
X108778543Y-89586459D01*
X108792403Y-89591418D01*
X108805710Y-89597712D01*
X108818336Y-89605280D01*
X108830159Y-89614048D01*
X108841066Y-89623934D01*
X108850952Y-89634841D01*
X108859720Y-89646664D01*
X108867288Y-89659290D01*
X108873582Y-89672597D01*
X108878541Y-89686457D01*
X108882118Y-89700736D01*
X108884278Y-89715297D01*
X108885000Y-89730000D01*
X108885000Y-91030000D01*
X108884278Y-91044703D01*
X108882118Y-91059264D01*
X108878541Y-91073543D01*
X108873582Y-91087403D01*
X108867288Y-91100710D01*
X108859720Y-91113336D01*
X108850952Y-91125159D01*
X108841066Y-91136066D01*
X108830159Y-91145952D01*
X108818336Y-91154720D01*
X108805710Y-91162288D01*
X108792403Y-91168582D01*
X108778543Y-91173541D01*
X108764264Y-91177118D01*
X108749703Y-91179278D01*
X108735000Y-91180000D01*
X108435000Y-91180000D01*
X108420297Y-91179278D01*
X108405736Y-91177118D01*
X108391457Y-91173541D01*
X108377597Y-91168582D01*
X108364290Y-91162288D01*
X108351664Y-91154720D01*
X108339841Y-91145952D01*
X108328934Y-91136066D01*
X108319048Y-91125159D01*
X108310280Y-91113336D01*
X108302712Y-91100710D01*
X108296418Y-91087403D01*
X108291459Y-91073543D01*
X108287882Y-91059264D01*
X108285722Y-91044703D01*
X108285000Y-91030000D01*
X108285000Y-89730000D01*
X108285722Y-89715297D01*
X108287882Y-89700736D01*
X108291459Y-89686457D01*
X108296418Y-89672597D01*
X108302712Y-89659290D01*
X108310280Y-89646664D01*
X108319048Y-89634841D01*
X108328934Y-89623934D01*
X108339841Y-89614048D01*
X108351664Y-89605280D01*
X108364290Y-89597712D01*
X108377597Y-89591418D01*
X108391457Y-89586459D01*
X108405736Y-89582882D01*
X108420297Y-89580722D01*
X108435000Y-89580000D01*
X108735000Y-89580000D01*
X108749703Y-89580722D01*
X108749703Y-89580722D01*
G37*
D16*
X108585000Y-90380000D03*
D11*
G36*
X110019703Y-89580722D02*
G01*
X110034264Y-89582882D01*
X110048543Y-89586459D01*
X110062403Y-89591418D01*
X110075710Y-89597712D01*
X110088336Y-89605280D01*
X110100159Y-89614048D01*
X110111066Y-89623934D01*
X110120952Y-89634841D01*
X110129720Y-89646664D01*
X110137288Y-89659290D01*
X110143582Y-89672597D01*
X110148541Y-89686457D01*
X110152118Y-89700736D01*
X110154278Y-89715297D01*
X110155000Y-89730000D01*
X110155000Y-91030000D01*
X110154278Y-91044703D01*
X110152118Y-91059264D01*
X110148541Y-91073543D01*
X110143582Y-91087403D01*
X110137288Y-91100710D01*
X110129720Y-91113336D01*
X110120952Y-91125159D01*
X110111066Y-91136066D01*
X110100159Y-91145952D01*
X110088336Y-91154720D01*
X110075710Y-91162288D01*
X110062403Y-91168582D01*
X110048543Y-91173541D01*
X110034264Y-91177118D01*
X110019703Y-91179278D01*
X110005000Y-91180000D01*
X109705000Y-91180000D01*
X109690297Y-91179278D01*
X109675736Y-91177118D01*
X109661457Y-91173541D01*
X109647597Y-91168582D01*
X109634290Y-91162288D01*
X109621664Y-91154720D01*
X109609841Y-91145952D01*
X109598934Y-91136066D01*
X109589048Y-91125159D01*
X109580280Y-91113336D01*
X109572712Y-91100710D01*
X109566418Y-91087403D01*
X109561459Y-91073543D01*
X109557882Y-91059264D01*
X109555722Y-91044703D01*
X109555000Y-91030000D01*
X109555000Y-89730000D01*
X109555722Y-89715297D01*
X109557882Y-89700736D01*
X109561459Y-89686457D01*
X109566418Y-89672597D01*
X109572712Y-89659290D01*
X109580280Y-89646664D01*
X109589048Y-89634841D01*
X109598934Y-89623934D01*
X109609841Y-89614048D01*
X109621664Y-89605280D01*
X109634290Y-89597712D01*
X109647597Y-89591418D01*
X109661457Y-89586459D01*
X109675736Y-89582882D01*
X109690297Y-89580722D01*
X109705000Y-89580000D01*
X110005000Y-89580000D01*
X110019703Y-89580722D01*
X110019703Y-89580722D01*
G37*
D16*
X109855000Y-90380000D03*
D11*
G36*
X111289703Y-89580722D02*
G01*
X111304264Y-89582882D01*
X111318543Y-89586459D01*
X111332403Y-89591418D01*
X111345710Y-89597712D01*
X111358336Y-89605280D01*
X111370159Y-89614048D01*
X111381066Y-89623934D01*
X111390952Y-89634841D01*
X111399720Y-89646664D01*
X111407288Y-89659290D01*
X111413582Y-89672597D01*
X111418541Y-89686457D01*
X111422118Y-89700736D01*
X111424278Y-89715297D01*
X111425000Y-89730000D01*
X111425000Y-91030000D01*
X111424278Y-91044703D01*
X111422118Y-91059264D01*
X111418541Y-91073543D01*
X111413582Y-91087403D01*
X111407288Y-91100710D01*
X111399720Y-91113336D01*
X111390952Y-91125159D01*
X111381066Y-91136066D01*
X111370159Y-91145952D01*
X111358336Y-91154720D01*
X111345710Y-91162288D01*
X111332403Y-91168582D01*
X111318543Y-91173541D01*
X111304264Y-91177118D01*
X111289703Y-91179278D01*
X111275000Y-91180000D01*
X110975000Y-91180000D01*
X110960297Y-91179278D01*
X110945736Y-91177118D01*
X110931457Y-91173541D01*
X110917597Y-91168582D01*
X110904290Y-91162288D01*
X110891664Y-91154720D01*
X110879841Y-91145952D01*
X110868934Y-91136066D01*
X110859048Y-91125159D01*
X110850280Y-91113336D01*
X110842712Y-91100710D01*
X110836418Y-91087403D01*
X110831459Y-91073543D01*
X110827882Y-91059264D01*
X110825722Y-91044703D01*
X110825000Y-91030000D01*
X110825000Y-89730000D01*
X110825722Y-89715297D01*
X110827882Y-89700736D01*
X110831459Y-89686457D01*
X110836418Y-89672597D01*
X110842712Y-89659290D01*
X110850280Y-89646664D01*
X110859048Y-89634841D01*
X110868934Y-89623934D01*
X110879841Y-89614048D01*
X110891664Y-89605280D01*
X110904290Y-89597712D01*
X110917597Y-89591418D01*
X110931457Y-89586459D01*
X110945736Y-89582882D01*
X110960297Y-89580722D01*
X110975000Y-89580000D01*
X111275000Y-89580000D01*
X111289703Y-89580722D01*
X111289703Y-89580722D01*
G37*
D16*
X111125000Y-90380000D03*
D11*
G36*
X112559703Y-89580722D02*
G01*
X112574264Y-89582882D01*
X112588543Y-89586459D01*
X112602403Y-89591418D01*
X112615710Y-89597712D01*
X112628336Y-89605280D01*
X112640159Y-89614048D01*
X112651066Y-89623934D01*
X112660952Y-89634841D01*
X112669720Y-89646664D01*
X112677288Y-89659290D01*
X112683582Y-89672597D01*
X112688541Y-89686457D01*
X112692118Y-89700736D01*
X112694278Y-89715297D01*
X112695000Y-89730000D01*
X112695000Y-91030000D01*
X112694278Y-91044703D01*
X112692118Y-91059264D01*
X112688541Y-91073543D01*
X112683582Y-91087403D01*
X112677288Y-91100710D01*
X112669720Y-91113336D01*
X112660952Y-91125159D01*
X112651066Y-91136066D01*
X112640159Y-91145952D01*
X112628336Y-91154720D01*
X112615710Y-91162288D01*
X112602403Y-91168582D01*
X112588543Y-91173541D01*
X112574264Y-91177118D01*
X112559703Y-91179278D01*
X112545000Y-91180000D01*
X112245000Y-91180000D01*
X112230297Y-91179278D01*
X112215736Y-91177118D01*
X112201457Y-91173541D01*
X112187597Y-91168582D01*
X112174290Y-91162288D01*
X112161664Y-91154720D01*
X112149841Y-91145952D01*
X112138934Y-91136066D01*
X112129048Y-91125159D01*
X112120280Y-91113336D01*
X112112712Y-91100710D01*
X112106418Y-91087403D01*
X112101459Y-91073543D01*
X112097882Y-91059264D01*
X112095722Y-91044703D01*
X112095000Y-91030000D01*
X112095000Y-89730000D01*
X112095722Y-89715297D01*
X112097882Y-89700736D01*
X112101459Y-89686457D01*
X112106418Y-89672597D01*
X112112712Y-89659290D01*
X112120280Y-89646664D01*
X112129048Y-89634841D01*
X112138934Y-89623934D01*
X112149841Y-89614048D01*
X112161664Y-89605280D01*
X112174290Y-89597712D01*
X112187597Y-89591418D01*
X112201457Y-89586459D01*
X112215736Y-89582882D01*
X112230297Y-89580722D01*
X112245000Y-89580000D01*
X112545000Y-89580000D01*
X112559703Y-89580722D01*
X112559703Y-89580722D01*
G37*
D16*
X112395000Y-90380000D03*
D11*
G36*
X112559703Y-96780722D02*
G01*
X112574264Y-96782882D01*
X112588543Y-96786459D01*
X112602403Y-96791418D01*
X112615710Y-96797712D01*
X112628336Y-96805280D01*
X112640159Y-96814048D01*
X112651066Y-96823934D01*
X112660952Y-96834841D01*
X112669720Y-96846664D01*
X112677288Y-96859290D01*
X112683582Y-96872597D01*
X112688541Y-96886457D01*
X112692118Y-96900736D01*
X112694278Y-96915297D01*
X112695000Y-96930000D01*
X112695000Y-98230000D01*
X112694278Y-98244703D01*
X112692118Y-98259264D01*
X112688541Y-98273543D01*
X112683582Y-98287403D01*
X112677288Y-98300710D01*
X112669720Y-98313336D01*
X112660952Y-98325159D01*
X112651066Y-98336066D01*
X112640159Y-98345952D01*
X112628336Y-98354720D01*
X112615710Y-98362288D01*
X112602403Y-98368582D01*
X112588543Y-98373541D01*
X112574264Y-98377118D01*
X112559703Y-98379278D01*
X112545000Y-98380000D01*
X112245000Y-98380000D01*
X112230297Y-98379278D01*
X112215736Y-98377118D01*
X112201457Y-98373541D01*
X112187597Y-98368582D01*
X112174290Y-98362288D01*
X112161664Y-98354720D01*
X112149841Y-98345952D01*
X112138934Y-98336066D01*
X112129048Y-98325159D01*
X112120280Y-98313336D01*
X112112712Y-98300710D01*
X112106418Y-98287403D01*
X112101459Y-98273543D01*
X112097882Y-98259264D01*
X112095722Y-98244703D01*
X112095000Y-98230000D01*
X112095000Y-96930000D01*
X112095722Y-96915297D01*
X112097882Y-96900736D01*
X112101459Y-96886457D01*
X112106418Y-96872597D01*
X112112712Y-96859290D01*
X112120280Y-96846664D01*
X112129048Y-96834841D01*
X112138934Y-96823934D01*
X112149841Y-96814048D01*
X112161664Y-96805280D01*
X112174290Y-96797712D01*
X112187597Y-96791418D01*
X112201457Y-96786459D01*
X112215736Y-96782882D01*
X112230297Y-96780722D01*
X112245000Y-96780000D01*
X112545000Y-96780000D01*
X112559703Y-96780722D01*
X112559703Y-96780722D01*
G37*
D16*
X112395000Y-97580000D03*
D11*
G36*
X111289703Y-96780722D02*
G01*
X111304264Y-96782882D01*
X111318543Y-96786459D01*
X111332403Y-96791418D01*
X111345710Y-96797712D01*
X111358336Y-96805280D01*
X111370159Y-96814048D01*
X111381066Y-96823934D01*
X111390952Y-96834841D01*
X111399720Y-96846664D01*
X111407288Y-96859290D01*
X111413582Y-96872597D01*
X111418541Y-96886457D01*
X111422118Y-96900736D01*
X111424278Y-96915297D01*
X111425000Y-96930000D01*
X111425000Y-98230000D01*
X111424278Y-98244703D01*
X111422118Y-98259264D01*
X111418541Y-98273543D01*
X111413582Y-98287403D01*
X111407288Y-98300710D01*
X111399720Y-98313336D01*
X111390952Y-98325159D01*
X111381066Y-98336066D01*
X111370159Y-98345952D01*
X111358336Y-98354720D01*
X111345710Y-98362288D01*
X111332403Y-98368582D01*
X111318543Y-98373541D01*
X111304264Y-98377118D01*
X111289703Y-98379278D01*
X111275000Y-98380000D01*
X110975000Y-98380000D01*
X110960297Y-98379278D01*
X110945736Y-98377118D01*
X110931457Y-98373541D01*
X110917597Y-98368582D01*
X110904290Y-98362288D01*
X110891664Y-98354720D01*
X110879841Y-98345952D01*
X110868934Y-98336066D01*
X110859048Y-98325159D01*
X110850280Y-98313336D01*
X110842712Y-98300710D01*
X110836418Y-98287403D01*
X110831459Y-98273543D01*
X110827882Y-98259264D01*
X110825722Y-98244703D01*
X110825000Y-98230000D01*
X110825000Y-96930000D01*
X110825722Y-96915297D01*
X110827882Y-96900736D01*
X110831459Y-96886457D01*
X110836418Y-96872597D01*
X110842712Y-96859290D01*
X110850280Y-96846664D01*
X110859048Y-96834841D01*
X110868934Y-96823934D01*
X110879841Y-96814048D01*
X110891664Y-96805280D01*
X110904290Y-96797712D01*
X110917597Y-96791418D01*
X110931457Y-96786459D01*
X110945736Y-96782882D01*
X110960297Y-96780722D01*
X110975000Y-96780000D01*
X111275000Y-96780000D01*
X111289703Y-96780722D01*
X111289703Y-96780722D01*
G37*
D16*
X111125000Y-97580000D03*
D11*
G36*
X110019703Y-96780722D02*
G01*
X110034264Y-96782882D01*
X110048543Y-96786459D01*
X110062403Y-96791418D01*
X110075710Y-96797712D01*
X110088336Y-96805280D01*
X110100159Y-96814048D01*
X110111066Y-96823934D01*
X110120952Y-96834841D01*
X110129720Y-96846664D01*
X110137288Y-96859290D01*
X110143582Y-96872597D01*
X110148541Y-96886457D01*
X110152118Y-96900736D01*
X110154278Y-96915297D01*
X110155000Y-96930000D01*
X110155000Y-98230000D01*
X110154278Y-98244703D01*
X110152118Y-98259264D01*
X110148541Y-98273543D01*
X110143582Y-98287403D01*
X110137288Y-98300710D01*
X110129720Y-98313336D01*
X110120952Y-98325159D01*
X110111066Y-98336066D01*
X110100159Y-98345952D01*
X110088336Y-98354720D01*
X110075710Y-98362288D01*
X110062403Y-98368582D01*
X110048543Y-98373541D01*
X110034264Y-98377118D01*
X110019703Y-98379278D01*
X110005000Y-98380000D01*
X109705000Y-98380000D01*
X109690297Y-98379278D01*
X109675736Y-98377118D01*
X109661457Y-98373541D01*
X109647597Y-98368582D01*
X109634290Y-98362288D01*
X109621664Y-98354720D01*
X109609841Y-98345952D01*
X109598934Y-98336066D01*
X109589048Y-98325159D01*
X109580280Y-98313336D01*
X109572712Y-98300710D01*
X109566418Y-98287403D01*
X109561459Y-98273543D01*
X109557882Y-98259264D01*
X109555722Y-98244703D01*
X109555000Y-98230000D01*
X109555000Y-96930000D01*
X109555722Y-96915297D01*
X109557882Y-96900736D01*
X109561459Y-96886457D01*
X109566418Y-96872597D01*
X109572712Y-96859290D01*
X109580280Y-96846664D01*
X109589048Y-96834841D01*
X109598934Y-96823934D01*
X109609841Y-96814048D01*
X109621664Y-96805280D01*
X109634290Y-96797712D01*
X109647597Y-96791418D01*
X109661457Y-96786459D01*
X109675736Y-96782882D01*
X109690297Y-96780722D01*
X109705000Y-96780000D01*
X110005000Y-96780000D01*
X110019703Y-96780722D01*
X110019703Y-96780722D01*
G37*
D16*
X109855000Y-97580000D03*
D11*
G36*
X108749703Y-96780722D02*
G01*
X108764264Y-96782882D01*
X108778543Y-96786459D01*
X108792403Y-96791418D01*
X108805710Y-96797712D01*
X108818336Y-96805280D01*
X108830159Y-96814048D01*
X108841066Y-96823934D01*
X108850952Y-96834841D01*
X108859720Y-96846664D01*
X108867288Y-96859290D01*
X108873582Y-96872597D01*
X108878541Y-96886457D01*
X108882118Y-96900736D01*
X108884278Y-96915297D01*
X108885000Y-96930000D01*
X108885000Y-98230000D01*
X108884278Y-98244703D01*
X108882118Y-98259264D01*
X108878541Y-98273543D01*
X108873582Y-98287403D01*
X108867288Y-98300710D01*
X108859720Y-98313336D01*
X108850952Y-98325159D01*
X108841066Y-98336066D01*
X108830159Y-98345952D01*
X108818336Y-98354720D01*
X108805710Y-98362288D01*
X108792403Y-98368582D01*
X108778543Y-98373541D01*
X108764264Y-98377118D01*
X108749703Y-98379278D01*
X108735000Y-98380000D01*
X108435000Y-98380000D01*
X108420297Y-98379278D01*
X108405736Y-98377118D01*
X108391457Y-98373541D01*
X108377597Y-98368582D01*
X108364290Y-98362288D01*
X108351664Y-98354720D01*
X108339841Y-98345952D01*
X108328934Y-98336066D01*
X108319048Y-98325159D01*
X108310280Y-98313336D01*
X108302712Y-98300710D01*
X108296418Y-98287403D01*
X108291459Y-98273543D01*
X108287882Y-98259264D01*
X108285722Y-98244703D01*
X108285000Y-98230000D01*
X108285000Y-96930000D01*
X108285722Y-96915297D01*
X108287882Y-96900736D01*
X108291459Y-96886457D01*
X108296418Y-96872597D01*
X108302712Y-96859290D01*
X108310280Y-96846664D01*
X108319048Y-96834841D01*
X108328934Y-96823934D01*
X108339841Y-96814048D01*
X108351664Y-96805280D01*
X108364290Y-96797712D01*
X108377597Y-96791418D01*
X108391457Y-96786459D01*
X108405736Y-96782882D01*
X108420297Y-96780722D01*
X108435000Y-96780000D01*
X108735000Y-96780000D01*
X108749703Y-96780722D01*
X108749703Y-96780722D01*
G37*
D16*
X108585000Y-97580000D03*
M02*
