%TF.GenerationSoftware,KiCad,Pcbnew,5.1.4-e60b266~84~ubuntu18.04.1*%
%TF.CreationDate,2019-11-04T19:33:46+01:00*%
%TF.ProjectId,FHSHat,46485348-6174-42e6-9b69-6361645f7063,rev?*%
%TF.SameCoordinates,Original*%
%TF.FileFunction,Legend,Top*%
%TF.FilePolarity,Positive*%
%FSLAX46Y46*%
G04 Gerber Fmt 4.6, Leading zero omitted, Abs format (unit mm)*
G04 Created by KiCad (PCBNEW 5.1.4-e60b266~84~ubuntu18.04.1) date 2019-11-04 19:33:46*
%MOMM*%
%LPD*%
G04 APERTURE LIST*
%ADD10C,0.100000*%
%ADD11C,0.120000*%
%ADD12C,0.150000*%
%ADD13C,0.300000*%
G04 APERTURE END LIST*
D10*
X78546356Y-63817611D02*
X78546356Y-113817611D01*
X78546356Y-63817611D02*
G75*
G02X81546356Y-60817611I3000000J0D01*
G01*
X140546356Y-60817611D02*
X81546356Y-60817611D01*
X140546356Y-60817611D02*
G75*
G02X143546356Y-63817611I0J-3000000D01*
G01*
X143546356Y-113817611D02*
X143546356Y-63817611D01*
X81546356Y-116817611D02*
G75*
G02X78546356Y-113817611I0J3000000D01*
G01*
X81546356Y-116817611D02*
X140546356Y-116817611D01*
X143546351Y-113822847D02*
G75*
G02X140546356Y-116817611I-2999995J5236D01*
G01*
D11*
X87123748Y-87070000D02*
X87646252Y-87070000D01*
X87123748Y-85650000D02*
X87646252Y-85650000D01*
X82288748Y-87070000D02*
X82811252Y-87070000D01*
X82288748Y-85650000D02*
X82811252Y-85650000D01*
X125170000Y-86621252D02*
X125170000Y-86098748D01*
X123750000Y-86621252D02*
X123750000Y-86098748D01*
X119074000Y-92844252D02*
X119074000Y-92321748D01*
X117654000Y-92844252D02*
X117654000Y-92321748D01*
X119074000Y-97162252D02*
X119074000Y-96639748D01*
X117654000Y-97162252D02*
X117654000Y-96639748D01*
X127400000Y-87920000D02*
X127400000Y-81910000D01*
X134220000Y-85670000D02*
X134220000Y-81910000D01*
X127400000Y-81910000D02*
X128660000Y-81910000D01*
X134220000Y-81910000D02*
X132960000Y-81910000D01*
X138770000Y-100410000D02*
X138770000Y-103560000D01*
X138770000Y-94560000D02*
X138770000Y-97710000D01*
X143880000Y-98060000D02*
X143880000Y-100060000D01*
X138170000Y-98710000D02*
X138170000Y-99410000D01*
X139370000Y-98710000D02*
X138170000Y-98710000D01*
X139370000Y-99410000D02*
X139370000Y-98710000D01*
X138170000Y-99410000D02*
X139370000Y-99410000D01*
X138570000Y-98710000D02*
X138970000Y-99410000D01*
X120920000Y-90710000D02*
X120920000Y-107410000D01*
X143620000Y-90710000D02*
X120920000Y-90710000D01*
X143620000Y-107410000D02*
X143620000Y-90710000D01*
X120920000Y-107410000D02*
X143620000Y-107410000D01*
X136745000Y-88590000D02*
X139430000Y-88590000D01*
X136745000Y-86670000D02*
X136745000Y-88590000D01*
X139430000Y-86670000D02*
X136745000Y-86670000D01*
D12*
X124570000Y-78740000D02*
G75*
G03X124570000Y-78740000I-9000000J0D01*
G01*
X105520000Y-78740000D02*
G75*
G03X105520000Y-78740000I-9000000J0D01*
G01*
D11*
X104700000Y-90546422D02*
X104700000Y-91063578D01*
X106120000Y-90546422D02*
X106120000Y-91063578D01*
X116911000Y-102523000D02*
X116911000Y-99838000D01*
X114991000Y-102523000D02*
X116911000Y-102523000D01*
X114991000Y-99838000D02*
X114991000Y-102523000D01*
X136090000Y-77515000D02*
X136090000Y-77915000D01*
X136730000Y-77515000D02*
X136090000Y-77515000D01*
X143070000Y-83535000D02*
X136330000Y-83535000D01*
X143070000Y-77755000D02*
X136330000Y-77755000D01*
X136330000Y-77755000D02*
X136330000Y-83535000D01*
X143070000Y-77755000D02*
X143070000Y-83535000D01*
X141950000Y-77755000D02*
X141950000Y-83535000D01*
X136850000Y-77755000D02*
X136850000Y-83535000D01*
X78940000Y-101010000D02*
X78940000Y-101410000D01*
X79580000Y-101010000D02*
X78940000Y-101010000D01*
X85920000Y-107030000D02*
X79180000Y-107030000D01*
X85920000Y-101250000D02*
X79180000Y-101250000D01*
X79180000Y-101250000D02*
X79180000Y-107030000D01*
X85920000Y-101250000D02*
X85920000Y-107030000D01*
X84800000Y-101250000D02*
X84800000Y-107030000D01*
X79700000Y-101250000D02*
X79700000Y-107030000D01*
X131818748Y-78180000D02*
X132341252Y-78180000D01*
X131818748Y-76760000D02*
X132341252Y-76760000D01*
X104700000Y-94988748D02*
X104700000Y-95511252D01*
X106120000Y-94988748D02*
X106120000Y-95511252D01*
X107688748Y-102310000D02*
X108211252Y-102310000D01*
X107688748Y-100890000D02*
X108211252Y-100890000D01*
X112133748Y-102310000D02*
X112656252Y-102310000D01*
X112133748Y-100890000D02*
X112656252Y-100890000D01*
X115241000Y-96639748D02*
X115241000Y-97162252D01*
X116661000Y-96639748D02*
X116661000Y-97162252D01*
X108025000Y-96727500D02*
X108025000Y-98380000D01*
X107742500Y-96727500D02*
X108025000Y-96727500D01*
X107742500Y-93980000D02*
X107742500Y-96727500D01*
X107742500Y-91232500D02*
X108025000Y-91232500D01*
X107742500Y-93980000D02*
X107742500Y-91232500D01*
X113237500Y-96727500D02*
X112955000Y-96727500D01*
X113237500Y-93980000D02*
X113237500Y-96727500D01*
X113237500Y-91232500D02*
X112955000Y-91232500D01*
X113237500Y-93980000D02*
X113237500Y-91232500D01*
X85575000Y-95130000D02*
X85575000Y-100450000D01*
X94740000Y-97790000D02*
X93710000Y-97790000D01*
X83060000Y-97790000D02*
X84090000Y-97790000D01*
X93710000Y-95130000D02*
X84090000Y-95130000D01*
X93710000Y-100450000D02*
X93710000Y-95130000D01*
X84090000Y-100450000D02*
X93710000Y-100450000D01*
X84090000Y-95130000D02*
X84090000Y-100450000D01*
X84090000Y-88780000D02*
X84090000Y-94100000D01*
X84090000Y-94100000D02*
X93710000Y-94100000D01*
X93710000Y-94100000D02*
X93710000Y-88780000D01*
X93710000Y-88780000D02*
X84090000Y-88780000D01*
X83060000Y-91440000D02*
X84090000Y-91440000D01*
X94740000Y-91440000D02*
X93710000Y-91440000D01*
X85575000Y-88780000D02*
X85575000Y-94100000D01*
X87630000Y-115570000D02*
X97790000Y-115570000D01*
X87630000Y-107950000D02*
X87630000Y-115570000D01*
X97790000Y-107950000D02*
X87630000Y-107950000D01*
X97790000Y-115570000D02*
X97790000Y-107950000D01*
X97790000Y-114300000D02*
X87630000Y-114300000D01*
X135890000Y-114300000D02*
X125730000Y-114300000D01*
X135890000Y-115570000D02*
X135890000Y-107950000D01*
X135890000Y-107950000D02*
X125730000Y-107950000D01*
X125730000Y-107950000D02*
X125730000Y-115570000D01*
X125730000Y-115570000D02*
X135890000Y-115570000D01*
X109970000Y-115950000D02*
X100850000Y-115950000D01*
X109970000Y-104950000D02*
X100850000Y-104950000D01*
X109970000Y-117010000D02*
X100850000Y-117010000D01*
X109970000Y-103890000D02*
X100850000Y-103890000D01*
X100850000Y-103890000D02*
X100850000Y-117010000D01*
X109970000Y-103890000D02*
X109970000Y-117010000D01*
X118860000Y-103890000D02*
X118860000Y-117010000D01*
X109740000Y-103890000D02*
X109740000Y-117010000D01*
X118860000Y-103890000D02*
X109740000Y-103890000D01*
X118860000Y-117010000D02*
X109740000Y-117010000D01*
X118860000Y-104950000D02*
X109740000Y-104950000D01*
X118860000Y-115950000D02*
X109740000Y-115950000D01*
X139970000Y-70380000D02*
X139970000Y-67720000D01*
X139970000Y-70380000D02*
X142570000Y-70380000D01*
X142570000Y-70380000D02*
X142570000Y-67720000D01*
X139970000Y-67720000D02*
X142570000Y-67720000D01*
X137370000Y-67720000D02*
X138700000Y-67720000D01*
X137370000Y-69050000D02*
X137370000Y-67720000D01*
X80140500Y-72263000D02*
X82800500Y-72263000D01*
X80140500Y-72263000D02*
X80140500Y-79943000D01*
X80140500Y-79943000D02*
X82800500Y-79943000D01*
X82800500Y-72263000D02*
X82800500Y-79943000D01*
X82800500Y-69663000D02*
X82800500Y-70993000D01*
X81470500Y-69663000D02*
X82800500Y-69663000D01*
D12*
X87218333Y-85162380D02*
X86885000Y-84686190D01*
X86646904Y-85162380D02*
X86646904Y-84162380D01*
X87027857Y-84162380D01*
X87123095Y-84210000D01*
X87170714Y-84257619D01*
X87218333Y-84352857D01*
X87218333Y-84495714D01*
X87170714Y-84590952D01*
X87123095Y-84638571D01*
X87027857Y-84686190D01*
X86646904Y-84686190D01*
X87789761Y-84590952D02*
X87694523Y-84543333D01*
X87646904Y-84495714D01*
X87599285Y-84400476D01*
X87599285Y-84352857D01*
X87646904Y-84257619D01*
X87694523Y-84210000D01*
X87789761Y-84162380D01*
X87980238Y-84162380D01*
X88075476Y-84210000D01*
X88123095Y-84257619D01*
X88170714Y-84352857D01*
X88170714Y-84400476D01*
X88123095Y-84495714D01*
X88075476Y-84543333D01*
X87980238Y-84590952D01*
X87789761Y-84590952D01*
X87694523Y-84638571D01*
X87646904Y-84686190D01*
X87599285Y-84781428D01*
X87599285Y-84971904D01*
X87646904Y-85067142D01*
X87694523Y-85114761D01*
X87789761Y-85162380D01*
X87980238Y-85162380D01*
X88075476Y-85114761D01*
X88123095Y-85067142D01*
X88170714Y-84971904D01*
X88170714Y-84781428D01*
X88123095Y-84686190D01*
X88075476Y-84638571D01*
X87980238Y-84590952D01*
X82383333Y-85162380D02*
X82050000Y-84686190D01*
X81811904Y-85162380D02*
X81811904Y-84162380D01*
X82192857Y-84162380D01*
X82288095Y-84210000D01*
X82335714Y-84257619D01*
X82383333Y-84352857D01*
X82383333Y-84495714D01*
X82335714Y-84590952D01*
X82288095Y-84638571D01*
X82192857Y-84686190D01*
X81811904Y-84686190D01*
X82716666Y-84162380D02*
X83383333Y-84162380D01*
X82954761Y-85162380D01*
X123262380Y-86526666D02*
X122786190Y-86860000D01*
X123262380Y-87098095D02*
X122262380Y-87098095D01*
X122262380Y-86717142D01*
X122310000Y-86621904D01*
X122357619Y-86574285D01*
X122452857Y-86526666D01*
X122595714Y-86526666D01*
X122690952Y-86574285D01*
X122738571Y-86621904D01*
X122786190Y-86717142D01*
X122786190Y-87098095D01*
X122262380Y-86193333D02*
X122262380Y-85574285D01*
X122643333Y-85907619D01*
X122643333Y-85764761D01*
X122690952Y-85669523D01*
X122738571Y-85621904D01*
X122833809Y-85574285D01*
X123071904Y-85574285D01*
X123167142Y-85621904D01*
X123214761Y-85669523D01*
X123262380Y-85764761D01*
X123262380Y-86050476D01*
X123214761Y-86145714D01*
X123167142Y-86193333D01*
X117166380Y-92749666D02*
X116690190Y-93083000D01*
X117166380Y-93321095D02*
X116166380Y-93321095D01*
X116166380Y-92940142D01*
X116214000Y-92844904D01*
X116261619Y-92797285D01*
X116356857Y-92749666D01*
X116499714Y-92749666D01*
X116594952Y-92797285D01*
X116642571Y-92844904D01*
X116690190Y-92940142D01*
X116690190Y-93321095D01*
X116261619Y-92368714D02*
X116214000Y-92321095D01*
X116166380Y-92225857D01*
X116166380Y-91987761D01*
X116214000Y-91892523D01*
X116261619Y-91844904D01*
X116356857Y-91797285D01*
X116452095Y-91797285D01*
X116594952Y-91844904D01*
X117166380Y-92416333D01*
X117166380Y-91797285D01*
X117166380Y-97067666D02*
X116690190Y-97401000D01*
X117166380Y-97639095D02*
X116166380Y-97639095D01*
X116166380Y-97258142D01*
X116214000Y-97162904D01*
X116261619Y-97115285D01*
X116356857Y-97067666D01*
X116499714Y-97067666D01*
X116594952Y-97115285D01*
X116642571Y-97162904D01*
X116690190Y-97258142D01*
X116690190Y-97639095D01*
X117166380Y-96115285D02*
X117166380Y-96686714D01*
X117166380Y-96401000D02*
X116166380Y-96401000D01*
X116309238Y-96496238D01*
X116404476Y-96591476D01*
X116452095Y-96686714D01*
X126857619Y-83915238D02*
X126810000Y-84010476D01*
X126714761Y-84105714D01*
X126571904Y-84248571D01*
X126524285Y-84343809D01*
X126524285Y-84439047D01*
X126762380Y-84391428D02*
X126714761Y-84486666D01*
X126619523Y-84581904D01*
X126429047Y-84629523D01*
X126095714Y-84629523D01*
X125905238Y-84581904D01*
X125810000Y-84486666D01*
X125762380Y-84391428D01*
X125762380Y-84200952D01*
X125810000Y-84105714D01*
X125905238Y-84010476D01*
X126095714Y-83962857D01*
X126429047Y-83962857D01*
X126619523Y-84010476D01*
X126714761Y-84105714D01*
X126762380Y-84200952D01*
X126762380Y-84391428D01*
X126762380Y-83010476D02*
X126762380Y-83581904D01*
X126762380Y-83296190D02*
X125762380Y-83296190D01*
X125905238Y-83391428D01*
X126000476Y-83486666D01*
X126048095Y-83581904D01*
X137691904Y-86432380D02*
X137691904Y-85432380D01*
X137930000Y-85432380D01*
X138072857Y-85480000D01*
X138168095Y-85575238D01*
X138215714Y-85670476D01*
X138263333Y-85860952D01*
X138263333Y-86003809D01*
X138215714Y-86194285D01*
X138168095Y-86289523D01*
X138072857Y-86384761D01*
X137930000Y-86432380D01*
X137691904Y-86432380D01*
X139215714Y-86432380D02*
X138644285Y-86432380D01*
X138930000Y-86432380D02*
X138930000Y-85432380D01*
X138834761Y-85575238D01*
X138739523Y-85670476D01*
X138644285Y-85718095D01*
X115403333Y-79097142D02*
X115355714Y-79144761D01*
X115212857Y-79192380D01*
X115117619Y-79192380D01*
X114974761Y-79144761D01*
X114879523Y-79049523D01*
X114831904Y-78954285D01*
X114784285Y-78763809D01*
X114784285Y-78620952D01*
X114831904Y-78430476D01*
X114879523Y-78335238D01*
X114974761Y-78240000D01*
X115117619Y-78192380D01*
X115212857Y-78192380D01*
X115355714Y-78240000D01*
X115403333Y-78287619D01*
X115784285Y-78287619D02*
X115831904Y-78240000D01*
X115927142Y-78192380D01*
X116165238Y-78192380D01*
X116260476Y-78240000D01*
X116308095Y-78287619D01*
X116355714Y-78382857D01*
X116355714Y-78478095D01*
X116308095Y-78620952D01*
X115736666Y-79192380D01*
X116355714Y-79192380D01*
D13*
X107808095Y-78882857D02*
X109331904Y-78882857D01*
X108570000Y-79644761D02*
X108570000Y-78120952D01*
D12*
X96353333Y-79097142D02*
X96305714Y-79144761D01*
X96162857Y-79192380D01*
X96067619Y-79192380D01*
X95924761Y-79144761D01*
X95829523Y-79049523D01*
X95781904Y-78954285D01*
X95734285Y-78763809D01*
X95734285Y-78620952D01*
X95781904Y-78430476D01*
X95829523Y-78335238D01*
X95924761Y-78240000D01*
X96067619Y-78192380D01*
X96162857Y-78192380D01*
X96305714Y-78240000D01*
X96353333Y-78287619D01*
X97305714Y-79192380D02*
X96734285Y-79192380D01*
X97020000Y-79192380D02*
X97020000Y-78192380D01*
X96924761Y-78335238D01*
X96829523Y-78430476D01*
X96734285Y-78478095D01*
D13*
X88758095Y-78882857D02*
X90281904Y-78882857D01*
X89520000Y-79644761D02*
X89520000Y-78120952D01*
D12*
X81338095Y-64852380D02*
X81338095Y-63852380D01*
X81338095Y-64328571D02*
X81909523Y-64328571D01*
X81909523Y-64852380D02*
X81909523Y-63852380D01*
X82909523Y-64852380D02*
X82338095Y-64852380D01*
X82623809Y-64852380D02*
X82623809Y-63852380D01*
X82528571Y-63995238D01*
X82433333Y-64090476D01*
X82338095Y-64138095D01*
X139338095Y-64872380D02*
X139338095Y-63872380D01*
X139338095Y-64348571D02*
X139909523Y-64348571D01*
X139909523Y-64872380D02*
X139909523Y-63872380D01*
X140338095Y-63967619D02*
X140385714Y-63920000D01*
X140480952Y-63872380D01*
X140719047Y-63872380D01*
X140814285Y-63920000D01*
X140861904Y-63967619D01*
X140909523Y-64062857D01*
X140909523Y-64158095D01*
X140861904Y-64300952D01*
X140290476Y-64872380D01*
X140909523Y-64872380D01*
X81338095Y-113862380D02*
X81338095Y-112862380D01*
X81338095Y-113338571D02*
X81909523Y-113338571D01*
X81909523Y-113862380D02*
X81909523Y-112862380D01*
X82290476Y-112862380D02*
X82909523Y-112862380D01*
X82576190Y-113243333D01*
X82719047Y-113243333D01*
X82814285Y-113290952D01*
X82861904Y-113338571D01*
X82909523Y-113433809D01*
X82909523Y-113671904D01*
X82861904Y-113767142D01*
X82814285Y-113814761D01*
X82719047Y-113862380D01*
X82433333Y-113862380D01*
X82338095Y-113814761D01*
X82290476Y-113767142D01*
X139328095Y-113852380D02*
X139328095Y-112852380D01*
X139328095Y-113328571D02*
X139899523Y-113328571D01*
X139899523Y-113852380D02*
X139899523Y-112852380D01*
X140804285Y-113185714D02*
X140804285Y-113852380D01*
X140566190Y-112804761D02*
X140328095Y-113519047D01*
X140947142Y-113519047D01*
X107417142Y-90971666D02*
X107464761Y-91019285D01*
X107512380Y-91162142D01*
X107512380Y-91257380D01*
X107464761Y-91400238D01*
X107369523Y-91495476D01*
X107274285Y-91543095D01*
X107083809Y-91590714D01*
X106940952Y-91590714D01*
X106750476Y-91543095D01*
X106655238Y-91495476D01*
X106560000Y-91400238D01*
X106512380Y-91257380D01*
X106512380Y-91162142D01*
X106560000Y-91019285D01*
X106607619Y-90971666D01*
X106512380Y-90638333D02*
X106512380Y-90019285D01*
X106893333Y-90352619D01*
X106893333Y-90209761D01*
X106940952Y-90114523D01*
X106988571Y-90066904D01*
X107083809Y-90019285D01*
X107321904Y-90019285D01*
X107417142Y-90066904D01*
X107464761Y-90114523D01*
X107512380Y-90209761D01*
X107512380Y-90495476D01*
X107464761Y-90590714D01*
X107417142Y-90638333D01*
X114753380Y-101576095D02*
X113753380Y-101576095D01*
X113753380Y-101338000D01*
X113801000Y-101195142D01*
X113896238Y-101099904D01*
X113991476Y-101052285D01*
X114181952Y-101004666D01*
X114324809Y-101004666D01*
X114515285Y-101052285D01*
X114610523Y-101099904D01*
X114705761Y-101195142D01*
X114753380Y-101338000D01*
X114753380Y-101576095D01*
X114086714Y-100147523D02*
X114753380Y-100147523D01*
X113705761Y-100385619D02*
X114420047Y-100623714D01*
X114420047Y-100004666D01*
X139152380Y-76533333D02*
X139866666Y-76533333D01*
X140009523Y-76580952D01*
X140104761Y-76676190D01*
X140152380Y-76819047D01*
X140152380Y-76914285D01*
X139247619Y-76104761D02*
X139200000Y-76057142D01*
X139152380Y-75961904D01*
X139152380Y-75723809D01*
X139200000Y-75628571D01*
X139247619Y-75580952D01*
X139342857Y-75533333D01*
X139438095Y-75533333D01*
X139580952Y-75580952D01*
X140152380Y-76152380D01*
X140152380Y-75533333D01*
X86372380Y-104473333D02*
X87086666Y-104473333D01*
X87229523Y-104520952D01*
X87324761Y-104616190D01*
X87372380Y-104759047D01*
X87372380Y-104854285D01*
X86372380Y-104092380D02*
X86372380Y-103473333D01*
X86753333Y-103806666D01*
X86753333Y-103663809D01*
X86800952Y-103568571D01*
X86848571Y-103520952D01*
X86943809Y-103473333D01*
X87181904Y-103473333D01*
X87277142Y-103520952D01*
X87324761Y-103568571D01*
X87372380Y-103663809D01*
X87372380Y-103949523D01*
X87324761Y-104044761D01*
X87277142Y-104092380D01*
X131913333Y-76272380D02*
X131580000Y-75796190D01*
X131341904Y-76272380D02*
X131341904Y-75272380D01*
X131722857Y-75272380D01*
X131818095Y-75320000D01*
X131865714Y-75367619D01*
X131913333Y-75462857D01*
X131913333Y-75605714D01*
X131865714Y-75700952D01*
X131818095Y-75748571D01*
X131722857Y-75796190D01*
X131341904Y-75796190D01*
X132770476Y-75605714D02*
X132770476Y-76272380D01*
X132532380Y-75224761D02*
X132294285Y-75939047D01*
X132913333Y-75939047D01*
X107512380Y-95416666D02*
X107036190Y-95750000D01*
X107512380Y-95988095D02*
X106512380Y-95988095D01*
X106512380Y-95607142D01*
X106560000Y-95511904D01*
X106607619Y-95464285D01*
X106702857Y-95416666D01*
X106845714Y-95416666D01*
X106940952Y-95464285D01*
X106988571Y-95511904D01*
X107036190Y-95607142D01*
X107036190Y-95988095D01*
X107512380Y-94940476D02*
X107512380Y-94750000D01*
X107464761Y-94654761D01*
X107417142Y-94607142D01*
X107274285Y-94511904D01*
X107083809Y-94464285D01*
X106702857Y-94464285D01*
X106607619Y-94511904D01*
X106560000Y-94559523D01*
X106512380Y-94654761D01*
X106512380Y-94845238D01*
X106560000Y-94940476D01*
X106607619Y-94988095D01*
X106702857Y-95035714D01*
X106940952Y-95035714D01*
X107036190Y-94988095D01*
X107083809Y-94940476D01*
X107131428Y-94845238D01*
X107131428Y-94654761D01*
X107083809Y-94559523D01*
X107036190Y-94511904D01*
X106940952Y-94464285D01*
X107307142Y-100402380D02*
X106973809Y-99926190D01*
X106735714Y-100402380D02*
X106735714Y-99402380D01*
X107116666Y-99402380D01*
X107211904Y-99450000D01*
X107259523Y-99497619D01*
X107307142Y-99592857D01*
X107307142Y-99735714D01*
X107259523Y-99830952D01*
X107211904Y-99878571D01*
X107116666Y-99926190D01*
X106735714Y-99926190D01*
X108259523Y-100402380D02*
X107688095Y-100402380D01*
X107973809Y-100402380D02*
X107973809Y-99402380D01*
X107878571Y-99545238D01*
X107783333Y-99640476D01*
X107688095Y-99688095D01*
X108878571Y-99402380D02*
X108973809Y-99402380D01*
X109069047Y-99450000D01*
X109116666Y-99497619D01*
X109164285Y-99592857D01*
X109211904Y-99783333D01*
X109211904Y-100021428D01*
X109164285Y-100211904D01*
X109116666Y-100307142D01*
X109069047Y-100354761D01*
X108973809Y-100402380D01*
X108878571Y-100402380D01*
X108783333Y-100354761D01*
X108735714Y-100307142D01*
X108688095Y-100211904D01*
X108640476Y-100021428D01*
X108640476Y-99783333D01*
X108688095Y-99592857D01*
X108735714Y-99497619D01*
X108783333Y-99450000D01*
X108878571Y-99402380D01*
X111752142Y-100402380D02*
X111418809Y-99926190D01*
X111180714Y-100402380D02*
X111180714Y-99402380D01*
X111561666Y-99402380D01*
X111656904Y-99450000D01*
X111704523Y-99497619D01*
X111752142Y-99592857D01*
X111752142Y-99735714D01*
X111704523Y-99830952D01*
X111656904Y-99878571D01*
X111561666Y-99926190D01*
X111180714Y-99926190D01*
X112704523Y-100402380D02*
X112133095Y-100402380D01*
X112418809Y-100402380D02*
X112418809Y-99402380D01*
X112323571Y-99545238D01*
X112228333Y-99640476D01*
X112133095Y-99688095D01*
X113656904Y-100402380D02*
X113085476Y-100402380D01*
X113371190Y-100402380D02*
X113371190Y-99402380D01*
X113275952Y-99545238D01*
X113180714Y-99640476D01*
X113085476Y-99688095D01*
X118053380Y-97543857D02*
X117577190Y-97877190D01*
X118053380Y-98115285D02*
X117053380Y-98115285D01*
X117053380Y-97734333D01*
X117101000Y-97639095D01*
X117148619Y-97591476D01*
X117243857Y-97543857D01*
X117386714Y-97543857D01*
X117481952Y-97591476D01*
X117529571Y-97639095D01*
X117577190Y-97734333D01*
X117577190Y-98115285D01*
X118053380Y-96591476D02*
X118053380Y-97162904D01*
X118053380Y-96877190D02*
X117053380Y-96877190D01*
X117196238Y-96972428D01*
X117291476Y-97067666D01*
X117339095Y-97162904D01*
X117148619Y-96210523D02*
X117101000Y-96162904D01*
X117053380Y-96067666D01*
X117053380Y-95829571D01*
X117101000Y-95734333D01*
X117148619Y-95686714D01*
X117243857Y-95639095D01*
X117339095Y-95639095D01*
X117481952Y-95686714D01*
X118053380Y-96258142D01*
X118053380Y-95639095D01*
X106352380Y-94741904D02*
X107161904Y-94741904D01*
X107257142Y-94694285D01*
X107304761Y-94646666D01*
X107352380Y-94551428D01*
X107352380Y-94360952D01*
X107304761Y-94265714D01*
X107257142Y-94218095D01*
X107161904Y-94170476D01*
X106352380Y-94170476D01*
X107352380Y-93170476D02*
X107352380Y-93741904D01*
X107352380Y-93456190D02*
X106352380Y-93456190D01*
X106495238Y-93551428D01*
X106590476Y-93646666D01*
X106638095Y-93741904D01*
X88161904Y-96972380D02*
X88161904Y-95972380D01*
X88400000Y-95972380D01*
X88542857Y-96020000D01*
X88638095Y-96115238D01*
X88685714Y-96210476D01*
X88733333Y-96400952D01*
X88733333Y-96543809D01*
X88685714Y-96734285D01*
X88638095Y-96829523D01*
X88542857Y-96924761D01*
X88400000Y-96972380D01*
X88161904Y-96972380D01*
X89114285Y-96067619D02*
X89161904Y-96020000D01*
X89257142Y-95972380D01*
X89495238Y-95972380D01*
X89590476Y-96020000D01*
X89638095Y-96067619D01*
X89685714Y-96162857D01*
X89685714Y-96258095D01*
X89638095Y-96400952D01*
X89066666Y-96972380D01*
X89685714Y-96972380D01*
X88161904Y-90622380D02*
X88161904Y-89622380D01*
X88400000Y-89622380D01*
X88542857Y-89670000D01*
X88638095Y-89765238D01*
X88685714Y-89860476D01*
X88733333Y-90050952D01*
X88733333Y-90193809D01*
X88685714Y-90384285D01*
X88638095Y-90479523D01*
X88542857Y-90574761D01*
X88400000Y-90622380D01*
X88161904Y-90622380D01*
X89066666Y-89622380D02*
X89685714Y-89622380D01*
X89352380Y-90003333D01*
X89495238Y-90003333D01*
X89590476Y-90050952D01*
X89638095Y-90098571D01*
X89685714Y-90193809D01*
X89685714Y-90431904D01*
X89638095Y-90527142D01*
X89590476Y-90574761D01*
X89495238Y-90622380D01*
X89209523Y-90622380D01*
X89114285Y-90574761D01*
X89066666Y-90527142D01*
X86026666Y-107402380D02*
X86026666Y-108116666D01*
X85979047Y-108259523D01*
X85883809Y-108354761D01*
X85740952Y-108402380D01*
X85645714Y-108402380D01*
X87026666Y-108402380D02*
X86455238Y-108402380D01*
X86740952Y-108402380D02*
X86740952Y-107402380D01*
X86645714Y-107545238D01*
X86550476Y-107640476D01*
X86455238Y-107688095D01*
X122856666Y-112482380D02*
X122856666Y-113196666D01*
X122809047Y-113339523D01*
X122713809Y-113434761D01*
X122570952Y-113482380D01*
X122475714Y-113482380D01*
X123761428Y-112815714D02*
X123761428Y-113482380D01*
X123523333Y-112434761D02*
X123285238Y-113149047D01*
X123904285Y-113149047D01*
X105862380Y-110616666D02*
X105386190Y-110950000D01*
X105862380Y-111188095D02*
X104862380Y-111188095D01*
X104862380Y-110807142D01*
X104910000Y-110711904D01*
X104957619Y-110664285D01*
X105052857Y-110616666D01*
X105195714Y-110616666D01*
X105290952Y-110664285D01*
X105338571Y-110711904D01*
X105386190Y-110807142D01*
X105386190Y-111188095D01*
X104862380Y-109711904D02*
X104862380Y-110188095D01*
X105338571Y-110235714D01*
X105290952Y-110188095D01*
X105243333Y-110092857D01*
X105243333Y-109854761D01*
X105290952Y-109759523D01*
X105338571Y-109711904D01*
X105433809Y-109664285D01*
X105671904Y-109664285D01*
X105767142Y-109711904D01*
X105814761Y-109759523D01*
X105862380Y-109854761D01*
X105862380Y-110092857D01*
X105814761Y-110188095D01*
X105767142Y-110235714D01*
X114752380Y-110616666D02*
X114276190Y-110950000D01*
X114752380Y-111188095D02*
X113752380Y-111188095D01*
X113752380Y-110807142D01*
X113800000Y-110711904D01*
X113847619Y-110664285D01*
X113942857Y-110616666D01*
X114085714Y-110616666D01*
X114180952Y-110664285D01*
X114228571Y-110711904D01*
X114276190Y-110807142D01*
X114276190Y-111188095D01*
X113752380Y-109759523D02*
X113752380Y-109950000D01*
X113800000Y-110045238D01*
X113847619Y-110092857D01*
X113990476Y-110188095D01*
X114180952Y-110235714D01*
X114561904Y-110235714D01*
X114657142Y-110188095D01*
X114704761Y-110140476D01*
X114752380Y-110045238D01*
X114752380Y-109854761D01*
X114704761Y-109759523D01*
X114657142Y-109711904D01*
X114561904Y-109664285D01*
X114323809Y-109664285D01*
X114228571Y-109711904D01*
X114180952Y-109759523D01*
X114133333Y-109854761D01*
X114133333Y-110045238D01*
X114180952Y-110140476D01*
X114228571Y-110188095D01*
X114323809Y-110235714D01*
X135382380Y-69383333D02*
X136096666Y-69383333D01*
X136239523Y-69430952D01*
X136334761Y-69526190D01*
X136382380Y-69669047D01*
X136382380Y-69764285D01*
X135382380Y-68430952D02*
X135382380Y-68907142D01*
X135858571Y-68954761D01*
X135810952Y-68907142D01*
X135763333Y-68811904D01*
X135763333Y-68573809D01*
X135810952Y-68478571D01*
X135858571Y-68430952D01*
X135953809Y-68383333D01*
X136191904Y-68383333D01*
X136287142Y-68430952D01*
X136334761Y-68478571D01*
X136382380Y-68573809D01*
X136382380Y-68811904D01*
X136334761Y-68907142D01*
X136287142Y-68954761D01*
X81137166Y-67675380D02*
X81137166Y-68389666D01*
X81089547Y-68532523D01*
X80994309Y-68627761D01*
X80851452Y-68675380D01*
X80756214Y-68675380D01*
X82041928Y-67675380D02*
X81851452Y-67675380D01*
X81756214Y-67723000D01*
X81708595Y-67770619D01*
X81613357Y-67913476D01*
X81565738Y-68103952D01*
X81565738Y-68484904D01*
X81613357Y-68580142D01*
X81660976Y-68627761D01*
X81756214Y-68675380D01*
X81946690Y-68675380D01*
X82041928Y-68627761D01*
X82089547Y-68580142D01*
X82137166Y-68484904D01*
X82137166Y-68246809D01*
X82089547Y-68151571D01*
X82041928Y-68103952D01*
X81946690Y-68056333D01*
X81756214Y-68056333D01*
X81660976Y-68103952D01*
X81613357Y-68151571D01*
X81565738Y-68246809D01*
M02*
