M48
; DRILL file {KiCad 5.1.4-e60b266~84~ubuntu18.04.1} date Mo 04 Nov 2019 19:32:15 CET
; FORMAT={-:-/ absolute / inch / decimal}
; #@! TF.CreationDate,2019-11-04T19:32:15+01:00
; #@! TF.GenerationSoftware,Kicad,Pcbnew,5.1.4-e60b266~84~ubuntu18.04.1
; #@! TF.FileFunction,Plated,1,2,PTH
FMAT,2
INCH
T1C0.0079
T2C0.0157
T3C0.0394
T4C0.0433
T5C0.0472
T6C0.0512
T7C0.0598
T8C0.0630
%
G90
G05
T1
X3.2Y-3.275
X3.375Y-3.1
X3.4Y-3.2
X3.42Y-2.995
X3.5225Y-2.8281
X3.545Y-3.27
X4.145Y-3.27
X4.145Y-4.0
X4.225Y-3.64
X4.25Y-2.765
X4.25Y-3.405
X4.295Y-3.36
X4.325Y-3.44
X4.375Y-3.36
X4.425Y-3.405
X4.425Y-3.685
X4.48Y-2.6717
X4.48Y-3.44
X4.54Y-3.64
X4.615Y-3.685
X4.77Y-2.78
X4.7937Y-4.3
X4.8Y-3.95
X4.9Y-2.725
X4.9Y-3.3596
X5.0Y-3.35
X5.05Y-3.5
X5.135Y-3.35
X5.275Y-3.1
T2
X4.8Y-3.95
T3
X5.4606Y-2.7185
X5.5606Y-2.7185
X3.2075Y-2.795
X3.2075Y-2.895
X3.2075Y-2.995
X3.2075Y-3.095
X3.422Y-2.4823
X3.422Y-2.5823
X3.522Y-2.4823
X3.522Y-2.5823
X3.622Y-2.4823
X3.622Y-2.5823
X3.722Y-2.4823
X3.722Y-2.5823
X3.822Y-2.4823
X3.822Y-2.5823
X3.922Y-2.4823
X3.922Y-2.5823
X4.022Y-2.4823
X4.022Y-2.5823
X4.122Y-2.4823
X4.122Y-2.5823
X4.222Y-2.4823
X4.222Y-2.5823
X4.322Y-2.4823
X4.322Y-2.5823
X4.422Y-2.4823
X4.422Y-2.5823
X4.522Y-2.4823
X4.522Y-2.5823
X4.622Y-2.4823
X4.622Y-2.5823
X4.722Y-2.4823
X4.722Y-2.5823
X4.822Y-2.4823
X4.822Y-2.5823
X4.922Y-2.4823
X4.922Y-2.5823
X5.022Y-2.4823
X5.022Y-2.5823
X5.122Y-2.4823
X5.122Y-2.5823
X5.222Y-2.4823
X5.222Y-2.5823
X5.322Y-2.4823
X5.322Y-2.5823
T4
X5.5Y-3.125
X5.5Y-3.225
X3.25Y-4.05
X3.25Y-4.15
T5
X4.15Y-4.25
X4.15Y-4.4469
X4.3925Y-3.1
X4.7075Y-3.1
X4.5Y-4.25
X4.5Y-4.4469
X3.6425Y-3.1
X3.9575Y-3.1
T6
X4.9909Y-3.6638
X4.9909Y-4.1362
X5.4713Y-3.6638
X5.4713Y-4.1362
X5.55Y-3.9
T7
X5.05Y-4.4
X5.25Y-4.4
X3.55Y-4.4
X3.75Y-4.4
T8
X3.2Y-3.85
X3.8Y-3.85
X3.2Y-3.6
X3.8Y-3.6
T0
M30
